<svg width="392" height="264" viewBox="0 0 392 264" fill="none" xmlns="http://www.w3.org/2000/svg">
<rect width="392" height="264" rx="16" fill="#EDF1FF"/>
<rect x="68.6582" y="60" width="177" height="56" rx="28" fill="white"/>
<rect x="80.6582" y="68" width="40" height="40" rx="20" fill="#CDD1D5"/>
<path d="M100.696 76.7471C107.051 76.7471 112.203 81.8991 112.203 88.2539C112.203 94.6086 107.051 99.7598 100.696 99.7598C100.537 99.7598 100.379 99.7554 100.222 99.749V99.7607H88.7148L92.4639 96.2891C90.4394 94.2152 89.1905 91.381 89.1904 88.2539C89.1904 81.8992 94.3416 76.7472 100.696 76.7471Z" fill="white"/>
<path d="M98.8945 86.948C98.8945 86.5277 99.0477 86.1643 99.3541 85.858C99.6604 85.5516 100.027 85.3984 100.455 85.3984C100.889 85.3984 101.26 85.5516 101.566 85.858C101.873 86.1572 102.026 86.5241 102.026 86.9587C102.026 87.3933 101.873 87.7637 101.566 88.0701C101.267 88.3764 100.9 88.5296 100.465 88.5296C100.031 88.5296 99.6604 88.3764 99.3541 88.0701C99.0477 87.7637 98.8945 87.3897 98.8945 86.948Z" fill="#CDD1D5"/>
<path d="M105.527 86.948C105.527 86.5277 105.681 86.1643 105.987 85.858C106.293 85.5516 106.66 85.3984 107.088 85.3984C107.522 85.3984 107.893 85.5516 108.199 85.858C108.505 86.1572 108.659 86.5241 108.659 86.9587C108.659 87.3933 108.505 87.7637 108.199 88.0701C107.9 88.3764 107.533 88.5296 107.098 88.5296C106.664 88.5296 106.293 88.3764 105.987 88.0701C105.681 87.7637 105.527 87.3897 105.527 86.948Z" fill="#CDD1D5"/>
<path d="M137.846 85.5156V87.0469H136.174V91.4531C136.174 92.2656 136.58 92.4375 137.08 92.4375C137.314 92.4375 137.705 92.4219 137.955 92.4062V94.0312C137.721 94.0781 137.33 94.1094 136.83 94.1094C135.33 94.1094 134.174 93.375 134.189 91.7812V87.0469H132.971V85.5156H134.189V83.4844H136.174V85.5156H137.846ZM138.986 91.6094C138.986 89.7031 140.564 89.1406 142.143 89.0469C142.729 89.0078 143.947 88.9375 144.314 88.9219V88.25C144.314 87.4062 143.768 86.9219 142.783 86.9219C141.893 86.9219 141.346 87.3281 141.189 87.9375H139.268C139.408 86.5 140.705 85.4062 142.83 85.4062C144.439 85.4062 146.299 86.0625 146.299 88.3281V94H144.393V92.8281H144.33C143.955 93.5469 143.158 94.1719 141.83 94.1719C140.205 94.1719 138.986 93.2812 138.986 91.6094ZM140.908 91.5938C140.908 92.3281 141.502 92.7031 142.346 92.7031C143.549 92.7031 144.33 91.9062 144.33 90.9531V90.25L142.455 90.375C141.502 90.4531 140.908 90.8438 140.908 91.5938ZM151.877 94.1719C149.346 94.1719 147.814 92.3594 147.814 89.7969C147.814 87.2031 149.393 85.4062 151.877 85.4062C153.939 85.4062 155.377 86.6094 155.518 88.4375H153.611C153.455 87.625 152.861 87 151.893 87C150.658 87 149.83 88.0469 149.83 89.75C149.83 91.5 150.643 92.5469 151.893 92.5469C152.783 92.5469 153.439 92.0312 153.611 91.1094H155.518C155.361 92.9062 154.002 94.1719 151.877 94.1719ZM157.018 94V82.6875H159.018V88.9219H159.158L162.205 85.5156H164.533L161.252 89.1719L164.736 94H162.361L159.752 90.3594L159.018 91.1406V94H157.018ZM165.721 94V85.5156H167.721V94H165.721ZM166.736 84.3125C166.111 84.3125 165.58 83.8281 165.58 83.2188C165.58 82.625 166.111 82.1406 166.736 82.1406C167.377 82.1406 167.893 82.625 167.893 83.2188C167.893 83.8281 167.377 84.3125 166.736 84.3125ZM173.861 85.5156V87.0469H172.189V91.4531C172.189 92.2656 172.596 92.4375 173.096 92.4375C173.33 92.4375 173.721 92.4219 173.971 92.4062V94.0312C173.736 94.0781 173.346 94.1094 172.846 94.1094C171.346 94.1094 170.189 93.375 170.205 91.7812V87.0469H168.986V85.5156H170.205V83.4844H172.189V85.5156H173.861ZM180.814 90.4375V85.5156H182.799V94H180.877V92.5H180.783C180.393 93.4375 179.502 94.1094 178.236 94.1094C176.564 94.1094 175.408 92.9531 175.393 90.9219V85.5156H177.393V90.6094C177.393 91.6875 178.033 92.375 179.002 92.375C179.877 92.375 180.814 91.7344 180.814 90.4375ZM189.518 87.9375C189.393 87.2969 188.861 86.8906 188.018 86.8906C187.158 86.8906 186.533 87.3125 186.549 87.8906C186.533 88.3281 186.893 88.6562 187.752 88.8594L189.189 89.1562C190.799 89.5156 191.564 90.25 191.58 91.4688C191.564 93.0625 190.174 94.1719 187.955 94.1719C185.799 94.1719 184.518 93.2031 184.314 91.5781H186.346C186.471 92.2969 187.033 92.6562 187.955 92.6562C188.908 92.6562 189.549 92.2656 189.549 91.6406C189.549 91.1562 189.158 90.8438 188.314 90.6562L186.955 90.3594C185.377 90.0469 184.564 89.2188 184.564 88C184.564 86.4375 185.908 85.4062 187.986 85.4062C190.018 85.4062 191.268 86.3906 191.408 87.9375H189.518ZM196.861 94.1719C194.299 94.1719 192.736 92.4688 192.736 89.8125C192.736 87.1875 194.33 85.4062 196.752 85.4062C198.83 85.4062 200.627 86.7031 200.627 89.6875V90.3125H194.705C194.729 91.7578 195.58 92.6094 196.877 92.6094C197.752 92.6094 198.346 92.2344 198.596 91.7344H200.549C200.189 93.2031 198.83 94.1719 196.861 94.1719ZM194.721 88.9531H198.721C198.705 87.7969 197.939 86.9531 196.783 86.9531C195.58 86.9531 194.783 87.8672 194.721 88.9531ZM202.174 94V85.5156H204.111V86.9219H204.205C204.502 85.9531 205.33 85.3906 206.299 85.3906C206.518 85.3906 206.83 85.4062 207.018 85.4375V87.2812C206.846 87.2188 206.424 87.1562 206.096 87.1562C204.986 87.1562 204.174 87.9219 204.174 89V94H202.174Z" fill="#1F2124"/>
<path d="M230.658 81.9346C230.66 81.691 230.462 81.4908 230.219 81.4903C224.382 81.4777 222.097 83.6466 221.722 88.7097C221.72 88.7431 221.692 88.77 221.658 88.77C221.625 88.77 221.597 88.7431 221.594 88.7097C221.219 83.6466 218.934 81.4777 213.098 81.4903C212.854 81.4908 212.656 81.691 212.658 81.9346C212.703 87.8767 214.753 90.4615 220.74 90.5791C220.75 90.5793 220.758 90.5872 220.758 90.5969V93.6104C220.758 94.1075 221.161 94.5105 221.658 94.5105C222.155 94.5105 222.558 94.1075 222.558 93.6104V90.5969C222.558 90.5872 222.566 90.5793 222.576 90.5791C228.563 90.4615 230.613 87.8767 230.658 81.9346Z" fill="#7192FF"/>
<rect x="271.342" y="68" width="52" height="40" rx="20" fill="#7192FF"/>
<path d="M295.576 91.5938H293.826V81.2812H295.576V91.5938ZM283.826 88.2656C284.566 88.0052 285.196 87.6276 285.717 87.1328C286.238 86.6328 286.628 86.0651 286.889 85.4297C287.154 84.7891 287.285 84.125 287.279 83.4375V82.0625H289.076V83.4375C289.071 84.1042 289.196 84.7396 289.451 85.3438C289.712 85.9479 290.097 86.4844 290.607 86.9531C291.118 87.4167 291.738 87.7708 292.467 88.0156L291.576 89.3906C290.785 89.1146 290.102 88.7083 289.529 88.1719C288.956 87.6302 288.511 86.9922 288.193 86.2578C287.876 87.0495 287.423 87.737 286.834 88.3203C286.245 88.9036 285.545 89.3438 284.732 89.6406L283.826 88.2656ZM286.232 90.6094H287.982V93.7031H295.967V95.1094H286.232V90.6094ZM309.404 88.8438H307.654V81.2656H309.404V88.8438ZM297.889 85.2031C297.889 84.5625 298.053 83.9896 298.381 83.4844C298.714 82.9792 299.17 82.5885 299.748 82.3125C300.326 82.0312 300.977 81.8906 301.701 81.8906C302.42 81.8906 303.068 82.0312 303.646 82.3125C304.225 82.5885 304.678 82.9792 305.006 83.4844C305.334 83.9896 305.498 84.5625 305.498 85.2031C305.498 85.8385 305.334 86.4062 305.006 86.9062C304.678 87.401 304.225 87.7891 303.646 88.0703C303.068 88.3464 302.42 88.4844 301.701 88.4844C300.977 88.4844 300.326 88.3464 299.748 88.0703C299.17 87.7891 298.714 87.401 298.381 86.9062C298.053 86.4062 297.889 85.8385 297.889 85.2031ZM299.592 85.2031C299.592 85.5729 299.68 85.8984 299.857 86.1797C300.035 86.4609 300.282 86.6797 300.6 86.8359C300.923 86.987 301.29 87.0625 301.701 87.0625C302.102 87.0625 302.462 86.987 302.779 86.8359C303.097 86.6797 303.344 86.4609 303.521 86.1797C303.704 85.8984 303.795 85.5729 303.795 85.2031C303.795 84.8333 303.704 84.5078 303.521 84.2266C303.344 83.9401 303.097 83.7214 302.779 83.5703C302.462 83.4193 302.102 83.3438 301.701 83.3438C301.29 83.3438 300.923 83.4193 300.6 83.5703C300.282 83.7214 300.035 83.9401 299.857 84.2266C299.68 84.5078 299.592 84.8333 299.592 85.2031ZM300.061 89.5H301.779V90.9531H307.67V89.5H309.404V95.2188H300.061V89.5ZM307.67 93.8125V92.3125H301.779V93.8125H307.67Z" fill="white"/>
<path d="M265.658 87.9995L273.911 82.4934L273.911 93.5056L265.658 87.9995Z" fill="#7192FF"/>
<rect x="68.6582" y="148" width="177" height="56" rx="28" fill="white"/>
<rect x="80.6582" y="156" width="40" height="40" rx="20" fill="#CDD1D5"/>
<path d="M100.696 164.747C107.051 164.747 112.203 169.899 112.203 176.254C112.203 182.609 107.051 187.76 100.696 187.76C100.537 187.76 100.379 187.755 100.222 187.749V187.761H88.7148L92.4639 184.289C90.4394 182.215 89.1905 179.381 89.1904 176.254C89.1904 169.899 94.3416 164.747 100.696 164.747Z" fill="white"/>
<path d="M98.8945 174.948C98.8945 174.528 99.0477 174.164 99.3541 173.858C99.6604 173.552 100.027 173.398 100.455 173.398C100.889 173.398 101.26 173.552 101.566 173.858C101.873 174.157 102.026 174.524 102.026 174.959C102.026 175.393 101.873 175.764 101.566 176.07C101.267 176.376 100.9 176.53 100.465 176.53C100.031 176.53 99.6604 176.376 99.3541 176.07C99.0477 175.764 98.8945 175.39 98.8945 174.948Z" fill="#CDD1D5"/>
<path d="M105.527 174.948C105.527 174.528 105.681 174.164 105.987 173.858C106.293 173.552 106.66 173.398 107.088 173.398C107.522 173.398 107.893 173.552 108.199 173.858C108.505 174.157 108.659 174.524 108.659 174.959C108.659 175.393 108.505 175.764 108.199 176.07C107.9 176.376 107.533 176.53 107.098 176.53C106.664 176.53 106.293 176.376 105.987 176.07C105.681 175.764 105.527 175.39 105.527 174.948Z" fill="#CDD1D5"/>
<path d="M137.846 173.516V175.047H136.174V179.453C136.174 180.266 136.58 180.438 137.08 180.438C137.314 180.438 137.705 180.422 137.955 180.406V182.031C137.721 182.078 137.33 182.109 136.83 182.109C135.33 182.109 134.174 181.375 134.189 179.781V175.047H132.971V173.516H134.189V171.484H136.174V173.516H137.846ZM138.986 179.609C138.986 177.703 140.564 177.141 142.143 177.047C142.729 177.008 143.947 176.938 144.314 176.922V176.25C144.314 175.406 143.768 174.922 142.783 174.922C141.893 174.922 141.346 175.328 141.189 175.938H139.268C139.408 174.5 140.705 173.406 142.83 173.406C144.439 173.406 146.299 174.062 146.299 176.328V182H144.393V180.828H144.33C143.955 181.547 143.158 182.172 141.83 182.172C140.205 182.172 138.986 181.281 138.986 179.609ZM140.908 179.594C140.908 180.328 141.502 180.703 142.346 180.703C143.549 180.703 144.33 179.906 144.33 178.953V178.25L142.455 178.375C141.502 178.453 140.908 178.844 140.908 179.594ZM151.877 182.172C149.346 182.172 147.814 180.359 147.814 177.797C147.814 175.203 149.393 173.406 151.877 173.406C153.939 173.406 155.377 174.609 155.518 176.438H153.611C153.455 175.625 152.861 175 151.893 175C150.658 175 149.83 176.047 149.83 177.75C149.83 179.5 150.643 180.547 151.893 180.547C152.783 180.547 153.439 180.031 153.611 179.109H155.518C155.361 180.906 154.002 182.172 151.877 182.172ZM157.018 182V170.688H159.018V176.922H159.158L162.205 173.516H164.533L161.252 177.172L164.736 182H162.361L159.752 178.359L159.018 179.141V182H157.018ZM165.721 182V173.516H167.721V182H165.721ZM166.736 172.312C166.111 172.312 165.58 171.828 165.58 171.219C165.58 170.625 166.111 170.141 166.736 170.141C167.377 170.141 167.893 170.625 167.893 171.219C167.893 171.828 167.377 172.312 166.736 172.312ZM173.861 173.516V175.047H172.189V179.453C172.189 180.266 172.596 180.438 173.096 180.438C173.33 180.438 173.721 180.422 173.971 180.406V182.031C173.736 182.078 173.346 182.109 172.846 182.109C171.346 182.109 170.189 181.375 170.205 179.781V175.047H168.986V173.516H170.205V171.484H172.189V173.516H173.861ZM180.814 178.438V173.516H182.799V182H180.877V180.5H180.783C180.393 181.438 179.502 182.109 178.236 182.109C176.564 182.109 175.408 180.953 175.393 178.922V173.516H177.393V178.609C177.393 179.688 178.033 180.375 179.002 180.375C179.877 180.375 180.814 179.734 180.814 178.438ZM189.518 175.938C189.393 175.297 188.861 174.891 188.018 174.891C187.158 174.891 186.533 175.312 186.549 175.891C186.533 176.328 186.893 176.656 187.752 176.859L189.189 177.156C190.799 177.516 191.564 178.25 191.58 179.469C191.564 181.062 190.174 182.172 187.955 182.172C185.799 182.172 184.518 181.203 184.314 179.578H186.346C186.471 180.297 187.033 180.656 187.955 180.656C188.908 180.656 189.549 180.266 189.549 179.641C189.549 179.156 189.158 178.844 188.314 178.656L186.955 178.359C185.377 178.047 184.564 177.219 184.564 176C184.564 174.438 185.908 173.406 187.986 173.406C190.018 173.406 191.268 174.391 191.408 175.938H189.518ZM196.861 182.172C194.299 182.172 192.736 180.469 192.736 177.812C192.736 175.188 194.33 173.406 196.752 173.406C198.83 173.406 200.627 174.703 200.627 177.688V178.312H194.705C194.729 179.758 195.58 180.609 196.877 180.609C197.752 180.609 198.346 180.234 198.596 179.734H200.549C200.189 181.203 198.83 182.172 196.861 182.172ZM194.721 176.953H198.721C198.705 175.797 197.939 174.953 196.783 174.953C195.58 174.953 194.783 175.867 194.721 176.953ZM202.174 182V173.516H204.111V174.922H204.205C204.502 173.953 205.33 173.391 206.299 173.391C206.518 173.391 206.83 173.406 207.018 173.438V175.281C206.846 175.219 206.424 175.156 206.096 175.156C204.986 175.156 204.174 175.922 204.174 177V182H202.174Z" fill="#1F2124"/>
<path d="M230.658 169.935C230.66 169.691 230.462 169.491 230.219 169.49C224.382 169.478 222.097 171.647 221.722 176.71C221.72 176.743 221.692 176.77 221.658 176.77C221.625 176.77 221.597 176.743 221.594 176.71C221.219 171.647 218.934 169.478 213.098 169.49C212.854 169.491 212.656 169.691 212.658 169.935C212.703 175.877 214.753 178.462 220.74 178.579C220.75 178.579 220.758 178.587 220.758 178.597V181.61C220.758 182.108 221.161 182.51 221.658 182.51C222.155 182.51 222.558 182.108 222.558 181.61V178.597C222.558 178.587 222.566 178.579 222.576 178.579C228.563 178.462 230.613 175.877 230.658 169.935Z" fill="#7192FF"/>
<rect x="271.342" y="156" width="52" height="40" rx="20" fill="#466CE8"/>
<path d="M288.951 171.766C288.946 172.401 289.068 173.013 289.318 173.602C289.574 174.19 289.951 174.714 290.451 175.172C290.951 175.625 291.555 175.974 292.264 176.219L291.311 177.578C290.561 177.297 289.915 176.893 289.373 176.367C288.831 175.841 288.407 175.224 288.1 174.516C287.792 175.307 287.35 175.995 286.771 176.578C286.193 177.161 285.498 177.604 284.686 177.906L283.764 176.531C284.498 176.281 285.123 175.914 285.639 175.43C286.154 174.945 286.542 174.385 286.803 173.75C287.063 173.115 287.196 172.448 287.201 171.75V170.141H288.951V171.766ZM286.326 178.625H288.092V181.703H295.951V183.109H286.326V178.625ZM291.092 172.391H293.904V169.281H295.639V179.766H293.904V173.812H291.092V172.391ZM299.717 173.828H302.014V170.562H303.623V179.969H298.076V170.562H299.717V173.828ZM302.014 178.562V175.203H299.717V178.562H302.014ZM305.014 169.516H306.654V174.719H308.154V169.266H309.826V183.391H308.154V176.156H306.654V182.703H305.014V169.516Z" fill="white"/>
<path d="M265.658 175.998L273.911 170.491L273.911 181.504L265.658 175.998Z" fill="#466CE8"/>
</svg>
