<svg width="392" height="284" viewBox="0 0 392 284" fill="none" xmlns="http://www.w3.org/2000/svg">
<rect width="392" height="284" rx="16" fill="#EDF1FF"/>
<circle cx="196.58" cy="142" r="72.4258" fill="#C8D5FF" fill-opacity="0.5"/>
<rect width="40" height="40" rx="20" transform="matrix(-1 0 0 1 78.9805 86.916)" fill="white"/>
<path d="M66.9805 115.036H50.9805V99.036H66.9805V115.036Z" fill="#CDD1D5"/>
<path d="M84.6641 106.916L76.4111 101.409L76.4111 112.422L84.6641 106.916Z" fill="white"/>
<rect x="313.02" y="159.846" width="40" height="40" rx="20" fill="white"/>
<path d="M325.02 187.966H341.02V171.966H325.02V187.966Z" fill="#CDD1D5"/>
<path d="M307.336 179.845L315.589 174.339L315.589 185.351L307.336 179.845Z" fill="white"/>
<rect x="91.6094" y="62.7471" width="93.1628" height="93.1628" rx="46.5814" fill="#7192FF"/>
<path d="M138.282 83.1172C153.083 83.1174 165.081 95.1162 165.081 109.917C165.081 124.718 153.083 136.716 138.282 136.716C137.912 136.716 137.543 136.706 137.176 136.691V136.717H110.375L119.105 128.635C114.39 123.804 111.482 117.201 111.482 109.917C111.482 95.1161 123.481 83.1172 138.282 83.1172Z" fill="white"/>
<path d="M134.08 106.879C134.08 105.9 134.437 105.053 135.15 104.34C135.864 103.626 136.718 103.27 137.714 103.27C138.726 103.27 139.589 103.626 140.303 104.34C141.016 105.037 141.373 105.891 141.373 106.903C141.373 107.916 141.016 108.778 140.303 109.492C139.606 110.205 138.751 110.562 137.739 110.562C136.727 110.562 135.864 110.205 135.15 109.492C134.437 108.778 134.08 107.907 134.08 106.879Z" fill="#7192FF"/>
<path d="M149.531 106.879C149.531 105.9 149.888 105.053 150.602 104.34C151.315 103.626 152.17 103.27 153.165 103.27C154.177 103.27 155.04 103.626 155.754 104.34C156.467 105.037 156.824 105.891 156.824 106.903C156.824 107.916 156.467 108.778 155.754 109.492C155.057 110.205 154.202 110.562 153.19 110.562C152.178 110.562 151.315 110.205 150.602 109.492C149.888 108.778 149.531 107.907 149.531 106.879Z" fill="#7192FF"/>
<rect width="93.1628" height="93.1628" rx="46.5814" transform="matrix(-1 0 0 1 301.551 128.091)" fill="#466CE8"/>
<path d="M254.878 148.461C240.077 148.461 228.079 160.46 228.079 175.261C228.079 190.061 240.077 202.059 254.878 202.06C255.248 202.06 255.617 202.049 255.984 202.034V202.061H282.785L274.055 193.978C278.77 189.147 281.678 182.544 281.678 175.261C281.678 160.46 269.679 148.461 254.878 148.461Z" fill="white"/>
<path d="M259.08 172.222C259.08 171.243 258.723 170.397 258.01 169.684C257.296 168.97 256.442 168.613 255.446 168.613C254.434 168.613 253.571 168.97 252.858 169.684C252.144 170.38 251.787 171.235 251.787 172.247C251.787 173.259 252.144 174.122 252.858 174.836C253.555 175.549 254.409 175.906 255.421 175.906C256.433 175.906 257.296 175.549 258.01 174.836C258.723 174.122 259.08 173.251 259.08 172.222Z" fill="#466CE8"/>
<path d="M243.629 172.222C243.629 171.243 243.272 170.397 242.559 169.684C241.845 168.97 240.991 168.613 239.995 168.613C238.983 168.613 238.12 168.97 237.406 169.684C236.693 170.38 236.336 171.235 236.336 172.247C236.336 173.259 236.693 174.122 237.406 174.836C238.103 175.549 238.958 175.906 239.97 175.906C240.982 175.906 241.845 175.549 242.559 174.836C243.272 174.122 243.629 173.251 243.629 172.222Z" fill="#466CE8"/>
</svg>
