<svg width="17" height="17" viewBox="0 0 17 17" fill="none" xmlns="http://www.w3.org/2000/svg">
<path d="M15 2.29167C15 2.0154 14.8902 1.75053 14.6948 1.55518C14.4995 1.35983 14.2346 1.25 13.9583 1.25H8.75V15H13.9583C14.2346 15 14.4995 14.8902 14.6948 14.6948C14.8902 14.4995 15 14.2346 15 13.9583V2.29167ZM1.25 13.9583C1.25 14.2346 1.35983 14.4995 1.55518 14.6948C1.75053 14.8902 2.0154 15 2.29167 15H7.5V1.25H2.29167C2.0154 1.25 1.75053 1.35983 1.55518 1.55518C1.35983 1.75053 1.25 2.0154 1.25 2.29167V13.9583ZM16.25 13.9583C16.25 14.5661 16.0084 15.1488 15.5786 15.5786C15.1488 16.0084 14.5661 16.25 13.9583 16.25H2.29167C1.68388 16.25 1.10116 16.0084 0.671387 15.5786C0.241616 15.1488 0 14.5661 0 13.9583V2.29167C0 1.68388 0.241616 1.10116 0.671387 0.671387C1.10116 0.241616 1.68388 0 2.29167 0H13.9583C14.5661 0 15.1488 0.241616 15.5786 0.671387C16.0084 1.10116 16.25 1.68388 16.25 2.29167V13.9583Z" fill="#1F2124"/>
</svg>
