<svg width="20" height="20" viewBox="0 0 20 20" fill="none" xmlns="http://www.w3.org/2000/svg">
<path d="M9.99985 1.78906C10.3936 1.78909 10.7806 1.89055 11.1237 2.08366C11.4241 2.25279 11.6823 2.48723 11.8789 2.76888L11.9587 2.89258L11.9611 2.89502L19.0241 14.687C19.2241 15.0334 19.3305 15.4263 19.3317 15.8263C19.3328 16.2265 19.2288 16.6205 19.0306 16.9681C18.8325 17.3156 18.5468 17.605 18.2022 17.8079C17.8573 18.0109 17.4646 18.1201 17.0645 18.1245H2.93442C2.5343 18.1201 2.1424 18.0109 1.79754 17.8079C1.45278 17.6051 1.16722 17.3156 0.969084 16.9681C0.770929 16.6205 0.666857 16.2265 0.667978 15.8263C0.669161 15.4263 0.774754 15.0334 0.974781 14.687L0.980478 14.6789L8.03858 2.89502L8.04021 2.89258C8.24446 2.55586 8.53201 2.27689 8.87517 2.08366C9.21838 1.89043 9.60598 1.78906 9.99985 1.78906ZM9.99985 3.03906C9.82082 3.03906 9.64478 3.08551 9.48878 3.17334C9.33382 3.26059 9.20309 3.38541 9.11036 3.53711L2.05714 15.3112L2.05795 15.312C1.967 15.4695 1.91849 15.6485 1.91798 15.8304C1.9175 16.0122 1.9647 16.1909 2.0547 16.3488C2.14477 16.5068 2.27473 16.639 2.43149 16.7313C2.58819 16.8234 2.76648 16.8725 2.94825 16.8745H17.0514C17.2332 16.8725 17.4115 16.8235 17.5682 16.7313C17.725 16.639 17.8549 16.5068 17.945 16.3488C18.0349 16.1909 18.0822 16.0121 18.0817 15.8304C18.0812 15.6499 18.033 15.4727 17.9434 15.3161L10.8901 3.54036C10.7974 3.38746 10.6667 3.26113 10.5109 3.17334C10.355 3.08554 10.1788 3.03909 9.99985 3.03906Z" fill="#B1B8BE"/>
<path d="M9.375 11.6667V7.5C9.375 7.15482 9.65482 6.875 10 6.875C10.3452 6.875 10.625 7.15482 10.625 7.5V11.6667C10.625 12.0118 10.3452 12.2917 10 12.2917C9.65482 12.2917 9.375 12.0118 9.375 11.6667Z" fill="#B1B8BE"/>
<path d="M10.0081 13.542C10.3533 13.542 10.6331 13.8218 10.6331 14.167C10.6331 14.5122 10.3533 14.792 10.0081 14.792H10C9.65482 14.792 9.375 14.5122 9.375 14.167C9.375 13.8218 9.65482 13.542 10 13.542H10.0081Z" fill="#B1B8BE"/>
</svg>
