<svg width="20" height="20" viewBox="0 0 20 20" fill="none" xmlns="http://www.w3.org/2000/svg">
<path d="M16.0423 17.5V15.8333C16.0423 15.115 15.7568 14.4264 15.2489 13.9185C14.7727 13.4423 14.1377 13.1615 13.4683 13.1283L13.334 13.125H6.66732C5.94902 13.125 5.26035 13.4105 4.75244 13.9185C4.24453 14.4264 3.95898 15.115 3.95898 15.8333V17.5C3.95898 17.8452 3.67916 18.125 3.33398 18.125C2.98881 18.125 2.70898 17.8452 2.70898 17.5V15.8333C2.70898 14.7835 3.12632 13.777 3.86865 13.0347C4.61098 12.2923 5.6175 11.875 6.66732 11.875H13.334C14.3838 11.875 15.3903 12.2923 16.1326 13.0347C16.875 13.777 17.2923 14.7835 17.2923 15.8333V17.5C17.2923 17.8452 17.0125 18.125 16.6673 18.125C16.3221 18.125 16.0423 17.8452 16.0423 17.5Z" fill="#B1B8BE"/>
<path d="M12.7077 5.83333C12.7077 4.33756 11.4951 3.125 9.99935 3.125C8.50358 3.125 7.29102 4.33756 7.29102 5.83333C7.29102 7.3291 8.50358 8.54167 9.99935 8.54167C11.4951 8.54167 12.7077 7.3291 12.7077 5.83333ZM13.9577 5.83333C13.9577 8.01946 12.1855 9.79167 9.99935 9.79167C7.81322 9.79167 6.04102 8.01946 6.04102 5.83333C6.04102 3.64721 7.81322 1.875 9.99935 1.875C12.1855 1.875 13.9577 3.64721 13.9577 5.83333Z" fill="#B1B8BE"/>
</svg>
