<svg width="24" height="24" viewBox="0 0 24 24" fill="none" xmlns="http://www.w3.org/2000/svg">
<path d="M12 3C12.481 3.00002 12.8711 3.39008 12.8711 3.87109V11.1289H20.1289C20.6099 11.1289 21 11.519 21 12C21 12.481 20.6099 12.8711 20.1289 12.8711H12.8711V20.1289C12.8711 20.6099 12.481 21 12 21C11.519 21 11.1289 20.6099 11.1289 20.1289V12.8711H3.87109C3.39008 12.8711 3.00002 12.481 3 12C3 11.519 3.39007 11.1289 3.87109 11.1289H11.1289V3.87109C11.1289 3.39007 11.519 3 12 3Z" fill="white"/>
</svg>
