<svg width="32" height="32" viewBox="0 0 32 32" fill="none" xmlns="http://www.w3.org/2000/svg">
<rect width="32" height="32" rx="16" fill="#ADC0FF"/>
<path d="M16.0303 6.99707C21.1141 6.99707 25.2363 11.1183 25.2363 16.2021C25.2363 21.286 21.1142 25.4072 16.0303 25.4072C15.9033 25.4072 15.7771 25.4026 15.6514 25.3975V25.4072H6.44531L9.44434 22.6299C7.82496 20.9708 6.8252 18.7037 6.8252 16.2021C6.82526 11.1185 10.9466 6.9973 16.0303 6.99707Z" fill="white"/>
<path d="M14.5879 15.1586C14.5879 14.8223 14.7104 14.5316 14.9555 14.2866C15.2006 14.0415 15.4941 13.9189 15.8361 13.9189C16.1838 13.9189 16.4801 14.0415 16.7252 14.2866C16.9703 14.5259 17.0928 14.8195 17.0928 15.1671C17.0928 15.5148 16.9703 15.8112 16.7252 16.0563C16.4858 16.3013 16.1923 16.4239 15.8446 16.4239C15.497 16.4239 15.2006 16.3013 14.9555 16.0563C14.7104 15.8112 14.5879 15.512 14.5879 15.1586Z" fill="#ADC0FF"/>
<path d="M19.8965 15.1586C19.8965 14.8223 20.019 14.5316 20.2641 14.2866C20.5092 14.0415 20.8027 13.9189 21.1447 13.9189C21.4923 13.9189 21.7887 14.0415 22.0338 14.2866C22.2789 14.5259 22.4014 14.8195 22.4014 15.1671C22.4014 15.5148 22.2789 15.8112 22.0338 16.0563C21.7944 16.3013 21.5009 16.4239 21.1532 16.4239C20.8056 16.4239 20.5092 16.3013 20.2641 16.0563C20.019 15.8112 19.8965 15.512 19.8965 15.1586Z" fill="#ADC0FF"/>
</svg>
