<svg width="24" height="24" viewBox="0 0 24 24" fill="none" xmlns="http://www.w3.org/2000/svg">
<path fill-rule="evenodd" clip-rule="evenodd" d="M11.9992 2.19995C8.24739 2.19995 5.19922 5.24812 5.19922 8.99995V13.7577L3.33358 16.5562C3.24597 16.6876 3.19922 16.842 3.19922 17V18C3.19922 18.4418 3.55739 18.8 3.99922 18.8H9.20541L9.1999 18.933C9.19945 18.944 9.19922 18.955 9.19922 18.9661C9.19922 20.5138 10.4448 21.8 11.9992 21.8C13.5537 21.8 14.7992 20.5138 14.7992 18.9661V18.8H19.9992C20.441 18.8 20.7992 18.4418 20.7992 18V17C20.7992 16.842 20.7525 16.6876 20.6649 16.5562L18.7992 13.7577V8.99995C18.7992 5.24812 15.751 2.19995 11.9992 2.19995ZM13.1992 18.8H10.8068L10.7993 18.9806C10.807 19.6632 11.3582 20.2 11.9992 20.2C12.6448 20.2 13.1992 19.6556 13.1992 18.9661V18.8ZM19.1711 17.2L17.3336 14.4437C17.246 14.3123 17.1992 14.1579 17.1992 14V8.99995C17.1992 6.13178 14.8674 3.79995 11.9992 3.79995C9.13105 3.79995 6.79922 6.13178 6.79922 8.99995V14C6.79922 14.1579 6.75247 14.3123 6.66486 14.4437L4.82737 17.2H19.1711Z" fill="#1F2124"/>
<circle cx="22" cy="2" r="2" fill="#4D77FF"/>
</svg>
