<svg width="25" height="28" viewBox="0 0 25 28" fill="none" xmlns="http://www.w3.org/2000/svg">
<path fill-rule="evenodd" clip-rule="evenodd" d="M12.5986 0.970947C7.59613 0.970947 3.5319 5.03518 3.5319 10.0376V16.3813L1.04438 20.1126C0.927568 20.2878 0.865234 20.4937 0.865234 20.7043V22.0376C0.865234 22.6267 1.3428 23.1043 1.9319 23.1043H8.87349L8.86615 23.2816C8.86554 23.2963 8.86523 23.311 8.86523 23.3257C8.86523 25.3894 10.526 27.1043 12.5986 27.1043C14.6712 27.1043 16.3319 25.3894 16.3319 23.3257V23.1043H23.2652C23.8543 23.1043 24.3319 22.6267 24.3319 22.0376V20.7043C24.3319 20.4937 24.2696 20.2878 24.1528 20.1126L21.6652 16.3813V10.0376C21.6652 5.03518 17.601 0.970947 12.5986 0.970947ZM14.1986 23.1043H11.0087L10.9987 23.3452C11.009 24.2553 11.7439 24.9709 12.5986 24.9709C13.4593 24.9709 14.1986 24.2451 14.1986 23.3257V23.1043ZM22.161 20.9709L19.711 17.296C19.5942 17.1207 19.5319 16.9149 19.5319 16.7043V10.0376C19.5319 6.21338 16.4228 3.10428 12.5986 3.10428C8.77434 3.10428 5.66523 6.21338 5.66523 10.0376V16.7043C5.66523 16.9149 5.6029 17.1207 5.48609 17.296L3.0361 20.9709H22.161Z" fill="#1F2124"/>
</svg>
