<svg width="32" height="32" viewBox="0 0 32 32" fill="none" xmlns="http://www.w3.org/2000/svg">
<path d="M10.8862 3.4668C10.1798 3.46678 9.57817 3.46676 9.08427 3.50712C8.56539 3.54951 8.0606 3.64236 7.57803 3.88824C6.85047 4.25895 6.25895 4.85048 5.88824 5.57804C5.64235 6.06061 5.54951 6.56541 5.50712 7.08429C5.46676 7.57819 5.46678 8.17975 5.4668 8.88622V28.6668C5.4668 29.1003 5.70055 29.5 6.07829 29.7126C6.45604 29.9252 6.91906 29.9175 7.28957 29.6925L16.0001 24.404L24.7106 29.6925C25.0811 29.9175 25.5441 29.9252 25.9219 29.7126C26.2996 29.5 26.5334 29.1003 26.5334 28.6668V8.88626C26.5334 8.17977 26.5334 7.57819 26.4931 7.08429C26.4507 6.56541 26.3578 6.06061 26.1119 5.57804C25.7412 4.85048 25.1497 4.25895 24.4222 3.88824C23.9396 3.64236 23.4348 3.54951 22.9159 3.50712C22.422 3.46676 21.8205 3.46678 21.114 3.4668H10.8862Z" fill="#4D77FF"/>
</svg>
