<svg width="32" height="32" viewBox="0 0 32 32" fill="none" xmlns="http://www.w3.org/2000/svg">
<path fill-rule="evenodd" clip-rule="evenodd" d="M2.8007 15.9998C2.8007 8.70965 8.71052 2.7998 16.0006 2.7998C23.2908 2.7998 29.2006 8.70965 29.2006 15.9998C29.2006 23.29 23.2908 29.1998 16.0006 29.1998C8.71052 29.1998 2.8007 23.29 2.8007 15.9998ZM22.1962 13.1676C22.6572 12.6914 22.6448 11.9317 22.1686 11.4708C21.6924 11.0098 20.9327 11.0222 20.4717 11.4984L14.2372 17.9397L11.5307 15.136C11.0705 14.6591 10.3108 14.6457 9.83396 15.106C9.35713 15.5663 9.34371 16.3259 9.80399 16.8028L13.3726 20.4998C13.5985 20.7338 13.9098 20.8661 14.2352 20.8663C14.5605 20.8666 14.872 20.7347 15.0982 20.5009L22.1962 13.1676Z" fill="#4D77FF"/>
</svg>
