<svg width="24" height="24" viewBox="0 0 24 24" fill="none" xmlns="http://www.w3.org/2000/svg">
<path d="M4.25977 5.51758C3.91267 5.17044 3.91265 4.60689 4.25977 4.25977C4.60689 3.91271 5.17046 3.91269 5.51758 4.25977L11.999 10.7432L18.4824 4.25977C18.8295 3.91301 19.3922 3.91303 19.7393 4.25977C20.0864 4.6069 20.0864 5.17045 19.7393 5.51758L13.2568 12L19.7393 18.4824C20.0864 18.8295 20.0863 19.3921 19.7393 19.7393C19.3921 20.0864 18.8296 20.0864 18.4824 19.7393L11.999 13.2578L5.51758 19.7393C5.17045 20.0864 4.6069 20.0864 4.25977 19.7393C3.91299 19.3922 3.91289 18.8295 4.25977 18.4824L10.7422 12L4.25977 5.51758Z" fill="#1F2124"/>
</svg>
