<svg width="32" height="32" viewBox="0 0 32 32" fill="none" xmlns="http://www.w3.org/2000/svg">
<path d="M15.9992 3.13363C8.89315 3.13363 3.13257 8.89423 3.13257 16.0003C3.13257 23.1064 8.89315 28.867 15.9992 28.867C18.0503 28.867 19.9922 28.3862 21.7154 27.5304L24.1319 28.1894C24.6788 28.3386 25.1667 28.4717 25.5674 28.5425C25.9735 28.6142 26.4883 28.663 27.0025 28.4667C27.6762 28.2095 28.2083 27.6773 28.4655 27.0037C28.6619 26.4894 28.613 25.9747 28.5413 25.5686C28.4706 25.1678 28.3375 24.68 28.1883 24.1332L27.5292 21.7165C28.385 19.9933 28.8658 18.0514 28.8658 16.0003C28.8658 8.89423 23.1052 3.13363 15.9992 3.13363Z" fill="#3754B5"/>
</svg>
