<svg width="22" height="27" viewBox="0 0 22 27" fill="none" xmlns="http://www.w3.org/2000/svg">
<path fill-rule="evenodd" clip-rule="evenodd" d="M11.7338 0L11.7338 7.10492C11.7338 7.44534 11.7337 7.76554 11.7557 8.03467C11.7796 8.3271 11.835 8.65749 12.0026 8.9865C12.2391 9.45063 12.6165 9.82798 13.0806 10.0645C13.4096 10.2321 13.74 10.2875 14.0324 10.3114C14.3016 10.3334 14.6218 10.3334 14.9623 10.3333L21.7333 10.3333V20.9807C21.7333 21.6872 21.7333 22.2888 21.6929 22.7827C21.6505 23.3015 21.5577 23.8063 21.3118 24.2889C20.9411 25.0165 20.3496 25.608 19.622 25.9787C19.1395 26.2246 18.6347 26.3174 18.1158 26.3598C17.6219 26.4002 17.0203 26.4002 16.3139 26.4001H5.41939C4.71296 26.4002 4.11135 26.4002 3.61748 26.3598C3.0986 26.3174 2.59381 26.2246 2.11123 25.9787C1.38367 25.608 0.792153 25.0165 0.421444 24.2889C0.175559 23.8063 0.0827141 23.3015 0.0403201 22.7827C-3.19927e-05 22.2888 -1.69391e-05 21.6872 7.36314e-07 20.9807V5.41955C-1.69391e-05 4.7131 -3.19902e-05 4.11152 0.0403201 3.61763C0.0827141 3.09875 0.175559 2.59396 0.421444 2.11138C0.792153 1.38382 1.38367 0.792294 2.11123 0.421583C2.59381 0.175698 3.0986 0.0828527 3.61748 0.0404585C4.11138 0.000104529 4.71296 0.000121298 5.41945 0.000141008L11.6496 0.000141961L11.7338 0ZM4.33393 15.8638C4.33393 15.2011 4.87119 14.6638 5.53393 14.6638H10.8672C11.53 14.6638 12.0672 15.2011 12.0672 15.8638C12.0672 16.5266 11.53 17.0638 10.8672 17.0638H5.53393C4.87119 17.0638 4.33393 16.5266 4.33393 15.8638ZM4.33393 20.8658C4.33393 20.203 4.87119 19.6658 5.53393 19.6658H10.8672C11.53 19.6658 12.0672 20.203 12.0672 20.8658C12.0672 21.5285 11.53 22.0658 10.8672 22.0658H5.53393C4.87119 22.0658 4.33393 21.5285 4.33393 20.8658Z" fill="#7192FF"/>
<path d="M14.0005 0.97028V7.86717C14.0005 7.97763 14.09 8.06717 14.2005 8.06717H21.0871L14.0005 0.97028Z" fill="#7192FF"/>
</svg>
