<svg width="101" height="101" viewBox="0 0 101 101" fill="none" xmlns="http://www.w3.org/2000/svg">
<path d="M18.7773 43.8799C17.1594 43.8799 15.8477 45.1916 15.8477 46.8096V87.6299C15.8477 89.2479 17.1594 90.5596 18.7773 90.5596H50.0273L60.7279 72.1379L50.0273 43.8799H18.7773Z" fill="#CDD1D5"/>
<path d="M81.2773 43.8799H50.0273V90.5596H81.2773C82.8953 90.5596 84.207 89.2479 84.207 87.6299V46.8096C84.207 45.1914 82.8953 43.8799 81.2773 43.8799Z" fill="#B1B8BE"/>
<path d="M18.7772 34.5049C17.6675 34.5049 16.6532 35.1318 16.1569 36.1244L6.78192 54.8744C6.32782 55.7824 6.37646 56.8611 6.91025 57.7248C7.44384 58.5885 8.38681 59.1143 9.40224 59.1143H40.6522C41.762 59.1143 42.7763 58.4873 43.2725 57.4947L50.0272 43.9854L57.7358 39.6805L50.0272 34.5049H18.7772Z" fill="#E6E8EA"/>
<path d="M93.2727 54.8744L83.8977 36.1244C83.4016 35.1318 82.3869 34.5049 81.2773 34.5049H50.0273V43.9855L56.782 57.4947C57.2781 58.4873 58.2926 59.1143 59.4023 59.1143H90.6523C91.6676 59.1143 92.6105 58.5887 93.1445 57.7248C93.6783 56.8609 93.7268 55.7824 93.2727 54.8744Z" fill="#CDD1D5"/>
<path d="M62.4856 11.4637C58.7872 14.5394 56.666 19.0593 56.666 23.8646C56.666 24.9869 57.5759 25.8968 58.6982 25.8968C59.8205 25.8968 60.7304 24.9869 60.7304 23.8646C60.7304 20.2708 62.3174 16.8899 65.0844 14.5888C65.9474 13.8712 66.0651 12.5898 65.3475 11.727C64.6297 10.864 63.3482 10.7464 62.4856 11.4637Z" fill="#B1B8BE"/>
<path d="M37.5698 11.464C36.7069 10.7462 35.4256 10.8641 34.708 11.7271C33.9904 12.5899 34.1082 13.8713 34.9711 14.5889C37.7381 16.89 39.3251 20.2709 39.3251 23.8648C39.3251 24.9871 40.235 25.897 41.3573 25.897C42.4796 25.897 43.3895 24.9871 43.3895 23.8648C43.3895 19.0596 41.2683 14.5396 37.5698 11.464Z" fill="#B1B8BE"/>
<path d="M50.0263 9.91016C48.904 9.91016 47.9941 10.82 47.9941 11.9423V23.8644C47.9941 24.9867 48.904 25.8966 50.0263 25.8966C51.1486 25.8966 52.0585 24.9867 52.0585 23.8644V11.9423C52.0585 10.8199 51.1486 9.91016 50.0263 9.91016Z" fill="#B1B8BE"/>
</svg>
