<svg width="40" height="40" viewBox="0 0 40 40" fill="none" xmlns="http://www.w3.org/2000/svg">
<path d="M9.6068 23.0054H16.641C16.737 23.0054 16.8314 23.0304 16.9148 23.0779L28.9277 29.9258C29.4036 30.197 29.942 29.6852 29.695 29.1961L26.9724 23.8075C26.7866 23.4397 27.0538 23.0054 27.4658 23.0054H30.3896C33.2997 23.0054 35.7581 21.0705 36.5454 18.4159C36.7173 17.8365 36.8091 17.2214 36.8091 16.5861V16.4188C36.8091 12.8735 33.935 9.99951 30.3898 9.99951H9.6068C6.06152 9.99951 3.1875 12.8735 3.1875 16.4188V16.5861C3.1875 20.1314 6.06152 23.0054 9.6068 23.0054Z" fill="#C8D5FF"/>
<path d="M36.8121 16.4184V16.5866C36.8121 20.132 33.938 23.006 30.3925 23.006H27.4687C27.057 23.006 26.7895 23.4402 26.9753 23.8071L29.6973 29.1965C29.944 29.685 29.4058 30.1979 28.9298 29.9253L26.0259 28.2701L23.7711 23.8069C23.5852 23.4401 23.8528 23.0059 24.2644 23.0059H27.1882C30.7337 23.0059 33.6079 20.1317 33.6079 16.5864V16.4182C33.6079 12.8728 30.7337 9.99878 27.1882 9.99878H30.3924C33.9381 9.99878 36.8121 12.8729 36.8121 16.4184Z" fill="#ADC0FF"/>
<path d="M13.285 17.7414C12.5769 17.7414 11.9869 17.0921 12.0518 16.3872C12.1009 15.8537 12.5115 15.3907 13.0422 15.2887C13.2348 15.2518 13.3845 15.2568 13.5733 15.2987C14.121 15.4201 14.5236 15.9435 14.5236 16.5027C14.5236 16.8644 14.3586 17.2211 14.0807 17.4532C13.9874 17.531 13.8822 17.5937 13.7706 17.6413C13.6178 17.7066 13.4516 17.7414 13.285 17.7414Z" fill="#7192FF"/>
<path d="M19.996 17.7414C19.2878 17.7414 18.6978 17.0921 18.7627 16.3872C18.8119 15.8537 19.2225 15.3907 19.7532 15.2887C19.9457 15.2518 20.0954 15.2568 20.2842 15.2987C20.8319 15.4201 21.2345 15.9435 21.2345 16.5027C21.2345 16.8644 21.0696 17.2211 20.7916 17.4532C20.6984 17.531 20.5932 17.5937 20.4816 17.6413C20.3287 17.7066 20.1625 17.7414 19.996 17.7414Z" fill="#7192FF"/>
<path d="M26.7108 17.7414C26.0027 17.7414 25.4126 17.0921 25.4775 16.3872C25.5267 15.8537 25.9373 15.3907 26.468 15.2887C26.6606 15.2518 26.8103 15.2568 26.9991 15.2987C27.5468 15.4201 27.9494 15.9435 27.9494 16.5027C27.9494 16.8644 27.7844 17.2211 27.5064 17.4532C27.4132 17.531 27.308 17.5937 27.1964 17.6413C27.0436 17.7066 26.8774 17.7414 26.7108 17.7414Z" fill="#7192FF"/>
</svg>
