<svg width="24" height="24" viewBox="0 0 24 24" fill="none" xmlns="http://www.w3.org/2000/svg">
<path d="M12 2.99976C14.7714 2.99976 17.0177 5.24408 17.0225 8.0144C19.2666 8.30409 21 10.2217 21 12.5447C20.9997 15.0676 18.9546 17.113 16.4316 17.113H12.999C13.001 17.1388 13.0029 17.1649 13.0029 17.1912V19.9958C13.0029 20.5502 12.5534 20.9997 11.999 20.9998C11.4447 20.9998 10.9952 20.5502 10.9951 19.9958V17.1912C10.9951 17.1648 10.997 17.1388 10.999 17.113H7.56836C5.04547 17.113 3.00026 15.0675 3 12.5447C3 10.2222 4.73313 8.3047 6.97656 8.0144C6.98128 5.24415 9.22866 2.99986 12 2.99976Z" fill="#466CE8"/>
</svg>
