<svg width="17" height="17" viewBox="0 0 17 17" fill="none" xmlns="http://www.w3.org/2000/svg">
<path d="M1.8 0.9C1.8 0.402944 1.39706 0 0.9 0C0.402944 0 1.30667e-07 0.402944 1.30667e-07 0.9V2.43973C-6.60466e-06 3.8062 -1.18613e-05 4.88679 0.07111 5.75728C0.143778 6.6467 0.295157 7.39574 0.643062 8.07854C1.20871 9.1887 2.1113 10.0913 3.22146 10.6569C3.90426 11.0048 4.6533 11.1562 5.54272 11.2289C6.41321 11.3 7.49378 11.3 8.86024 11.3H13.2286L9.7636 14.765C9.41213 15.1164 9.41213 15.6863 9.7636 16.0378C10.1151 16.3892 10.6849 16.3892 11.0364 16.0378L16.0364 11.0378C16.3879 10.6863 16.3879 10.1164 16.0364 9.76497L11.0364 4.76497C10.6849 4.4135 10.1151 4.4135 9.7636 4.76497C9.41213 5.11644 9.41213 5.68629 9.7636 6.03776L13.2258 9.5H8.9C7.48502 9.5 6.47791 9.4993 5.6893 9.43487C4.91119 9.37129 4.4254 9.25019 4.03864 9.05313C3.26717 8.66005 2.63995 8.03283 2.24687 7.26136C2.04981 6.8746 1.92871 6.38881 1.86513 5.6107C1.8007 4.82209 1.8 3.81498 1.8 2.4V0.9Z" fill="#1F2124"/>
</svg>
