<svg width="19" height="19" viewBox="0 0 19 19" fill="none" xmlns="http://www.w3.org/2000/svg">
<path d="M4.42773 14.2622H14.4277C14.6277 14.2622 14.7777 14.1705 14.8777 13.9872C14.9777 13.8039 14.9611 13.6289 14.8277 13.4622L12.0777 9.78721C11.9777 9.65387 11.8444 9.58721 11.6777 9.58721C11.5111 9.58721 11.3777 9.65387 11.2777 9.78721L8.67773 13.2622L6.82773 10.7872C6.72773 10.6539 6.5944 10.5872 6.42773 10.5872C6.26107 10.5872 6.12773 10.6539 6.02773 10.7872L4.02773 13.4622C3.8944 13.6289 3.87773 13.8039 3.97773 13.9872C4.07773 14.1705 4.22773 14.2622 4.42773 14.2622ZM2.42773 18.2622C1.87773 18.2622 1.40673 18.0665 1.01473 17.6752C0.623401 17.2832 0.427734 16.8122 0.427734 16.2622V2.26221C0.427734 1.71221 0.623401 1.24121 1.01473 0.849207C1.40673 0.457874 1.87773 0.262207 2.42773 0.262207H16.4277C16.9777 0.262207 17.4487 0.457874 17.8407 0.849207C18.2321 1.24121 18.4277 1.71221 18.4277 2.26221V16.2622C18.4277 16.8122 18.2321 17.2832 17.8407 17.6752C17.4487 18.0665 16.9777 18.2622 16.4277 18.2622H2.42773ZM2.42773 16.2622H16.4277V2.26221H2.42773V16.2622Z" fill="#1F2124"/>
</svg>
