<svg width="21" height="11" viewBox="0 0 21 11" fill="none" xmlns="http://www.w3.org/2000/svg">
<path d="M2.38403 4.64221C2.66403 3.17221 4.04403 2.16221 5.54403 2.16221H8.47403C8.99403 2.16221 9.42403 1.73221 9.42403 1.21221C9.42403 0.692207 8.99403 0.262207 8.47403 0.262207H5.64403C3.03403 0.262207 0.704026 2.17221 0.454026 4.77221C0.164026 7.75221 2.50403 10.2622 5.42403 10.2622H8.47403C8.99403 10.2622 9.42403 9.83221 9.42403 9.31221C9.42403 8.79221 8.99403 8.36221 8.47403 8.36221H5.42403C3.51403 8.36221 2.00403 6.62221 2.38403 4.64221ZM7.42403 6.26221H13.424C13.974 6.26221 14.424 5.81221 14.424 5.26221C14.424 4.71221 13.974 4.26221 13.424 4.26221H7.42403C6.87403 4.26221 6.42403 4.71221 6.42403 5.26221C6.42403 5.81221 6.87403 6.26221 7.42403 6.26221ZM15.204 0.262207H12.374C11.854 0.262207 11.424 0.692207 11.424 1.21221C11.424 1.73221 11.854 2.16221 12.374 2.16221H15.304C16.804 2.16221 18.184 3.17221 18.464 4.64221C18.844 6.62221 17.334 8.36221 15.424 8.36221H12.374C11.854 8.36221 11.424 8.79221 11.424 9.31221C11.424 9.83221 11.854 10.2622 12.374 10.2622H15.424C18.344 10.2622 20.684 7.75221 20.404 4.77221C20.154 2.17221 17.814 0.262207 15.204 0.262207Z" fill="#1F2124"/>
</svg>
