<svg width="58" height="58" viewBox="0 0 58 58" fill="none" xmlns="http://www.w3.org/2000/svg">
<rect width="57.3743" height="57.3743" rx="28.6871" fill="#CDD1D5"/>
<path d="M28.6875 12.0284C37.8878 12.0285 45.3467 19.4873 45.3467 28.6876C45.3464 37.8871 37.8887 45.3437 28.6895 45.3448V45.3458H12.0293L17.0986 40.6525C13.9729 37.6244 12.0294 33.3833 12.0293 28.6876C12.0293 19.4874 19.4873 12.0287 28.6875 12.0284Z" fill="white"/>
<path d="M24.2773 26.4365C24.2773 25.8383 24.4953 25.3213 24.9312 24.8853C25.3672 24.4494 25.8893 24.2314 26.4976 24.2314C27.116 24.2314 27.6432 24.4494 28.0791 24.8853C28.515 25.3111 28.733 25.8333 28.733 26.4517C28.733 27.0701 28.515 27.5973 28.0791 28.0332C27.6533 28.4691 27.1312 28.6871 26.5128 28.6871C25.8944 28.6871 25.3672 28.4691 24.9312 28.0332C24.4953 27.5973 24.2773 27.065 24.2773 26.4365Z" fill="#CDD1D5"/>
<path d="M35.5469 26.4365C35.5469 25.8383 35.7648 25.3213 36.2008 24.8853C36.6367 24.4494 37.1588 24.2314 37.7671 24.2314C38.3855 24.2314 38.9127 24.4494 39.3486 24.8853C39.7846 25.3111 40.0025 25.8333 40.0025 26.4517C40.0025 27.0701 39.7846 27.5973 39.3486 28.0332C38.9228 28.4691 38.4007 28.6871 37.7823 28.6871C37.1639 28.6871 36.6367 28.4691 36.2008 28.0332C35.7648 27.5973 35.5469 27.065 35.5469 26.4365Z" fill="#CDD1D5"/>
</svg>
