<svg width="24" height="24" viewBox="0 0 24 24" fill="none" xmlns="http://www.w3.org/2000/svg">
<path d="M21 5.93419C21.0018 5.69062 20.8039 5.49045 20.5603 5.48992C14.7242 5.47738 12.4392 7.64626 12.0639 12.7093C12.0614 12.7428 12.0335 12.7696 12 12.7696C11.9665 12.7696 11.9386 12.7428 11.9361 12.7093C11.5608 7.64626 9.27587 5.47738 3.43966 5.48992C3.19608 5.49045 2.99817 5.69062 3.00001 5.93419C3.04504 11.8763 5.09523 14.4612 11.0821 14.5787C11.0918 14.5789 11.0999 14.5868 11.0999 14.5965V17.6101C11.0999 18.1072 11.5029 18.5101 12 18.5101C12.4971 18.5101 12.9001 18.1072 12.9001 17.6101V14.5966C12.9001 14.5869 12.9082 14.5789 12.9179 14.5787C18.9048 14.4612 20.955 11.8763 21 5.93419Z" fill="#7192FF"/>
</svg>
