<svg width="40" height="40" viewBox="0 0 40 40" fill="none" xmlns="http://www.w3.org/2000/svg">
<path fill-rule="evenodd" clip-rule="evenodd" d="M15.7043 35.5332H7.23625C6.83561 35.5332 6.50781 35.2509 6.50781 34.9059V23.2218C6.50781 22.8768 6.83561 22.5945 7.23625 22.5945H15.504V34.9059C15.504 35.1411 15.5768 35.3607 15.7043 35.5332Z" fill="#ADC0FF"/>
<path fill-rule="evenodd" clip-rule="evenodd" d="M32.7689 35.5333H24.3008C24.4283 35.3684 24.5011 35.1585 24.5011 34.9336V25.3086H32.7689C33.1695 25.3086 33.4973 25.5785 33.4973 25.9083V34.9336C33.4973 35.2635 33.1695 35.5333 32.7689 35.5333Z" fill="#C8D5FF"/>
<path fill-rule="evenodd" clip-rule="evenodd" d="M24.2629 35.5329H15.7402C15.3395 35.5329 15.0117 35.2052 15.0117 34.8045V17.0497C15.0117 16.6491 15.3395 16.3213 15.7402 16.3213H24.2447C24.6635 16.3213 24.9731 16.6491 24.9731 17.0497V34.8045C24.9731 35.2052 24.6635 35.5329 24.2629 35.5329Z" fill="#4D77FF"/>
<path fill-rule="evenodd" clip-rule="evenodd" d="M17.4527 13.7539C17.3071 13.7539 17.1614 13.7175 17.0339 13.6083C16.7971 13.4444 16.6879 13.1712 16.7425 12.8981L17.216 10.4397L15.3949 8.72796C15.1764 8.52765 15.1035 8.23629 15.1946 7.96314C15.2856 7.68998 15.5224 7.50788 15.7955 7.47146L18.2722 7.16189L19.3467 4.88563C19.4559 4.63069 19.7109 4.4668 20.0023 4.4668C20.2754 4.4668 20.5486 4.63069 20.6579 4.88563L21.7323 7.16189L24.209 7.47146C24.4822 7.50788 24.7189 7.68998 24.81 7.96314C24.901 8.23629 24.8282 8.52765 24.6096 8.72796L22.7885 10.4397L23.262 12.8981C23.3167 13.1712 23.2074 13.4444 22.9706 13.6083C22.7521 13.7904 22.4425 13.8086 22.1876 13.6629L20.0023 12.461L17.817 13.6629C17.7077 13.7175 17.5802 13.7539 17.4527 13.7539Z" fill="#FFC250"/>
</svg>
