<svg width="40" height="40" viewBox="0 0 40 40" fill="none" xmlns="http://www.w3.org/2000/svg">
<path d="M18.8891 14.4438H34.4422C35.3626 14.4438 36.1086 15.19 36.1086 16.1103V26.109C36.1086 27.0294 35.3626 27.7755 34.4422 27.7755H25.5547V29.6077C25.5547 29.9565 25.133 30.1312 24.8863 29.8845L22.7774 27.7755H18.8891C17.9688 27.7755 17.2227 27.0294 17.2227 26.109V16.1103C17.2227 15.19 17.9688 14.4438 18.8891 14.4438Z" fill="#ADC0FF"/>
<path d="M23.8883 14.4463H18.8638C17.9553 14.4601 17.2227 15.1985 17.2227 16.1102V24.4451H21.1109C22.6448 24.4451 23.8883 23.2015 23.8883 21.6677V14.4463Z" fill="#7192FF"/>
<path d="M21.1102 10H5.55705C4.63672 10 3.89062 10.7461 3.89062 11.6665V21.6652C3.89062 22.5855 4.63672 23.3317 5.55705 23.3317H14.4445V25.1638C14.4445 25.5127 14.8663 25.6873 15.1129 25.4406L17.2219 23.3317H21.1102C22.0305 23.3317 22.7766 22.5855 22.7766 21.6652V11.6665C22.7766 10.7461 22.0305 10 21.1102 10Z" fill="#4D77FF"/>
<path d="M17.2219 16.1105C17.2219 13.9665 15.4774 12.2222 13.3336 12.2222C11.1898 12.2222 9.44531 13.9665 9.44531 16.1105V17.2215C9.44531 19.3656 11.1898 21.1099 13.3336 21.1099C14.2055 21.1099 15.0085 20.8178 15.6578 20.3313L16.2737 20.9472C16.3823 21.0558 16.5243 21.1099 16.6664 21.1099C16.8086 21.1099 16.9507 21.0557 17.0592 20.9472C17.2761 20.7302 17.2761 20.3787 17.0592 20.1617L16.4433 19.5458C16.9298 18.8965 17.2218 18.0934 17.2218 17.2215V16.1105H17.2219ZM15.3927 18.4952C15.1758 18.2783 14.8242 18.2783 14.6072 18.4952C14.3903 18.7122 14.3903 19.0638 14.6072 19.2807L14.8628 19.5363C14.4237 19.8274 13.8987 19.999 13.3337 19.999C11.8023 19.999 10.5563 18.753 10.5563 17.2216V16.1106C10.5563 14.5792 11.8023 13.3332 13.3337 13.3332C14.865 13.3332 16.111 14.5792 16.111 16.1106V17.2216C16.111 17.7867 15.9394 18.3116 15.6483 18.7507L15.3927 18.4952Z" fill="white"/>
<path d="M29.9769 24.8454L27.9074 17.6032C27.7501 17.0513 27.2397 16.6658 26.6652 16.6658C26.0907 16.6658 25.5803 17.0512 25.4229 17.6026L23.3535 24.8454C23.2694 25.1405 23.4402 25.4478 23.7353 25.5321C24.0277 25.6156 24.3375 25.4462 24.4221 25.1508L24.9418 23.3317H28.3883L28.9081 25.1508C28.9781 25.3947 29.2005 25.5539 29.4419 25.5539C29.4929 25.5539 29.5439 25.5468 29.5949 25.5322C29.8901 25.4478 30.0609 25.1405 29.9769 24.8454ZM25.2593 22.2206L26.4916 17.9075C26.535 17.7534 26.7954 17.7529 26.8388 17.9081L28.071 22.2206H25.2593Z" fill="white"/>
</svg>
