<svg width="40" height="40" viewBox="0 0 40 40" fill="none" xmlns="http://www.w3.org/2000/svg">
<path d="M20.171 7.4606C20.5361 7.4606 20.832 7.16463 20.832 6.79957L20.832 4.5851C20.832 4.22004 20.5361 3.92407 20.171 3.92407C19.8059 3.92407 19.51 4.22004 19.51 4.5851L19.51 6.79961C19.51 7.16467 19.8059 7.4606 20.171 7.4606Z" fill="#FFC250"/>
<path d="M25.6997 8.93244C25.9282 8.93244 26.1504 8.8139 26.2728 8.60182L27.3801 6.68401C27.5626 6.36784 27.4543 5.96356 27.1381 5.78103C26.822 5.59855 26.4177 5.70681 26.2351 6.02298L25.1279 7.94079C24.9453 8.25695 25.0537 8.66123 25.3699 8.84376C25.474 8.90386 25.5876 8.93244 25.6997 8.93244Z" fill="#FFC250"/>
<path d="M29.1394 12.3145C29.3509 12.4007 29.6014 12.3747 29.7948 12.2245L31.5438 10.8661C31.8321 10.6422 31.8843 10.2269 31.6604 9.93857C31.4364 9.65031 31.0212 9.59806 30.7328 9.82198L28.9839 11.1804C28.6955 11.4043 28.6434 11.8196 28.8673 12.1079C28.9411 12.2028 29.0355 12.2722 29.1394 12.3145Z" fill="#FFC250"/>
<path d="M10.8606 12.3145C10.6491 12.4007 10.3986 12.3747 10.2052 12.2245L8.45623 10.8661C8.16788 10.6422 8.11571 10.2269 8.33965 9.93857C8.56356 9.65031 8.97882 9.59805 9.26717 9.82198L11.0161 11.1804C11.3045 11.4043 11.3566 11.8196 11.1327 12.1079C11.0589 12.2028 10.9645 12.2722 10.8606 12.3145Z" fill="#FFC250"/>
<path d="M14.6481 8.93248C14.7602 8.93248 14.8739 8.9039 14.978 8.8438C15.2941 8.66127 15.4025 8.25699 15.2199 7.94083L14.1127 6.02302C13.9301 5.70685 13.5259 5.5985 13.2097 5.78107C12.8935 5.9636 12.7852 6.36788 12.9678 6.68405L14.075 8.60186C14.1974 8.81394 14.4196 8.93248 14.6481 8.93248Z" fill="#FFC250"/>
<path d="M20.1716 36.0763C19.2031 36.0763 18.418 35.2911 18.418 34.3226V33.7075H21.9253V34.3226C21.9253 35.2911 21.1402 36.0763 20.1716 36.0763Z" fill="#6D7882"/>
<path d="M21.9304 34.043H18.4144C17.9719 34.043 17.6133 33.6843 17.6133 33.2419V28.6926H22.7315V33.2419C22.7316 33.6843 22.3729 34.043 21.9304 34.043Z" fill="#CDD1D5"/>
<path d="M20.3964 28.6927V30.8816C20.3964 31.9827 19.5037 32.8754 18.4025 32.8754H17.6133V33.2419C17.6133 33.6843 17.9719 34.043 18.4144 34.043H21.9304C22.3729 34.043 22.7315 33.6843 22.7315 33.2419V28.6926H20.3964V28.6927Z" fill="#B1B8BE"/>
<path d="M22.8592 31.213H17.4847C17.2428 31.213 17.0469 31.017 17.0469 30.7752C17.0469 30.5334 17.2429 30.3374 17.4847 30.3374H22.8592C23.101 30.3374 23.297 30.5334 23.297 30.7752C23.297 31.017 23.101 31.213 22.8592 31.213Z" fill="#E6E8EA"/>
<path d="M22.8592 32.7115H17.4847C17.2428 32.7115 17.0469 32.5155 17.0469 32.2737C17.0469 32.0319 17.2429 31.8359 17.4847 31.8359H22.8592C23.101 31.8359 23.297 32.0319 23.297 32.2737C23.297 32.5155 23.101 32.7115 22.8592 32.7115Z" fill="#E6E8EA"/>
<path d="M28.263 18.0736C28.263 13.6043 24.6399 9.9812 20.1706 9.9812C15.7012 9.9812 12.0781 13.6043 12.0781 18.0736C12.0781 20.3996 13.0595 22.4165 14.6306 24.0929C15.7403 25.277 16.4285 26.7839 16.6165 28.3812C16.6763 28.8895 17.0996 29.2764 17.6114 29.2764H22.7296C23.2414 29.2764 23.6648 28.8894 23.7246 28.3812C23.9125 26.7839 24.6007 25.277 25.7104 24.0929C27.2816 22.4165 28.263 20.3996 28.263 18.0736Z" fill="#FFE07D"/>
<path d="M22.5696 10.343C24.6032 11.8129 25.9265 14.2049 25.9265 16.906C25.9265 19.2319 24.9452 21.2488 23.374 22.9253C22.6793 23.6666 22.1498 24.5344 21.8048 25.4717C21.2185 27.0645 19.6834 28.1088 17.9862 28.1088H16.5781C16.5921 28.1993 16.6045 28.29 16.6152 28.3812C16.675 28.8895 17.0983 29.2763 17.6101 29.2763H22.7284C23.2401 29.2763 23.6635 28.8894 23.7233 28.3812C23.9112 26.7839 24.5994 25.277 25.7091 24.0929C27.2803 22.4164 28.2616 20.3995 28.2616 18.0736C28.2617 14.4399 25.8669 11.3657 22.5696 10.343Z" fill="#FFD064"/>
<path d="M13.8716 16.4381C13.8262 16.4381 13.78 16.431 13.7344 16.4159C13.5048 16.3402 13.38 16.0926 13.4558 15.863C14.2015 13.602 16.0166 11.878 18.3111 11.2512C18.5442 11.1875 18.7851 11.3249 18.8489 11.5581C18.9126 11.7914 18.7751 12.0322 18.5419 12.0959C16.5313 12.6451 14.9409 14.1559 14.2873 16.1372C14.2266 16.3214 14.0555 16.4381 13.8716 16.4381Z" fill="#FFF3BF"/>
</svg>
