<svg width="32" height="32" viewBox="0 0 32 32" fill="none" xmlns="http://www.w3.org/2000/svg">
<path d="M16.0008 17.3198C16.3748 17.3198 16.6885 17.1931 16.9419 16.9396C17.1945 16.6871 17.3208 16.3738 17.3208 15.9998V10.6868C17.3208 10.3128 17.1945 10.0048 16.9419 9.7628C16.6885 9.5208 16.3748 9.3998 16.0008 9.3998C15.6268 9.3998 15.3135 9.52608 15.0609 9.77864C14.8075 10.0321 14.6808 10.3458 14.6808 10.7198V16.0328C14.6808 16.4068 14.8075 16.7148 15.0609 16.9568C15.3135 17.1988 15.6268 17.3198 16.0008 17.3198ZM16.0008 22.5998C16.3748 22.5998 16.6885 22.4731 16.9419 22.2196C17.1945 21.9671 17.3208 21.6538 17.3208 21.2798C17.3208 20.9058 17.1945 20.5921 16.9419 20.3386C16.6885 20.0861 16.3748 19.9598 16.0008 19.9598C15.6268 19.9598 15.3135 20.0861 15.0609 20.3386C14.8075 20.5921 14.6808 20.9058 14.6808 21.2798C14.6808 21.6538 14.8075 21.9671 15.0609 22.2196C15.3135 22.4731 15.6268 22.5998 16.0008 22.5998ZM16.0008 29.1998C14.1748 29.1998 12.4588 28.8531 10.8528 28.1596C9.24678 27.4671 7.84978 26.5268 6.66178 25.3388C5.47378 24.1508 4.5335 22.7538 3.84094 21.1478C3.1475 19.5418 2.80078 17.8258 2.80078 15.9998C2.80078 14.1738 3.1475 12.4578 3.84094 10.8518C4.5335 9.2458 5.47378 7.8488 6.66178 6.6608C7.84978 5.4728 9.24678 4.53208 10.8528 3.83864C12.4588 3.14608 14.1748 2.7998 16.0008 2.7998C17.8268 2.7998 19.5428 3.14608 21.1488 3.83864C22.7548 4.53208 24.1518 5.4728 25.3398 6.6608C26.5278 7.8488 27.4681 9.2458 28.1606 10.8518C28.8541 12.4578 29.2008 14.1738 29.2008 15.9998C29.2008 17.8258 28.8541 19.5418 28.1606 21.1478C27.4681 22.7538 26.5278 24.1508 25.3398 25.3388C24.1518 26.5268 22.7548 27.4671 21.1488 28.1596C19.5428 28.8531 17.8268 29.1998 16.0008 29.1998Z" fill="#FFC240"/>
</svg>
