<svg width="18" height="17" viewBox="0 0 18 17" fill="none" xmlns="http://www.w3.org/2000/svg">
<path d="M0.666504 14.0394C0.666504 15.385 1.74984 16.414 3.1665 16.414H14.8332C16.2498 16.414 17.3332 15.385 17.3332 14.0394V7.70701H0.666504V14.0394ZM14.8332 2.16622H13.1665V1.37467C13.1665 0.899747 12.8332 0.58313 12.3332 0.58313C11.8332 0.58313 11.4998 0.899747 11.4998 1.37467V2.16622H6.49984V1.37467C6.49984 0.899747 6.1665 0.58313 5.6665 0.58313C5.1665 0.58313 4.83317 0.899747 4.83317 1.37467V2.16622H3.1665C1.74984 2.16622 0.666504 3.19522 0.666504 4.54084V6.12393H17.3332V4.54084C17.3332 3.19522 16.2498 2.16622 14.8332 2.16622Z" fill="black"/>
</svg>
