<svg width="230" height="58" viewBox="0 0 230 58" fill="none" xmlns="http://www.w3.org/2000/svg">
<path d="M223.844 30.7655V54.6405H216.812V30.7655H213.812V24.203H216.812V13.0468H223.844V24.203H229.312V30.7655H223.844Z" fill="#4D77FF"/>
<path d="M207.488 24.203V54.6405H200.457V24.203H207.488ZM199.395 11.5468C199.395 10.3176 199.842 9.25509 200.738 8.35925C201.634 7.46342 202.707 7.0155 203.957 7.0155C205.228 7.0155 206.311 7.46342 207.207 8.35925C208.103 9.23425 208.551 10.3072 208.551 11.578C208.551 12.8488 208.103 13.9322 207.207 14.828C206.332 15.7238 205.259 16.1718 203.988 16.1718C202.717 16.1718 201.634 15.7238 200.738 14.828C199.842 13.9322 199.395 12.8384 199.395 11.5468Z" fill="#4D77FF"/>
<path d="M175.412 1.85925V34.0468L185.318 24.203H194.756L181.537 36.9843L195.725 54.6405H186.6L176.537 41.7968L175.412 42.9218V54.6405H168.381V1.85925H175.412Z" fill="#4D77FF"/>
<path d="M159.682 25.5155V34.8593C158.077 32.9009 156.64 31.5572 155.369 30.828C154.119 30.078 152.65 29.703 150.963 29.703C148.317 29.703 146.119 30.6301 144.369 32.4843C142.619 34.3384 141.744 36.6613 141.744 39.453C141.744 42.3072 142.588 44.6509 144.275 46.4843C145.984 48.3176 148.161 49.2343 150.807 49.2343C152.494 49.2343 153.984 48.8697 155.275 48.1405C156.525 47.4322 157.994 46.0572 159.682 44.0155V53.2968C156.827 54.7759 153.973 55.5155 151.119 55.5155C146.411 55.5155 142.473 53.9947 139.307 50.953C136.14 47.8905 134.557 44.0884 134.557 39.5468C134.557 35.0051 136.161 31.1718 139.369 28.0468C142.577 24.9218 146.515 23.3593 151.182 23.3593C154.182 23.3593 157.015 24.078 159.682 25.5155Z" fill="#4D77FF"/>
<path d="M119.855 24.203H126.918V54.6405H119.855V51.453C116.96 54.1613 113.845 55.5155 110.512 55.5155C106.303 55.5155 102.824 53.9947 100.074 50.953C97.3451 47.8488 95.9805 43.9738 95.9805 39.328C95.9805 34.7655 97.3451 30.9634 100.074 27.9218C102.803 24.8801 106.22 23.3593 110.324 23.3593C113.866 23.3593 117.043 24.8176 119.855 27.7343V24.203ZM103.168 39.328C103.168 42.2447 103.949 44.6197 105.512 46.453C107.116 48.3072 109.137 49.2343 111.574 49.2343C114.178 49.2343 116.283 48.3384 117.887 46.5468C119.491 44.6926 120.293 42.3384 120.293 39.4843C120.293 36.6301 119.491 34.2759 117.887 32.4218C116.283 30.6093 114.199 29.703 111.637 29.703C109.22 29.703 107.199 30.6197 105.574 32.453C103.97 34.3072 103.168 36.5988 103.168 39.328Z" fill="#4D77FF"/>
<path d="M86.4062 30.7655V54.6405H79.375V30.7655H76.375V24.203H79.375V13.0468H86.4062V24.203H91.875V30.7655H86.4062Z" fill="#4D77FF"/>
<rect width="57.3743" height="57.3743" rx="9" fill="#4D77FF"/>
<path d="M28.6875 9.56958C39.2457 9.56971 47.8054 18.1286 47.8057 28.6868C47.8056 39.2444 39.2468 47.8028 28.6895 47.804V47.8049H9.57031L15.3877 42.4192C11.8003 38.9439 9.57034 34.0759 9.57031 28.6868C9.57054 18.1286 18.1294 9.56974 28.6875 9.56958Z" fill="white"/>
<path d="M23.627 26.1041C23.627 25.4177 23.8771 24.8243 24.3774 24.324C24.8777 23.8237 25.4768 23.5736 26.1749 23.5736C26.8846 23.5736 27.4896 23.8237 27.9899 24.324C28.4902 24.8127 28.7403 25.4119 28.7403 26.1216C28.7403 26.8313 28.4902 27.4363 27.9899 27.9365C27.5012 28.4368 26.9021 28.687 26.1924 28.687C25.4827 28.687 24.8777 28.4368 24.3774 27.9365C23.8771 27.4363 23.627 26.8254 23.627 26.1041Z" fill="#4D77FF"/>
<path d="M36.5586 26.1041C36.5586 25.4177 36.8087 24.8243 37.309 24.324C37.8093 23.8237 38.4085 23.5736 39.1065 23.5736C39.8162 23.5736 40.4212 23.8237 40.9215 24.324C41.4218 24.8127 41.6719 25.4119 41.6719 26.1216C41.6719 26.8313 41.4218 27.4363 40.9215 27.9365C40.4329 28.4368 39.8337 28.687 39.124 28.687C38.4143 28.687 37.8093 28.4368 37.309 27.9365C36.8087 27.4363 36.5586 26.8254 36.5586 26.1041Z" fill="#4D77FF"/>
</svg>
