<svg width="16" height="17" viewBox="0 0 16 17" fill="none" xmlns="http://www.w3.org/2000/svg">
<path d="M7.99977 7.68574C5.72977 7.68574 5.26977 4.41825 5.26977 4.41825C4.99977 2.71802 5.81977 0.799316 7.96977 0.799316C10.1298 0.799316 10.9498 2.71802 10.6798 4.41825C10.6798 4.41825 10.2698 7.68574 7.99977 7.68574ZM7.99977 10.1269L10.7198 8.39812C13.1098 8.39812 15.2398 10.6113 15.2398 12.7009V15.0661C15.2398 15.0661 11.5898 16.1394 7.99977 16.1394C4.34977 16.1394 0.759766 15.0661 0.759766 15.0661V12.7009C0.759766 10.5638 2.69977 8.44562 5.22977 8.44562L7.99977 10.1269Z" fill="black"/>
</svg>
