<svg width="19" height="19" viewBox="0 0 19 19" fill="none" xmlns="http://www.w3.org/2000/svg">
<path d="M9.89713 18.8663C9.36713 18.8682 8.85713 18.6669 8.48313 18.3097L0.646127 10.8676C0.4418 10.6742 0.284121 10.4409 0.183982 10.1839C0.0838429 9.92697 0.043632 9.6524 0.0661272 9.37922L0.566127 3.1425C0.60067 2.68845 0.806654 2.26151 1.14619 1.94023C1.48573 1.61894 1.93598 1.42491 2.41413 1.39382L8.98013 0.918896C9.03213 0.908447 9.08313 0.908447 9.13513 0.908447C9.66513 0.908447 10.1721 1.10792 10.5451 1.46506L18.3831 8.90619C18.5689 9.08261 18.7163 9.29206 18.8169 9.5226C18.9174 9.75313 18.9692 10.0002 18.9692 10.2498C18.9692 10.4993 18.9174 10.7464 18.8169 10.9769C18.7163 11.2075 18.5689 11.4169 18.3831 11.5933L11.3111 18.3097C11.1259 18.4867 10.9055 18.627 10.6628 18.7225C10.4201 18.8181 10.1599 18.867 9.89713 18.8663ZM5.65413 4.32031C5.32524 4.3204 5.00145 4.39753 4.71143 4.54487C4.42142 4.69221 4.17413 4.9052 3.99148 5.165C3.80883 5.42479 3.69644 5.72336 3.66428 6.03426C3.63212 6.34516 3.68118 6.65879 3.80711 6.94738C3.93304 7.23597 4.13195 7.49061 4.38623 7.68875C4.6405 7.88688 4.9423 8.02239 5.26488 8.08328C5.58747 8.14417 5.92088 8.12856 6.23559 8.03782C6.5503 7.94709 6.8366 7.78404 7.06913 7.5631L7.07613 7.5574L7.08313 7.55076L7.07513 7.5574C7.35311 7.29103 7.54187 6.95246 7.6176 6.58436C7.69333 6.21626 7.65265 5.8351 7.50069 5.48892C7.34873 5.14274 7.09228 4.84704 6.76367 4.63908C6.43506 4.43111 6.04899 4.3202 5.65413 4.32031Z" fill="black"/>
</svg>
