<svg width="64" height="64" viewBox="0 0 64 64" fill="none" xmlns="http://www.w3.org/2000/svg">
<path d="M0 12C0 5.37258 5.37258 0 12 0H52C58.6274 0 64 5.37258 64 12V52C64 58.6274 58.6274 64 52 64H12C5.37258 64 0 58.6274 0 52V12Z" fill="#4D77FF"/>
<path d="M35.5 34.25C36.7598 34.25 37.9676 34.7508 38.8584 35.6416C39.7492 36.5324 40.25 37.7402 40.25 39V41C40.25 41.4142 39.9142 41.75 39.5 41.75H24.5C24.0858 41.75 23.75 41.4142 23.75 41V39C23.75 37.7402 24.2508 36.5324 25.1416 35.6416C26.0324 34.7508 27.2402 34.25 28.5 34.25H35.5ZM32 22.25C34.6234 22.25 36.75 24.3766 36.75 27C36.75 29.6234 34.6234 31.75 32 31.75C29.3766 31.75 27.25 29.6234 27.25 27C27.25 24.3766 29.3766 22.25 32 22.25Z" fill="#EDF1FF"/>
</svg>
