<svg width="64" height="64" viewBox="0 0 64 64" fill="none" xmlns="http://www.w3.org/2000/svg">
<path d="M0 12C0 5.37258 5.37258 0 12 0H52C58.6274 0 64 5.37258 64 12V52C64 58.6274 58.6274 64 52 64H12C5.37258 64 0 58.6274 0 52V12Z" fill="#EDF1FF"/>
<path d="M29 36.5C28.3 36.5 27.7083 36.2583 27.225 35.775C26.7417 35.2917 26.5 34.7 26.5 34C26.5 33.3 26.7417 32.7083 27.225 32.225C27.7083 31.7417 28.3 31.5 29 31.5C29.7 31.5 30.2917 31.7417 30.775 32.225C31.2583 32.7083 31.5 33.3 31.5 34C31.5 34.7 31.2583 35.2917 30.775 35.775C30.2917 36.2583 29.7 36.5 29 36.5ZM25 42C24.45 42 23.979 41.8043 23.587 41.413C23.1957 41.021 23 40.55 23 40V26C23 25.45 23.1957 24.9793 23.587 24.588C23.979 24.196 24.45 24 25 24H26V23C26 22.7167 26.0957 22.479 26.287 22.287C26.479 22.0957 26.7167 22 27 22C27.2833 22 27.521 22.0957 27.713 22.287C27.9043 22.479 28 22.7167 28 23V24H36V23C36 22.7167 36.096 22.479 36.288 22.287C36.4793 22.0957 36.7167 22 37 22C37.2833 22 37.5207 22.0957 37.712 22.287C37.904 22.479 38 22.7167 38 23V24H39C39.55 24 40.021 24.196 40.413 24.588C40.8043 24.9793 41 25.45 41 26V40C41 40.55 40.8043 41.021 40.413 41.413C40.021 41.8043 39.55 42 39 42H25ZM25 40H39V30H25V40Z" fill="#4D77FF"/>
</svg>
