<svg width="64" height="64" viewBox="0 0 64 64" fill="none" xmlns="http://www.w3.org/2000/svg">
<path d="M0 12C0 5.37258 5.37258 0 12 0H52C58.6274 0 64 5.37258 64 12V52C64 58.6274 58.6274 64 52 64H12C5.37258 64 0 58.6274 0 52V12Z" fill="#F4F5F6"/>
<g clip-path="url(#clip0_1200_8649)">
<path d="M35.32 23H28.68C28.42 23 28.16 23.11 27.98 23.29L23.29 27.98C23.11 28.16 23 28.42 23 28.68V35.31C23 35.58 23.11 35.83 23.29 36.02L27.97 40.7C28.16 40.89 28.42 41 28.68 41H35.31C35.58 41 35.83 40.89 36.02 40.71L40.7 36.03C40.89 35.84 40.99 35.59 40.99 35.32V28.68C40.99 28.41 40.88 28.16 40.7 27.97L36.02 23.29C35.84 23.11 35.58 23 35.32 23ZM32 37.3C31.28 37.3 30.7 36.72 30.7 36C30.7 35.28 31.28 34.7 32 34.7C32.72 34.7 33.3 35.28 33.3 36C33.3 36.72 32.72 37.3 32 37.3ZM32 33C31.45 33 31 32.55 31 32V28C31 27.45 31.45 27 32 27C32.55 27 33 27.45 33 28V32C33 32.55 32.55 33 32 33Z" fill="#58616A"/>
</g>
<defs>
<clipPath id="clip0_1200_8649">
<rect width="24" height="24" fill="white" transform="translate(20 20)"/>
</clipPath>
</defs>
</svg>
