<svg width="64" height="64" viewBox="0 0 64 64" fill="none" xmlns="http://www.w3.org/2000/svg">
<path d="M0 12C0 5.37258 5.37258 0 12 0H52C58.6274 0 64 5.37258 64 12V52C64 58.6274 58.6274 64 52 64H12C5.37258 64 0 58.6274 0 52V12Z" fill="#EDF1FF"/>
<path d="M32 34C31.7167 34 31.4793 33.904 31.288 33.712C31.096 33.5207 31 33.2833 31 33C31 32.7167 31.096 32.479 31.288 32.287C31.4793 32.0957 31.7167 32 32 32C32.2833 32 32.521 32.0957 32.713 32.287C32.9043 32.479 33 32.7167 33 33C33 33.2833 32.9043 33.5207 32.713 33.712C32.521 33.904 32.2833 34 32 34ZM28 34C27.7167 34 27.479 33.904 27.287 33.712C27.0957 33.5207 27 33.2833 27 33C27 32.7167 27.0957 32.479 27.287 32.287C27.479 32.0957 27.7167 32 28 32C28.2833 32 28.521 32.0957 28.713 32.287C28.9043 32.479 29 32.7167 29 33C29 33.2833 28.9043 33.5207 28.713 33.712C28.521 33.904 28.2833 34 28 34ZM36 34C35.7167 34 35.4793 33.904 35.288 33.712C35.096 33.5207 35 33.2833 35 33C35 32.7167 35.096 32.479 35.288 32.287C35.4793 32.0957 35.7167 32 36 32C36.2833 32 36.5207 32.0957 36.712 32.287C36.904 32.479 37 32.7167 37 33C37 33.2833 36.904 33.5207 36.712 33.712C36.5207 33.904 36.2833 34 36 34ZM32 38C31.7167 38 31.4793 37.904 31.288 37.712C31.096 37.5207 31 37.2833 31 37C31 36.7167 31.096 36.4793 31.288 36.288C31.4793 36.096 31.7167 36 32 36C32.2833 36 32.521 36.096 32.713 36.288C32.9043 36.4793 33 36.7167 33 37C33 37.2833 32.9043 37.5207 32.713 37.712C32.521 37.904 32.2833 38 32 38ZM28 38C27.7167 38 27.479 37.904 27.287 37.712C27.0957 37.5207 27 37.2833 27 37C27 36.7167 27.0957 36.4793 27.287 36.288C27.479 36.096 27.7167 36 28 36C28.2833 36 28.521 36.096 28.713 36.288C28.9043 36.4793 29 36.7167 29 37C29 37.2833 28.9043 37.5207 28.713 37.712C28.521 37.904 28.2833 38 28 38ZM36 38C35.7167 38 35.4793 37.904 35.288 37.712C35.096 37.5207 35 37.2833 35 37C35 36.7167 35.096 36.4793 35.288 36.288C35.4793 36.096 35.7167 36 36 36C36.2833 36 36.5207 36.096 36.712 36.288C36.904 36.4793 37 36.7167 37 37C37 37.2833 36.904 37.5207 36.712 37.712C36.5207 37.904 36.2833 38 36 38ZM25 42C24.45 42 23.979 41.8043 23.587 41.413C23.1957 41.021 23 40.55 23 40V26C23 25.45 23.1957 24.9793 23.587 24.588C23.979 24.196 24.45 24 25 24H26V23C26 22.7167 26.0957 22.479 26.287 22.287C26.479 22.0957 26.7167 22 27 22C27.2833 22 27.521 22.0957 27.713 22.287C27.9043 22.479 28 22.7167 28 23V24H36V23C36 22.7167 36.096 22.479 36.288 22.287C36.4793 22.0957 36.7167 22 37 22C37.2833 22 37.5207 22.0957 37.712 22.287C37.904 22.479 38 22.7167 38 23V24H39C39.55 24 40.021 24.196 40.413 24.588C40.8043 24.9793 41 25.45 41 26V40C41 40.55 40.8043 41.021 40.413 41.413C40.021 41.8043 39.55 42 39 42H25ZM25 40H39V30H25V40Z" fill="#4D77FF"/>
</svg>
