<svg width="64" height="64" viewBox="0 0 64 64" fill="none" xmlns="http://www.w3.org/2000/svg">
<path d="M0 12C0 5.37258 5.37258 0 12 0H52C58.6274 0 64 5.37258 64 12V52C64 58.6274 58.6274 64 52 64H12C5.37258 64 0 58.6274 0 52V12Z" fill="#EDF1FF"/>
<path d="M32 37C32.2833 37 32.521 36.904 32.713 36.712C32.9043 36.5207 33 36.2833 33 36V33H36.025C36.3083 33 36.5417 32.904 36.725 32.712C36.9083 32.5207 37 32.2833 37 32C37 31.7167 36.904 31.479 36.712 31.287C36.5207 31.0957 36.2833 31 36 31H33V27.975C33 27.6917 32.9043 27.4583 32.713 27.275C32.521 27.0917 32.2833 27 32 27C31.7167 27 31.4793 27.0957 31.288 27.287C31.096 27.479 31 27.7167 31 28V31H27.975C27.6917 31 27.4583 31.0957 27.275 31.287C27.0917 31.479 27 31.7167 27 32C27 32.2833 27.0957 32.5207 27.287 32.712C27.479 32.904 27.7167 33 28 33H31V36.025C31 36.3083 31.096 36.5417 31.288 36.725C31.4793 36.9083 31.7167 37 32 37ZM32 42C30.6167 42 29.3167 41.7373 28.1 41.212C26.8833 40.6873 25.825 39.975 24.925 39.075C24.025 38.175 23.3127 37.1167 22.788 35.9C22.2627 34.6833 22 33.3833 22 32C22 30.6167 22.2627 29.3167 22.788 28.1C23.3127 26.8833 24.025 25.825 24.925 24.925C25.825 24.025 26.8833 23.3123 28.1 22.787C29.3167 22.2623 30.6167 22 32 22C33.3833 22 34.6833 22.2623 35.9 22.787C37.1167 23.3123 38.175 24.025 39.075 24.925C39.975 25.825 40.6873 26.8833 41.212 28.1C41.7373 29.3167 42 30.6167 42 32C42 33.3833 41.7373 34.6833 41.212 35.9C40.6873 37.1167 39.975 38.175 39.075 39.075C38.175 39.975 37.1167 40.6873 35.9 41.212C34.6833 41.7373 33.3833 42 32 42Z" fill="#4D77FF"/>
</svg>
