<svg width="64" height="64" viewBox="0 0 64 64" fill="none" xmlns="http://www.w3.org/2000/svg">
<path d="M0 12C0 5.37258 5.37258 0 12 0H52C58.6274 0 64 5.37258 64 12V52C64 58.6274 58.6274 64 52 64H12C5.37258 64 0 58.6274 0 52V12Z" fill="#EDF1FF"/>
<g clip-path="url(#clip0_1200_8555)">
<path d="M35 36L31 40H39C40.1 40 41 39.1 41 38C41 36.9 40.1 36 39 36H35Z" fill="#4D77FF"/>
<path d="M32.06 27.1895L23.29 35.9595C23.11 36.1395 23 36.3995 23 36.6595V38.9995C23 39.5495 23.45 39.9995 24 39.9995H26.34C26.61 39.9995 26.86 39.8895 27.05 39.7095L35.82 30.9395L32.06 27.1895Z" fill="#4D77FF"/>
<path d="M38.7109 28.0396C39.1009 27.6496 39.1009 27.0196 38.7109 26.6296L36.3709 24.2896C35.9809 23.8996 35.3509 23.8996 34.9609 24.2896L33.1309 26.1196L36.8809 29.8696L38.7109 28.0396Z" fill="#4D77FF"/>
</g>
<defs>
<clipPath id="clip0_1200_8555">
<rect width="24" height="24" fill="white" transform="translate(20 20)"/>
</clipPath>
</defs>
</svg>
