<svg width="64" height="64" viewBox="0 0 64 64" fill="none" xmlns="http://www.w3.org/2000/svg">
<path d="M0 12C0 5.37258 5.37258 0 12 0H52C58.6274 0 64 5.37258 64 12V52C64 58.6274 58.6274 64 52 64H12C5.37258 64 0 58.6274 0 52V12Z" fill="#F4F5F6"/>
<g clip-path="url(#clip0_1200_8641)">
<path d="M34.9 23H29.1C28.57 23 28.06 23.21 27.68 23.59L23.58 27.69C23.21 28.06 23 28.57 23 29.1V34.9C23 35.43 23.21 35.94 23.59 36.31L27.69 40.41C28.06 40.79 28.57 41 29.1 41H34.9C35.43 41 35.94 40.79 36.31 40.41L40.41 36.31C40.79 35.94 41 35.43 41 34.9V29.1C41 28.57 40.79 28.06 40.41 27.69L36.31 23.59C35.94 23.21 35.43 23 34.9 23ZM35.54 35.54C35.15 35.93 34.52 35.93 34.13 35.54L32 33.41L29.88 35.53C29.49 35.92 28.86 35.92 28.47 35.53C28.08 35.14 28.08 34.51 28.47 34.12L30.59 32L28.46 29.88C28.07 29.49 28.07 28.86 28.46 28.47C28.85 28.08 29.48 28.08 29.87 28.47L32 30.59L34.12 28.47C34.51 28.08 35.14 28.08 35.53 28.47C35.92 28.86 35.92 29.49 35.53 29.88L33.41 32L35.53 34.12C35.93 34.51 35.93 35.15 35.54 35.54Z" fill="#58616A"/>
</g>
<defs>
<clipPath id="clip0_1200_8641">
<rect width="24" height="24" fill="white" transform="translate(20 20)"/>
</clipPath>
</defs>
</svg>
