<svg width="1101" height="252" viewBox="0 0 1101 252" fill="none" xmlns="http://www.w3.org/2000/svg">
<path d="M0.597656 12.0376C0.597656 5.41018 5.97024 0.0375977 12.5977 0.0375977H1088.6C1095.23 0.0375977 1100.6 5.41018 1100.6 12.0376V239.038C1100.6 245.665 1095.23 251.038 1088.6 251.038H12.5976C5.97023 251.038 0.597656 245.665 0.597656 239.038V12.0376Z" fill="url(#paint0_linear_950_3882)"/>
<path d="M60.5977 68.0376C60.5977 63.6193 64.1794 60.0376 68.5977 60.0376H102.598C107.016 60.0376 110.598 63.6193 110.598 68.0376V80.0376C110.598 84.4559 107.016 88.0376 102.598 88.0376H68.5977C64.1794 88.0376 60.5977 84.4559 60.5977 80.0376V68.0376Z" fill="#EDF1FF"/>
<path d="M69.1445 69.1392H76.6094V70.2329H73.5059V79.0376H72.2617V70.2329H69.1445V69.1392ZM76.4402 79.0376L80.0633 69.1392H81.3621L84.9852 79.0376H83.6863L82.6951 76.2485H78.7166L77.7254 79.0376H76.4402ZM82.3191 75.1685L80.7469 70.7388H80.6648L79.0926 75.1685H82.3191ZM86.525 69.1392H87.7555V77.9438H92.3492V79.0376H86.525V69.1392ZM94.1898 69.1392H95.4203V74.0337H95.5434L99.9457 69.1392H101.559L97.4164 73.6099L101.559 79.0376H100.055L96.6508 74.4575L95.4203 75.8521V79.0376H94.1898V69.1392Z" fill="#4D77FF"/>
<path d="M73.3594 126.999C73.3477 128.674 73.6406 130.356 74.2383 132.043C74.8359 133.731 75.7207 135.272 76.8926 136.667C78.0762 138.061 79.5117 139.151 81.1992 139.936L78.7031 143.452C76.9805 142.655 75.4805 141.5 74.2031 139.989C72.9258 138.465 71.9121 136.708 71.1621 134.715C70.4238 136.895 69.3926 138.823 68.0684 140.499C66.7559 142.163 65.2031 143.417 63.4102 144.26L60.8086 140.709C62.5195 139.913 63.9785 138.782 65.1855 137.317C66.3926 135.852 67.3008 134.223 67.9102 132.43C68.5312 130.625 68.8477 128.815 68.8594 126.999V125.03H62.0742V121.374H79.793V125.03H73.3594V126.999ZM82.2891 118.28H86.7891V130.479H91.5V134.241H86.7891V150.272H82.2891V118.28ZM121.51 139.69H114.655V150.272H110.084V139.69H103.545V150.272H98.9398V139.69H92.225V136.069H121.51V139.69ZM95.1781 126.577C95.1781 125.124 95.6645 123.852 96.6371 122.762C97.6098 121.672 98.9691 120.829 100.715 120.231C102.473 119.633 104.495 119.334 106.78 119.334C109.065 119.334 111.086 119.633 112.844 120.231C114.614 120.829 115.991 121.672 116.975 122.762C117.959 123.852 118.452 125.124 118.452 126.577C118.452 127.995 117.959 129.237 116.975 130.303C115.991 131.358 114.614 132.172 112.844 132.747C111.086 133.321 109.065 133.608 106.78 133.608C104.506 133.608 102.491 133.321 100.733 132.747C98.975 132.172 97.6098 131.358 96.6371 130.303C95.6645 129.237 95.1781 127.995 95.1781 126.577ZM99.7836 126.577C99.7719 127.69 100.387 128.551 101.629 129.161C102.883 129.77 104.6 130.081 106.78 130.092C108.971 130.081 110.688 129.77 111.93 129.161C113.184 128.551 113.811 127.69 113.811 126.577C113.811 125.417 113.184 124.52 111.93 123.887C110.688 123.254 108.971 122.932 106.78 122.92C104.6 122.932 102.883 123.254 101.629 123.887C100.387 124.52 99.7719 125.417 99.7836 126.577ZM152.223 137.721H122.938V134.17H135.348V132.237H126.595V123.834H144.173V122.182H126.524V118.737H148.673V127.034H131.059V128.827H149.27V132.237H139.813V134.17H152.223V137.721ZM126.63 138.881H131.095V140.991H144.348V138.881H148.778V149.92H126.63V138.881ZM144.348 146.475V144.331H131.095V146.475H144.348ZM181.425 150.272H177.206V118.28H181.425V150.272ZM153.3 140.463C156.476 138.577 158.843 136.444 160.402 134.065C161.972 131.686 162.915 128.897 163.232 125.698H155.058V122.077H167.679C167.679 125.252 167.31 128.1 166.571 130.62H170.421V118.983H174.605V148.866H170.421V134.17H165.183C164.245 136.045 163.009 137.768 161.474 139.338C159.939 140.909 158.058 142.338 155.831 143.627L153.3 140.463ZM199.539 120.565C200.945 120.565 202.182 121.034 203.248 121.971C204.314 122.897 205.141 124.233 205.727 125.979C206.312 127.725 206.605 129.776 206.605 132.131C206.605 134.499 206.312 136.561 205.727 138.319C205.141 140.065 204.314 141.413 203.248 142.362C202.182 143.299 200.945 143.768 199.539 143.768C198.133 143.768 196.902 143.299 195.848 142.362C194.805 141.413 193.996 140.065 193.422 138.319C192.859 136.561 192.578 134.499 192.578 132.131C192.578 129.776 192.859 127.725 193.422 125.979C193.996 124.233 194.805 122.897 195.848 121.971C196.902 121.034 198.133 120.565 199.539 120.565ZM196.727 132.131C196.715 134.557 196.949 136.391 197.43 137.633C197.922 138.864 198.625 139.467 199.539 139.444C200.465 139.467 201.18 138.87 201.684 137.651C202.199 136.432 202.457 134.633 202.457 132.254C202.457 129.782 202.205 127.918 201.701 126.665C201.197 125.411 200.477 124.784 199.539 124.784C198.625 124.784 197.922 125.405 197.43 126.647C196.949 127.889 196.715 129.717 196.727 132.131ZM208.609 118.737H212.863V125.944H215.746V118.28H220.035V150.272H215.746V138.811H212.863V148.795H208.609V118.737ZM215.746 135.19V129.565H212.863V135.19H215.746ZM249.905 150.272H245.37V118.28H249.905V150.272ZM223.116 141.202C225.846 139.913 228.096 138.477 229.866 136.895C231.647 135.313 233.006 133.561 233.944 131.639C234.893 129.706 235.491 127.538 235.737 125.135H224.838V121.62H240.307C240.295 125.042 239.832 128.153 238.918 130.954C238.004 133.754 236.452 136.327 234.26 138.67C232.08 141.014 229.151 143.053 225.471 144.788L223.116 141.202ZM269.157 126.717H253.688V123.167H259.243V119.159H263.673V123.167H269.157V126.717ZM254.427 135.752C254.427 134.288 254.731 132.981 255.341 131.833C255.95 130.684 256.788 129.788 257.854 129.143C258.932 128.487 260.145 128.159 261.493 128.159C262.841 128.159 264.048 128.487 265.114 129.143C266.18 129.788 267.012 130.684 267.61 131.833C268.22 132.981 268.524 134.288 268.524 135.752C268.524 137.217 268.22 138.53 267.61 139.69C267.012 140.85 266.18 141.758 265.114 142.415C264.048 143.059 262.841 143.381 261.493 143.381C260.145 143.381 258.932 143.059 257.854 142.415C256.788 141.758 255.95 140.85 255.341 139.69C254.731 138.53 254.427 137.217 254.427 135.752ZM258.364 135.752C258.364 136.959 258.645 137.903 259.208 138.583C259.782 139.25 260.544 139.584 261.493 139.584C262.407 139.584 263.145 139.245 263.708 138.565C264.282 137.885 264.575 136.948 264.587 135.752C264.587 134.967 264.452 134.282 264.182 133.696C263.913 133.11 263.544 132.665 263.075 132.36C262.618 132.043 262.091 131.885 261.493 131.885C260.555 131.885 259.8 132.231 259.225 132.922C258.651 133.614 258.364 134.557 258.364 135.752ZM270.352 118.913H274.536V131.288H277.137V118.28H281.391V150.272H277.137V134.874H274.536V148.901H270.352V118.913ZM313.722 146.545H284.437V142.854H290.976V135.014C289.71 134.252 288.732 133.315 288.04 132.202C287.349 131.077 287.003 129.823 287.003 128.44C287.003 126.741 287.519 125.241 288.55 123.94C289.581 122.639 291.005 121.631 292.821 120.917C294.65 120.19 296.718 119.827 299.027 119.827C301.323 119.827 303.386 120.19 305.214 120.917C307.042 121.631 308.478 122.639 309.521 123.94C310.564 125.241 311.085 126.741 311.085 128.44C311.073 129.799 310.734 131.03 310.066 132.131C309.398 133.233 308.448 134.165 307.218 134.926V142.854H313.722V146.545ZM291.433 128.44C291.433 129.471 291.743 130.368 292.364 131.129C292.997 131.891 293.882 132.477 295.019 132.887C296.167 133.297 297.503 133.502 299.027 133.502C300.527 133.502 301.851 133.297 302.999 132.887C304.148 132.477 305.044 131.891 305.689 131.129C306.333 130.368 306.655 129.471 306.655 128.44C306.655 127.385 306.333 126.477 305.689 125.715C305.056 124.954 304.165 124.374 303.017 123.975C301.868 123.565 300.538 123.366 299.027 123.377C297.503 123.377 296.167 123.577 295.019 123.975C293.882 124.374 292.997 124.954 292.364 125.715C291.743 126.477 291.433 127.385 291.433 128.44ZM302.683 142.854V136.631C301.511 136.866 300.292 136.983 299.027 136.983C297.796 136.983 296.589 136.872 295.405 136.649V142.854H302.683Z" fill="white"/>
<path d="M67.7852 171.108C67.7852 171.902 67.9316 172.661 68.2246 173.383C68.5176 174.106 68.9668 174.754 69.5723 175.327C70.1777 175.893 70.9362 176.329 71.8477 176.635L70.5 178.588C69.582 178.25 68.791 177.768 68.127 177.143C67.4694 176.518 66.9486 175.782 66.5645 174.936C66.1738 175.893 65.627 176.72 64.9238 177.417C64.2207 178.107 63.3646 178.634 62.3555 178.999L61.0078 177.045C61.9648 176.733 62.7591 176.274 63.3906 175.668C64.0286 175.063 64.4974 174.37 64.7969 173.588C65.1029 172.801 65.2591 171.967 65.2656 171.088V169.155H67.7852V171.108ZM64.2695 179.819H66.7891V183.53H76.4766V185.522H64.2695V179.819ZM70.2852 171.85H73.625V168.081H76.1055V181.206H73.625V173.862H70.2852V171.85ZM80.9617 173.647H83.3836V169.643H85.6883V181.616H78.618V169.643H80.9617V173.647ZM83.3836 179.624V175.6H80.9617V179.624H83.3836ZM87.1727 168.315H89.5359V174.838H91.1375V168.061H93.5203V185.834H91.1375V176.87H89.5359V185.014H87.1727V168.315ZM105.948 172.084C105.941 173.172 106.094 174.226 106.407 175.249C106.719 176.264 107.191 177.176 107.823 177.983C108.454 178.79 109.229 179.415 110.147 179.858L108.643 181.85C107.718 181.388 106.927 180.743 106.27 179.917C105.612 179.083 105.095 178.113 104.717 177.006C104.314 178.198 103.763 179.239 103.067 180.131C102.37 181.017 101.534 181.7 100.557 182.182L99.0141 180.17C99.9841 179.728 100.801 179.086 101.465 178.247C102.129 177.4 102.624 176.446 102.95 175.385C103.282 174.318 103.448 173.217 103.448 172.084V169.428H105.948V172.084ZM110.928 168.061H113.428V174.917H116.045V177.026H113.428V185.834H110.928V168.061ZM131.448 181.499H128.948V180.092H125.55V178.393H128.948V168.081H131.448V181.499ZM116.331 175.952C118.564 175.939 120.609 175.9 122.464 175.834C124.32 175.763 126.077 175.626 127.737 175.424L127.874 177.202C126.52 177.43 125.088 177.599 123.577 177.709V181.088H121.077V183.53H131.839V185.522H118.597V180.209H121.077V177.856C119.84 177.902 118.356 177.924 116.624 177.924L116.331 175.952ZM117.64 171.87C117.64 171.245 117.829 170.691 118.206 170.209C118.584 169.728 119.111 169.353 119.788 169.086C120.465 168.819 121.24 168.686 122.112 168.686C122.965 168.686 123.727 168.819 124.398 169.086C125.068 169.353 125.592 169.728 125.97 170.209C126.354 170.691 126.546 171.245 126.546 171.87C126.546 172.495 126.354 173.045 125.97 173.52C125.592 173.995 125.068 174.36 124.398 174.614C123.727 174.868 122.965 174.995 122.112 174.995C121.234 174.995 120.456 174.868 119.779 174.614C119.108 174.36 118.584 173.995 118.206 173.52C117.829 173.045 117.64 172.495 117.64 171.87ZM120.003 171.87C119.997 172.293 120.185 172.622 120.57 172.856C120.96 173.084 121.487 173.198 122.152 173.198C122.751 173.198 123.236 173.081 123.607 172.846C123.984 172.612 124.176 172.286 124.183 171.87C124.176 171.44 123.981 171.105 123.597 170.864C123.219 170.623 122.724 170.502 122.112 170.502C121.468 170.502 120.954 170.623 120.57 170.864C120.185 171.105 119.997 171.44 120.003 171.87ZM143.238 171.147C143.232 172.312 143.199 173.406 143.141 174.428C143.082 175.45 142.945 176.642 142.73 178.002L140.895 177.866C141.096 176.622 141.23 175.506 141.295 174.516C141.36 173.527 141.396 172.547 141.402 171.577H134.293V170.073H143.238V171.147ZM133.316 180.424C134.911 180.411 136.109 180.395 136.91 180.375V175.073H138.746V180.317C140.966 180.226 142.802 180.086 144.254 179.897L144.352 181.284C141.689 181.713 138.352 181.928 134.342 181.928H133.531L133.316 180.424ZM145.25 168.198H147.125V175.424H149.801V177.006H147.125V185.698H145.25V168.198ZM169.826 181.049H167.326V168.081H169.826V181.049ZM154.884 176.655C155.841 176.336 156.639 175.874 157.277 175.268C157.915 174.656 158.387 173.963 158.693 173.188C159.005 172.413 159.162 171.609 159.162 170.776V169.057H161.759V170.776C161.753 171.59 161.896 172.364 162.189 173.1C162.489 173.829 162.951 174.48 163.576 175.053C164.201 175.626 164.982 176.062 165.92 176.362L164.65 178.315C163.667 177.989 162.827 177.514 162.13 176.889C161.434 176.258 160.88 175.506 160.47 174.633C160.054 175.571 159.484 176.385 158.761 177.075C158.045 177.765 157.183 178.282 156.173 178.627L154.884 176.655ZM157.912 179.799H160.431V183.53H170.295V185.522H157.912V179.799ZM186.811 177.612H184.311V168.061H186.811V177.612ZM172.202 173.022C172.202 172.202 172.413 171.472 172.836 170.834C173.26 170.19 173.839 169.689 174.575 169.331C175.317 168.972 176.147 168.797 177.065 168.803C177.976 168.797 178.8 168.972 179.536 169.331C180.278 169.689 180.86 170.19 181.284 170.834C181.713 171.472 181.928 172.202 181.928 173.022C181.928 173.816 181.713 174.529 181.284 175.161C180.86 175.792 180.278 176.287 179.536 176.645C178.8 177.003 177.976 177.182 177.065 177.182C176.147 177.182 175.317 177.003 174.575 176.645C173.839 176.287 173.26 175.792 172.836 175.161C172.413 174.529 172.202 173.816 172.202 173.022ZM174.643 173.022C174.636 173.452 174.734 173.826 174.936 174.145C175.144 174.464 175.431 174.708 175.795 174.877C176.166 175.047 176.59 175.131 177.065 175.131C177.527 175.131 177.937 175.047 178.295 174.877C178.66 174.708 178.946 174.464 179.155 174.145C179.363 173.826 179.467 173.452 179.467 173.022C179.467 172.586 179.363 172.205 179.155 171.879C178.946 171.554 178.66 171.306 178.295 171.137C177.937 170.961 177.527 170.874 177.065 170.874C176.59 170.874 176.166 170.961 175.795 171.137C175.431 171.306 175.144 171.554 174.936 171.879C174.734 172.205 174.636 172.586 174.643 173.022ZM174.916 178.393H177.377V180.053H184.33V178.393H186.811V185.639H174.916V178.393ZM184.33 183.627V181.987H177.377V183.627H184.33ZM199.766 172.084C199.759 173.172 199.912 174.226 200.225 175.249C200.537 176.264 201.009 177.176 201.641 177.983C202.272 178.79 203.047 179.415 203.965 179.858L202.461 181.85C201.536 181.388 200.745 180.743 200.088 179.917C199.43 179.083 198.913 178.113 198.535 177.006C198.132 178.198 197.581 179.239 196.885 180.131C196.188 181.017 195.352 181.7 194.375 182.182L192.832 180.17C193.802 179.728 194.619 179.086 195.283 178.247C195.947 177.4 196.442 176.446 196.768 175.385C197.1 174.318 197.266 173.217 197.266 172.084V169.428H199.766V172.084ZM204.746 168.061H207.246V174.917H209.863V177.026H207.246V185.834H204.746V168.061ZM225.266 181.499H222.766V180.092H219.368V178.393H222.766V168.081H225.266V181.499ZM210.149 175.952C212.382 175.939 214.427 175.9 216.282 175.834C218.137 175.763 219.895 175.626 221.555 175.424L221.692 177.202C220.338 177.43 218.906 177.599 217.395 177.709V181.088H214.895V183.53H225.657V185.522H212.415V180.209H214.895V177.856C213.658 177.902 212.174 177.924 210.442 177.924L210.149 175.952ZM211.458 171.87C211.458 171.245 211.647 170.691 212.024 170.209C212.402 169.728 212.929 169.353 213.606 169.086C214.283 168.819 215.058 168.686 215.93 168.686C216.783 168.686 217.545 168.819 218.216 169.086C218.886 169.353 219.41 169.728 219.788 170.209C220.172 170.691 220.364 171.245 220.364 171.87C220.364 172.495 220.172 173.045 219.788 173.52C219.41 173.995 218.886 174.36 218.216 174.614C217.545 174.868 216.783 174.995 215.93 174.995C215.052 174.995 214.274 174.868 213.596 174.614C212.926 174.36 212.402 173.995 212.024 173.52C211.647 173.045 211.458 172.495 211.458 171.87ZM213.821 171.87C213.815 172.293 214.003 172.622 214.387 172.856C214.778 173.084 215.305 173.198 215.97 173.198C216.568 173.198 217.054 173.081 217.425 172.846C217.802 172.612 217.994 172.286 218.001 171.87C217.994 171.44 217.799 171.105 217.415 170.864C217.037 170.623 216.542 170.502 215.93 170.502C215.286 170.502 214.772 170.623 214.387 170.864C214.003 171.105 213.815 171.44 213.821 171.87ZM247.635 183.51H231.62V181.967H238.67V177.924H233.455V169.604H245.721V177.924H240.506V181.967H247.635V183.51ZM243.905 176.459V171.088H235.252V176.459H243.905ZM262.628 176.108H250.753V169.194H262.413V170.698H252.628V174.643H262.628V176.108ZM248.585 178.237H264.601V179.741H257.452V185.659H255.636V179.741H248.585V178.237ZM276.266 173.354C276.266 174.272 276.455 175.203 276.833 176.147C277.21 177.084 277.738 177.937 278.415 178.706C279.098 179.467 279.873 180.053 280.739 180.463L279.684 181.909C278.721 181.446 277.861 180.756 277.106 179.838C276.351 178.914 275.772 177.872 275.368 176.713C274.964 177.97 274.369 179.103 273.581 180.112C272.8 181.114 271.917 181.863 270.934 182.358L269.841 180.893C270.707 180.476 271.488 179.864 272.184 179.057C272.887 178.243 273.438 177.335 273.835 176.333C274.232 175.323 274.43 174.331 274.43 173.354V171.499H270.485V169.956H280.075V171.499H276.266V173.354ZM281.95 168.198H283.805V175.131H286.618V176.694H283.805V185.698H281.95V168.198ZM303.154 179.604H299.091V185.698H297.216V179.604H293.037V185.698H291.123V179.604H287.138V178.081H303.154V179.604ZM288.877 172.729C288.877 171.954 289.137 171.274 289.658 170.688C290.185 170.102 290.918 169.653 291.855 169.34C292.799 169.021 293.883 168.862 295.107 168.862C296.331 168.862 297.415 169.021 298.359 169.34C299.303 169.653 300.035 170.102 300.556 170.688C301.077 171.274 301.337 171.954 301.337 172.729C301.337 173.497 301.077 174.168 300.556 174.741C300.035 175.314 299.303 175.756 298.359 176.069C297.415 176.375 296.331 176.525 295.107 176.518C293.883 176.525 292.799 176.375 291.855 176.069C290.918 175.756 290.185 175.314 289.658 174.741C289.137 174.168 288.877 173.497 288.877 172.729ZM290.791 172.729C290.791 173.204 290.966 173.618 291.318 173.969C291.676 174.314 292.181 174.581 292.832 174.77C293.489 174.959 294.248 175.053 295.107 175.053C295.973 175.053 296.731 174.959 297.382 174.77C298.033 174.581 298.538 174.314 298.896 173.969C299.261 173.618 299.443 173.204 299.443 172.729C299.443 172.241 299.261 171.821 298.896 171.469C298.538 171.111 298.033 170.834 297.382 170.639C296.731 170.444 295.973 170.346 295.107 170.346C294.241 170.346 293.483 170.444 292.832 170.639C292.181 170.834 291.676 171.111 291.318 171.469C290.966 171.827 290.791 172.247 290.791 172.729ZM320.139 178.569H304.123V177.065H311.213V175.6H306.174V171.342H316.272V169.975H306.135V168.53H318.127V172.709H308.01V174.155H318.479V175.6H313.049V177.065H320.139V178.569ZM306.233 179.37H308.088V180.893H316.311V179.37H318.147V185.483H306.233V179.37ZM316.311 184.018V182.319H308.088V184.018H316.311ZM336.167 185.698H334.409V168.198H336.167V185.698ZM321.07 180.639C322.892 179.558 324.276 178.292 325.22 176.84C326.164 175.382 326.717 173.732 326.88 171.889H321.89V170.366H328.726C328.713 172.163 328.452 173.784 327.945 175.229H330.718V168.647H332.476V184.838H330.718V176.713H327.3C326.219 178.829 324.494 180.581 322.124 181.967L321.07 180.639ZM357.188 185.737H355.333V168.198H357.188V185.737ZM343.302 175.639C343.302 174.415 343.494 173.341 343.878 172.417C344.262 171.486 344.796 170.769 345.479 170.268C346.169 169.76 346.954 169.506 347.833 169.506C348.699 169.506 349.473 169.76 350.157 170.268C350.841 170.769 351.374 171.486 351.759 172.417C352.149 173.341 352.345 174.415 352.345 175.639C352.345 176.876 352.149 177.96 351.759 178.891C351.374 179.822 350.841 180.538 350.157 181.04C349.473 181.541 348.699 181.792 347.833 181.792C346.954 181.792 346.169 181.541 345.479 181.04C344.796 180.538 344.262 179.822 343.878 178.891C343.494 177.96 343.302 176.876 343.302 175.639ZM345.098 175.639C345.098 176.551 345.212 177.345 345.44 178.022C345.668 178.699 345.987 179.22 346.397 179.584C346.814 179.949 347.292 180.131 347.833 180.131C348.367 180.131 348.839 179.949 349.249 179.584C349.659 179.22 349.978 178.699 350.206 178.022C350.434 177.345 350.548 176.551 350.548 175.639C350.548 174.741 350.434 173.956 350.206 173.286C349.978 172.609 349.659 172.088 349.249 171.723C348.839 171.352 348.367 171.167 347.833 171.167C347.292 171.167 346.814 171.352 346.397 171.723C345.987 172.088 345.668 172.609 345.44 173.286C345.212 173.956 345.098 174.741 345.098 175.639ZM364.369 169.506C365.235 169.506 366.006 169.76 366.683 170.268C367.367 170.769 367.901 171.486 368.285 172.417C368.669 173.341 368.861 174.415 368.861 175.639C368.861 176.876 368.669 177.96 368.285 178.891C367.901 179.822 367.37 180.538 366.693 181.04C366.016 181.541 365.241 181.792 364.369 181.792C363.496 181.792 362.722 181.541 362.045 181.04C361.367 180.538 360.84 179.822 360.462 178.891C360.085 177.96 359.896 176.876 359.896 175.639C359.896 174.415 360.085 173.341 360.462 172.417C360.84 171.486 361.367 170.769 362.045 170.268C362.722 169.76 363.496 169.506 364.369 169.506ZM361.673 175.639C361.673 176.551 361.784 177.345 362.005 178.022C362.233 178.699 362.552 179.22 362.962 179.584C363.373 179.949 363.841 180.131 364.369 180.131C364.909 180.131 365.384 179.952 365.795 179.594C366.205 179.23 366.52 178.709 366.742 178.032C366.97 177.348 367.084 176.551 367.084 175.639C367.084 174.734 366.97 173.946 366.742 173.276C366.52 172.599 366.205 172.078 365.795 171.713C365.384 171.349 364.909 171.167 364.369 171.167C363.841 171.167 363.373 171.352 362.962 171.723C362.552 172.088 362.233 172.609 362.005 173.286C361.784 173.956 361.673 174.741 361.673 175.639ZM371.459 168.198H373.314V172.475H376.029V174.057H373.314V177.69H376.029V179.213H373.314V185.698H371.459V168.198ZM391.217 185.698H389.342V168.198H391.217V185.698ZM376.842 181.01C379.134 179.917 380.875 178.585 382.067 177.016C383.258 175.447 383.945 173.627 384.127 171.557H377.682V170.073H386.002C386.002 172.781 385.355 175.187 384.059 177.29C382.77 179.392 380.69 181.134 377.819 182.514L376.842 181.01ZM409.648 177.651H393.632V176.225H409.648V177.651ZM395.527 178.881H407.675V182.729H397.402V184.174H408.222V185.483H395.546V181.499H405.839V180.209H395.527V178.881ZM395.644 168.647H407.636V172.436H397.519V173.764H407.929V175.073H395.683V171.206H405.78V169.956H395.644V168.647ZM431.567 176.596H428.852V185.678H426.997V168.198H428.852V175.073H431.567V176.596ZM415.884 169.897H417.72V179.741C420.395 179.728 422.986 179.467 425.493 178.959L425.708 180.522C424.289 180.802 422.892 181 421.518 181.118C420.145 181.235 418.748 181.29 417.329 181.284H415.884V169.897ZM446.326 173.686H434.314V168.452H436.13V172.182H446.326V173.686ZM432.185 175.034H448.201V176.557H441.052V178.237H446.189V182.417H436.033V184.077H446.795V185.522H434.177V181.108H444.353V179.663H434.138V178.237H439.255V176.557H432.185V175.034ZM462.737 169.741C462.737 170.502 463.017 171.235 463.577 171.938C464.144 172.641 464.905 173.24 465.862 173.735C466.826 174.23 467.874 174.552 469.007 174.702L468.284 176.225C467.334 176.075 466.432 175.815 465.579 175.444C464.726 175.073 463.971 174.614 463.314 174.067C462.663 173.514 462.148 172.898 461.771 172.221C461.393 172.898 460.876 173.514 460.218 174.067C459.567 174.614 458.818 175.073 457.972 175.444C457.126 175.808 456.227 176.069 455.277 176.225L454.534 174.702C455.667 174.552 456.712 174.233 457.669 173.745C458.626 173.256 459.388 172.661 459.954 171.958C460.521 171.248 460.804 170.509 460.804 169.741V168.784H462.737V169.741ZM453.773 177.944H469.73V179.467H462.62V185.698H460.804V179.467H453.773V177.944ZM481.415 179.76C481.415 180.548 481.613 181.306 482.011 182.036C482.408 182.758 482.987 183.347 483.749 183.803C484.263 183.471 484.699 183.077 485.057 182.622C485.422 182.166 485.692 181.691 485.868 181.196C486.05 180.701 486.141 180.222 486.141 179.76V178.92H487.958V179.76C487.951 180.372 488.082 180.965 488.348 181.538C488.615 182.104 489.009 182.609 489.53 183.051C490.057 183.494 490.692 183.836 491.434 184.077L490.516 185.444C489.67 185.151 488.951 184.728 488.358 184.174C487.766 183.627 487.313 182.986 487.001 182.25C486.708 182.993 486.291 183.657 485.751 184.243C485.217 184.829 484.566 185.281 483.798 185.6C482.99 185.294 482.31 184.855 481.757 184.282C481.21 183.709 480.796 183.048 480.516 182.299C480.191 183.009 479.735 183.637 479.149 184.184C478.57 184.731 477.88 185.151 477.079 185.444L476.141 184.077C476.864 183.816 477.486 183.458 478.007 183.002C478.534 182.54 478.931 182.029 479.198 181.469C479.471 180.903 479.611 180.333 479.618 179.76V178.92H481.415V179.76ZM475.692 173.315C475.692 172.514 475.894 171.801 476.298 171.176C476.701 170.545 477.258 170.053 477.968 169.702C478.677 169.35 479.475 169.174 480.36 169.174C481.246 169.174 482.04 169.35 482.743 169.702C483.453 170.053 484.006 170.545 484.403 171.176C484.807 171.801 485.009 172.514 485.009 173.315C485.009 174.109 484.807 174.819 484.403 175.444C484.006 176.062 483.453 176.547 482.743 176.899C482.04 177.244 481.246 177.417 480.36 177.417C479.475 177.417 478.677 177.244 477.968 176.899C477.258 176.547 476.701 176.062 476.298 175.444C475.894 174.819 475.692 174.109 475.692 173.315ZM477.509 173.315C477.509 173.816 477.629 174.262 477.87 174.653C478.111 175.037 478.449 175.336 478.886 175.551C479.322 175.766 479.813 175.874 480.36 175.874C480.901 175.874 481.386 175.766 481.815 175.551C482.245 175.336 482.58 175.037 482.821 174.653C483.069 174.262 483.192 173.816 483.192 173.315C483.192 172.814 483.069 172.368 482.821 171.977C482.58 171.586 482.245 171.287 481.815 171.079C481.386 170.864 480.901 170.756 480.36 170.756C479.813 170.756 479.322 170.864 478.886 171.079C478.449 171.287 478.111 171.586 477.87 171.977C477.629 172.368 477.509 172.814 477.509 173.315ZM487.997 168.217H489.852V178.178H487.997V168.217ZM506.486 174.799H494.435V168.823H496.271V173.315H506.486V174.799ZM492.306 177.006H508.322V178.491H492.306V177.006ZM494.298 180.151H496.154V183.764H506.603V185.288H494.298V180.151ZM521.784 179.194C523.041 179.194 524.135 179.324 525.066 179.584C525.997 179.838 526.713 180.209 527.214 180.698C527.722 181.186 527.976 181.765 527.976 182.436C527.976 183.107 527.722 183.683 527.214 184.165C526.713 184.653 525.997 185.024 525.066 185.278C524.135 185.532 523.041 185.659 521.784 185.659C520.541 185.659 519.454 185.532 518.523 185.278C517.598 185.024 516.885 184.653 516.384 184.165C515.883 183.683 515.632 183.107 515.632 182.436C515.632 181.765 515.883 181.186 516.384 180.698C516.885 180.209 517.598 179.838 518.523 179.584C519.447 179.324 520.534 179.194 521.784 179.194ZM513.913 176.245H520.3V172.963H522.116V176.245H529.831V177.749H513.913V176.245ZM515.769 169.057H527.839V170.522V171.04C527.839 171.795 527.806 172.495 527.741 173.139C527.683 173.777 527.553 174.454 527.351 175.17L525.534 174.975C525.743 174.181 525.873 173.468 525.925 172.836C525.977 172.198 526.003 171.433 526.003 170.542H515.769V169.057ZM517.487 182.436C517.481 182.807 517.65 183.129 517.995 183.403C518.347 183.67 518.845 183.875 519.489 184.018C520.14 184.161 520.905 184.233 521.784 184.233C522.676 184.233 523.448 184.161 524.099 184.018C524.75 183.875 525.251 183.67 525.603 183.403C525.954 183.129 526.133 182.807 526.14 182.436C526.133 182.058 525.954 181.733 525.603 181.459C525.251 181.18 524.75 180.968 524.099 180.825C523.448 180.675 522.676 180.6 521.784 180.6C520.905 180.6 520.14 180.675 519.489 180.825C518.845 180.968 518.347 181.18 517.995 181.459C517.65 181.733 517.481 182.058 517.487 182.436ZM544.629 173.374H547.168V174.917H544.629V180.913H542.754V168.198H544.629V173.374ZM530.859 177.514C532.22 177.104 533.402 176.58 534.404 175.942C535.413 175.297 536.211 174.565 536.797 173.745C537.389 172.918 537.744 172.026 537.861 171.069H531.602V169.526H539.883C539.883 171.036 539.554 172.413 538.896 173.657C538.239 174.894 537.292 175.965 536.055 176.87C534.824 177.768 533.353 178.478 531.641 178.999L530.859 177.514ZM533.516 179.604H535.391V183.823H545.352V185.327H533.516V179.604ZM562.356 185.737H560.501V168.198H562.356V185.737ZM548.47 175.639C548.47 174.415 548.662 173.341 549.046 172.417C549.43 171.486 549.964 170.769 550.647 170.268C551.337 169.76 552.122 169.506 553.001 169.506C553.867 169.506 554.641 169.76 555.325 170.268C556.009 170.769 556.542 171.486 556.927 172.417C557.317 173.341 557.513 174.415 557.513 175.639C557.513 176.876 557.317 177.96 556.927 178.891C556.542 179.822 556.009 180.538 555.325 181.04C554.641 181.541 553.867 181.792 553.001 181.792C552.122 181.792 551.337 181.541 550.647 181.04C549.964 180.538 549.43 179.822 549.046 178.891C548.662 177.96 548.47 176.876 548.47 175.639ZM550.266 175.639C550.266 176.551 550.38 177.345 550.608 178.022C550.836 178.699 551.155 179.22 551.565 179.584C551.982 179.949 552.46 180.131 553.001 180.131C553.535 180.131 554.007 179.949 554.417 179.584C554.827 179.22 555.146 178.699 555.374 178.022C555.602 177.345 555.716 176.551 555.716 175.639C555.716 174.741 555.602 173.956 555.374 173.286C555.146 172.609 554.827 172.088 554.417 171.723C554.007 171.352 553.535 171.167 553.001 171.167C552.46 171.167 551.982 171.352 551.565 171.723C551.155 172.088 550.836 172.609 550.608 173.286C550.38 173.956 550.266 174.741 550.266 175.639ZM579.908 185.698H578.13V168.198H579.908V185.698ZM565.045 175.756C565.045 174.506 565.198 173.419 565.504 172.495C565.816 171.564 566.255 170.851 566.822 170.356C567.395 169.855 568.059 169.604 568.814 169.604C569.517 169.604 570.139 169.816 570.679 170.239C571.226 170.662 571.662 171.274 571.988 172.075C572.32 172.869 572.522 173.81 572.593 174.897H574.576V168.53H576.353V184.838H574.576V176.401H572.603C572.551 177.534 572.362 178.517 572.037 179.35C571.711 180.177 571.272 180.815 570.718 181.264C570.165 181.707 569.53 181.928 568.814 181.928C568.059 181.928 567.395 181.681 566.822 181.186C566.255 180.685 565.816 179.969 565.504 179.038C565.198 178.1 565.045 177.006 565.045 175.756ZM566.763 175.756C566.763 176.674 566.845 177.465 567.007 178.129C567.177 178.793 567.414 179.301 567.72 179.653C568.033 179.998 568.397 180.17 568.814 180.17C569.244 180.17 569.615 179.998 569.927 179.653C570.24 179.301 570.481 178.793 570.65 178.129C570.819 177.465 570.904 176.674 570.904 175.756C570.904 174.832 570.819 174.041 570.65 173.383C570.481 172.719 570.24 172.215 569.927 171.87C569.615 171.518 569.244 171.342 568.814 171.342C568.397 171.342 568.033 171.518 567.72 171.87C567.414 172.215 567.177 172.719 567.007 173.383C566.845 174.047 566.763 174.838 566.763 175.756ZM597.85 183.51H581.834V181.967H585.662V177.397C584.927 176.993 584.357 176.482 583.953 175.864C583.55 175.245 583.351 174.552 583.358 173.784C583.358 172.879 583.631 172.081 584.178 171.391C584.725 170.701 585.487 170.167 586.463 169.79C587.446 169.405 588.56 169.213 589.803 169.213C591.047 169.213 592.16 169.405 593.143 169.79C594.126 170.167 594.891 170.701 595.438 171.391C595.991 172.081 596.268 172.879 596.268 173.784C596.268 174.545 596.073 175.232 595.682 175.844C595.291 176.45 594.738 176.954 594.022 177.358V181.967H597.85V183.51ZM585.155 173.784C585.155 174.402 585.35 174.946 585.741 175.415C586.131 175.883 586.678 176.248 587.381 176.508C588.084 176.762 588.892 176.889 589.803 176.889C590.708 176.889 591.512 176.759 592.215 176.499C592.925 176.238 593.478 175.877 593.875 175.415C594.273 174.946 594.471 174.402 594.471 173.784C594.471 173.165 594.273 172.625 593.875 172.163C593.478 171.694 592.925 171.333 592.215 171.079C591.512 170.825 590.708 170.698 589.803 170.698C588.892 170.698 588.084 170.825 587.381 171.079C586.678 171.333 586.131 171.694 585.741 172.163C585.35 172.625 585.155 173.165 585.155 173.784ZM592.147 181.967V178.081C591.418 178.25 590.636 178.334 589.803 178.334C588.983 178.334 588.215 178.25 587.498 178.081V181.967H592.147ZM600.812 184.174C600.564 184.174 600.333 184.112 600.118 183.989C599.91 183.865 599.741 183.699 599.611 183.491C599.487 183.282 599.425 183.055 599.425 182.807C599.425 182.553 599.487 182.319 599.611 182.104C599.734 181.889 599.9 181.72 600.109 181.596C600.323 181.466 600.558 181.401 600.812 181.401C601.059 181.401 601.287 181.463 601.495 181.586C601.71 181.71 601.879 181.879 602.003 182.094C602.133 182.309 602.198 182.54 602.198 182.788C602.198 183.035 602.133 183.266 602.003 183.481C601.879 183.689 601.71 183.859 601.495 183.989C601.287 184.112 601.059 184.174 600.812 184.174Z" fill="white"/>
<path d="M1029.05 107.555H972.837C966.463 107.555 961.295 112.723 961.295 119.098V119.399C961.295 125.774 966.463 130.941 972.837 130.941H978.094C978.835 130.941 979.316 131.722 978.982 132.384L974.086 142.073C973.642 142.952 974.61 143.873 975.466 143.385L997.066 131.072C997.216 130.986 997.386 130.941 997.559 130.941H1029.05C1035.43 130.941 1040.59 125.774 1040.59 119.399V119.098C1040.59 112.723 1035.43 107.555 1029.05 107.555Z" fill="#7192FF"/>
<path d="M908.855 83.4247H940.349C940.521 83.4247 940.691 83.4698 940.841 83.5551L962.441 95.8684C963.297 96.3562 964.265 95.4357 963.821 94.5564L958.925 84.8671C958.591 84.2058 959.072 83.4247 959.813 83.4247H965.07C970.303 83.4247 974.723 79.9456 976.139 75.1724C976.448 74.1305 976.613 73.0246 976.613 71.8822V71.5813C976.613 65.2066 971.445 60.0388 965.07 60.0388H908.855C902.48 60.0388 897.312 65.2066 897.312 71.5813V71.8822C897.312 78.257 902.48 83.4247 908.855 83.4247Z" fill="#C8D5FF"/>
<path d="M965.07 155.073H908.855C902.48 155.073 897.312 160.24 897.312 166.615V166.916C897.312 173.291 902.48 178.458 908.855 178.458H940.349C940.521 178.458 940.691 178.503 940.841 178.589L962.441 190.902C963.297 191.39 964.265 190.469 963.821 189.59L958.925 179.901C958.591 179.239 959.072 178.458 959.813 178.458H965.07C971.445 178.458 976.612 173.291 976.612 166.916V166.615C976.612 160.24 971.445 155.073 965.07 155.073Z" fill="#C8D5FF"/>
<path d="M987.367 131.495C988.022 131.131 988.759 130.94 989.509 130.94H997.56C997.387 130.94 997.217 130.986 997.067 131.073L975.468 143.385C974.612 143.872 973.644 142.953 974.088 142.074L976.335 137.626L987.367 131.495Z" fill="#4D77FF"/>
<path d="M1040.6 119.098V119.4C1040.6 125.775 1035.43 130.94 1029.05 130.94L1023.29 130.942C1029.67 130.942 1034.84 125.775 1034.84 119.4V119.098C1034.84 112.723 1029.67 107.555 1023.29 107.555H1029.05C1035.43 107.555 1040.6 112.723 1040.6 119.098Z" fill="#4D77FF"/>
<path d="M976.614 71.5807V71.8832C976.614 78.2583 971.446 83.426 965.071 83.426H959.813C959.073 83.426 958.592 84.2068 958.926 84.8664L963.821 94.5572C964.264 95.4356 963.297 96.3577 962.441 95.8677L957.219 92.8915L953.165 84.8661C952.831 84.2065 953.312 83.4257 954.052 83.4257H959.309C965.684 83.4257 970.852 78.2577 970.852 71.8829V71.5804C970.852 65.2054 965.684 60.0376 959.309 60.0376H965.071C971.446 60.0376 976.614 65.2056 976.614 71.5807Z" fill="#ADC0FF"/>
<path d="M976.614 166.615V166.917C976.614 173.289 971.446 178.457 965.071 178.457H959.813C959.073 178.457 958.592 179.241 958.926 179.901L963.821 189.591C964.264 190.47 963.297 191.389 962.441 190.902L957.219 187.925L953.165 179.901C952.831 179.241 953.312 178.457 954.052 178.457H959.309C965.684 178.457 970.852 173.289 970.852 166.917V166.615C970.852 160.24 965.684 155.072 959.309 155.072H965.071C971.446 155.072 976.614 160.24 976.614 166.615Z" fill="#ADC0FF"/>
<path d="M918.861 73.9597C917.588 73.9597 916.527 72.7922 916.644 71.5247C916.732 70.5654 917.47 69.7328 918.425 69.5495C918.771 69.4832 919.04 69.4921 919.379 69.5674C920.364 69.7857 921.088 70.7268 921.088 71.7324C921.088 72.3827 920.792 73.0242 920.292 73.4414C920.124 73.5813 919.935 73.6941 919.734 73.7798C919.459 73.897 919.161 73.9597 918.861 73.9597Z" fill="#7192FF"/>
<path d="M930.928 73.9597C929.654 73.9597 928.593 72.7922 928.71 71.5247C928.798 70.5654 929.537 69.7328 930.491 69.5495C930.837 69.4832 931.106 69.4921 931.446 69.5674C932.431 69.7857 933.155 70.7268 933.155 71.7324C933.155 72.3827 932.858 73.0242 932.358 73.4414C932.19 73.5813 932.001 73.6941 931.801 73.7798C931.526 73.897 931.227 73.9597 930.928 73.9597Z" fill="#7192FF"/>
<path d="M942.996 73.9597C941.723 73.9597 940.662 72.7922 940.778 71.5247C940.867 70.5654 941.605 69.7328 942.559 69.5495C942.905 69.4832 943.175 69.4921 943.514 69.5674C944.499 69.7857 945.223 70.7268 945.223 71.7324C945.223 72.3827 944.926 73.0242 944.426 73.4414C944.259 73.5813 944.07 73.6941 943.869 73.7798C943.594 73.897 943.295 73.9597 942.996 73.9597Z" fill="#7192FF"/>
<path d="M955.064 73.9597C953.791 73.9597 952.73 72.7922 952.847 71.5247C952.935 70.5654 953.673 69.7328 954.628 69.5495C954.974 69.4832 955.243 69.4921 955.583 69.5674C956.567 69.7857 957.291 70.7268 957.291 71.7324C957.291 72.3827 956.995 73.0242 956.495 73.4414C956.327 73.5813 956.138 73.6941 955.937 73.7798C955.663 73.897 955.364 73.9597 955.064 73.9597Z" fill="#7192FF"/>
<defs>
<linearGradient id="paint0_linear_950_3882" x1="0.597656" y1="0.0375977" x2="1097.54" y2="263.741" gradientUnits="userSpaceOnUse">
<stop stop-color="#3754B5"/>
<stop offset="1" stop-color="#2A418C"/>
</linearGradient>
</defs>
</svg>
