<svg width="1100" height="251" viewBox="0 0 1100 251" fill="none" xmlns="http://www.w3.org/2000/svg">
<path d="M0 12C0 5.37258 5.37258 0 12 0H1088C1094.63 0 1100 5.37258 1100 12V239C1100 245.627 1094.63 251 1088 251H12C5.37257 251 0 245.627 0 239V12Z" fill="url(#paint0_linear_950_3882)"/>
<path d="M60 68C60 63.5817 63.5817 60 68 60H102C106.418 60 110 63.5817 110 68V80C110 84.4183 106.418 88 102 88H68C63.5817 88 60 84.4183 60 80V68Z" fill="#EDF1FF"/>
<path d="M68.5469 69.1016H76.0117V70.1953H72.9082V79H71.6641V70.1953H68.5469V69.1016ZM75.8426 79L79.4656 69.1016H80.7645L84.3875 79H83.0887L82.0975 76.2109H78.1189L77.1277 79H75.8426ZM81.7215 75.1309L80.1492 70.7012H80.0672L78.4949 75.1309H81.7215ZM85.9273 69.1016H87.1578V77.9062H91.7516V79H85.9273V69.1016ZM93.5922 69.1016H94.8227V73.9961H94.9457L99.348 69.1016H100.961L96.8188 73.5723L100.961 79H99.4574L96.0531 74.4199L94.8227 75.8145V79H93.5922V69.1016Z" fill="#4D77FF"/>
<path d="M86.1914 117.242V129.125H90.9023V132.781H86.1914V149.305H81.6914V117.242H86.1914ZM77.2266 120.195V123.816H66.6797V137.844C71.3203 137.791 75.1523 137.58 79.4062 136.824L79.8984 140.586C74.9414 141.43 70.582 141.57 64.9219 141.535H62.2148V120.195H77.2266ZM117.045 117.242V123.887H121.37V127.543H117.045V134.047H112.545V117.242H117.045ZM108.362 119.422C108.327 127.859 103.123 132.781 93.4203 134.609L91.5219 131.023C99.4496 129.723 102.877 126.541 103.334 122.938H93.1039V119.422H108.362ZM117.151 135.242V138.547H100.452V140.445H116.834V143.645H100.452V145.578H117.854V148.883H95.9516V135.242H117.151ZM149.165 117.242V149.305H144.63V117.242H149.165ZM131.798 119.492C136.614 119.492 140.2 123.922 140.2 130.883C140.2 137.914 136.614 142.309 131.798 142.309C126.876 142.309 123.29 137.914 123.325 130.883C123.29 123.922 126.876 119.492 131.798 119.492ZM131.798 123.535C129.302 123.535 127.649 126.137 127.649 130.883C127.649 135.664 129.302 138.23 131.798 138.23C134.223 138.23 135.876 135.664 135.876 130.883C135.876 126.137 134.223 123.535 131.798 123.535ZM168.228 119.527C172.482 119.527 175.259 123.922 175.295 131.094C175.259 138.301 172.482 142.73 168.228 142.73C164.009 142.73 161.267 138.301 161.267 131.094C161.267 123.922 164.009 119.527 168.228 119.527ZM168.228 123.746C166.435 123.746 165.38 126.207 165.416 131.094C165.38 136.016 166.435 138.441 168.228 138.406C170.056 138.441 171.146 136.016 171.146 131.094C171.146 126.207 170.056 123.746 168.228 123.746ZM188.724 117.242V149.234H184.435V137.773H181.552V147.758H177.298V117.699H181.552V124.906H184.435V117.242H188.724ZM181.552 134.152H184.435V128.527H181.552V134.152ZM218.594 117.242V149.234H214.059V117.242H218.594ZM208.996 120.582C208.996 130.285 205.586 138.336 194.16 143.75L191.805 140.164C200.066 136.262 203.705 131.199 204.426 124.098H193.527V120.582H208.996ZM237.846 122.129V125.68H222.377V122.129H227.932V118.121H232.362V122.129H237.846ZM230.182 127.121C234.26 127.121 237.178 130.285 237.213 134.715C237.178 139.18 234.26 142.344 230.182 142.344C226.104 142.344 223.116 139.18 223.116 134.715C223.116 130.285 226.104 127.121 230.182 127.121ZM230.182 130.848C228.319 130.848 227.053 132.289 227.053 134.715C227.053 137.141 228.319 138.547 230.182 138.547C231.975 138.547 233.241 137.141 233.276 134.715C233.241 132.289 231.975 130.848 230.182 130.848ZM250.08 117.242V149.234H245.827V133.836H243.225V147.863H239.041V117.875H243.225V130.25H245.827V117.242H250.08ZM282.411 141.816V145.508H253.126V141.816H259.665V133.977C257.186 132.5 255.692 130.232 255.692 127.402C255.692 122.234 260.755 118.789 267.716 118.789C274.641 118.789 279.739 122.234 279.774 127.402C279.757 130.162 278.298 132.412 275.907 133.906V141.816H282.411ZM267.716 122.34C263.145 122.34 260.122 124.168 260.122 127.402C260.122 130.531 263.145 132.465 267.716 132.465C272.251 132.465 275.309 130.531 275.345 127.402C275.309 124.168 272.251 122.34 267.716 122.34ZM264.095 141.816H271.372V135.594C270.229 135.822 268.999 135.945 267.716 135.945C266.432 135.945 265.22 135.84 264.095 135.594V141.816Z" fill="white"/>
<path d="M67.1875 171.07C67.1875 171.865 67.334 172.623 67.627 173.346C67.9199 174.068 68.3691 174.716 68.9746 175.289C69.5801 175.855 70.3385 176.292 71.25 176.598L69.9023 178.551C68.9844 178.212 68.1934 177.73 67.5293 177.105C66.8717 176.48 66.3509 175.745 65.9668 174.898C65.5762 175.855 65.0293 176.682 64.3262 177.379C63.623 178.069 62.7669 178.596 61.7578 178.961L60.4102 177.008C61.3672 176.695 62.1615 176.236 62.793 175.631C63.431 175.025 63.8997 174.332 64.1992 173.551C64.5052 172.763 64.6615 171.93 64.668 171.051V169.117H67.1875V171.07ZM63.6719 179.781H66.1914V183.492H75.8789V185.484H63.6719V179.781ZM69.6875 171.812H73.0273V168.043H75.5078V181.168H73.0273V173.824H69.6875V171.812ZM80.3641 173.609H82.7859V169.605H85.0906V181.578H78.0203V169.605H80.3641V173.609ZM82.7859 179.586V175.562H80.3641V179.586H82.7859ZM86.575 168.277H88.9383V174.801H90.5398V168.023H92.9227V185.797H90.5398V176.832H88.9383V184.977H86.575V168.277ZM114.08 178.297H111.698V168.043H114.08V178.297ZM99.432 169.312H106.502V172.203H108.123V168.336H110.467V178.102H108.123V174.234H106.502V177.203H99.432V169.312ZM104.178 175.367V171.207H101.776V175.367H104.178ZM101.971 179H114.08V185.602H101.971V179ZM111.62 183.609V180.934H104.412V183.609H111.62ZM130.792 185.836H128.331V176.305H125.03V181.617H116.456V169.391H118.937V173.707H122.589V169.391H125.03V174.293H128.331V168.023H130.792V185.836ZM122.589 179.625V175.66H118.937V179.625H122.589ZM138.148 169.273C139.04 169.273 139.841 169.449 140.551 169.801C141.267 170.152 141.83 170.644 142.24 171.275C142.65 171.907 142.855 172.626 142.855 173.434C142.855 174.143 142.696 174.788 142.377 175.367C142.058 175.947 141.612 176.422 141.039 176.793C140.473 177.164 139.822 177.408 139.086 177.525V180.299C140.824 180.214 142.341 180.087 143.637 179.918L143.773 181.305C142.335 181.552 140.827 181.725 139.252 181.822C137.676 181.913 136.049 181.959 134.369 181.959L132.973 181.949L132.68 180.426H132.875C134.796 180.413 136.247 180.393 137.23 180.367V177.525C136.482 177.415 135.821 177.174 135.248 176.803C134.675 176.432 134.229 175.956 133.91 175.377C133.598 174.798 133.441 174.15 133.441 173.434C133.441 172.626 133.64 171.907 134.037 171.275C134.441 170.644 135.001 170.152 135.717 169.801C136.433 169.449 137.243 169.273 138.148 169.273ZM135.238 173.434C135.238 173.941 135.362 174.394 135.609 174.791C135.857 175.182 136.202 175.484 136.645 175.699C137.094 175.908 137.595 176.012 138.148 176.012C138.695 176.012 139.187 175.908 139.623 175.699C140.066 175.484 140.411 175.182 140.658 174.791C140.912 174.394 141.039 173.941 141.039 173.434C141.039 172.919 140.912 172.467 140.658 172.076C140.411 171.686 140.069 171.383 139.633 171.168C139.197 170.953 138.702 170.842 138.148 170.836C137.589 170.842 137.087 170.953 136.645 171.168C136.202 171.383 135.857 171.689 135.609 172.086C135.362 172.477 135.238 172.926 135.238 173.434ZM144.691 168.16H146.547V175.27H149.242V176.832H146.547V185.66H144.691V168.16ZM169.228 181.012H166.728V168.043H169.228V181.012ZM154.287 176.617C155.244 176.298 156.041 175.836 156.679 175.23C157.317 174.618 157.789 173.925 158.095 173.15C158.408 172.376 158.564 171.572 158.564 170.738V169.02H161.162V170.738C161.155 171.552 161.298 172.327 161.591 173.062C161.891 173.792 162.353 174.443 162.978 175.016C163.603 175.589 164.384 176.025 165.322 176.324L164.052 178.277C163.069 177.952 162.229 177.477 161.533 176.852C160.836 176.22 160.283 175.468 159.873 174.596C159.456 175.533 158.886 176.347 158.164 177.037C157.448 177.727 156.585 178.245 155.576 178.59L154.287 176.617ZM157.314 179.762H159.834V183.492H169.697V185.484H157.314V179.762ZM186.213 177.574H183.713V168.023H186.213V177.574ZM171.604 172.984C171.604 172.164 171.815 171.435 172.239 170.797C172.662 170.152 173.241 169.651 173.977 169.293C174.719 168.935 175.549 168.759 176.467 168.766C177.379 168.759 178.202 168.935 178.938 169.293C179.68 169.651 180.263 170.152 180.686 170.797C181.116 171.435 181.33 172.164 181.33 172.984C181.33 173.779 181.116 174.492 180.686 175.123C180.263 175.755 179.68 176.249 178.938 176.607C178.202 176.965 177.379 177.145 176.467 177.145C175.549 177.145 174.719 176.965 173.977 176.607C173.241 176.249 172.662 175.755 172.239 175.123C171.815 174.492 171.604 173.779 171.604 172.984ZM174.045 172.984C174.039 173.414 174.136 173.788 174.338 174.107C174.547 174.426 174.833 174.671 175.198 174.84C175.569 175.009 175.992 175.094 176.467 175.094C176.929 175.094 177.34 175.009 177.698 174.84C178.062 174.671 178.349 174.426 178.557 174.107C178.765 173.788 178.87 173.414 178.87 172.984C178.87 172.548 178.765 172.167 178.557 171.842C178.349 171.516 178.062 171.269 177.698 171.1C177.34 170.924 176.929 170.836 176.467 170.836C175.992 170.836 175.569 170.924 175.198 171.1C174.833 171.269 174.547 171.516 174.338 171.842C174.136 172.167 174.039 172.548 174.045 172.984ZM174.319 178.355H176.78V180.016H183.733V178.355H186.213V185.602H174.319V178.355ZM183.733 183.59V181.949H176.78V183.59H183.733ZM207.898 178.297H205.516V168.043H207.898V178.297ZM193.25 169.312H200.32V172.203H201.941V168.336H204.285V178.102H201.941V174.234H200.32V177.203H193.25V169.312ZM197.996 175.367V171.207H195.594V175.367H197.996ZM195.789 179H207.898V185.602H195.789V179ZM205.438 183.609V180.934H198.23V183.609H205.438ZM224.61 185.836H222.149V176.305H218.848V181.617H210.274V169.391H212.755V173.707H216.407V169.391H218.848V174.293H222.149V168.023H224.61V185.836ZM216.407 179.625V175.66H212.755V179.625H216.407ZM247.038 183.473H231.022V181.93H238.073V177.887H232.858V169.566H245.123V177.887H239.909V181.93H247.038V183.473ZM243.307 176.422V171.051H234.655V176.422H243.307ZM262.03 176.07H250.155V169.156H261.816V170.66H252.03V174.605H262.03V176.07ZM247.988 178.199H264.003V179.703H256.855V185.621H255.038V179.703H247.988V178.199ZM283.208 174.938H286.02V176.461H283.208V185.699H281.352V168.16H283.208V174.938ZM270.317 169.84H278.501V171.344H272.173V179.801C273.722 179.794 275.083 179.749 276.255 179.664C277.427 179.579 278.611 179.43 279.809 179.215L280.044 180.777C278.807 180.999 277.593 181.148 276.401 181.227C275.216 181.305 273.807 181.344 272.173 181.344H271.723H270.317V169.84ZM300.31 172.105H302.849V173.609H300.31V177.457H298.455V168.16H300.31V172.105ZM286.58 176.285C288.018 175.992 289.242 175.582 290.252 175.055C291.261 174.521 292.039 173.899 292.586 173.189C293.132 172.473 293.448 171.695 293.533 170.855H287.361V169.371H295.584C295.584 171.572 294.874 173.385 293.455 174.811C292.035 176.23 290.004 177.223 287.361 177.789L286.58 176.285ZM289.08 178.199H300.388V179.605H290.935V181.109H300.193V182.457H290.935V184.039H300.779V185.445H289.08V178.199ZM318.038 185.699H316.182V168.16H318.038V185.699ZM304.151 175.602C304.151 174.378 304.343 173.303 304.727 172.379C305.111 171.448 305.645 170.732 306.329 170.23C307.019 169.723 307.803 169.469 308.682 169.469C309.548 169.469 310.323 169.723 311.006 170.23C311.69 170.732 312.224 171.448 312.608 172.379C312.998 173.303 313.194 174.378 313.194 175.602C313.194 176.839 312.998 177.923 312.608 178.854C312.224 179.785 311.69 180.501 311.006 181.002C310.323 181.503 309.548 181.754 308.682 181.754C307.803 181.754 307.019 181.503 306.329 181.002C305.645 180.501 305.111 179.785 304.727 178.854C304.343 177.923 304.151 176.839 304.151 175.602ZM305.948 175.602C305.948 176.513 306.062 177.307 306.289 177.984C306.517 178.661 306.836 179.182 307.246 179.547C307.663 179.911 308.142 180.094 308.682 180.094C309.216 180.094 309.688 179.911 310.098 179.547C310.508 179.182 310.827 178.661 311.055 177.984C311.283 177.307 311.397 176.513 311.397 175.602C311.397 174.703 311.283 173.919 311.055 173.248C310.827 172.571 310.508 172.05 310.098 171.686C309.688 171.314 309.216 171.129 308.682 171.129C308.142 171.129 307.663 171.314 307.246 171.686C306.836 172.05 306.517 172.571 306.289 173.248C306.062 173.919 305.948 174.703 305.948 175.602ZM339.605 185.699H337.75V168.16H339.605V185.699ZM325.719 175.602C325.719 174.378 325.911 173.303 326.295 172.379C326.679 171.448 327.213 170.732 327.896 170.23C328.587 169.723 329.371 169.469 330.25 169.469C331.116 169.469 331.891 169.723 332.574 170.23C333.258 170.732 333.792 171.448 334.176 172.379C334.566 173.303 334.762 174.378 334.762 175.602C334.762 176.839 334.566 177.923 334.176 178.854C333.792 179.785 333.258 180.501 332.574 181.002C331.891 181.503 331.116 181.754 330.25 181.754C329.371 181.754 328.587 181.503 327.896 181.002C327.213 180.501 326.679 179.785 326.295 178.854C325.911 177.923 325.719 176.839 325.719 175.602ZM327.516 175.602C327.516 176.513 327.63 177.307 327.857 177.984C328.085 178.661 328.404 179.182 328.814 179.547C329.231 179.911 329.71 180.094 330.25 180.094C330.784 180.094 331.256 179.911 331.666 179.547C332.076 179.182 332.395 178.661 332.623 177.984C332.851 177.307 332.965 176.513 332.965 175.602C332.965 174.703 332.851 173.919 332.623 173.248C332.395 172.571 332.076 172.05 331.666 171.686C331.256 171.314 330.784 171.129 330.25 171.129C329.71 171.129 329.231 171.314 328.814 171.686C328.404 172.05 328.085 172.571 327.857 173.248C327.63 173.919 327.516 174.703 327.516 175.602ZM346.786 169.469C347.652 169.469 348.423 169.723 349.1 170.23C349.784 170.732 350.318 171.448 350.702 172.379C351.086 173.303 351.278 174.378 351.278 175.602C351.278 176.839 351.086 177.923 350.702 178.854C350.318 179.785 349.787 180.501 349.11 181.002C348.433 181.503 347.658 181.754 346.786 181.754C345.914 181.754 345.139 181.503 344.462 181.002C343.785 180.501 343.257 179.785 342.88 178.854C342.502 177.923 342.313 176.839 342.313 175.602C342.313 174.378 342.502 173.303 342.88 172.379C343.257 171.448 343.785 170.732 344.462 170.23C345.139 169.723 345.914 169.469 346.786 169.469ZM344.091 175.602C344.091 176.513 344.201 177.307 344.423 177.984C344.651 178.661 344.97 179.182 345.38 179.547C345.79 179.911 346.259 180.094 346.786 180.094C347.326 180.094 347.802 179.915 348.212 179.557C348.622 179.192 348.938 178.671 349.159 177.994C349.387 177.311 349.501 176.513 349.501 175.602C349.501 174.697 349.387 173.909 349.159 173.238C348.938 172.561 348.622 172.04 348.212 171.676C347.802 171.311 347.326 171.129 346.786 171.129C346.259 171.129 345.79 171.314 345.38 171.686C344.97 172.05 344.651 172.571 344.423 173.248C344.201 173.919 344.091 174.703 344.091 175.602ZM353.876 168.16H355.731V172.438H358.446V174.02H355.731V177.652H358.446V179.176H355.731V185.66H353.876V168.16ZM373.634 185.66H371.759V168.16H373.634V185.66ZM359.259 180.973C361.551 179.879 363.293 178.548 364.484 176.979C365.675 175.41 366.362 173.59 366.545 171.52H360.099V170.035H368.42C368.42 172.743 367.772 175.149 366.476 177.252C365.187 179.355 363.107 181.096 360.236 182.477L359.259 180.973ZM392.065 177.613H376.049V176.188H392.065V177.613ZM377.944 178.844H390.092V182.691H379.819V184.137H390.639V185.445H377.963V181.461H388.256V180.172H377.944V178.844ZM378.061 168.609H390.053V172.398H379.936V173.727H390.346V175.035H378.1V171.168H388.198V169.918H378.061V168.609ZM413.984 176.559H411.27V185.641H409.414V168.16H411.27V175.035H413.984V176.559ZM398.301 169.859H400.137V179.703C402.812 179.69 405.404 179.43 407.91 178.922L408.125 180.484C406.706 180.764 405.309 180.963 403.936 181.08C402.562 181.197 401.165 181.253 399.746 181.246H398.301V169.859ZM428.743 173.648H416.731V168.414H418.548V172.145H428.743V173.648ZM414.602 174.996H430.618V176.52H423.47V178.199H428.606V182.379H418.45V184.039H429.212V185.484H416.595V181.07H426.77V179.625H416.555V178.199H421.673V176.52H414.602V174.996ZM445.155 169.703C445.155 170.465 445.435 171.197 445.995 171.9C446.561 172.604 447.323 173.202 448.28 173.697C449.243 174.192 450.291 174.514 451.424 174.664L450.702 176.188C449.751 176.038 448.849 175.777 447.996 175.406C447.144 175.035 446.388 174.576 445.731 174.029C445.08 173.476 444.566 172.861 444.188 172.184C443.81 172.861 443.293 173.476 442.635 174.029C441.984 174.576 441.235 175.035 440.389 175.406C439.543 175.771 438.644 176.031 437.694 176.188L436.952 174.664C438.084 174.514 439.129 174.195 440.086 173.707C441.043 173.219 441.805 172.623 442.371 171.92C442.938 171.21 443.221 170.471 443.221 169.703V168.746H445.155V169.703ZM436.19 177.906H452.147V179.43H445.038V185.66H443.221V179.43H436.19V177.906ZM463.832 179.723C463.832 180.51 464.031 181.269 464.428 181.998C464.825 182.721 465.404 183.31 466.166 183.766C466.68 183.434 467.117 183.04 467.475 182.584C467.839 182.128 468.109 181.653 468.285 181.158C468.467 180.663 468.559 180.185 468.559 179.723V178.883H470.375V179.723C470.368 180.335 470.499 180.927 470.766 181.5C471.033 182.066 471.426 182.571 471.947 183.014C472.475 183.456 473.109 183.798 473.852 184.039L472.934 185.406C472.087 185.113 471.368 184.69 470.775 184.137C470.183 183.59 469.73 182.949 469.418 182.213C469.125 182.955 468.708 183.619 468.168 184.205C467.634 184.791 466.983 185.243 466.215 185.562C465.408 185.257 464.727 184.817 464.174 184.244C463.627 183.671 463.214 183.01 462.934 182.262C462.608 182.971 462.152 183.6 461.566 184.146C460.987 184.693 460.297 185.113 459.496 185.406L458.559 184.039C459.281 183.779 459.903 183.421 460.424 182.965C460.951 182.503 461.348 181.992 461.615 181.432C461.889 180.865 462.029 180.296 462.035 179.723V178.883H463.832V179.723ZM458.109 173.277C458.109 172.477 458.311 171.764 458.715 171.139C459.118 170.507 459.675 170.016 460.385 169.664C461.094 169.312 461.892 169.137 462.777 169.137C463.663 169.137 464.457 169.312 465.16 169.664C465.87 170.016 466.423 170.507 466.82 171.139C467.224 171.764 467.426 172.477 467.426 173.277C467.426 174.072 467.224 174.781 466.82 175.406C466.423 176.025 465.87 176.51 465.16 176.861C464.457 177.206 463.663 177.379 462.777 177.379C461.892 177.379 461.094 177.206 460.385 176.861C459.675 176.51 459.118 176.025 458.715 175.406C458.311 174.781 458.109 174.072 458.109 173.277ZM459.926 173.277C459.926 173.779 460.046 174.225 460.287 174.615C460.528 174.999 460.867 175.299 461.303 175.514C461.739 175.729 462.23 175.836 462.777 175.836C463.318 175.836 463.803 175.729 464.232 175.514C464.662 175.299 464.997 174.999 465.238 174.615C465.486 174.225 465.609 173.779 465.609 173.277C465.609 172.776 465.486 172.33 465.238 171.939C464.997 171.549 464.662 171.249 464.232 171.041C463.803 170.826 463.318 170.719 462.777 170.719C462.23 170.719 461.739 170.826 461.303 171.041C460.867 171.249 460.528 171.549 460.287 171.939C460.046 172.33 459.926 172.776 459.926 173.277ZM470.414 168.18H472.27V178.141H470.414V168.18ZM488.903 174.762H476.852V168.785H478.688V173.277H488.903V174.762ZM474.723 176.969H490.739V178.453H474.723V176.969ZM476.716 180.113H478.571V183.727H489.02V185.25H476.716V180.113ZM504.202 179.156C505.458 179.156 506.552 179.286 507.483 179.547C508.414 179.801 509.13 180.172 509.631 180.66C510.139 181.148 510.393 181.728 510.393 182.398C510.393 183.069 510.139 183.645 509.631 184.127C509.13 184.615 508.414 184.986 507.483 185.24C506.552 185.494 505.458 185.621 504.202 185.621C502.958 185.621 501.871 185.494 500.94 185.24C500.015 184.986 499.302 184.615 498.801 184.127C498.3 183.645 498.049 183.069 498.049 182.398C498.049 181.728 498.3 181.148 498.801 180.66C499.302 180.172 500.015 179.801 500.94 179.547C501.864 179.286 502.952 179.156 504.202 179.156ZM496.33 176.207H502.717V172.926H504.534V176.207H512.248V177.711H496.33V176.207ZM498.186 169.02H510.256V170.484V171.002C510.256 171.757 510.224 172.457 510.159 173.102C510.1 173.74 509.97 174.417 509.768 175.133L507.952 174.938C508.16 174.143 508.29 173.43 508.342 172.799C508.394 172.161 508.42 171.396 508.42 170.504H498.186V169.02ZM499.905 182.398C499.898 182.77 500.067 183.092 500.413 183.365C500.764 183.632 501.262 183.837 501.907 183.98C502.558 184.124 503.323 184.195 504.202 184.195C505.093 184.195 505.865 184.124 506.516 183.98C507.167 183.837 507.668 183.632 508.02 183.365C508.371 183.092 508.551 182.77 508.557 182.398C508.551 182.021 508.371 181.695 508.02 181.422C507.668 181.142 507.167 180.93 506.516 180.787C505.865 180.637 505.093 180.562 504.202 180.562C503.323 180.562 502.558 180.637 501.907 180.787C501.262 180.93 500.764 181.142 500.413 181.422C500.067 181.695 499.898 182.021 499.905 182.398ZM527.046 173.336H529.585V174.879H527.046V180.875H525.171V168.16H527.046V173.336ZM513.277 177.477C514.637 177.066 515.819 176.542 516.821 175.904C517.831 175.26 518.628 174.527 519.214 173.707C519.806 172.88 520.161 171.988 520.279 171.031H514.019V169.488H522.3C522.3 170.999 521.971 172.376 521.314 173.619C520.656 174.856 519.709 175.927 518.472 176.832C517.241 177.73 515.77 178.44 514.058 178.961L513.277 177.477ZM515.933 179.566H517.808V183.785H527.769V185.289H515.933V179.566ZM544.773 185.699H542.918V168.16H544.773V185.699ZM530.887 175.602C530.887 174.378 531.079 173.303 531.463 172.379C531.847 171.448 532.381 170.732 533.064 170.23C533.755 169.723 534.539 169.469 535.418 169.469C536.284 169.469 537.059 169.723 537.742 170.23C538.426 170.732 538.96 171.448 539.344 172.379C539.734 173.303 539.93 174.378 539.93 175.602C539.93 176.839 539.734 177.923 539.344 178.854C538.96 179.785 538.426 180.501 537.742 181.002C537.059 181.503 536.284 181.754 535.418 181.754C534.539 181.754 533.755 181.503 533.064 181.002C532.381 180.501 531.847 179.785 531.463 178.854C531.079 177.923 530.887 176.839 530.887 175.602ZM532.684 175.602C532.684 176.513 532.798 177.307 533.025 177.984C533.253 178.661 533.572 179.182 533.982 179.547C534.399 179.911 534.878 180.094 535.418 180.094C535.952 180.094 536.424 179.911 536.834 179.547C537.244 179.182 537.563 178.661 537.791 177.984C538.019 177.307 538.133 176.513 538.133 175.602C538.133 174.703 538.019 173.919 537.791 173.248C537.563 172.571 537.244 172.05 536.834 171.686C536.424 171.314 535.952 171.129 535.418 171.129C534.878 171.129 534.399 171.314 533.982 171.686C533.572 172.05 533.253 172.571 533.025 173.248C532.798 173.919 532.684 174.703 532.684 175.602ZM562.325 185.66H560.548V168.16H562.325V185.66ZM547.462 175.719C547.462 174.469 547.615 173.382 547.921 172.457C548.233 171.526 548.673 170.813 549.239 170.318C549.812 169.817 550.476 169.566 551.231 169.566C551.934 169.566 552.556 169.778 553.096 170.201C553.643 170.624 554.08 171.236 554.405 172.037C554.737 172.831 554.939 173.772 555.011 174.859H556.993V168.492H558.77V184.801H556.993V176.363H555.02C554.968 177.496 554.779 178.479 554.454 179.312C554.128 180.139 553.689 180.777 553.136 181.227C552.582 181.669 551.947 181.891 551.231 181.891C550.476 181.891 549.812 181.643 549.239 181.148C548.673 180.647 548.233 179.931 547.921 179C547.615 178.062 547.462 176.969 547.462 175.719ZM549.18 175.719C549.18 176.637 549.262 177.428 549.425 178.092C549.594 178.756 549.832 179.264 550.138 179.615C550.45 179.96 550.815 180.133 551.231 180.133C551.661 180.133 552.032 179.96 552.345 179.615C552.657 179.264 552.898 178.756 553.067 178.092C553.236 177.428 553.321 176.637 553.321 175.719C553.321 174.794 553.236 174.003 553.067 173.346C552.898 172.682 552.657 172.177 552.345 171.832C552.032 171.48 551.661 171.305 551.231 171.305C550.815 171.305 550.45 171.48 550.138 171.832C549.832 172.177 549.594 172.682 549.425 173.346C549.262 174.01 549.18 174.801 549.18 175.719ZM580.267 183.473H564.252V181.93H568.08V177.359C567.344 176.956 566.774 176.445 566.371 175.826C565.967 175.208 565.768 174.514 565.775 173.746C565.775 172.841 566.048 172.044 566.595 171.354C567.142 170.663 567.904 170.13 568.88 169.752C569.864 169.368 570.977 169.176 572.22 169.176C573.464 169.176 574.577 169.368 575.56 169.752C576.543 170.13 577.308 170.663 577.855 171.354C578.408 172.044 578.685 172.841 578.685 173.746C578.685 174.508 578.49 175.195 578.099 175.807C577.709 176.412 577.155 176.917 576.439 177.32V181.93H580.267V183.473ZM567.572 173.746C567.572 174.365 567.767 174.908 568.158 175.377C568.548 175.846 569.095 176.21 569.798 176.471C570.502 176.725 571.309 176.852 572.22 176.852C573.125 176.852 573.929 176.721 574.632 176.461C575.342 176.201 575.895 175.839 576.293 175.377C576.69 174.908 576.888 174.365 576.888 173.746C576.888 173.128 576.69 172.587 576.293 172.125C575.895 171.656 575.342 171.295 574.632 171.041C573.929 170.787 573.125 170.66 572.22 170.66C571.309 170.66 570.502 170.787 569.798 171.041C569.095 171.295 568.548 171.656 568.158 172.125C567.767 172.587 567.572 173.128 567.572 173.746ZM574.564 181.93V178.043C573.835 178.212 573.054 178.297 572.22 178.297C571.4 178.297 570.632 178.212 569.916 178.043V181.93H574.564ZM583.229 184.137C582.981 184.137 582.75 184.075 582.536 183.951C582.327 183.827 582.158 183.661 582.028 183.453C581.904 183.245 581.842 183.017 581.842 182.77C581.842 182.516 581.904 182.281 582.028 182.066C582.151 181.852 582.317 181.682 582.526 181.559C582.741 181.428 582.975 181.363 583.229 181.363C583.476 181.363 583.704 181.425 583.912 181.549C584.127 181.673 584.297 181.842 584.42 182.057C584.55 182.271 584.616 182.503 584.616 182.75C584.616 182.997 584.55 183.229 584.42 183.443C584.297 183.652 584.127 183.821 583.912 183.951C583.704 184.075 583.476 184.137 583.229 184.137Z" fill="white"/>
<path d="M1028.45 107.518H972.24C965.865 107.518 960.697 112.686 960.697 119.06V119.361C960.697 125.736 965.865 130.904 972.24 130.904H977.497C978.238 130.904 978.718 131.685 978.384 132.346L973.488 142.035C973.044 142.915 974.012 143.835 974.868 143.347L996.469 131.034C996.619 130.948 996.788 130.904 996.961 130.904H1028.45C1034.83 130.904 1040 125.736 1040 119.361V119.06C1040 112.686 1034.83 107.518 1028.45 107.518Z" fill="#7192FF"/>
<path d="M908.257 83.3871H939.751C939.924 83.3871 940.093 83.4322 940.243 83.5175L961.844 95.8308C962.699 96.3186 963.667 95.3981 963.223 94.5188L958.328 84.8295C957.994 84.1682 958.474 83.3871 959.215 83.3871H964.472C969.705 83.3871 974.125 79.908 975.541 75.1348C975.85 74.0929 976.015 72.987 976.015 71.8446V71.5438C976.015 65.169 970.847 60.0012 964.473 60.0012H908.257C901.883 60.0012 896.715 65.169 896.715 71.5438V71.8446C896.715 78.2194 901.883 83.3871 908.257 83.3871Z" fill="#C8D5FF"/>
<path d="M964.472 155.035H908.257C901.883 155.035 896.715 160.203 896.715 166.577V166.878C896.715 173.253 901.883 178.421 908.257 178.421H939.751C939.924 178.421 940.093 178.466 940.243 178.551L961.844 190.864C962.699 191.352 963.667 190.432 963.223 189.553L958.328 179.863C957.994 179.202 958.474 178.421 959.215 178.421H964.472C970.847 178.421 976.015 173.253 976.015 166.878V166.577C976.015 160.203 970.847 155.035 964.472 155.035Z" fill="#C8D5FF"/>
<path d="M986.769 131.458C987.424 131.094 988.162 130.903 988.912 130.903H996.962C996.789 130.903 996.62 130.949 996.47 131.035L974.87 143.347C974.015 143.834 973.047 142.915 973.49 142.036L975.737 137.588L986.769 131.458Z" fill="#4D77FF"/>
<path d="M1040 119.06V119.363C1040 125.738 1034.83 130.903 1028.46 130.903L1022.7 130.904C1029.07 130.904 1034.24 125.738 1034.24 119.363V119.06C1034.24 112.685 1029.07 107.517 1022.7 107.517H1028.46C1034.83 107.517 1040 112.685 1040 119.06Z" fill="#4D77FF"/>
<path d="M976.016 71.5431V71.8456C976.016 78.2207 970.848 83.3884 964.473 83.3884H959.216C958.476 83.3884 957.995 84.1692 958.329 84.8288L963.223 94.5196C963.667 95.398 962.699 96.3201 961.843 95.8301L956.622 92.8539L952.567 84.8285C952.233 84.1689 952.714 83.3881 953.454 83.3881H958.712C965.087 83.3881 970.255 78.2201 970.255 71.8453V71.5428C970.255 65.1678 965.087 60 958.712 60H964.473C970.848 60 976.016 65.168 976.016 71.5431Z" fill="#ADC0FF"/>
<path d="M976.016 166.577V166.88C976.016 173.252 970.848 178.42 964.473 178.42H959.216C958.476 178.42 957.995 179.203 958.329 179.863L963.223 189.554C963.667 190.432 962.699 191.351 961.843 190.865L956.621 187.888L952.567 179.863C952.233 179.203 952.714 178.42 953.454 178.42H958.712C965.087 178.42 970.255 173.252 970.255 166.88V166.577C970.255 160.202 965.087 155.034 958.712 155.034H964.473C970.848 155.034 976.016 160.203 976.016 166.577Z" fill="#ADC0FF"/>
<path d="M918.263 73.9221C916.99 73.9221 915.929 72.7546 916.046 71.4871C916.134 70.5278 916.873 69.6952 917.827 69.5119C918.173 69.4456 918.442 69.4545 918.782 69.5298C919.767 69.7481 920.491 70.6892 920.491 71.6948C920.491 72.3451 920.194 72.9866 919.694 73.4038C919.526 73.5437 919.337 73.6565 919.137 73.7422C918.862 73.8594 918.563 73.9221 918.263 73.9221Z" fill="#7192FF"/>
<path d="M930.33 73.9221C929.057 73.9221 927.996 72.7546 928.112 71.4871C928.201 70.5278 928.939 69.6952 929.893 69.5119C930.239 69.4456 930.509 69.4545 930.848 69.5298C931.833 69.7481 932.557 70.6892 932.557 71.6948C932.557 72.3451 932.26 72.9866 931.76 73.4038C931.593 73.5437 931.404 73.6565 931.203 73.7422C930.928 73.8594 930.629 73.9221 930.33 73.9221Z" fill="#7192FF"/>
<path d="M942.398 73.9221C941.125 73.9221 940.064 72.7546 940.181 71.4871C940.269 70.5278 941.007 69.6952 941.962 69.5119C942.308 69.4456 942.577 69.4545 942.917 69.5298C943.901 69.7481 944.625 70.6892 944.625 71.6948C944.625 72.3451 944.329 72.9866 943.829 73.4038C943.661 73.5437 943.472 73.6565 943.271 73.7422C942.997 73.8594 942.698 73.9221 942.398 73.9221Z" fill="#7192FF"/>
<path d="M954.467 73.9221C953.193 73.9221 952.132 72.7546 952.249 71.4871C952.337 70.5278 953.076 69.6952 954.03 69.5119C954.376 69.4456 954.645 69.4545 954.985 69.5298C955.97 69.7481 956.694 70.6892 956.694 71.6948C956.694 72.3451 956.397 72.9866 955.897 73.4038C955.73 73.5437 955.54 73.6565 955.34 73.7422C955.065 73.8594 954.766 73.9221 954.467 73.9221Z" fill="#7192FF"/>
<defs>
<linearGradient id="paint0_linear_950_3882" x1="0" y1="0" x2="1096.95" y2="263.703" gradientUnits="userSpaceOnUse">
<stop stop-color="#3754B5"/>
<stop offset="1" stop-color="#2A418C"/>
</linearGradient>
</defs>
</svg>
