<svg width="1100" height="251" viewBox="0 0 1100 251" fill="none" xmlns="http://www.w3.org/2000/svg">
<path d="M0 12C0 5.37258 5.37258 0 12 0H1088C1094.63 0 1100 5.37258 1100 12V239C1100 245.627 1094.63 251 1088 251H12C5.37257 251 0 245.627 0 239V12Z" fill="url(#paint0_linear_950_3882)"/>
<path d="M60 68C60 63.5817 63.5817 60 68 60H102C106.418 60 110 63.5817 110 68V80C110 84.4183 106.418 88 102 88H68C63.5817 88 60 84.4183 60 80V68Z" fill="#EDF1FF"/>
<path d="M68.5469 69.1016H76.0117V70.1953H72.9082V79H71.6641V70.1953H68.5469V69.1016ZM75.8426 79L79.4656 69.1016H80.7645L84.3875 79H83.0887L82.0975 76.2109H78.1189L77.1277 79H75.8426ZM81.7215 75.1309L80.1492 70.7012H80.0672L78.4949 75.1309H81.7215ZM85.9273 69.1016H87.1578V77.9062H91.7516V79H85.9273V69.1016ZM93.5922 69.1016H94.8227V73.9961H94.9457L99.348 69.1016H100.961L96.8188 73.5723L100.961 79H99.4574L96.0531 74.4199L94.8227 75.8145V79H93.5922V69.1016Z" fill="#4D77FF"/>
<path d="M86.1914 117.242V129.125H90.9023V132.781H86.1914V149.305H81.6914V117.242H86.1914ZM77.2266 120.195V123.816H66.6797V137.844C71.3203 137.791 75.1523 137.58 79.4062 136.824L79.8984 140.586C74.9414 141.43 70.582 141.57 64.9219 141.535H62.2148V120.195H77.2266ZM117.045 117.242V123.887H121.37V127.543H117.045V134.047H112.545V117.242H117.045ZM108.362 119.422C108.327 127.859 103.123 132.781 93.4203 134.609L91.5219 131.023C99.4496 129.723 102.877 126.541 103.334 122.938H93.1039V119.422H108.362ZM117.151 135.242V138.547H100.452V140.445H116.834V143.645H100.452V145.578H117.854V148.883H95.9516V135.242H117.151ZM149.165 117.242V149.305H144.63V117.242H149.165ZM131.798 119.492C136.614 119.492 140.2 123.922 140.2 130.883C140.2 137.914 136.614 142.309 131.798 142.309C126.876 142.309 123.29 137.914 123.325 130.883C123.29 123.922 126.876 119.492 131.798 119.492ZM131.798 123.535C129.302 123.535 127.649 126.137 127.649 130.883C127.649 135.664 129.302 138.23 131.798 138.23C134.223 138.23 135.876 135.664 135.876 130.883C135.876 126.137 134.223 123.535 131.798 123.535ZM168.228 119.527C172.482 119.527 175.259 123.922 175.295 131.094C175.259 138.301 172.482 142.73 168.228 142.73C164.009 142.73 161.267 138.301 161.267 131.094C161.267 123.922 164.009 119.527 168.228 119.527ZM168.228 123.746C166.435 123.746 165.38 126.207 165.416 131.094C165.38 136.016 166.435 138.441 168.228 138.406C170.056 138.441 171.146 136.016 171.146 131.094C171.146 126.207 170.056 123.746 168.228 123.746ZM188.724 117.242V149.234H184.435V137.773H181.552V147.758H177.298V117.699H181.552V124.906H184.435V117.242H188.724ZM181.552 134.152H184.435V128.527H181.552V134.152ZM218.594 117.242V149.234H214.059V117.242H218.594ZM208.996 120.582C208.996 130.285 205.586 138.336 194.16 143.75L191.805 140.164C200.066 136.262 203.705 131.199 204.426 124.098H193.527V120.582H208.996ZM237.846 122.129V125.68H222.377V122.129H227.932V118.121H232.362V122.129H237.846ZM230.182 127.121C234.26 127.121 237.178 130.285 237.213 134.715C237.178 139.18 234.26 142.344 230.182 142.344C226.104 142.344 223.116 139.18 223.116 134.715C223.116 130.285 226.104 127.121 230.182 127.121ZM230.182 130.848C228.319 130.848 227.053 132.289 227.053 134.715C227.053 137.141 228.319 138.547 230.182 138.547C231.975 138.547 233.241 137.141 233.276 134.715C233.241 132.289 231.975 130.848 230.182 130.848ZM250.08 117.242V149.234H245.827V133.836H243.225V147.863H239.041V117.875H243.225V130.25H245.827V117.242H250.08ZM282.411 141.816V145.508H253.126V141.816H259.665V133.977C257.186 132.5 255.692 130.232 255.692 127.402C255.692 122.234 260.755 118.789 267.716 118.789C274.641 118.789 279.739 122.234 279.774 127.402C279.757 130.162 278.298 132.412 275.907 133.906V141.816H282.411ZM267.716 122.34C263.145 122.34 260.122 124.168 260.122 127.402C260.122 130.531 263.145 132.465 267.716 132.465C272.251 132.465 275.309 130.531 275.345 127.402C275.309 124.168 272.251 122.34 267.716 122.34ZM264.095 141.816H271.372V135.594C270.229 135.822 268.999 135.945 267.716 135.945C266.432 135.945 265.22 135.84 264.095 135.594V141.816Z" fill="white"/>
<path d="M67.1875 171.07C67.1875 173.375 68.418 175.66 71.25 176.598L69.9023 178.551C68.0176 177.857 66.7188 176.549 65.9766 174.898C65.2051 176.754 63.8184 178.219 61.7578 178.961L60.4102 177.008C63.3789 176.031 64.668 173.59 64.668 171.051V169.117H67.1875V171.07ZM75.5078 168.043V181.168H73.0273V173.824H69.6875V171.812H73.0273V168.043H75.5078ZM75.8789 183.492V185.484H63.6719V179.781H66.1914V183.492H75.8789ZM80.3641 169.605V173.609H82.7859V169.605H85.0906V181.578H78.0203V169.605H80.3641ZM80.3641 179.586H82.7859V175.562H80.3641V179.586ZM92.9227 168.023V185.797H90.5398V176.832H88.9383V184.977H86.575V168.277H88.9383V174.801H90.5398V168.023H92.9227ZM105.35 172.047C105.33 175.23 106.698 178.453 109.549 179.82L108.045 181.812C106.141 180.875 104.862 179.117 104.12 176.969C103.348 179.273 101.971 181.158 99.9594 182.145L98.4164 180.133C101.424 178.746 102.85 175.348 102.85 172.047V169.391H105.35V172.047ZM112.83 168.023V174.879H115.448V176.988H112.83V185.797H110.33V168.023H112.83ZM130.851 168.043V181.461H128.351V180.055H124.952V178.355H128.351V168.043H130.851ZM131.241 183.492V185.484H117.999V180.172H120.48V177.809C118.888 177.877 117.374 177.887 116.027 177.887L115.734 175.914C118.995 175.895 123.39 175.855 127.14 175.387L127.277 177.164C125.87 177.398 124.415 177.564 122.98 177.672V181.051H120.48V183.492H131.241ZM121.515 168.648C124.093 168.629 125.948 169.938 125.948 171.832C125.948 173.727 124.093 174.957 121.515 174.957C118.878 174.957 117.042 173.727 117.042 171.832C117.042 169.938 118.859 168.629 121.515 168.648ZM121.515 170.465C120.245 170.465 119.386 170.953 119.405 171.832C119.386 172.691 120.245 173.16 121.515 173.16C122.706 173.16 123.566 172.691 123.585 171.832C123.566 170.953 122.706 170.465 121.515 170.465ZM142.641 170.035V171.109C142.641 172.574 142.641 174.84 142.133 177.965L140.297 177.828C140.736 175.025 140.785 173.004 140.805 171.539H133.695V170.035H142.641ZM138.148 175.035V180.27C140.014 180.211 141.908 180.084 143.656 179.859L143.754 181.246C140.102 181.832 136.039 181.91 132.934 181.891L132.719 180.387C133.812 180.377 135.033 180.367 136.312 180.328V175.035H138.148ZM146.527 168.16V175.387H149.203V176.969H146.527V185.66H144.652V168.16H146.527ZM169.228 168.043V181.012H166.728V168.043H169.228ZM169.697 183.492V185.484H157.314V179.762H159.834V183.492H169.697ZM161.162 170.738C161.142 173.082 162.392 175.387 165.322 176.324L164.052 178.277C162.05 177.613 160.664 176.285 159.873 174.586C159.082 176.412 157.656 177.877 155.576 178.59L154.287 176.617C157.275 175.621 158.564 173.141 158.564 170.738V169.02H161.162V170.738ZM186.213 168.023V177.574H183.713V168.023H186.213ZM176.78 178.355V180.016H183.733V178.355H186.213V185.602H174.319V178.355H176.78ZM176.78 183.59H183.733V181.949H176.78V183.59ZM176.467 168.766C179.241 168.746 181.33 170.484 181.33 172.984C181.33 175.406 179.241 177.145 176.467 177.145C173.694 177.145 171.604 175.406 171.604 172.984C171.604 170.484 173.694 168.746 176.467 168.766ZM176.467 170.836C175.041 170.836 174.026 171.637 174.045 172.984C174.026 174.312 175.041 175.094 176.467 175.094C177.854 175.094 178.87 174.312 178.87 172.984C178.87 171.637 177.854 170.836 176.467 170.836ZM199.168 172.047C199.148 175.23 200.516 178.453 203.367 179.82L201.863 181.812C199.959 180.875 198.68 179.117 197.938 176.969C197.166 179.273 195.789 181.158 193.777 182.145L192.234 180.133C195.242 178.746 196.668 175.348 196.668 172.047V169.391H199.168V172.047ZM206.648 168.023V174.879H209.266V176.988H206.648V185.797H204.148V168.023H206.648ZM224.669 168.043V181.461H222.169V180.055H218.77V178.355H222.169V168.043H224.669ZM225.059 183.492V185.484H211.817V180.172H214.298V177.809C212.706 177.877 211.192 177.887 209.845 177.887L209.552 175.914C212.813 175.895 217.208 175.855 220.958 175.387L221.095 177.164C219.688 177.398 218.233 177.564 216.798 177.672V181.051H214.298V183.492H225.059ZM215.333 168.648C217.911 168.629 219.766 169.938 219.766 171.832C219.766 173.727 217.911 174.957 215.333 174.957C212.696 174.957 210.86 173.727 210.86 171.832C210.86 169.938 212.677 168.629 215.333 168.648ZM215.333 170.465C214.063 170.465 213.204 170.953 213.223 171.832C213.204 172.691 214.063 173.16 215.333 173.16C216.524 173.16 217.384 172.691 217.403 171.832C217.384 170.953 216.524 170.465 215.333 170.465ZM247.038 181.93V183.473H231.022V181.93H238.073V177.887H232.858V169.566H245.123V177.887H239.909V181.93H247.038ZM234.655 171.051V176.422H243.307V171.051H234.655ZM262.03 174.605V176.07H250.155V169.156H261.816V170.66H252.03V174.605H262.03ZM264.003 178.199V179.703H256.855V185.621H255.038V179.703H247.988V178.199H264.003ZM283.208 168.16V174.938H286.02V176.461H283.208V185.699H281.352V168.16H283.208ZM278.501 169.84V171.344H272.173V179.801C275.112 179.791 277.319 179.664 279.809 179.215L280.044 180.777C277.309 181.266 274.985 181.363 271.723 181.344H270.317V169.84H278.501ZM300.31 168.16V172.105H302.849V173.609H300.31V177.457H298.455V168.16H300.31ZM295.584 169.371C295.584 173.844 292.556 176.676 287.361 177.789L286.58 176.285C290.994 175.396 293.279 173.336 293.533 170.855H287.361V169.371H295.584ZM300.388 178.199V179.605H290.935V181.109H300.193V182.457H290.935V184.039H300.779V185.445H289.08V178.199H300.388ZM318.038 168.16V185.699H316.182V168.16H318.038ZM308.682 169.469C311.28 169.469 313.194 171.852 313.194 175.602C313.194 179.371 311.28 181.754 308.682 181.754C306.045 181.754 304.151 179.371 304.151 175.602C304.151 171.852 306.045 169.469 308.682 169.469ZM308.682 171.129C307.061 171.129 305.948 172.848 305.948 175.602C305.948 178.375 307.061 180.094 308.682 180.094C310.284 180.094 311.397 178.375 311.397 175.602C311.397 172.848 310.284 171.129 308.682 171.129ZM339.605 168.16V185.699H337.75V168.16H339.605ZM330.25 169.469C332.848 169.469 334.762 171.852 334.762 175.602C334.762 179.371 332.848 181.754 330.25 181.754C327.613 181.754 325.719 179.371 325.719 175.602C325.719 171.852 327.613 169.469 330.25 169.469ZM330.25 171.129C328.629 171.129 327.516 172.848 327.516 175.602C327.516 178.375 328.629 180.094 330.25 180.094C331.852 180.094 332.965 178.375 332.965 175.602C332.965 172.848 331.852 171.129 330.25 171.129ZM346.786 169.469C349.403 169.469 351.259 171.852 351.278 175.602C351.259 179.371 349.403 181.754 346.786 181.754C344.169 181.754 342.294 179.371 342.313 175.602C342.294 171.852 344.169 169.469 346.786 169.469ZM346.786 171.129C345.184 171.129 344.091 172.848 344.091 175.602C344.091 178.375 345.184 180.094 346.786 180.094C348.407 180.094 349.501 178.375 349.501 175.602C349.501 172.848 348.407 171.129 346.786 171.129ZM358.446 172.438V174.02H355.731V177.652H358.446V179.176H355.731V185.66H353.876V168.16H355.731V172.438H358.446ZM373.634 168.16V185.66H371.759V168.16H373.634ZM368.42 170.035C368.42 175.152 366.232 179.605 360.236 182.477L359.259 180.973C363.918 178.756 366.183 175.602 366.545 171.52H360.099V170.035H368.42ZM392.065 176.188V177.613H376.049V176.188H392.065ZM390.092 178.844V182.691H379.819V184.137H390.639V185.445H377.963V181.461H388.256V180.172H377.944V178.844H390.092ZM390.053 168.609V172.398H379.936V173.727H390.346V175.035H378.1V171.168H388.198V169.918H378.061V168.609H390.053ZM413.984 175.035V176.559H411.27V185.641H409.414V168.16H411.27V175.035H413.984ZM400.137 169.859V179.703C402.578 179.703 405.127 179.498 407.91 178.922L408.125 180.484C405.137 181.09 402.363 181.246 399.746 181.246H398.301V169.859H400.137ZM428.743 172.145V173.648H416.731V168.414H418.548V172.145H428.743ZM430.618 174.996V176.52H423.47V178.199H428.606V182.379H418.45V184.039H429.212V185.484H416.595V181.07H426.77V179.625H416.555V178.199H421.673V176.52H414.602V174.996H430.618ZM445.155 169.703C445.135 172.027 447.987 174.215 451.424 174.664L450.702 176.188C447.84 175.729 445.321 174.244 444.198 172.184C443.045 174.254 440.536 175.729 437.694 176.188L436.952 174.664C440.389 174.215 443.202 172.047 443.221 169.703V168.746H445.155V169.703ZM452.147 177.906V179.43H445.038V185.66H443.221V179.43H436.19V177.906H452.147ZM463.832 179.723C463.832 181.227 464.574 182.818 466.156 183.766C467.768 182.74 468.559 181.061 468.559 179.723V178.883H470.375V179.723C470.375 181.539 471.566 183.297 473.852 184.039L472.934 185.406C471.205 184.811 470.033 183.648 469.418 182.203C468.861 183.619 467.816 184.898 466.215 185.562C464.535 184.928 463.471 183.688 462.934 182.262C462.299 183.639 461.146 184.801 459.496 185.406L458.559 184.039C460.805 183.238 462.016 181.422 462.035 179.723V178.883H463.832V179.723ZM472.27 168.18V178.141H470.414V168.18H472.27ZM462.777 169.137C465.453 169.137 467.426 170.836 467.426 173.277C467.426 175.699 465.453 177.379 462.777 177.379C460.102 177.379 458.109 175.699 458.109 173.277C458.109 170.836 460.102 169.137 462.777 169.137ZM462.777 170.719C461.117 170.699 459.926 171.734 459.926 173.277C459.926 174.801 461.117 175.836 462.777 175.836C464.418 175.836 465.609 174.801 465.609 173.277C465.609 171.734 464.418 170.699 462.777 170.719ZM488.903 173.277V174.762H476.852V168.785H478.688V173.277H488.903ZM490.739 176.969V178.453H474.723V176.969H490.739ZM489.02 183.727V185.25H476.716V180.113H478.571V183.727H489.02ZM504.202 179.156C507.991 179.156 510.373 180.348 510.393 182.398C510.373 184.43 507.991 185.641 504.202 185.621C500.452 185.641 498.049 184.43 498.049 182.398C498.049 180.348 500.452 179.156 504.202 179.156ZM504.202 180.562C501.545 180.562 499.885 181.246 499.905 182.398C499.885 183.531 501.545 184.195 504.202 184.195C506.877 184.195 508.538 183.531 508.557 182.398C508.538 181.246 506.877 180.562 504.202 180.562ZM510.256 169.02V170.484C510.256 171.891 510.256 173.336 509.768 175.133L507.952 174.938C508.42 173.15 508.42 171.861 508.42 170.504H498.186V169.02H510.256ZM512.248 176.207V177.711H496.33V176.207H502.717V172.926H504.534V176.207H512.248ZM527.046 168.16V173.336H529.585V174.879H527.046V180.875H525.171V168.16H527.046ZM522.3 169.488C522.3 174.078 519.175 177.418 514.058 178.961L513.277 177.477C517.368 176.246 519.917 173.922 520.288 171.031H514.019V169.488H522.3ZM527.769 183.785V185.289H515.933V179.566H517.808V183.785H527.769ZM544.773 168.16V185.699H542.918V168.16H544.773ZM535.418 169.469C538.016 169.469 539.93 171.852 539.93 175.602C539.93 179.371 538.016 181.754 535.418 181.754C532.781 181.754 530.887 179.371 530.887 175.602C530.887 171.852 532.781 169.469 535.418 169.469ZM535.418 171.129C533.797 171.129 532.684 172.848 532.684 175.602C532.684 178.375 533.797 180.094 535.418 180.094C537.02 180.094 538.133 178.375 538.133 175.602C538.133 172.848 537.02 171.129 535.418 171.129ZM562.325 168.16V185.66H560.548V168.16H562.325ZM558.77 168.492V184.801H556.993V176.363H555.02C554.864 179.781 553.399 181.91 551.231 181.891C548.946 181.91 547.462 179.508 547.462 175.719C547.462 171.93 548.946 169.547 551.231 169.566C553.36 169.547 554.805 171.568 555.02 174.859H556.993V168.492H558.77ZM551.231 171.305C549.962 171.305 549.18 172.926 549.18 175.719C549.18 178.512 549.962 180.133 551.231 180.133C552.52 180.133 553.321 178.512 553.321 175.719C553.321 172.926 552.52 171.305 551.231 171.305ZM580.267 181.93V183.473H564.252V181.93H568.08V177.359C566.644 176.568 565.775 175.309 565.775 173.746C565.775 170.992 568.47 169.176 572.22 169.176C575.99 169.176 578.685 170.992 578.685 173.746C578.685 175.289 577.845 176.529 576.439 177.32V181.93H580.267ZM572.22 170.66C569.466 170.66 567.572 171.852 567.572 173.746C567.572 175.621 569.466 176.852 572.22 176.852C574.955 176.852 576.888 175.621 576.888 173.746C576.888 171.852 574.955 170.66 572.22 170.66ZM569.916 181.93H574.564V178.023C573.851 178.209 573.06 178.297 572.22 178.297C571.4 178.297 570.619 178.209 569.916 178.043V181.93ZM583.229 184.137C582.467 184.137 581.823 183.512 581.842 182.75C581.823 181.988 582.467 181.363 583.229 181.363C583.971 181.363 584.616 181.988 584.616 182.75C584.616 183.512 583.971 184.137 583.229 184.137Z" fill="white"/>
<path d="M1028.45 107.518H972.24C965.865 107.518 960.697 112.686 960.697 119.06V119.361C960.697 125.736 965.865 130.904 972.24 130.904H977.497C978.238 130.904 978.718 131.685 978.384 132.346L973.488 142.035C973.044 142.915 974.012 143.835 974.868 143.347L996.469 131.034C996.619 130.948 996.788 130.904 996.961 130.904H1028.45C1034.83 130.904 1040 125.736 1040 119.361V119.06C1040 112.686 1034.83 107.518 1028.45 107.518Z" fill="#7192FF"/>
<path d="M908.257 83.3871H939.751C939.924 83.3871 940.093 83.4322 940.243 83.5175L961.844 95.8308C962.699 96.3186 963.667 95.3981 963.223 94.5188L958.328 84.8295C957.994 84.1682 958.474 83.3871 959.215 83.3871H964.472C969.705 83.3871 974.125 79.908 975.541 75.1348C975.85 74.0929 976.015 72.987 976.015 71.8446V71.5438C976.015 65.169 970.847 60.0012 964.473 60.0012H908.257C901.883 60.0012 896.715 65.169 896.715 71.5438V71.8446C896.715 78.2194 901.883 83.3871 908.257 83.3871Z" fill="#C8D5FF"/>
<path d="M964.472 155.035H908.257C901.883 155.035 896.715 160.203 896.715 166.577V166.878C896.715 173.253 901.883 178.421 908.257 178.421H939.751C939.924 178.421 940.093 178.466 940.243 178.551L961.844 190.864C962.699 191.352 963.667 190.432 963.223 189.553L958.328 179.863C957.994 179.202 958.474 178.421 959.215 178.421H964.472C970.847 178.421 976.015 173.253 976.015 166.878V166.577C976.015 160.203 970.847 155.035 964.472 155.035Z" fill="#C8D5FF"/>
<path d="M986.769 131.458C987.424 131.094 988.162 130.903 988.912 130.903H996.962C996.789 130.903 996.62 130.949 996.47 131.035L974.87 143.347C974.015 143.834 973.047 142.915 973.49 142.036L975.737 137.588L986.769 131.458Z" fill="#4D77FF"/>
<path d="M1040 119.06V119.363C1040 125.738 1034.83 130.903 1028.46 130.903L1022.7 130.904C1029.07 130.904 1034.24 125.738 1034.24 119.363V119.06C1034.24 112.685 1029.07 107.517 1022.7 107.517H1028.46C1034.83 107.517 1040 112.685 1040 119.06Z" fill="#4D77FF"/>
<path d="M976.016 71.5431V71.8456C976.016 78.2207 970.848 83.3884 964.473 83.3884H959.216C958.476 83.3884 957.995 84.1692 958.329 84.8288L963.223 94.5196C963.667 95.398 962.699 96.3201 961.843 95.8301L956.622 92.8539L952.567 84.8285C952.233 84.1689 952.714 83.3881 953.454 83.3881H958.712C965.087 83.3881 970.255 78.2201 970.255 71.8453V71.5428C970.255 65.1678 965.087 60 958.712 60H964.473C970.848 60 976.016 65.168 976.016 71.5431Z" fill="#ADC0FF"/>
<path d="M976.016 166.577V166.88C976.016 173.252 970.848 178.42 964.473 178.42H959.216C958.476 178.42 957.995 179.203 958.329 179.863L963.223 189.554C963.667 190.432 962.699 191.351 961.843 190.865L956.621 187.888L952.567 179.863C952.233 179.203 952.714 178.42 953.454 178.42H958.712C965.087 178.42 970.255 173.252 970.255 166.88V166.577C970.255 160.202 965.087 155.034 958.712 155.034H964.473C970.848 155.034 976.016 160.203 976.016 166.577Z" fill="#ADC0FF"/>
<path d="M918.263 73.9221C916.99 73.9221 915.929 72.7546 916.046 71.4871C916.134 70.5278 916.873 69.6952 917.827 69.5119C918.173 69.4456 918.442 69.4545 918.782 69.5298C919.767 69.7481 920.491 70.6892 920.491 71.6948C920.491 72.3451 920.194 72.9866 919.694 73.4038C919.526 73.5437 919.337 73.6565 919.137 73.7422C918.862 73.8594 918.563 73.9221 918.263 73.9221Z" fill="#7192FF"/>
<path d="M930.33 73.9221C929.057 73.9221 927.996 72.7546 928.112 71.4871C928.201 70.5278 928.939 69.6952 929.893 69.5119C930.239 69.4456 930.509 69.4545 930.848 69.5298C931.833 69.7481 932.557 70.6892 932.557 71.6948C932.557 72.3451 932.26 72.9866 931.76 73.4038C931.593 73.5437 931.404 73.6565 931.203 73.7422C930.928 73.8594 930.629 73.9221 930.33 73.9221Z" fill="#7192FF"/>
<path d="M942.398 73.9221C941.125 73.9221 940.064 72.7546 940.181 71.4871C940.269 70.5278 941.007 69.6952 941.962 69.5119C942.308 69.4456 942.577 69.4545 942.917 69.5298C943.901 69.7481 944.625 70.6892 944.625 71.6948C944.625 72.3451 944.329 72.9866 943.829 73.4038C943.661 73.5437 943.472 73.6565 943.271 73.7422C942.997 73.8594 942.698 73.9221 942.398 73.9221Z" fill="#7192FF"/>
<path d="M954.467 73.9221C953.193 73.9221 952.132 72.7546 952.249 71.4871C952.337 70.5278 953.076 69.6952 954.03 69.5119C954.376 69.4456 954.645 69.4545 954.985 69.5298C955.97 69.7481 956.694 70.6892 956.694 71.6948C956.694 72.3451 956.397 72.9866 955.897 73.4038C955.73 73.5437 955.54 73.6565 955.34 73.7422C955.065 73.8594 954.766 73.9221 954.467 73.9221Z" fill="#7192FF"/>
<defs>
<linearGradient id="paint0_linear_950_3882" x1="0" y1="0" x2="1096.95" y2="263.703" gradientUnits="userSpaceOnUse">
<stop stop-color="#3754B5"/>
<stop offset="1" stop-color="#2A418C"/>
</linearGradient>
</defs>
</svg>
