<svg width="1100" height="251" viewBox="0 0 1100 251" fill="none" xmlns="http://www.w3.org/2000/svg">
<path d="M0 12C0 5.37258 5.37258 0 12 0H1088C1094.63 0 1100 5.37258 1100 12V239C1100 245.627 1094.63 251 1088 251H12C5.37257 251 0 245.627 0 239V12Z" fill="#C8D5FF"/>
<path d="M60 68C60 63.5817 63.5817 60 68 60H109C113.418 60 117 63.5817 117 68V80C117 84.4183 113.418 88 109 88H68C63.5817 88 60 84.4183 60 80V68Z" fill="white"/>
<path d="M69.0938 69.1016H70.3242V73.5039H75.5605V69.1016H76.8047V79H75.5605V74.584H70.3242V79H69.0938V69.1016ZM87.5457 74.0508C87.5457 75.0762 87.3589 75.974 86.9852 76.7441C86.6115 77.5098 86.0919 78.0999 85.4266 78.5146C84.7658 78.9294 84.0138 79.1367 83.1707 79.1367C82.323 79.1367 81.5665 78.9294 80.9012 78.5146C80.2404 78.0999 79.7231 77.5098 79.3494 76.7441C78.9803 75.974 78.7957 75.0762 78.7957 74.0508C78.7957 73.0254 78.9803 72.1299 79.3494 71.3643C79.7231 70.5941 80.2404 70.0016 80.9012 69.5869C81.5665 69.1722 82.323 68.9648 83.1707 68.9648C84.0138 68.9648 84.7658 69.1722 85.4266 69.5869C86.0919 70.0016 86.6115 70.5941 86.9852 71.3643C87.3589 72.1299 87.5457 73.0254 87.5457 74.0508ZM79.9852 74.0508C79.9852 74.8757 80.1242 75.5843 80.4021 76.1768C80.6801 76.7692 81.0584 77.2181 81.5369 77.5234C82.02 77.8288 82.5646 77.9837 83.1707 77.9883C83.7768 77.9837 84.3191 77.8288 84.7977 77.5234C85.2807 77.2181 85.6613 76.7692 85.9393 76.1768C86.2173 75.5843 86.3562 74.8757 86.3562 74.0508C86.3562 73.2214 86.2173 72.5104 85.9393 71.918C85.6613 71.3255 85.2807 70.8766 84.7977 70.5713C84.3191 70.266 83.7768 70.1133 83.1707 70.1133C82.5646 70.1133 82.02 70.266 81.5369 70.5713C81.0584 70.8766 80.6801 71.3255 80.4021 71.918C80.1242 72.5104 79.9852 73.2214 79.9852 74.0508ZM91.027 69.1016L94.3629 77.25H94.4859L97.8219 69.1016H99.2984V79H98.1363V71.5215H98.0406L94.9645 79H93.8707L90.7945 71.5215H90.7125V79H89.5504V69.1016H91.027ZM101.686 69.1016H107.688V70.1953H102.916V73.5039H107.373V74.584H102.916V77.9062H107.756V79H101.686V69.1016Z" fill="#4D77FF"/>
<path d="M61.1602 121.547H82.0078V125.906H74.2031V147H68.9648V125.906H61.1602V121.547ZM81.2563 141.656C81.268 139.688 81.9301 138.252 83.2426 137.35C84.5551 136.436 86.2602 135.914 88.3578 135.785C89.6469 135.703 91.2289 135.621 93.1039 135.539V133.992C93.0922 133.195 92.8227 132.58 92.2953 132.146C91.768 131.701 91.018 131.473 90.0453 131.461C89.1664 131.473 88.4516 131.666 87.9008 132.041C87.3617 132.404 87.0219 132.914 86.8813 133.57H81.9242C82.0297 132.445 82.4164 131.438 83.0844 130.547C83.7641 129.656 84.7074 128.953 85.9145 128.438C87.1215 127.922 88.5453 127.664 90.1859 127.664C91.6508 127.664 92.9926 127.893 94.2113 128.35C95.4418 128.807 96.4262 129.521 97.1645 130.494C97.9027 131.455 98.2719 132.668 98.2719 134.133V147H93.35V144.363H93.2094C92.7172 145.289 92.0023 146.021 91.0648 146.561C90.1273 147.1 88.9789 147.363 87.6195 147.352C86.3773 147.363 85.2758 147.152 84.3148 146.719C83.3656 146.285 82.6156 145.641 82.0648 144.785C81.5258 143.93 81.2563 142.887 81.2563 141.656ZM86.2484 141.516C86.2484 142.23 86.5063 142.781 87.0219 143.168C87.5492 143.555 88.2406 143.754 89.0961 143.766C89.8695 143.766 90.5609 143.607 91.1703 143.291C91.7914 142.975 92.266 142.547 92.5941 142.008C92.934 141.457 93.1039 140.848 93.1039 140.18V138.791C91.5336 138.861 90.2328 138.938 89.2016 139.02C88.2758 139.102 87.5492 139.359 87.0219 139.793C86.5063 140.215 86.2484 140.789 86.2484 141.516ZM110.423 147.387C108.501 147.387 106.831 146.971 105.413 146.139C104.007 145.307 102.929 144.146 102.179 142.658C101.44 141.158 101.071 139.441 101.071 137.508C101.071 135.574 101.446 133.863 102.196 132.375C102.958 130.887 104.042 129.732 105.448 128.912C106.866 128.08 108.524 127.664 110.423 127.664C112.052 127.664 113.493 127.963 114.747 128.561C116.001 129.158 116.985 130.008 117.7 131.109C118.427 132.199 118.825 133.465 118.895 134.906H114.009C113.845 133.934 113.458 133.16 112.848 132.586C112.239 132.012 111.454 131.719 110.493 131.707C109.661 131.719 108.929 131.953 108.296 132.41C107.675 132.855 107.194 133.512 106.854 134.379C106.514 135.234 106.345 136.254 106.345 137.438C106.345 138.656 106.514 139.699 106.854 140.566C107.194 141.434 107.675 142.096 108.296 142.553C108.917 143.01 109.649 143.238 110.493 143.238C111.419 143.238 112.192 142.963 112.813 142.412C113.446 141.85 113.845 141.07 114.009 140.074H118.895C118.825 141.516 118.432 142.787 117.718 143.889C117.014 144.99 116.036 145.852 114.782 146.473C113.54 147.082 112.087 147.387 110.423 147.387ZM121.73 121.547H126.933V135.223H127.214L133.402 127.91H139.378L132.259 136.172L139.765 147H133.648L128.392 139.23L126.933 140.883V147H121.73V121.547ZM141.404 127.91H146.607V147H141.404V127.91ZM144.005 125.414C143.49 125.414 143.015 125.297 142.582 125.062C142.148 124.816 141.802 124.494 141.545 124.096C141.287 123.686 141.158 123.246 141.158 122.777C141.158 122.297 141.287 121.852 141.545 121.441C141.802 121.031 142.148 120.709 142.582 120.475C143.015 120.229 143.49 120.105 144.005 120.105C144.509 120.105 144.978 120.229 145.412 120.475C145.845 120.709 146.185 121.031 146.431 121.441C146.689 121.852 146.818 122.297 146.818 122.777C146.818 123.246 146.689 123.686 146.431 124.096C146.185 124.494 145.845 124.816 145.412 125.062C144.978 125.297 144.509 125.414 144.005 125.414ZM160.305 131.812H156.719V141.129C156.707 141.844 156.854 142.342 157.158 142.623C157.475 142.893 157.926 143.039 158.512 143.062C159.051 143.062 159.742 143.027 160.586 142.957V147.07C159.812 147.188 158.869 147.246 157.756 147.246C155.811 147.246 154.281 146.801 153.168 145.91C152.055 145.008 151.504 143.66 151.516 141.867V131.812H148.879V127.91H151.516V123.34H156.719V127.91H160.305V131.812ZM189.823 150.234H185.534V118.242H189.823V150.234ZM162.366 132.094C162.366 129.738 162.647 127.688 163.209 125.941C163.784 124.195 164.592 122.859 165.635 121.934C166.69 120.996 167.92 120.527 169.327 120.527C170.604 120.527 171.735 120.908 172.719 121.67C173.715 122.432 174.518 123.533 175.127 124.975C175.748 126.404 176.141 128.109 176.305 130.09H178.924V118.699H183.143V148.758H178.924V133.641H176.34C176.211 135.715 175.842 137.514 175.233 139.037C174.623 140.549 173.809 141.709 172.789 142.518C171.782 143.326 170.627 143.73 169.327 143.73C167.92 143.73 166.69 143.262 165.635 142.324C164.592 141.375 163.784 140.027 163.209 138.281C162.647 136.523 162.366 134.461 162.366 132.094ZM166.514 132.094C166.502 134.52 166.737 136.354 167.217 137.596C167.709 138.826 168.412 139.43 169.327 139.406C170.252 139.43 170.967 138.832 171.471 137.613C171.987 136.395 172.245 134.596 172.245 132.217C172.245 129.744 171.993 127.881 171.489 126.627C170.985 125.373 170.264 124.746 169.327 124.746C168.412 124.746 167.709 125.367 167.217 126.609C166.737 127.852 166.502 129.68 166.514 132.094ZM215.284 119.895C217.57 119.895 219.626 120.258 221.454 120.984C223.282 121.711 224.718 122.742 225.761 124.078C226.816 125.402 227.343 126.926 227.343 128.648C227.343 130.23 226.921 131.643 226.077 132.885C225.245 134.115 224.085 135.117 222.597 135.891C221.12 136.652 219.421 137.139 217.499 137.35V142.816H229.98V146.508H200.695V142.816H213.034V137.35C211.124 137.127 209.431 136.635 207.954 135.873C206.478 135.1 205.323 134.098 204.491 132.867C203.671 131.625 203.261 130.219 203.261 128.648C203.261 126.926 203.782 125.402 204.825 124.078C205.868 122.742 207.298 121.711 209.114 120.984C210.943 120.258 212.999 119.895 215.284 119.895ZM207.691 128.648C207.691 129.75 208.007 130.699 208.64 131.496C209.284 132.281 210.175 132.879 211.312 133.289C212.46 133.699 213.784 133.91 215.284 133.922C216.796 133.91 218.12 133.699 219.257 133.289C220.405 132.879 221.302 132.281 221.946 131.496C222.591 130.699 222.913 129.75 222.913 128.648C222.913 127.594 222.591 126.68 221.946 125.906C221.302 125.121 220.405 124.523 219.257 124.113C218.109 123.691 216.784 123.48 215.284 123.48C213.796 123.48 212.478 123.691 211.329 124.113C210.181 124.523 209.284 125.121 208.64 125.906C208.007 126.68 207.691 127.594 207.691 128.648ZM258.197 141.621H253.697V118.277H258.197V141.621ZM231.302 133.711C233.025 133.137 234.461 132.305 235.609 131.215C236.757 130.113 237.607 128.865 238.158 127.471C238.72 126.076 239.002 124.629 239.002 123.129V120.035H243.677V123.129C243.666 124.594 243.923 125.988 244.451 127.312C244.99 128.625 245.822 129.797 246.947 130.828C248.072 131.859 249.478 132.645 251.166 133.184L248.88 136.699C247.111 136.113 245.599 135.258 244.345 134.133C243.091 132.996 242.095 131.643 241.357 130.072C240.607 131.76 239.582 133.225 238.281 134.467C236.992 135.709 235.439 136.641 233.623 137.262L231.302 133.711ZM236.752 139.371H241.287V146.086H259.041V149.672H236.752V139.371ZM296.983 134.273H292.518V128.684H286.752V125.062H292.518V118.242H296.983V134.273ZM270.44 131.566C273.838 130.816 276.452 129.709 278.28 128.244C280.12 126.768 281.209 125.027 281.549 123.023H272.198V119.402H286.366C286.377 127.594 281.561 132.832 271.916 135.117L270.44 131.566ZM275.713 135.504H296.983V144.258H280.248V146.367H297.686V149.918H275.748V140.953H292.483V139.02H275.713V135.504ZM334.222 128.754H338.3V132.445H334.222V143.203H329.722V118.242H334.222V128.754ZM308.277 136.629C311.218 136.629 313.808 136.594 316.046 136.523V134.678C314.288 134.432 312.905 133.893 311.898 133.061C310.902 132.229 310.409 131.191 310.421 129.949C310.421 128.906 310.738 128.01 311.37 127.26C312.015 126.51 312.929 125.941 314.113 125.555C315.296 125.156 316.679 124.957 318.261 124.957C319.831 124.957 321.202 125.156 322.374 125.555C323.558 125.941 324.472 126.51 325.116 127.26C325.773 128.01 326.101 128.906 326.101 129.949C326.089 131.191 325.585 132.229 324.589 133.061C323.605 133.881 322.245 134.42 320.511 134.678V136.312C323.359 136.137 325.937 135.879 328.245 135.539L328.562 138.633C325.597 139.207 322.538 139.582 319.386 139.758C316.245 139.934 312.695 140.039 308.734 140.074L308.277 136.629ZM309.12 120.844H316.046V118.137H320.511V120.844H327.437V124.043H309.12V120.844ZM312.777 141.551H317.277V146.086H335.312V149.672H312.777V141.551ZM314.71 129.949C314.698 130.535 314.991 130.992 315.589 131.32C316.198 131.648 317.06 131.812 318.173 131.812C319.333 131.812 320.224 131.654 320.845 131.338C321.478 131.01 321.8 130.547 321.812 129.949C321.8 129.281 321.489 128.783 320.88 128.455C320.271 128.115 319.398 127.945 318.261 127.945C317.101 127.945 316.216 128.115 315.607 128.455C314.997 128.783 314.698 129.281 314.71 129.949ZM348.236 119.965C349.502 119.965 350.679 120.182 351.769 120.615C352.871 121.049 353.808 121.664 354.582 122.461H361.841V118.242H366.306V136.98H361.841V133.148H354.546C353.773 133.934 352.841 134.543 351.752 134.977C350.662 135.398 349.49 135.609 348.236 135.609C346.642 135.609 345.195 135.275 343.894 134.607C342.605 133.928 341.591 132.996 340.853 131.812C340.115 130.617 339.752 129.281 339.763 127.805C339.752 126.316 340.115 124.975 340.853 123.779C341.591 122.584 342.605 121.652 343.894 120.984C345.195 120.305 346.642 119.965 348.236 119.965ZM344.017 127.805C344.017 128.613 344.193 129.322 344.545 129.932C344.908 130.541 345.412 131.01 346.056 131.338C346.701 131.654 347.439 131.812 348.271 131.812C349.068 131.812 349.783 131.654 350.416 131.338C351.048 131.01 351.546 130.541 351.91 129.932C352.273 129.322 352.455 128.613 352.455 127.805C352.455 126.973 352.273 126.258 351.91 125.66C351.546 125.051 351.048 124.588 350.416 124.271C349.795 123.943 349.08 123.785 348.271 123.797C347.439 123.785 346.701 123.943 346.056 124.271C345.412 124.588 344.908 125.051 344.545 125.66C344.193 126.258 344.017 126.973 344.017 127.805ZM344.369 143.941C344.369 142.629 344.814 141.498 345.705 140.549C346.595 139.6 347.867 138.879 349.519 138.387C351.171 137.895 353.123 137.648 355.373 137.648C357.623 137.648 359.574 137.895 361.226 138.387C362.89 138.879 364.168 139.6 365.058 140.549C365.961 141.498 366.412 142.629 366.412 143.941C366.412 145.254 365.961 146.385 365.058 147.334C364.168 148.283 362.89 149.004 361.226 149.496C359.574 149.988 357.623 150.234 355.373 150.234C353.123 150.234 351.171 149.988 349.519 149.496C347.867 149.004 346.595 148.283 345.705 147.334C344.814 146.385 344.369 145.254 344.369 143.941ZM348.763 143.941C348.763 144.867 349.332 145.57 350.468 146.051C351.605 146.52 353.24 146.754 355.373 146.754C357.541 146.754 359.187 146.52 360.312 146.051C361.437 145.57 362.005 144.867 362.017 143.941C362.005 142.992 361.437 142.277 360.312 141.797C359.199 141.316 357.552 141.07 355.373 141.059C353.228 141.07 351.587 141.316 350.451 141.797C349.326 142.277 348.763 142.992 348.763 143.941ZM356.498 126.012C356.638 126.574 356.709 127.172 356.709 127.805C356.709 128.391 356.644 128.977 356.515 129.562H361.841V126.012H356.498ZM395.438 125.941H399.762V129.668H395.438V136.98H390.938V118.242H395.438V125.941ZM370.055 121.055H377.332V118.031H381.797V121.055H389.039V124.57H370.055V121.055ZM371.602 131.145C371.602 130.02 371.936 129.029 372.604 128.174C373.271 127.318 374.203 126.656 375.398 126.188C376.605 125.719 377.988 125.484 379.547 125.484C381.082 125.484 382.447 125.719 383.643 126.188C384.838 126.656 385.764 127.318 386.42 128.174C387.088 129.029 387.422 130.02 387.422 131.145C387.422 132.27 387.088 133.26 386.42 134.115C385.764 134.971 384.838 135.633 383.643 136.102C382.447 136.57 381.082 136.805 379.547 136.805C377.988 136.805 376.605 136.57 375.398 136.102C374.203 135.633 373.271 134.971 372.604 134.115C371.936 133.26 371.602 132.27 371.602 131.145ZM374.484 138.211H378.949V140.637H390.938V138.211H395.438V149.883H374.484V138.211ZM375.996 131.145C375.984 131.906 376.295 132.492 376.928 132.902C377.572 133.312 378.445 133.523 379.547 133.535C380.648 133.523 381.527 133.312 382.184 132.902C382.84 132.492 383.168 131.906 383.168 131.145C383.168 130.406 382.834 129.826 382.166 129.404C381.51 128.971 380.637 128.766 379.547 128.789C378.469 128.766 377.602 128.971 376.945 129.404C376.301 129.826 375.984 130.406 375.996 131.145ZM390.938 146.367V144.082H378.949V146.367H390.938ZM427.663 150.234H423.198V118.242H427.663V150.234ZM402.491 121.301H406.92V138.51C411.666 138.428 416.225 137.965 420.596 137.121L421.159 140.812C416.26 141.844 410.975 142.348 405.303 142.324H402.491V121.301ZM456.723 130.125H461.434V133.781H456.723V150.305H452.223V118.242H456.723V130.125ZM432.747 121.195H447.759V124.816H437.212V138.844C439.649 138.82 441.864 138.732 443.856 138.58C445.86 138.428 447.888 138.176 449.938 137.824L450.43 141.586C448.227 141.961 446.048 142.213 443.891 142.342C441.747 142.471 439.245 142.535 436.386 142.535H435.454H432.747V121.195ZM469.015 139.371H464.515L464.058 121.547H469.472L469.015 139.371ZM463.847 144.363C463.835 143.836 463.958 143.35 464.216 142.904C464.486 142.447 464.849 142.09 465.306 141.832C465.763 141.574 466.261 141.445 466.8 141.445C467.316 141.445 467.796 141.574 468.241 141.832C468.687 142.09 469.044 142.447 469.314 142.904C469.583 143.35 469.718 143.836 469.718 144.363C469.718 144.902 469.583 145.4 469.314 145.857C469.044 146.303 468.687 146.66 468.241 146.93C467.796 147.188 467.316 147.316 466.8 147.316C466.261 147.316 465.763 147.188 465.306 146.93C464.849 146.66 464.486 146.303 464.216 145.857C463.958 145.4 463.835 144.902 463.847 144.363Z" fill="#1F2124"/>
<path d="M75.1562 180.992H73.3008V168.18H75.1562V180.992ZM60.7422 177.047C61.6406 176.715 62.4186 176.233 63.0762 175.602C63.7337 174.97 64.235 174.244 64.5801 173.424C64.9316 172.604 65.1107 171.754 65.1172 170.875V169.137H67.0117V170.875C67.0117 171.728 67.1842 172.542 67.5293 173.316C67.8743 174.091 68.3724 174.775 69.0234 175.367C69.6745 175.96 70.4427 176.409 71.3281 176.715L70.3711 178.199C69.3685 177.828 68.4993 177.288 67.7637 176.578C67.0345 175.862 66.4714 175.025 66.0742 174.068C65.6836 175.097 65.1139 175.999 64.3652 176.773C63.623 177.542 62.7474 178.121 61.7383 178.512L60.7422 177.047ZM63.7109 179.781H65.5859V183.785H75.6836V185.289H63.7109V179.781ZM92.1414 177.555H90.2859V168.16H92.1414V177.555ZM77.9813 173.023C77.9813 172.236 78.1831 171.533 78.5867 170.914C78.9904 170.296 79.547 169.817 80.2566 169.479C80.9663 169.133 81.7638 168.961 82.6492 168.961C83.5346 168.961 84.3289 169.133 85.032 169.479C85.7417 169.817 86.2951 170.296 86.6922 170.914C87.0958 171.533 87.2977 172.236 87.2977 173.023C87.2977 173.811 87.0958 174.514 86.6922 175.133C86.2951 175.745 85.7417 176.223 85.032 176.568C84.3289 176.907 83.5346 177.073 82.6492 177.066C81.7638 177.073 80.9663 176.907 80.2566 176.568C79.547 176.223 78.9904 175.745 78.5867 175.133C78.1831 174.514 77.9813 173.811 77.9813 173.023ZM79.7977 173.023C79.7977 173.518 79.9181 173.958 80.159 174.342C80.3999 174.719 80.7384 175.016 81.1746 175.23C81.6108 175.439 82.1023 175.543 82.6492 175.543C83.1896 175.543 83.6746 175.439 84.1043 175.23C84.534 175.016 84.8693 174.719 85.1102 174.342C85.3576 173.958 85.4813 173.518 85.4813 173.023C85.4813 172.535 85.3576 172.102 85.1102 171.725C84.8693 171.34 84.534 171.044 84.1043 170.836C83.6746 170.628 83.1896 170.523 82.6492 170.523C82.1023 170.523 81.6108 170.628 81.1746 170.836C80.7384 171.044 80.3999 171.34 80.159 171.725C79.9181 172.102 79.7977 172.535 79.7977 173.023ZM80.6961 178.395H82.5125V180.367H90.3055V178.395H92.1414V185.445H80.6961V178.395ZM90.3055 183.922V181.832H82.5125V183.922H90.3055ZM104.361 171.109C104.354 172.275 104.322 173.368 104.263 174.391C104.205 175.413 104.068 176.604 103.853 177.965L102.017 177.828C102.219 176.585 102.352 175.468 102.418 174.479C102.483 173.489 102.518 172.509 102.525 171.539H95.4156V170.035H104.361V171.109ZM94.4391 180.387C96.0341 180.374 97.232 180.357 98.0328 180.338V175.035H99.8688V180.279C102.089 180.188 103.925 180.048 105.377 179.859L105.474 181.246C102.811 181.676 99.4749 181.891 95.4645 181.891H94.6539L94.4391 180.387ZM106.373 168.16H108.248V175.387H110.923V176.969H108.248V185.66H106.373V168.16ZM122.355 171.363C122.361 172.158 122.534 172.926 122.872 173.668C123.211 174.404 123.696 175.058 124.327 175.631C124.965 176.204 125.714 176.643 126.573 176.949L125.558 178.395C124.614 178.03 123.79 177.503 123.087 176.812C122.384 176.122 121.844 175.322 121.466 174.41C121.082 175.432 120.522 176.324 119.786 177.086C119.051 177.841 118.175 178.414 117.159 178.805L116.163 177.34C117.055 177.021 117.827 176.559 118.478 175.953C119.135 175.341 119.637 174.635 119.982 173.834C120.333 173.027 120.512 172.184 120.519 171.305V169.234H122.355V171.363ZM119.347 179.762H121.222V183.785H131.163V185.289H119.347V179.762ZM125.226 172.164H128.917V168.18H130.773V181.227H128.917V173.688H125.226V172.164ZM135.512 173.961H138.852V169.781H140.57V181.344H133.754V169.781H135.512V173.961ZM138.852 179.84V175.426H135.512V179.84H138.852ZM142.523 168.492H144.281V175.016H146.449V168.16H148.227V185.66H146.449V176.539H144.281V184.801H142.523V168.492ZM163.786 175.133H166.501V176.676H163.786V185.641H161.93V168.16H163.786V175.133ZM150.173 180.973C152.36 179.879 154.05 178.544 155.241 176.969C156.439 175.393 157.132 173.583 157.321 171.539H151.052V169.996H159.216C159.203 172.665 158.555 175.064 157.272 177.193C155.99 179.316 153.968 181.057 151.208 182.418L150.173 180.973ZM185.471 172.691H188.01V174.273H185.471V178.707H183.616V168.16H185.471V172.691ZM171.741 169.938H176.037V168.023H177.893V169.938H182.17V171.422H171.741V169.938ZM172.698 175.309C172.698 174.697 172.873 174.153 173.225 173.678C173.583 173.202 174.084 172.835 174.729 172.574C175.373 172.314 176.116 172.184 176.955 172.184C177.789 172.184 178.524 172.314 179.162 172.574C179.807 172.835 180.305 173.202 180.657 173.678C181.015 174.153 181.194 174.697 181.194 175.309C181.194 175.934 181.015 176.484 180.657 176.959C180.305 177.428 179.807 177.796 179.162 178.062C178.524 178.323 177.789 178.453 176.955 178.453C176.116 178.453 175.37 178.323 174.719 178.062C174.075 177.796 173.577 177.428 173.225 176.959C172.873 176.484 172.698 175.934 172.698 175.309ZM174.299 179.625H185.471V185.445H174.299V179.625ZM174.495 175.309C174.488 175.842 174.706 176.266 175.149 176.578C175.598 176.884 176.2 177.04 176.955 177.047C177.704 177.04 178.306 176.884 178.762 176.578C179.218 176.266 179.449 175.842 179.455 175.309C179.449 174.97 179.342 174.674 179.133 174.42C178.925 174.16 178.635 173.961 178.264 173.824C177.893 173.681 177.467 173.609 176.985 173.609C176.49 173.609 176.051 173.678 175.666 173.814C175.289 173.951 174.996 174.15 174.787 174.41C174.586 174.664 174.488 174.964 174.495 175.309ZM183.635 183.941V181.09H176.116V183.941H183.635ZM193.042 170.23C193.029 172.509 192.814 174.586 192.398 176.461C191.981 178.336 191.213 180.061 190.093 181.637L188.648 180.816C189.605 179.534 190.288 178.157 190.698 176.686C191.115 175.208 191.359 173.564 191.431 171.754H189.058V170.23H193.042ZM192.573 181.852C193.283 180.895 193.836 179.863 194.234 178.756C194.631 177.643 194.904 176.523 195.054 175.396C195.21 174.27 195.301 173.056 195.327 171.754H193.57V170.23H196.929C196.929 172.053 196.854 173.622 196.704 174.938H198.765V168.609H200.523V184.801H198.765V176.441H196.489C196.047 178.909 195.223 180.992 194.019 182.691L192.573 181.852ZM202.066 168.16H203.843V185.66H202.066V168.16ZM226.29 183.434H210.274V181.91H217.286V177.75H219.122V181.91H226.29V183.434ZM210.821 176.539C211.934 176.35 212.979 175.96 213.956 175.367C214.939 174.775 215.727 174.059 216.319 173.219C216.912 172.372 217.208 171.5 217.208 170.602V169.273H219.161V170.602C219.161 171.5 219.457 172.372 220.05 173.219C220.649 174.059 221.44 174.775 222.423 175.367C223.412 175.96 224.467 176.35 225.587 176.539L224.786 178.062C223.835 177.874 222.927 177.561 222.061 177.125C221.202 176.689 220.437 176.148 219.766 175.504C219.096 174.853 218.572 174.137 218.194 173.355C217.817 174.137 217.292 174.85 216.622 175.494C215.958 176.139 215.196 176.682 214.337 177.125C213.484 177.561 212.585 177.874 211.641 178.062L210.821 176.539ZM243.216 178.824H227.22V177.359H234.291V175.836H229.31V168.629H241.263V170.094H231.185V171.52H240.814V172.906H231.185V174.391H241.38V175.836H236.146V177.359H243.216V178.824ZM229.154 182.809C229.154 181.891 229.678 181.188 230.726 180.699C231.774 180.211 233.275 179.97 235.228 179.977C236.504 179.977 237.591 180.084 238.49 180.299C239.395 180.514 240.082 180.836 240.55 181.266C241.026 181.689 241.263 182.203 241.263 182.809C241.257 183.727 240.729 184.426 239.681 184.908C238.64 185.39 237.155 185.628 235.228 185.621C233.268 185.628 231.765 185.39 230.716 184.908C229.675 184.426 229.154 183.727 229.154 182.809ZM231.009 182.809C231.003 183.284 231.358 183.642 232.074 183.883C232.79 184.117 233.841 184.228 235.228 184.215C236.595 184.228 237.634 184.117 238.343 183.883C239.053 183.642 239.408 183.284 239.408 182.809C239.408 182.333 239.053 181.975 238.343 181.734C237.634 181.487 236.595 181.363 235.228 181.363C233.848 181.363 232.796 181.487 232.074 181.734C231.358 181.975 231.003 182.333 231.009 182.809ZM257.877 175.25H260.69V176.793H257.877V185.66H256.041V168.16H257.877V175.25ZM244.147 170.895H248.463V168.395H250.319V170.895H254.518V172.418H244.147V170.895ZM245.045 177.77C245.045 176.988 245.231 176.288 245.602 175.67C245.98 175.051 246.497 174.57 247.155 174.225C247.819 173.88 248.567 173.707 249.401 173.707C250.228 173.707 250.97 173.88 251.627 174.225C252.291 174.57 252.812 175.051 253.19 175.67C253.567 176.288 253.756 176.988 253.756 177.77C253.756 178.557 253.567 179.26 253.19 179.879C252.812 180.497 252.291 180.982 251.627 181.334C250.97 181.679 250.228 181.852 249.401 181.852C248.567 181.852 247.819 181.679 247.155 181.334C246.497 180.982 245.98 180.497 245.602 179.879C245.231 179.26 245.045 178.557 245.045 177.77ZM246.823 177.77C246.823 178.271 246.93 178.714 247.145 179.098C247.366 179.482 247.672 179.778 248.063 179.986C248.46 180.195 248.906 180.296 249.401 180.289C249.889 180.296 250.329 180.195 250.719 179.986C251.11 179.778 251.416 179.482 251.637 179.098C251.865 178.714 251.979 178.271 251.979 177.77C251.979 177.281 251.865 176.845 251.637 176.461C251.416 176.077 251.11 175.777 250.719 175.562C250.329 175.341 249.889 175.23 249.401 175.23C248.906 175.23 248.46 175.341 248.063 175.562C247.672 175.777 247.366 176.077 247.145 176.461C246.93 176.845 246.823 177.281 246.823 177.77ZM275.39 171.559C275.383 172.568 275.367 173.43 275.341 174.146C275.321 174.856 275.263 175.686 275.165 176.637C275.074 177.587 274.928 178.616 274.726 179.723L272.851 179.527C273.059 178.479 273.212 177.493 273.31 176.568C273.407 175.637 273.466 174.817 273.486 174.107C273.512 173.398 273.528 172.548 273.534 171.559V171.344H262.909V169.84H275.39V171.559ZM261.23 181.754H267.304V175.582H269.14V181.754H277.187V183.297H261.23V181.754ZM289.009 170.777C289.009 171.591 289.178 172.366 289.516 173.102C289.855 173.831 290.343 174.472 290.981 175.025C291.619 175.579 292.374 175.999 293.247 176.285L292.231 177.73C291.274 177.379 290.447 176.878 289.751 176.227C289.054 175.576 288.514 174.807 288.13 173.922C287.746 174.938 287.179 175.82 286.43 176.568C285.682 177.317 284.783 177.88 283.735 178.258L282.739 176.773C283.657 176.461 284.448 176.008 285.112 175.416C285.776 174.817 286.284 174.127 286.636 173.346C286.987 172.564 287.166 171.734 287.173 170.855V169.137H289.009V170.777ZM285.61 182.32C285.61 181.617 285.845 181.015 286.313 180.514C286.789 180.012 287.469 179.632 288.354 179.371C289.246 179.111 290.304 178.98 291.528 178.98C292.746 178.98 293.797 179.111 294.682 179.371C295.568 179.632 296.248 180.012 296.723 180.514C297.205 181.015 297.446 181.617 297.446 182.32C297.446 183.017 297.205 183.613 296.723 184.107C296.248 184.602 295.568 184.977 294.682 185.23C293.797 185.491 292.746 185.621 291.528 185.621C290.304 185.621 289.246 185.491 288.354 185.23C287.469 184.977 286.789 184.602 286.313 184.107C285.845 183.613 285.61 183.017 285.61 182.32ZM287.446 182.32C287.446 182.704 287.602 183.033 287.915 183.307C288.234 183.58 288.696 183.792 289.302 183.941C289.907 184.085 290.63 184.156 291.47 184.156C292.772 184.156 293.784 183.997 294.507 183.678C295.236 183.359 295.604 182.906 295.61 182.32C295.604 181.721 295.239 181.256 294.516 180.924C293.8 180.592 292.804 180.426 291.528 180.426C290.239 180.426 289.233 180.592 288.511 180.924C287.794 181.256 287.44 181.721 287.446 182.32ZM291.841 171.715H295.532V168.16H297.387V178.492H295.532V173.238H291.841V171.715ZM305.896 171.383C305.89 172.125 306.052 172.835 306.384 173.512C306.723 174.182 307.208 174.778 307.839 175.299C308.471 175.813 309.223 176.207 310.095 176.48L309.216 177.926C308.233 177.613 307.38 177.145 306.658 176.52C305.942 175.895 305.388 175.159 304.998 174.312C304.614 175.283 304.044 176.129 303.289 176.852C302.533 177.568 301.638 178.108 300.603 178.473L299.646 176.988C300.538 176.695 301.316 176.266 301.98 175.699C302.644 175.133 303.152 174.479 303.504 173.736C303.855 172.994 304.034 172.216 304.041 171.402V170.914H300.193V169.41H309.666V170.914H305.896V171.383ZM302.009 182.34C302.009 181.663 302.244 181.08 302.712 180.592C303.188 180.104 303.865 179.732 304.744 179.479C305.629 179.225 306.677 179.098 307.888 179.098C309.086 179.098 310.118 179.225 310.984 179.479C311.856 179.732 312.524 180.104 312.986 180.592C313.455 181.08 313.689 181.663 313.689 182.34C313.689 183.03 313.455 183.619 312.986 184.107C312.524 184.602 311.856 184.977 310.984 185.23C310.118 185.491 309.086 185.621 307.888 185.621C306.677 185.621 305.629 185.491 304.744 185.23C303.865 184.977 303.188 184.602 302.712 184.107C302.244 183.619 302.009 183.03 302.009 182.34ZM303.865 182.34C303.858 182.919 304.203 183.368 304.9 183.688C305.603 184 306.58 184.156 307.83 184.156C309.112 184.156 310.108 184 310.818 183.688C311.528 183.375 311.879 182.926 311.873 182.34C311.879 181.773 311.537 181.337 310.847 181.031C310.157 180.719 309.19 180.562 307.947 180.562C306.651 180.562 305.645 180.715 304.929 181.021C304.213 181.327 303.858 181.767 303.865 182.34ZM311.677 168.16H313.533V172.496H316.072V174.02H313.533V178.668H311.677V168.16ZM330.401 175.25H333.213V176.793H330.401V185.66H328.565V168.16H330.401V175.25ZM316.67 170.895H320.987V168.395H322.842V170.895H327.041V172.418H316.67V170.895ZM317.569 177.77C317.569 176.988 317.754 176.288 318.125 175.67C318.503 175.051 319.021 174.57 319.678 174.225C320.342 173.88 321.091 173.707 321.924 173.707C322.751 173.707 323.493 173.88 324.151 174.225C324.815 174.57 325.336 175.051 325.713 175.67C326.091 176.288 326.28 176.988 326.28 177.77C326.28 178.557 326.091 179.26 325.713 179.879C325.336 180.497 324.815 180.982 324.151 181.334C323.493 181.679 322.751 181.852 321.924 181.852C321.091 181.852 320.342 181.679 319.678 181.334C319.021 180.982 318.503 180.497 318.125 179.879C317.754 179.26 317.569 178.557 317.569 177.77ZM319.346 177.77C319.346 178.271 319.454 178.714 319.668 179.098C319.89 179.482 320.196 179.778 320.586 179.986C320.983 180.195 321.429 180.296 321.924 180.289C322.413 180.296 322.852 180.195 323.243 179.986C323.633 179.778 323.939 179.482 324.161 179.098C324.388 178.714 324.502 178.271 324.502 177.77C324.502 177.281 324.388 176.845 324.161 176.461C323.939 176.077 323.633 175.777 323.243 175.562C322.852 175.341 322.413 175.23 321.924 175.23C321.429 175.23 320.983 175.341 320.586 175.562C320.196 175.777 319.89 176.077 319.668 176.461C319.454 176.845 319.346 177.281 319.346 177.77ZM347.913 174.762H335.862V168.785H337.698V173.277H347.913V174.762ZM333.734 176.969H349.749V178.453H333.734V176.969ZM335.726 180.113H337.581V183.727H348.03V185.25H335.726V180.113ZM371.278 178.902H355.321V177.379H362.372V175.689C361.278 175.624 360.331 175.442 359.53 175.143C358.729 174.843 358.114 174.443 357.684 173.941C357.255 173.434 357.04 172.841 357.04 172.164C357.04 171.448 357.294 170.826 357.802 170.299C358.309 169.771 359.035 169.365 359.979 169.078C360.923 168.792 362.027 168.648 363.29 168.648C364.546 168.648 365.643 168.792 366.581 169.078C367.525 169.365 368.254 169.771 368.768 170.299C369.283 170.826 369.54 171.448 369.54 172.164C369.54 172.841 369.322 173.434 368.886 173.941C368.456 174.443 367.841 174.843 367.04 175.143C366.239 175.442 365.295 175.624 364.208 175.689V177.379H371.278V178.902ZM357.333 180.211H359.208V183.785H369.481V185.289H357.333V180.211ZM358.954 172.164C358.947 172.815 359.328 173.32 360.096 173.678C360.865 174.029 361.929 174.208 363.29 174.215C364.644 174.208 365.705 174.029 366.473 173.678C367.248 173.32 367.632 172.815 367.626 172.164C367.626 171.754 367.453 171.399 367.108 171.1C366.763 170.794 366.265 170.559 365.614 170.396C364.97 170.234 364.211 170.152 363.339 170.152C362.44 170.152 361.659 170.234 360.995 170.396C360.337 170.553 359.833 170.784 359.481 171.09C359.13 171.389 358.954 171.747 358.954 172.164ZM388.322 183.492H372.306V181.949H379.357V178.355H374.142V169.352H375.998V172.359H384.591V169.352H386.427V178.355H381.193V181.949H388.322V183.492ZM384.591 176.852V173.863H375.998V176.852H384.591ZM403.803 178.824H401.948V168.16H403.803V178.824ZM390.346 169.508H398.666V171.012H392.182V175.816C394.044 175.81 395.571 175.764 396.762 175.68C397.954 175.595 399.135 175.439 400.307 175.211L400.483 176.734C399.278 176.969 398.058 177.125 396.821 177.203C395.584 177.275 393.914 177.314 391.811 177.32H390.346V169.508ZM391.967 182.281C391.967 181.572 392.205 180.963 392.68 180.455C393.162 179.947 393.849 179.563 394.741 179.303C395.633 179.036 396.694 178.902 397.924 178.902C399.135 178.902 400.187 179.036 401.079 179.303C401.97 179.563 402.657 179.951 403.139 180.465C403.621 180.973 403.862 181.578 403.862 182.281C403.862 182.978 403.621 183.58 403.139 184.088C402.657 184.596 401.97 184.983 401.079 185.25C400.187 185.523 399.135 185.66 397.924 185.66C396.694 185.66 395.633 185.523 394.741 185.25C393.849 184.983 393.162 184.596 392.68 184.088C392.205 183.587 391.967 182.984 391.967 182.281ZM393.842 182.281C393.842 182.88 394.197 183.346 394.907 183.678C395.623 184.01 396.629 184.176 397.924 184.176C398.777 184.176 399.51 184.101 400.121 183.951C400.74 183.801 401.212 183.587 401.538 183.307C401.863 183.02 402.026 182.678 402.026 182.281C402.032 181.669 401.674 181.197 400.952 180.865C400.229 180.533 399.22 180.367 397.924 180.367C396.622 180.367 395.616 180.533 394.907 180.865C394.197 181.191 393.842 181.663 393.842 182.281ZM418.75 179.156C420.007 179.156 421.1 179.286 422.031 179.547C422.962 179.801 423.678 180.172 424.18 180.66C424.688 181.148 424.941 181.728 424.941 182.398C424.941 183.069 424.688 183.645 424.18 184.127C423.678 184.615 422.962 184.986 422.031 185.24C421.1 185.494 420.007 185.621 418.75 185.621C417.507 185.621 416.419 185.494 415.488 185.24C414.564 184.986 413.851 184.615 413.35 184.127C412.848 183.645 412.598 183.069 412.598 182.398C412.598 181.728 412.848 181.148 413.35 180.66C413.851 180.172 414.564 179.801 415.488 179.547C416.413 179.286 417.5 179.156 418.75 179.156ZM410.879 176.207H417.266V172.926H419.082V176.207H426.797V177.711H410.879V176.207ZM412.734 169.02H424.805V170.484V171.002C424.805 171.757 424.772 172.457 424.707 173.102C424.648 173.74 424.518 174.417 424.316 175.133L422.5 174.938C422.708 174.143 422.839 173.43 422.891 172.799C422.943 172.161 422.969 171.396 422.969 170.504H412.734V169.02ZM414.453 182.398C414.447 182.77 414.616 183.092 414.961 183.365C415.312 183.632 415.811 183.837 416.455 183.98C417.106 184.124 417.871 184.195 418.75 184.195C419.642 184.195 420.413 184.124 421.064 183.98C421.715 183.837 422.217 183.632 422.568 183.365C422.92 183.092 423.099 182.77 423.105 182.398C423.099 182.021 422.92 181.695 422.568 181.422C422.217 181.142 421.715 180.93 421.064 180.787C420.413 180.637 419.642 180.562 418.75 180.562C417.871 180.562 417.106 180.637 416.455 180.787C415.811 180.93 415.312 181.142 414.961 181.422C414.616 181.695 414.447 182.021 414.453 182.398ZM441.595 173.336H444.134V174.879H441.595V180.875H439.72V168.16H441.595V173.336ZM427.825 177.477C429.186 177.066 430.367 176.542 431.37 175.904C432.379 175.26 433.177 174.527 433.763 173.707C434.355 172.88 434.71 171.988 434.827 171.031H428.567V169.488H436.848C436.848 170.999 436.52 172.376 435.862 173.619C435.205 174.856 434.257 175.927 433.02 176.832C431.79 177.73 430.319 178.44 428.606 178.961L427.825 177.477ZM430.481 179.566H432.356V183.785H442.317V185.289H430.481V179.566ZM459.322 185.699H457.466V168.16H459.322V185.699ZM445.435 175.602C445.435 174.378 445.627 173.303 446.011 172.379C446.395 171.448 446.929 170.732 447.613 170.23C448.303 169.723 449.087 169.469 449.966 169.469C450.832 169.469 451.607 169.723 452.291 170.23C452.974 170.732 453.508 171.448 453.892 172.379C454.283 173.303 454.478 174.378 454.478 175.602C454.478 176.839 454.283 177.923 453.892 178.854C453.508 179.785 452.974 180.501 452.291 181.002C451.607 181.503 450.832 181.754 449.966 181.754C449.087 181.754 448.303 181.503 447.613 181.002C446.929 180.501 446.395 179.785 446.011 178.854C445.627 177.923 445.435 176.839 445.435 175.602ZM447.232 175.602C447.232 176.513 447.346 177.307 447.574 177.984C447.802 178.661 448.121 179.182 448.531 179.547C448.948 179.911 449.426 180.094 449.966 180.094C450.5 180.094 450.972 179.911 451.382 179.547C451.793 179.182 452.112 178.661 452.339 177.984C452.567 177.307 452.681 176.513 452.681 175.602C452.681 174.703 452.567 173.919 452.339 173.248C452.112 172.571 451.793 172.05 451.382 171.686C450.972 171.314 450.5 171.129 449.966 171.129C449.426 171.129 448.948 171.314 448.531 171.686C448.121 172.05 447.802 172.571 447.574 173.248C447.346 173.919 447.232 174.703 447.232 175.602ZM476.873 185.66H475.096V168.16H476.873V185.66ZM462.01 175.719C462.01 174.469 462.163 173.382 462.469 172.457C462.782 171.526 463.221 170.813 463.788 170.318C464.36 169.817 465.024 169.566 465.78 169.566C466.483 169.566 467.105 169.778 467.645 170.201C468.192 170.624 468.628 171.236 468.954 172.037C469.286 172.831 469.487 173.772 469.559 174.859H471.541V168.492H473.319V184.801H471.541V176.363H469.569C469.517 177.496 469.328 178.479 469.002 179.312C468.677 180.139 468.237 180.777 467.684 181.227C467.131 181.669 466.496 181.891 465.78 181.891C465.024 181.891 464.36 181.643 463.788 181.148C463.221 180.647 462.782 179.931 462.469 179C462.163 178.062 462.01 176.969 462.01 175.719ZM463.729 175.719C463.729 176.637 463.81 177.428 463.973 178.092C464.142 178.756 464.38 179.264 464.686 179.615C464.998 179.96 465.363 180.133 465.78 180.133C466.209 180.133 466.58 179.96 466.893 179.615C467.205 179.264 467.446 178.756 467.616 178.092C467.785 177.428 467.87 176.637 467.87 175.719C467.87 174.794 467.785 174.003 467.616 173.346C467.446 172.682 467.205 172.177 466.893 171.832C466.58 171.48 466.209 171.305 465.78 171.305C465.363 171.305 464.998 171.48 464.686 171.832C464.38 172.177 464.142 172.682 463.973 173.346C463.81 174.01 463.729 174.801 463.729 175.719ZM494.816 183.473H478.8V181.93H482.628V177.359C481.892 176.956 481.323 176.445 480.919 175.826C480.515 175.208 480.317 174.514 480.323 173.746C480.323 172.841 480.597 172.044 481.144 171.354C481.691 170.663 482.452 170.13 483.429 169.752C484.412 169.368 485.525 169.176 486.769 169.176C488.012 169.176 489.126 169.368 490.109 169.752C491.092 170.13 491.857 170.663 492.404 171.354C492.957 172.044 493.234 172.841 493.234 173.746C493.234 174.508 493.038 175.195 492.648 175.807C492.257 176.412 491.704 176.917 490.987 177.32V181.93H494.816V183.473ZM482.12 173.746C482.12 174.365 482.316 174.908 482.706 175.377C483.097 175.846 483.644 176.21 484.347 176.471C485.05 176.725 485.857 176.852 486.769 176.852C487.674 176.852 488.478 176.721 489.181 176.461C489.89 176.201 490.444 175.839 490.841 175.377C491.238 174.908 491.437 174.365 491.437 173.746C491.437 173.128 491.238 172.587 490.841 172.125C490.444 171.656 489.89 171.295 489.181 171.041C488.478 170.787 487.674 170.66 486.769 170.66C485.857 170.66 485.05 170.787 484.347 171.041C483.644 171.295 483.097 171.656 482.706 172.125C482.316 172.587 482.12 173.128 482.12 173.746ZM489.112 181.93V178.043C488.383 178.212 487.602 178.297 486.769 178.297C485.948 178.297 485.18 178.212 484.464 178.043V181.93H489.112ZM497.777 184.137C497.53 184.137 497.299 184.075 497.084 183.951C496.876 183.827 496.706 183.661 496.576 183.453C496.452 183.245 496.391 183.017 496.391 182.77C496.391 182.516 496.452 182.281 496.576 182.066C496.7 181.852 496.866 181.682 497.074 181.559C497.289 181.428 497.523 181.363 497.777 181.363C498.025 181.363 498.253 181.425 498.461 181.549C498.676 181.673 498.845 181.842 498.969 182.057C499.099 182.271 499.164 182.503 499.164 182.75C499.164 182.997 499.099 183.229 498.969 183.443C498.845 183.652 498.676 183.821 498.461 183.951C498.253 184.075 498.025 184.137 497.777 184.137Z" fill="#58616A"/>
<path d="M948.8 113.948L934.55 134.075L920.015 165.084L917.18 184.969L976.808 142.623L948.8 113.948Z" fill="#ADC0FF"/>
<path d="M989.241 151.501L978.157 140.418L970.39 134.704L963.622 125.882L949.086 111.347L946.81 115.05L970.708 138.948C972.574 140.814 972.294 143.914 970.124 145.415L916.895 182.247L920.016 187.079L934.551 180.266L941.382 173.715L949.086 173.452L963.622 166.639L971.057 159.044L978.157 159.825L988.643 154.91C989.97 154.288 990.277 152.537 989.241 151.501Z" fill="#7192FF"/>
<path d="M966.839 115.695C966.561 115.695 966.275 115.639 966.003 115.521C964.929 115.057 964.438 113.814 964.9 112.742C966.302 109.501 968.216 108.262 969.755 107.267C971.134 106.373 972.131 105.729 973.023 103.664C973.917 101.599 973.706 100.431 973.413 98.8122C973.087 97.0097 972.68 94.7665 974.082 91.5281C975.484 88.2917 977.398 87.0539 978.934 86.0598C980.313 85.1669 981.311 84.5226 982.203 82.4601C983.095 80.4007 982.882 79.234 982.589 77.6195C982.26 75.818 981.852 73.5769 983.251 70.3415C984.653 67.1051 986.567 65.8673 988.103 64.8733C989.482 63.9813 990.48 63.3371 991.372 61.2756C991.836 60.2051 993.071 59.7084 994.153 60.1762C995.224 60.6398 995.716 61.8848 995.253 62.9563C993.851 66.1927 991.937 67.4306 990.401 68.4246C989.022 69.3165 988.025 69.9608 987.133 72.0223C986.241 74.0807 986.454 75.2474 986.747 76.8619C987.075 78.6634 987.484 80.9045 986.084 84.1399C984.682 87.3773 982.768 88.6151 981.232 89.6102C979.853 90.5021 978.856 91.1464 977.964 93.2088C977.07 95.2726 977.281 96.4422 977.574 98.0597C977.9 99.8623 978.307 102.105 976.905 105.345C975.503 108.582 973.589 109.821 972.053 110.816C970.671 111.71 969.674 112.354 968.782 114.419C968.437 115.218 967.659 115.695 966.839 115.695Z" fill="#466CE8"/>
<path d="M983.294 134.258C982.474 134.258 981.694 133.779 981.351 132.976C980.891 131.903 981.388 130.66 982.462 130.202C985.704 128.808 987.946 129.221 989.746 129.559C991.363 129.857 992.529 130.071 994.6 129.188C996.665 128.302 997.315 127.307 998.214 125.929C999.215 124.395 1000.46 122.485 1003.71 121.096C1006.94 119.704 1009.19 120.121 1010.99 120.454C1012.6 120.753 1013.77 120.97 1015.83 120.084C1017.9 119.2 1018.54 118.205 1019.44 116.83C1020.44 115.296 1021.68 113.388 1024.92 111.999C1028.17 110.607 1030.41 111.022 1032.2 111.359C1033.82 111.656 1034.99 111.873 1037.05 110.989C1038.12 110.522 1039.37 111.022 1039.83 112.1C1040.29 113.173 1039.79 114.416 1038.72 114.875C1035.47 116.264 1033.23 115.849 1031.43 115.515C1029.83 115.222 1028.66 115.003 1026.59 115.884C1024.53 116.768 1023.88 117.763 1022.98 119.138C1021.98 120.672 1020.74 122.58 1017.5 123.97C1014.26 125.359 1012.02 124.944 1010.22 124.612C1008.6 124.309 1007.43 124.094 1005.37 124.981C1003.3 125.867 1002.65 126.862 1001.75 128.24C1000.75 129.774 999.508 131.683 996.267 133.073C993.021 134.463 990.777 134.046 988.978 133.715C987.357 133.416 986.191 133.201 984.126 134.087C983.856 134.205 983.573 134.258 983.294 134.258Z" fill="#466CE8"/>
<path d="M990.485 110.176C989.973 110.176 989.461 109.992 989.055 109.619C988.196 108.828 988.138 107.49 988.929 106.631C991.547 103.784 993.774 103.097 995.74 102.492C997.472 101.959 998.841 101.537 1000.68 99.5336C1002.52 97.5297 1002.83 96.1319 1003.22 94.3616C1003.65 92.3515 1004.15 90.0744 1006.77 87.2272C1009.38 84.382 1011.61 83.6965 1013.57 83.0927C1015.31 82.56 1016.67 82.1399 1018.51 80.138C1020.35 78.1385 1020.65 76.7417 1021.04 74.9742C1021.48 72.9652 1021.97 70.6901 1024.58 67.8459C1027.2 65.0008 1029.43 64.3163 1031.39 63.7125C1033.12 63.1808 1034.49 62.7607 1036.33 60.7601C1037.12 59.9002 1038.46 59.8485 1039.31 60.6342C1040.17 61.4251 1040.23 62.763 1039.44 63.6219C1036.82 66.4671 1034.6 67.1515 1032.63 67.7554C1030.9 68.287 1029.54 68.7072 1027.7 70.7077C1025.86 72.7073 1025.56 74.104 1025.17 75.8715C1024.73 77.8806 1024.24 80.1557 1021.63 82.9998C1019.01 85.845 1016.78 86.5304 1014.82 87.1343C1013.09 87.667 1011.72 88.0871 1009.88 90.089C1008.04 92.0939 1007.73 93.4927 1007.35 95.263C1006.91 97.272 1006.41 99.5492 1003.8 102.395C1001.18 105.242 998.951 105.929 996.985 106.534C995.253 107.067 993.884 107.488 992.042 109.493C991.625 109.947 991.055 110.176 990.485 110.176Z" fill="#FFC240"/>
<path d="M968.072 85.9674C967.405 85.9674 966.75 85.6535 966.34 85.0673L960.04 76.0902C959.369 75.1343 959.6 73.8158 960.556 73.146C961.514 72.4728 962.832 72.7072 963.501 73.6621L969.8 82.6392C970.471 83.5951 970.24 84.9135 969.284 85.5834C968.914 85.8436 968.491 85.9674 968.072 85.9674Z" fill="#00D519"/>
<path d="M978.683 123.504C977.727 123.504 976.86 122.851 976.628 121.879C976.358 120.743 977.06 119.603 978.195 119.333L989.279 116.696C990.418 116.428 991.554 117.125 991.824 118.263C992.095 119.399 991.393 120.539 990.257 120.809L979.174 123.446C979.009 123.485 978.846 123.504 978.683 123.504Z" fill="#ADC0FF"/>
<path d="M1009.05 113.06C1008.64 113.06 1008.21 112.936 1007.84 112.676C1006.88 112.003 1006.65 110.686 1007.33 109.73L1012.09 102.957C1012.76 102.003 1014.08 101.771 1015.04 102.444C1015.99 103.115 1016.22 104.434 1015.55 105.39L1010.79 112.162C1010.37 112.749 1009.72 113.06 1009.05 113.06Z" fill="#ADC0FF"/>
<path d="M1031.54 131.961H1027.31C1026.14 131.961 1025.2 131.015 1025.2 129.846C1025.2 128.678 1026.14 127.732 1027.31 127.732H1031.54C1032.71 127.732 1033.66 128.678 1033.66 129.846C1033.66 131.015 1032.71 131.961 1031.54 131.961Z" fill="#FFC240"/>
<path d="M988.215 98.7108C987.932 98.7108 987.645 98.653 987.368 98.5322C986.298 98.0645 985.811 96.8174 986.28 95.7479L987.486 92.9926C987.952 91.9231 989.195 91.4326 990.271 91.9034C991.34 92.3711 991.828 93.6181 991.359 94.6876L990.153 97.443C989.807 98.2369 989.03 98.7108 988.215 98.7108Z" fill="#FFC240"/>
<path d="M1012.16 73.5702C1011.97 73.5702 1011.77 73.5444 1011.58 73.4896C1010.46 73.1736 1009.8 72.0062 1010.12 70.8819L1011.67 65.3712C1011.99 64.2479 1013.17 63.5924 1014.28 63.9094C1015.4 64.2254 1016.06 65.3929 1015.74 66.5172L1014.19 72.0279C1013.93 72.96 1013.08 73.5702 1012.16 73.5702Z" fill="#ADC0FF"/>
<path d="M1031.79 84.7619C1031.01 84.7619 1030.26 84.3346 1029.89 83.5934C1029.37 82.5487 1029.79 81.2789 1030.84 80.7564L1034.63 78.862C1035.67 78.3406 1036.94 78.763 1037.46 79.8077C1037.99 80.8524 1037.56 82.1222 1036.52 82.6447L1032.73 84.5391C1032.43 84.6906 1032.1 84.7619 1031.79 84.7619Z" fill="#00D519"/>
<path d="M1011.58 153.7C1011.39 153.7 1011.2 153.675 1011.01 153.623L1006.88 152.475C1005.76 152.161 1005.1 150.997 1005.41 149.871C1005.72 148.746 1006.89 148.092 1008.01 148.399L1012.15 149.547C1013.27 149.861 1013.93 151.026 1013.62 152.151C1013.36 153.086 1012.51 153.7 1011.58 153.7Z" fill="#00D519"/>
<path d="M975.131 73.7414C974.159 73.7414 973.283 73.0672 973.068 72.0783L972.393 68.9844C972.143 67.8438 972.866 66.7165 974.008 66.4675C975.139 66.2145 976.275 66.9414 976.522 68.082L977.198 71.1759C977.447 72.3165 976.725 73.4438 975.583 73.6928C975.432 73.7261 975.28 73.7414 975.131 73.7414Z" fill="#FFC240"/>
<path d="M909.605 187.289L916.165 186.511L920.014 180.087V165.083L909.605 187.289Z" fill="#466CE8"/>
<path d="M944.535 112.775L934.551 134.075V170.03L942.465 169.798L949.086 159.972V117.326L946.966 112.448L944.535 112.775Z" fill="#466CE8"/>
<path d="M963.621 149.915L975.641 148.625L975.53 140.067L963.621 131.861V149.915Z" fill="#466CE8"/>
<path d="M970.708 138.948C972.574 140.814 972.294 143.914 970.124 145.415L963.621 149.915V166.639L978.157 159.825V140.418L963.621 125.882V131.861L970.708 138.948Z" fill="#3754B5"/>
<path d="M944.535 112.775L949.086 117.326V111.346L948.574 110.834C947.538 109.798 945.787 110.105 945.165 111.432L944.535 112.775Z" fill="#3754B5"/>
<path d="M934.551 180.266L949.086 173.452V159.972L934.551 170.03V180.266Z" fill="#3754B5"/>
<path d="M920.015 180.087L909.606 187.289L909.282 187.98C908.442 189.772 910.302 191.632 912.094 190.792L920.015 187.079L920.015 180.087Z" fill="#3754B5"/>
<path d="M955.43 96.0185C955.43 96.5064 955.512 96.9749 955.664 97.4112C955.664 97.4112 957.081 99.6993 959.658 99.6993C961.993 99.6993 963.496 98.354 963.496 96.0188C963.496 93.4574 960.949 91.991 960.949 91.991C960.542 91.8605 960.108 91.7902 959.658 91.7902C957.323 91.7902 955.43 93.6833 955.43 96.0185Z" fill="#ADC0FF"/>
<path d="M960.949 91.9907C961.097 92.4218 961.188 92.8962 961.188 93.378C961.188 95.7135 959.295 97.6064 956.96 97.6064C956.509 97.6064 956.071 97.5416 955.664 97.4109C956.235 99.0709 957.804 100.247 959.658 100.247C961.993 100.247 963.886 98.3537 963.886 96.0185C963.886 94.1341 962.652 92.5372 960.949 91.9907Z" fill="#7192FF"/>
<path d="M993.484 79.1045C993.484 79.5924 993.567 80.0609 993.719 80.4971C993.719 80.4971 995.136 82.7853 997.713 82.7853C1000.05 82.7853 1001.55 81.44 1001.55 79.1047C1001.55 76.5433 999.004 75.0769 999.004 75.0769C998.597 74.9465 998.163 74.8761 997.713 74.8761C995.377 74.8761 993.484 76.7692 993.484 79.1045Z" fill="#ADC0FF"/>
<path d="M999.004 75.0767C999.152 75.5078 999.243 75.9822 999.243 76.4639C999.243 78.7994 997.35 80.6923 995.015 80.6923C994.564 80.6923 994.126 80.6276 993.719 80.4968C994.29 82.1568 995.859 83.3328 997.712 83.3328C1000.05 83.3328 1001.94 81.4397 1001.94 79.1044C1001.94 77.22 1000.71 75.6232 999.004 75.0767Z" fill="#7192FF"/>
<path d="M1027.31 98.1327C1027.31 98.6206 1027.4 99.0891 1027.55 99.5253C1027.55 99.5253 1028.96 101.813 1031.54 101.813C1033.88 101.813 1035.38 100.468 1035.38 98.1329C1035.38 95.5715 1032.83 94.1051 1032.83 94.1051C1032.43 93.9747 1031.99 93.9043 1031.54 93.9043C1029.21 93.9043 1027.31 95.7974 1027.31 98.1327Z" fill="#ADC0FF"/>
<path d="M1032.83 94.1051C1032.98 94.5362 1033.07 95.0106 1033.07 95.4924C1033.07 97.8279 1031.18 99.7207 1028.84 99.7207C1028.39 99.7207 1027.95 99.656 1027.55 99.5253C1028.12 101.185 1029.69 102.361 1031.54 102.361C1033.88 102.361 1035.77 100.468 1035.77 98.1329C1035.77 96.2482 1034.53 94.6514 1032.83 94.1051Z" fill="#7192FF"/>
<path d="M1006.17 136.189C1006.17 136.677 1006.25 137.145 1006.4 137.582C1006.4 137.582 1007.82 139.87 1010.4 139.87C1012.73 139.87 1014.23 138.524 1014.23 136.189C1014.23 133.628 1011.69 132.161 1011.69 132.161C1011.28 132.031 1010.85 131.961 1010.4 131.961C1008.06 131.961 1006.17 133.854 1006.17 136.189Z" fill="#ADC0FF"/>
<path d="M1011.69 132.161C1011.84 132.593 1011.93 133.067 1011.93 133.549C1011.93 135.884 1010.04 137.777 1007.7 137.777C1007.25 137.777 1006.81 137.712 1006.41 137.582C1006.98 139.242 1008.55 140.417 1010.4 140.417C1012.74 140.417 1014.63 138.524 1014.63 136.189C1014.63 134.304 1013.39 132.708 1011.69 132.161Z" fill="#7192FF"/>
</svg>
