<svg width="1100" height="251" viewBox="0 0 1100 251" fill="none" xmlns="http://www.w3.org/2000/svg">
<path d="M0 12C0 5.37258 5.37258 0 12 0H1088C1094.63 0 1100 5.37258 1100 12V239C1100 245.627 1094.63 251 1088 251H12C5.37257 251 0 245.627 0 239V12Z" fill="url(#paint0_linear_935_4650)"/>
<path d="M60 68C60 63.5817 63.5817 60 68 60H97C101.418 60 105 63.5817 105 68V80C105 84.4183 101.418 88 97 88H68C63.5817 88 60 84.4183 60 80V68Z" fill="white"/>
<path d="M74.0156 75.8965L75.0615 77.2637C75.4398 76.931 75.7337 76.4935 75.9434 75.9512C76.1576 75.4043 76.2669 74.7708 76.2715 74.0508C76.2715 73.2214 76.1325 72.5104 75.8545 71.918C75.5765 71.3255 75.196 70.8766 74.7129 70.5713C74.2344 70.266 73.6921 70.1133 73.0859 70.1133C72.4798 70.1133 71.9352 70.266 71.4521 70.5713C70.9736 70.8766 70.5954 71.3255 70.3174 71.918C70.0394 72.5104 69.9004 73.2214 69.9004 74.0508C69.9004 74.8757 70.0394 75.5843 70.3174 76.1768C70.5954 76.7692 70.9736 77.2181 71.4521 77.5234C71.9352 77.8288 72.4798 77.9837 73.0859 77.9883C73.4551 77.9883 73.806 77.929 74.1387 77.8105L72.6758 75.8965H74.0156ZM68.7109 74.0508C68.7109 73.0254 68.8955 72.1299 69.2646 71.3643C69.6383 70.5941 70.1556 70.0016 70.8164 69.5869C71.4818 69.1722 72.2383 68.9648 73.0859 68.9648C73.929 68.9648 74.681 69.1722 75.3418 69.5869C76.0072 70.0016 76.5267 70.5941 76.9004 71.3643C77.2741 72.1299 77.4609 73.0254 77.4609 74.0508C77.4655 74.9577 77.3197 75.7666 77.0234 76.4775C76.7272 77.1885 76.3102 77.765 75.7725 78.207L77.0645 79.9297H75.7246L74.8633 78.7744C74.3255 79.016 73.7331 79.1367 73.0859 79.1367C72.2383 79.1367 71.4818 78.9294 70.8164 78.5146C70.1556 78.0999 69.6383 77.5098 69.2646 76.7441C68.8955 75.974 68.7109 75.0762 68.7109 74.0508ZM82.118 79.1367C81.4799 79.1367 80.9217 79.0182 80.4432 78.7812C79.9692 78.5443 79.6023 78.2184 79.3426 77.8037C79.0874 77.3844 78.9598 76.9082 78.9598 76.375C78.9598 75.9922 79.0372 75.6458 79.1922 75.3359C79.3517 75.0215 79.5704 74.7344 79.8484 74.4746C80.1264 74.2148 80.4819 73.9346 80.9148 73.6338C80.5275 73.1689 80.2381 72.7588 80.0467 72.4033C79.8598 72.0433 79.7664 71.6628 79.7664 71.2617C79.7664 70.8197 79.8644 70.4277 80.0604 70.0859C80.2609 69.7441 80.5411 69.4798 80.9012 69.293C81.2658 69.1016 81.6896 69.0059 82.1727 69.0059C82.6557 69.0059 83.0796 69.1016 83.4441 69.293C83.8087 69.4798 84.089 69.7327 84.285 70.0518C84.4809 70.3662 84.5789 70.7103 84.5789 71.084C84.5789 71.5306 84.4673 71.9294 84.2439 72.2803C84.0252 72.6266 83.6993 72.9616 83.2664 73.2852L82.5418 73.832L84.6746 76.4229C84.948 75.8851 85.0848 75.2949 85.0848 74.6523H86.2195C86.215 75.7598 85.9484 76.653 85.4197 77.332L86.7937 79H85.3855L84.6883 78.166C84.3784 78.4805 83.991 78.722 83.5262 78.8906C83.0613 79.0547 82.5919 79.1367 82.118 79.1367ZM80.1629 76.375C80.1629 76.6803 80.2426 76.9652 80.4021 77.2295C80.5662 77.4938 80.7941 77.7057 81.0857 77.8652C81.3774 78.0202 81.7124 78.0977 82.0906 78.0977C82.4279 78.0977 82.7605 78.0316 83.0887 77.8994C83.4168 77.7673 83.7153 77.5758 83.9842 77.3252L81.6395 74.502L81.2977 74.7617C81.0242 74.9577 80.8009 75.1605 80.6277 75.3701C80.4591 75.5798 80.3383 75.7712 80.2654 75.9443C80.1971 76.1175 80.1629 76.2611 80.1629 76.375ZM80.9422 71.2754C80.9422 71.526 81.0174 71.7835 81.1678 72.0479C81.3227 72.3076 81.5437 72.613 81.8309 72.9639L82.4871 72.4785C82.7924 72.278 83.0203 72.0729 83.1707 71.8633C83.3211 71.6536 83.3986 71.3939 83.4031 71.084C83.3986 70.9154 83.3439 70.749 83.2391 70.585C83.1388 70.4209 82.9975 70.2865 82.8152 70.1816C82.6375 70.0723 82.437 70.0176 82.2137 70.0176C81.9767 70.0176 81.7602 70.0791 81.5643 70.2021C81.3683 70.3252 81.2156 70.4847 81.1062 70.6807C80.9969 70.8721 80.9422 71.0703 80.9422 71.2754ZM87.3492 79L90.9723 69.1016H92.2711L95.8941 79H94.5953L93.6041 76.2109H89.6256L88.6344 79H87.3492ZM93.2281 75.1309L91.6559 70.7012H91.5738L90.0016 75.1309H93.2281Z" fill="#4D77FF"/>
<path d="M87.7383 141.621H83.2383V118.277H87.7383V141.621ZM60.8438 133.711C62.5664 133.137 64.002 132.305 65.1504 131.215C66.2988 130.113 67.1484 128.865 67.6992 127.471C68.2617 126.076 68.543 124.629 68.543 123.129V120.035H73.2188V123.129C73.207 124.594 73.4648 125.988 73.9922 127.312C74.5312 128.625 75.3633 129.797 76.4883 130.828C77.6133 131.859 79.0195 132.645 80.707 133.184L78.4219 136.699C76.6523 136.113 75.1406 135.258 73.8867 134.133C72.6328 132.996 71.6367 131.643 70.8984 130.072C70.1484 131.76 69.123 133.225 67.8223 134.467C66.5332 135.709 64.9805 136.641 63.1641 137.262L60.8438 133.711ZM66.293 139.371H70.8281V146.086H88.582V149.672H66.293V139.371ZM118.452 135.434H113.952V118.242H118.452V135.434ZM92.1547 127.172C92.1547 125.695 92.5355 124.383 93.2973 123.234C94.059 122.074 95.102 121.172 96.4262 120.527C97.7621 119.883 99.2563 119.566 100.909 119.578C102.549 119.566 104.032 119.883 105.356 120.527C106.692 121.172 107.741 122.074 108.502 123.234C109.276 124.383 109.663 125.695 109.663 127.172C109.663 128.602 109.276 129.885 108.502 131.021C107.741 132.158 106.692 133.049 105.356 133.693C104.032 134.338 102.549 134.66 100.909 134.66C99.2563 134.66 97.7621 134.338 96.4262 133.693C95.102 133.049 94.059 132.158 93.2973 131.021C92.5355 129.885 92.1547 128.602 92.1547 127.172ZM96.5492 127.172C96.5375 127.945 96.7133 128.619 97.0766 129.193C97.4516 129.768 97.9672 130.207 98.6234 130.512C99.2914 130.816 100.053 130.969 100.909 130.969C101.741 130.969 102.479 130.816 103.123 130.512C103.78 130.207 104.295 129.768 104.67 129.193C105.045 128.619 105.233 127.945 105.233 127.172C105.233 126.387 105.045 125.701 104.67 125.115C104.295 124.529 103.78 124.084 103.123 123.779C102.479 123.463 101.741 123.305 100.909 123.305C100.053 123.305 99.2914 123.463 98.6234 123.779C97.9672 124.084 97.4516 124.529 97.0766 125.115C96.7133 125.701 96.5375 126.387 96.5492 127.172ZM97.0414 136.84H101.471V139.828H113.987V136.84H118.452V149.883H97.0414V136.84ZM113.987 146.262V143.309H101.471V146.262H113.987ZM149.165 150.305H144.63V118.242H149.165V150.305ZM123.325 131.883C123.325 129.598 123.682 127.594 124.397 125.871C125.124 124.148 126.126 122.824 127.403 121.898C128.692 120.961 130.157 120.492 131.798 120.492C133.403 120.492 134.839 120.961 136.104 121.898C137.382 122.824 138.384 124.148 139.11 125.871C139.837 127.594 140.2 129.598 140.2 131.883C140.2 134.18 139.837 136.195 139.11 137.93C138.384 139.652 137.382 140.982 136.104 141.92C134.839 142.846 133.403 143.309 131.798 143.309C130.157 143.309 128.692 142.846 127.403 141.92C126.126 140.982 125.124 139.652 124.397 137.93C123.682 136.195 123.325 134.18 123.325 131.883ZM127.649 131.883C127.649 133.441 127.819 134.777 128.159 135.891C128.499 136.992 128.979 137.83 129.6 138.404C130.233 138.967 130.966 139.242 131.798 139.23C132.606 139.242 133.315 138.967 133.925 138.404C134.546 137.83 135.026 136.992 135.366 135.891C135.706 134.777 135.876 133.441 135.876 131.883C135.876 130.324 135.706 128.994 135.366 127.893C135.026 126.791 134.546 125.959 133.925 125.396C133.315 124.822 132.606 124.535 131.798 124.535C130.966 124.535 130.233 124.822 129.6 125.396C128.979 125.959 128.499 126.791 128.159 127.893C127.819 128.994 127.649 130.324 127.649 131.883ZM187.74 134.66H183.275V118.242H187.74V134.66ZM161.127 131.461C162.732 131.016 164.091 130.377 165.205 129.545C166.33 128.713 167.191 127.764 167.789 126.697C168.398 125.619 168.755 124.488 168.861 123.305H162.322V119.719H179.9V123.305H173.502C173.607 124.395 173.953 125.443 174.539 126.451C175.136 127.447 175.986 128.338 177.088 129.123C178.201 129.896 179.548 130.488 181.13 130.898L178.986 134.344C177.181 133.852 175.629 133.096 174.328 132.076C173.027 131.057 172.007 129.844 171.269 128.438C170.519 130.008 169.459 131.361 168.088 132.498C166.728 133.623 165.088 134.461 163.166 135.012L161.127 131.461ZM166.295 135.926H187.775V144.469H170.759V146.578H188.654V150.023H166.365V141.27H183.31V139.336H166.295V135.926ZM220.949 137.613H208.891V143.133H204.461V137.613H191.664V134.062H220.949V137.613ZM195.109 140.355H199.574V146.086H217.715V149.672H195.109V140.355ZM195.32 119.648H217.188V131.426H195.32V119.648ZM212.793 127.945V123.129H199.715V127.945H212.793ZM237.846 126.68H222.377V123.129H227.932V119.121H232.362V123.129H237.846V126.68ZM223.116 135.715C223.116 134.25 223.42 132.943 224.03 131.795C224.639 130.646 225.477 129.75 226.543 129.105C227.621 128.449 228.834 128.121 230.182 128.121C231.53 128.121 232.737 128.449 233.803 129.105C234.87 129.75 235.702 130.646 236.299 131.795C236.909 132.943 237.213 134.25 237.213 135.715C237.213 137.18 236.909 138.492 236.299 139.652C235.702 140.812 234.87 141.721 233.803 142.377C232.737 143.021 231.53 143.344 230.182 143.344C228.834 143.344 227.621 143.021 226.543 142.377C225.477 141.721 224.639 140.812 224.03 139.652C223.42 138.492 223.116 137.18 223.116 135.715ZM227.053 135.715C227.053 136.922 227.334 137.865 227.897 138.545C228.471 139.213 229.233 139.547 230.182 139.547C231.096 139.547 231.834 139.207 232.397 138.527C232.971 137.848 233.264 136.91 233.276 135.715C233.276 134.93 233.141 134.244 232.871 133.658C232.602 133.072 232.233 132.627 231.764 132.322C231.307 132.006 230.78 131.848 230.182 131.848C229.245 131.848 228.489 132.193 227.914 132.885C227.34 133.576 227.053 134.52 227.053 135.715ZM239.041 118.875H243.225V131.25H245.827V118.242H250.08V150.234H245.827V134.836H243.225V148.863H239.041V118.875ZM282.411 146.508H253.126V142.816H259.665V134.977C258.399 134.215 257.421 133.277 256.729 132.164C256.038 131.039 255.692 129.785 255.692 128.402C255.692 126.703 256.208 125.203 257.239 123.902C258.27 122.602 259.694 121.594 261.511 120.879C263.339 120.152 265.407 119.789 267.716 119.789C270.012 119.789 272.075 120.152 273.903 120.879C275.731 121.594 277.167 122.602 278.21 123.902C279.253 125.203 279.774 126.703 279.774 128.402C279.762 129.762 279.423 130.992 278.755 132.094C278.087 133.195 277.137 134.127 275.907 134.889V142.816H282.411V146.508ZM260.122 128.402C260.122 129.434 260.432 130.33 261.054 131.092C261.686 131.854 262.571 132.439 263.708 132.85C264.856 133.26 266.192 133.465 267.716 133.465C269.216 133.465 270.54 133.26 271.688 132.85C272.837 132.439 273.733 131.854 274.378 131.092C275.022 130.33 275.345 129.434 275.345 128.402C275.345 127.348 275.022 126.439 274.378 125.678C273.745 124.916 272.854 124.336 271.706 123.938C270.557 123.527 269.227 123.328 267.716 123.34C266.192 123.34 264.856 123.539 263.708 123.938C262.571 124.336 261.686 124.916 261.054 125.678C260.432 126.439 260.122 127.348 260.122 128.402ZM271.372 142.816V136.594C270.2 136.828 268.981 136.945 267.716 136.945C266.485 136.945 265.278 136.834 264.095 136.611V142.816H271.372Z" fill="#4D77FF"/>
<path d="M69.2969 172.555H60.6055V171.051H64.043V168.668H65.8789V171.051H69.2969V172.555ZM61.1719 177.633C61.1719 176.858 61.3314 176.165 61.6504 175.553C61.9759 174.941 62.4284 174.465 63.0078 174.127C63.5872 173.782 64.2383 173.609 64.9609 173.609C65.6901 173.609 66.3411 173.782 66.9141 174.127C67.4935 174.465 67.946 174.941 68.2715 175.553C68.6035 176.165 68.7695 176.858 68.7695 177.633C68.7695 178.421 68.6035 179.124 68.2715 179.742C67.946 180.361 67.4935 180.842 66.9141 181.188C66.3411 181.526 65.6901 181.695 64.9609 181.695C64.2383 181.695 63.5872 181.526 63.0078 181.188C62.4284 180.842 61.9759 180.361 61.6504 179.742C61.3314 179.124 61.1719 178.421 61.1719 177.633ZM62.8125 177.633C62.8125 178.121 62.9036 178.554 63.0859 178.932C63.2682 179.303 63.5221 179.592 63.8477 179.801C64.1732 180.009 64.5443 180.113 64.9609 180.113C65.3776 180.113 65.7487 180.009 66.0742 179.801C66.4062 179.592 66.6634 179.303 66.8457 178.932C67.0345 178.554 67.1289 178.121 67.1289 177.633C67.1289 177.158 67.0345 176.731 66.8457 176.354C66.6634 175.976 66.4062 175.683 66.0742 175.475C65.7487 175.26 65.3776 175.152 64.9609 175.152C64.5443 175.152 64.1732 175.26 63.8477 175.475C63.5221 175.683 63.2682 175.976 63.0859 176.354C62.9036 176.731 62.8125 177.158 62.8125 177.633ZM70.0977 168.551H71.8555V175.445H73.8672V168.16H75.625V185.66H73.8672V176.969H71.8555V184.84H70.0977V168.551ZM91.3992 172.594H93.9188V174.117H91.3992V178.492H89.5242V168.16H91.3992V172.594ZM78.3719 169.449H86.1844V170.953H80.2078V175.719C82.0307 175.706 83.4891 175.663 84.5828 175.592C85.6766 175.514 86.7508 175.367 87.8055 175.152L87.9813 176.656C86.8615 176.884 85.7124 177.037 84.534 177.115C83.3621 177.187 81.7703 177.223 79.7586 177.223H78.3719V169.449ZM79.8563 182.223C79.8563 181.52 80.0939 180.914 80.5691 180.406C81.0444 179.892 81.7215 179.501 82.6004 179.234C83.4858 178.961 84.5307 178.824 85.7352 178.824C86.9266 178.824 87.9552 178.961 88.8211 179.234C89.6935 179.501 90.3641 179.892 90.8328 180.406C91.3016 180.914 91.5359 181.52 91.5359 182.223C91.5359 182.932 91.3016 183.541 90.8328 184.049C90.3641 184.563 89.6935 184.954 88.8211 185.221C87.9487 185.488 86.9201 185.621 85.7352 185.621C84.5307 185.621 83.4858 185.488 82.6004 185.221C81.7215 184.954 81.0444 184.563 80.5691 184.049C80.0939 183.541 79.8563 182.932 79.8563 182.223ZM81.6922 182.223C81.6922 182.62 81.8484 182.962 82.1609 183.248C82.4799 183.535 82.9389 183.756 83.5379 183.912C84.1434 184.062 84.8595 184.137 85.6863 184.137C86.5197 184.137 87.2423 184.062 87.8543 183.912C88.4663 183.762 88.935 183.544 89.2605 183.258C89.5926 182.971 89.7586 182.626 89.7586 182.223C89.7586 181.826 89.5958 181.487 89.2703 181.207C88.9513 180.921 88.4923 180.702 87.8934 180.553C87.3009 180.403 86.5978 180.328 85.784 180.328C84.4949 180.328 83.4891 180.494 82.7664 180.826C82.0438 181.152 81.6857 181.617 81.6922 182.223ZM114.237 185.66H112.479V168.16H114.237V185.66ZM99.1391 180.602C100.962 179.521 102.345 178.255 103.289 176.803C104.233 175.344 104.787 173.694 104.95 171.852H99.9594V170.328H106.795C106.782 172.125 106.522 173.746 106.014 175.191H108.787V168.609H110.545V184.801H108.787V176.676H105.37C104.289 178.792 102.564 180.543 100.194 181.93L99.1391 180.602ZM122.609 172.613C122.602 173.668 122.794 174.706 123.185 175.729C123.582 176.751 124.132 177.659 124.835 178.453C125.545 179.241 126.346 179.833 127.237 180.23L126.124 181.695C125.128 181.22 124.246 180.517 123.478 179.586C122.71 178.655 122.117 177.587 121.7 176.383C121.29 177.685 120.691 178.834 119.904 179.83C119.122 180.826 118.214 181.578 117.179 182.086L116.046 180.523C116.951 180.126 117.758 179.518 118.468 178.697C119.178 177.87 119.731 176.926 120.128 175.865C120.532 174.798 120.734 173.714 120.734 172.613V169.625H122.609V172.613ZM128.82 168.16H130.675V185.699H128.82V168.16ZM143.109 171.246H141.449V176.734C142.289 176.676 143.096 176.598 143.871 176.5L143.988 177.887C142.413 178.134 140.736 178.303 138.959 178.395C137.188 178.479 135.329 178.525 133.383 178.531L133.168 177.008C133.598 177.008 134.314 177.001 135.316 176.988V171.246H133.656V169.742H143.109V171.246ZM135.824 179.82H137.68V183.785H147.66V185.289H135.824V179.82ZM137.113 176.949C138.246 176.91 139.086 176.878 139.633 176.852V171.246H137.113V176.949ZM145.062 168.18H146.918V173.355H149.457V174.918H146.918V181.051H145.062V168.18ZM166.11 178.785H150.153V177.301H166.11V178.785ZM151.872 172.242C151.872 171.52 152.126 170.895 152.634 170.367C153.141 169.84 153.867 169.439 154.811 169.166C155.755 168.886 156.859 168.746 158.122 168.746C159.378 168.746 160.475 168.886 161.413 169.166C162.357 169.439 163.086 169.84 163.6 170.367C164.115 170.895 164.372 171.52 164.372 172.242C164.372 172.971 164.115 173.603 163.6 174.137C163.086 174.671 162.357 175.081 161.413 175.367C160.475 175.654 159.378 175.797 158.122 175.797C156.859 175.797 155.755 175.654 154.811 175.367C153.867 175.081 153.141 174.671 152.634 174.137C152.126 173.603 151.872 172.971 151.872 172.242ZM152.165 180.211H154.04V183.785H164.313V185.289H152.165V180.211ZM153.786 172.242C153.786 172.672 153.958 173.04 154.304 173.346C154.649 173.645 155.147 173.876 155.798 174.039C156.455 174.195 157.23 174.273 158.122 174.273C159.014 174.273 159.785 174.195 160.436 174.039C161.087 173.876 161.585 173.645 161.93 173.346C162.282 173.04 162.458 172.672 162.458 172.242C162.458 171.832 162.282 171.477 161.93 171.178C161.585 170.872 161.084 170.637 160.427 170.475C159.776 170.312 159.007 170.23 158.122 170.23C157.23 170.23 156.458 170.312 155.807 170.475C155.156 170.637 154.655 170.872 154.304 171.178C153.958 171.477 153.786 171.832 153.786 172.242ZM186.487 181.012H183.987V168.043H186.487V181.012ZM171.545 176.617C172.502 176.298 173.3 175.836 173.938 175.23C174.576 174.618 175.048 173.925 175.354 173.15C175.666 172.376 175.823 171.572 175.823 170.738V169.02H178.42V170.738C178.414 171.552 178.557 172.327 178.85 173.062C179.149 173.792 179.612 174.443 180.237 175.016C180.862 175.589 181.643 176.025 182.58 176.324L181.311 178.277C180.328 177.952 179.488 177.477 178.791 176.852C178.095 176.22 177.541 175.468 177.131 174.596C176.715 175.533 176.145 176.347 175.422 177.037C174.706 177.727 173.843 178.245 172.834 178.59L171.545 176.617ZM174.573 179.762H177.092V183.492H186.955V185.484H174.573V179.762ZM203.472 177.574H200.972V168.023H203.472V177.574ZM188.863 172.984C188.863 172.164 189.074 171.435 189.497 170.797C189.92 170.152 190.5 169.651 191.236 169.293C191.978 168.935 192.808 168.759 193.726 168.766C194.637 168.759 195.461 168.935 196.196 169.293C196.939 169.651 197.521 170.152 197.945 170.797C198.374 171.435 198.589 172.164 198.589 172.984C198.589 173.779 198.374 174.492 197.945 175.123C197.521 175.755 196.939 176.249 196.196 176.607C195.461 176.965 194.637 177.145 193.726 177.145C192.808 177.145 191.978 176.965 191.236 176.607C190.5 176.249 189.92 175.755 189.497 175.123C189.074 174.492 188.863 173.779 188.863 172.984ZM191.304 172.984C191.297 173.414 191.395 173.788 191.597 174.107C191.805 174.426 192.092 174.671 192.456 174.84C192.827 175.009 193.251 175.094 193.726 175.094C194.188 175.094 194.598 175.009 194.956 174.84C195.321 174.671 195.607 174.426 195.816 174.107C196.024 173.788 196.128 173.414 196.128 172.984C196.128 172.548 196.024 172.167 195.816 171.842C195.607 171.516 195.321 171.269 194.956 171.1C194.598 170.924 194.188 170.836 193.726 170.836C193.251 170.836 192.827 170.924 192.456 171.1C192.092 171.269 191.805 171.516 191.597 171.842C191.395 172.167 191.297 172.548 191.304 172.984ZM191.577 178.355H194.038V180.016H200.991V178.355H203.472V185.602H191.577V178.355ZM200.991 183.59V181.949H194.038V183.59H200.991ZM225.157 178.297H222.774V168.043H225.157V178.297ZM210.509 169.312H217.579V172.203H219.2V168.336H221.544V178.102H219.2V174.234H217.579V177.203H210.509V169.312ZM215.255 175.367V171.207H212.852V175.367H215.255ZM213.048 179H225.157V185.602H213.048V179ZM222.696 183.609V180.934H215.489V183.609H222.696ZM241.869 185.836H239.408V176.305H236.107V181.617H227.533V169.391H230.013V173.707H233.666V169.391H236.107V174.293H239.408V168.023H241.869V185.836ZM233.666 179.625V175.66H230.013V179.625H233.666ZM252.838 177.867H244.655V169.703H252.838V177.867ZM251.022 176.402V171.207H246.471V176.402H251.022ZM246.627 179.742H248.483V183.785H258.463V185.289H246.627V179.742ZM255.866 168.141H257.721V173.375H260.26V174.938H257.721V180.973H255.866V168.141ZM279.523 170.055V170.553C279.523 171.223 279.497 171.881 279.445 172.525C279.4 173.163 279.302 173.85 279.152 174.586H281.555V176.07H265.539V174.586H277.287C277.45 173.792 277.557 173.066 277.609 172.408C277.661 171.751 277.688 171.077 277.688 170.387H267.551V168.902H279.523V170.055ZM267.414 177.633H279.543V182.223H269.289V184H279.992V185.484H267.434V180.797H277.707V179.117H267.414V177.633ZM290.493 168.453C291.808 168.453 292.931 168.567 293.862 168.795C294.793 169.023 295.506 169.365 296.001 169.82C296.496 170.27 296.743 170.816 296.743 171.461C296.743 172.112 296.496 172.665 296.001 173.121C295.506 173.57 294.793 173.912 293.862 174.146C292.931 174.374 291.808 174.488 290.493 174.488C289.178 174.488 288.052 174.374 287.114 174.146C286.183 173.912 285.47 173.57 284.975 173.121C284.487 172.665 284.243 172.112 284.243 171.461C284.243 170.816 284.487 170.27 284.975 169.82C285.47 169.365 286.183 169.023 287.114 168.795C288.052 168.567 289.178 168.453 290.493 168.453ZM282.524 175.562H298.481V177.047H282.524V175.562ZM284.438 178.395H296.47V182.496H286.274V184.059H296.958V185.484H284.458V181.148H294.634V179.781H284.438V178.395ZM286.177 171.461C286.17 172.001 286.538 172.411 287.28 172.691C288.022 172.965 289.093 173.102 290.493 173.102C291.906 173.102 292.983 172.965 293.725 172.691C294.468 172.411 294.835 172.001 294.829 171.461C294.835 170.94 294.461 170.536 293.706 170.25C292.957 169.964 291.886 169.82 290.493 169.82C289.106 169.82 288.039 169.964 287.29 170.25C286.541 170.536 286.17 170.94 286.177 171.461ZM310.205 171.305C310.199 172.053 310.362 172.773 310.694 173.463C311.032 174.153 311.521 174.768 312.159 175.309C312.797 175.849 313.552 176.266 314.424 176.559L313.487 178.004C312.51 177.665 311.661 177.171 310.938 176.52C310.222 175.868 309.672 175.107 309.288 174.234C308.903 175.185 308.337 176.018 307.588 176.734C306.846 177.444 305.967 177.978 304.952 178.336L303.955 176.891C304.847 176.585 305.625 176.145 306.289 175.572C306.954 174.999 307.461 174.345 307.813 173.609C308.164 172.867 308.343 172.092 308.35 171.285V170.816H304.502V169.312H313.975V170.816H310.205V171.305ZM306.28 179.566H317.842V185.66H315.987V181.07H306.28V179.566ZM315.987 168.16H317.842V172.652H320.381V174.215H317.842V178.707H315.987V168.16ZM327.288 170.777C327.288 171.591 327.458 172.366 327.796 173.102C328.135 173.831 328.623 174.472 329.261 175.025C329.899 175.579 330.654 175.999 331.527 176.285L330.511 177.73C329.554 177.379 328.727 176.878 328.03 176.227C327.334 175.576 326.793 174.807 326.409 173.922C326.025 174.938 325.459 175.82 324.71 176.568C323.961 177.317 323.063 177.88 322.015 178.258L321.019 176.773C321.937 176.461 322.728 176.008 323.392 175.416C324.056 174.817 324.564 174.127 324.915 173.346C325.267 172.564 325.446 171.734 325.452 170.855V169.137H327.288V170.777ZM323.89 182.32C323.89 181.617 324.124 181.015 324.593 180.514C325.068 180.012 325.749 179.632 326.634 179.371C327.526 179.111 328.584 178.98 329.808 178.98C331.025 178.98 332.077 179.111 332.962 179.371C333.848 179.632 334.528 180.012 335.003 180.514C335.485 181.015 335.726 181.617 335.726 182.32C335.726 183.017 335.485 183.613 335.003 184.107C334.528 184.602 333.848 184.977 332.962 185.23C332.077 185.491 331.025 185.621 329.808 185.621C328.584 185.621 327.526 185.491 326.634 185.23C325.749 184.977 325.068 184.602 324.593 184.107C324.124 183.613 323.89 183.017 323.89 182.32ZM325.726 182.32C325.726 182.704 325.882 183.033 326.195 183.307C326.514 183.58 326.976 183.792 327.581 183.941C328.187 184.085 328.909 184.156 329.749 184.156C331.051 184.156 332.064 183.997 332.786 183.678C333.515 183.359 333.883 182.906 333.89 182.32C333.883 181.721 333.519 181.256 332.796 180.924C332.08 180.592 331.084 180.426 329.808 180.426C328.519 180.426 327.513 180.592 326.79 180.924C326.074 181.256 325.719 181.721 325.726 182.32ZM330.12 171.715H333.812V168.16H335.667V178.492H333.812V173.238H330.12V171.715ZM351.812 172.203H354.371V173.727H351.812V177.73H349.957V168.102H351.812V172.203ZM338.082 169.645H342.379V168.004H344.234V169.645H348.512V171.109H338.082V169.645ZM339.039 174.645C339.039 174.065 339.212 173.561 339.557 173.131C339.908 172.695 340.406 172.359 341.051 172.125C341.695 171.891 342.444 171.773 343.297 171.773C344.15 171.773 344.895 171.891 345.533 172.125C346.171 172.359 346.663 172.691 347.008 173.121C347.359 173.551 347.535 174.059 347.535 174.645C347.535 175.23 347.359 175.738 347.008 176.168C346.663 176.598 346.171 176.926 345.533 177.154C344.895 177.382 344.15 177.496 343.297 177.496C342.444 177.496 341.695 177.382 341.051 177.154C340.406 176.926 339.908 176.598 339.557 176.168C339.212 175.738 339.039 175.23 339.039 174.645ZM340.504 178.551H351.812V182.613H342.359V184.078H352.418V185.484H340.543V181.305H349.977V179.938H340.504V178.551ZM340.836 174.645C340.829 175.113 341.048 175.481 341.49 175.748C341.933 176.015 342.535 176.148 343.297 176.148C344.052 176.148 344.654 176.015 345.104 175.748C345.559 175.481 345.79 175.113 345.797 174.645C345.79 174.176 345.559 173.805 345.104 173.531C344.654 173.251 344.052 173.108 343.297 173.102C342.535 173.108 341.933 173.251 341.49 173.531C341.048 173.805 340.829 174.176 340.836 174.645ZM368.595 169.703C368.595 170.465 368.875 171.197 369.435 171.9C370.002 172.604 370.763 173.202 371.72 173.697C372.684 174.192 373.732 174.514 374.865 174.664L374.142 176.188C373.192 176.038 372.29 175.777 371.437 175.406C370.584 175.035 369.829 174.576 369.171 174.029C368.52 173.476 368.006 172.861 367.629 172.184C367.251 172.861 366.733 173.476 366.076 174.029C365.425 174.576 364.676 175.035 363.83 175.406C362.983 175.771 362.085 176.031 361.134 176.188L360.392 174.664C361.525 174.514 362.57 174.195 363.527 173.707C364.484 173.219 365.246 172.623 365.812 171.92C366.379 171.21 366.662 170.471 366.662 169.703V168.746H368.595V169.703ZM359.63 177.906H375.587V179.43H368.478V185.66H366.662V179.43H359.63V177.906ZM387.273 179.723C387.273 180.51 387.471 181.269 387.868 181.998C388.265 182.721 388.845 183.31 389.607 183.766C390.121 183.434 390.557 183.04 390.915 182.584C391.28 182.128 391.55 181.653 391.726 181.158C391.908 180.663 391.999 180.185 391.999 179.723V178.883H393.816V179.723C393.809 180.335 393.939 180.927 394.206 181.5C394.473 182.066 394.867 182.571 395.388 183.014C395.915 183.456 396.55 183.798 397.292 184.039L396.374 185.406C395.528 185.113 394.808 184.69 394.216 184.137C393.624 183.59 393.171 182.949 392.859 182.213C392.566 182.955 392.149 183.619 391.609 184.205C391.075 184.791 390.424 185.243 389.655 185.562C388.848 185.257 388.168 184.817 387.614 184.244C387.068 183.671 386.654 183.01 386.374 182.262C386.049 182.971 385.593 183.6 385.007 184.146C384.428 184.693 383.737 185.113 382.937 185.406L381.999 184.039C382.722 183.779 383.344 183.421 383.864 182.965C384.392 182.503 384.789 181.992 385.056 181.432C385.329 180.865 385.469 180.296 385.476 179.723V178.883H387.273V179.723ZM381.55 173.277C381.55 172.477 381.752 171.764 382.155 171.139C382.559 170.507 383.116 170.016 383.825 169.664C384.535 169.312 385.333 169.137 386.218 169.137C387.103 169.137 387.898 169.312 388.601 169.664C389.31 170.016 389.864 170.507 390.261 171.139C390.665 171.764 390.866 172.477 390.866 173.277C390.866 174.072 390.665 174.781 390.261 175.406C389.864 176.025 389.31 176.51 388.601 176.861C387.898 177.206 387.103 177.379 386.218 177.379C385.333 177.379 384.535 177.206 383.825 176.861C383.116 176.51 382.559 176.025 382.155 175.406C381.752 174.781 381.55 174.072 381.55 173.277ZM383.366 173.277C383.366 173.779 383.487 174.225 383.728 174.615C383.969 174.999 384.307 175.299 384.743 175.514C385.18 175.729 385.671 175.836 386.218 175.836C386.758 175.836 387.243 175.729 387.673 175.514C388.103 175.299 388.438 174.999 388.679 174.615C388.926 174.225 389.05 173.779 389.05 173.277C389.05 172.776 388.926 172.33 388.679 171.939C388.438 171.549 388.103 171.249 387.673 171.041C387.243 170.826 386.758 170.719 386.218 170.719C385.671 170.719 385.18 170.826 384.743 171.041C384.307 171.249 383.969 171.549 383.728 171.939C383.487 172.33 383.366 172.776 383.366 173.277ZM393.855 168.18H395.71V178.141H393.855V168.18ZM402.93 169.469C403.717 169.469 404.427 169.684 405.059 170.113C405.69 170.543 406.201 171.152 406.592 171.939C406.989 172.727 407.233 173.655 407.324 174.723H410.938V168.16H412.773V185.699H410.938V176.227H407.344C407.279 177.353 407.051 178.333 406.66 179.166C406.27 179.999 405.752 180.641 405.107 181.09C404.463 181.533 403.737 181.754 402.93 181.754C402.064 181.754 401.292 181.503 400.615 181.002C399.945 180.501 399.421 179.785 399.043 178.854C398.672 177.923 398.49 176.839 398.496 175.602C398.49 174.378 398.672 173.303 399.043 172.379C399.421 171.448 399.945 170.732 400.615 170.23C401.292 169.723 402.064 169.469 402.93 169.469ZM400.254 175.602C400.254 176.513 400.365 177.307 400.586 177.984C400.814 178.661 401.13 179.182 401.533 179.547C401.937 179.911 402.402 180.094 402.93 180.094C403.457 180.094 403.923 179.911 404.326 179.547C404.73 179.182 405.042 178.661 405.264 177.984C405.492 177.307 405.605 176.513 405.605 175.602C405.605 174.703 405.492 173.919 405.264 173.248C405.036 172.571 404.72 172.05 404.316 171.686C403.919 171.314 403.457 171.129 402.93 171.129C402.402 171.129 401.937 171.314 401.533 171.686C401.136 172.05 400.824 172.571 400.596 173.248C400.368 173.919 400.254 174.703 400.254 175.602ZM431.184 183.473H415.169V181.93H418.997V177.359C418.261 176.956 417.692 176.445 417.288 175.826C416.884 175.208 416.686 174.514 416.692 173.746C416.692 172.841 416.966 172.044 417.513 171.354C418.059 170.663 418.821 170.13 419.798 169.752C420.781 169.368 421.894 169.176 423.138 169.176C424.381 169.176 425.494 169.368 426.477 169.752C427.46 170.13 428.225 170.663 428.772 171.354C429.326 172.044 429.602 172.841 429.602 173.746C429.602 174.508 429.407 175.195 429.016 175.807C428.626 176.412 428.072 176.917 427.356 177.32V181.93H431.184V183.473ZM418.489 173.746C418.489 174.365 418.684 174.908 419.075 175.377C419.466 175.846 420.013 176.21 420.716 176.471C421.419 176.725 422.226 176.852 423.138 176.852C424.042 176.852 424.846 176.721 425.55 176.461C426.259 176.201 426.813 175.839 427.21 175.377C427.607 174.908 427.805 174.365 427.805 173.746C427.805 173.128 427.607 172.587 427.21 172.125C426.813 171.656 426.259 171.295 425.55 171.041C424.846 170.787 424.042 170.66 423.138 170.66C422.226 170.66 421.419 170.787 420.716 171.041C420.013 171.295 419.466 171.656 419.075 172.125C418.684 172.587 418.489 173.128 418.489 173.746ZM425.481 181.93V178.043C424.752 178.212 423.971 178.297 423.138 178.297C422.317 178.297 421.549 178.212 420.833 178.043V181.93H425.481ZM435.201 179.918H433.267L433.091 169.859H435.377L435.201 179.918ZM432.857 182.77C432.857 182.516 432.919 182.281 433.043 182.066C433.166 181.852 433.332 181.682 433.541 181.559C433.755 181.428 433.99 181.363 434.244 181.363C434.491 181.363 434.719 181.425 434.927 181.549C435.142 181.673 435.311 181.842 435.435 182.057C435.565 182.271 435.63 182.503 435.63 182.75C435.63 182.997 435.565 183.229 435.435 183.443C435.311 183.652 435.142 183.821 434.927 183.951C434.719 184.075 434.491 184.137 434.244 184.137C433.996 184.137 433.765 184.075 433.55 183.951C433.342 183.827 433.173 183.661 433.043 183.453C432.919 183.245 432.857 183.017 432.857 182.77Z" fill="#58616A"/>
<path d="M951.215 96.8528H1031.41C1036.15 96.8528 1040 100.7 1040 105.445V156.998C1040 161.743 1036.15 165.59 1031.41 165.59H985.584V175.037C985.584 176.835 983.409 177.736 982.138 176.464L971.264 165.59H951.215C946.47 165.59 942.623 161.743 942.623 156.998V105.445C942.623 100.7 946.47 96.8528 951.215 96.8528Z" fill="#ADC0FF"/>
<path d="M976.992 96.8657H951.085C946.401 96.9371 942.623 100.744 942.623 105.445V148.419H962.671C970.58 148.419 976.992 142.007 976.992 134.099V96.8657Z" fill="#7192FF"/>
<path d="M962.672 73.9404H882.479C877.734 73.9404 873.887 77.7873 873.887 82.5326V134.086C873.887 138.831 877.734 142.678 882.479 142.678H928.304V152.124C928.304 153.923 930.478 154.824 931.75 153.551L942.624 142.678H962.672C967.417 142.678 971.264 138.831 971.264 134.086V82.5326C971.264 77.7873 967.417 73.9404 962.672 73.9404Z" fill="#4D77FF"/>
<path d="M942.624 105.445C942.624 94.3905 933.629 85.397 922.576 85.397C911.522 85.397 902.527 94.3905 902.527 105.445V111.173C902.527 122.228 911.522 131.222 922.576 131.222C927.071 131.222 931.212 129.716 934.56 127.207L937.735 130.383C938.295 130.943 939.027 131.222 939.76 131.222C940.493 131.222 941.226 130.942 941.785 130.383C942.904 129.264 942.904 127.452 941.785 126.333L938.609 123.157C941.118 119.81 942.624 115.669 942.624 111.173V105.445H942.624ZM933.193 117.741C932.074 116.622 930.261 116.622 929.143 117.741C928.024 118.859 928.024 120.672 929.143 121.791L930.46 123.108C928.196 124.609 925.489 125.494 922.576 125.494C914.68 125.494 908.256 119.07 908.256 111.174V105.446C908.256 97.5496 914.68 91.1253 922.576 91.1253C930.472 91.1253 936.896 97.5496 936.896 105.446V111.174C936.896 114.087 936.011 116.794 934.511 119.058L933.193 117.741Z" fill="white"/>
<path d="M1008.39 150.483L997.716 113.142C996.905 110.297 994.273 108.309 991.311 108.309C988.349 108.309 985.717 110.296 984.906 113.139L974.235 150.483C973.802 152.004 974.683 153.589 976.204 154.024C977.712 154.454 979.309 153.58 979.745 152.058L982.425 142.678H1000.2L1002.88 152.058C1003.24 153.315 1004.38 154.136 1005.63 154.136C1005.89 154.136 1006.15 154.099 1006.42 154.024C1007.94 153.589 1008.82 152.004 1008.39 150.483ZM984.062 136.95L990.416 114.711C990.64 113.917 991.982 113.914 992.206 114.714L998.56 136.95H984.062Z" fill="white"/>
<defs>
<linearGradient id="paint0_linear_935_4650" x1="0" y1="0" x2="1096.95" y2="263.703" gradientUnits="userSpaceOnUse">
<stop stop-color="#EDF1FF"/>
<stop offset="1" stop-color="#C8D5FF"/>
</linearGradient>
</defs>
</svg>
