<svg width="1100" height="252" viewBox="0 0 1100 252" fill="none" xmlns="http://www.w3.org/2000/svg">
<path d="M0 12.0376C0 5.41018 5.37258 0.0375977 12 0.0375977H1088C1094.63 0.0375977 1100 5.41018 1100 12.0376V239.038C1100 245.665 1094.63 251.038 1088 251.038H12C5.37257 251.038 0 245.665 0 239.038V12.0376Z" fill="url(#paint0_linear_935_4650)"/>
<path d="M60 68.0376C60 63.6193 63.5817 60.0376 68 60.0376H97C101.418 60.0376 105 63.6193 105 68.0376V80.0376C105 84.4559 101.418 88.0376 97 88.0376H68C63.5817 88.0376 60 84.4559 60 80.0376V68.0376Z" fill="white"/>
<path d="M74.0156 75.9341L75.0615 77.3013C75.4398 76.9686 75.7337 76.5311 75.9434 75.9888C76.1576 75.4419 76.2669 74.8084 76.2715 74.0884C76.2715 73.259 76.1325 72.548 75.8545 71.9556C75.5765 71.3631 75.196 70.9142 74.7129 70.6089C74.2344 70.3035 73.6921 70.1509 73.0859 70.1509C72.4798 70.1509 71.9352 70.3035 71.4521 70.6089C70.9736 70.9142 70.5954 71.3631 70.3174 71.9556C70.0394 72.548 69.9004 73.259 69.9004 74.0884C69.9004 74.9132 70.0394 75.6219 70.3174 76.2144C70.5954 76.8068 70.9736 77.2557 71.4521 77.561C71.9352 77.8664 72.4798 78.0213 73.0859 78.0259C73.4551 78.0259 73.806 77.9666 74.1387 77.8481L72.6758 75.9341H74.0156ZM68.7109 74.0884C68.7109 73.063 68.8955 72.1675 69.2646 71.4019C69.6383 70.6317 70.1556 70.0392 70.8164 69.6245C71.4818 69.2098 72.2383 69.0024 73.0859 69.0024C73.929 69.0024 74.681 69.2098 75.3418 69.6245C76.0072 70.0392 76.5267 70.6317 76.9004 71.4019C77.2741 72.1675 77.4609 73.063 77.4609 74.0884C77.4655 74.9953 77.3197 75.8042 77.0234 76.5151C76.7272 77.2261 76.3102 77.8026 75.7725 78.2446L77.0645 79.9673H75.7246L74.8633 78.812C74.3255 79.0535 73.7331 79.1743 73.0859 79.1743C72.2383 79.1743 71.4818 78.967 70.8164 78.5522C70.1556 78.1375 69.6383 77.5474 69.2646 76.7817C68.8955 76.0116 68.7109 75.1138 68.7109 74.0884ZM82.118 79.1743C81.4799 79.1743 80.9217 79.0558 80.4432 78.8188C79.9692 78.5819 79.6023 78.256 79.3426 77.8413C79.0874 77.422 78.9598 76.9458 78.9598 76.4126C78.9598 76.0298 79.0372 75.6834 79.1922 75.3735C79.3517 75.0591 79.5704 74.772 79.8484 74.5122C80.1264 74.2524 80.4819 73.9722 80.9148 73.6714C80.5275 73.2065 80.2381 72.7964 80.0467 72.4409C79.8598 72.0809 79.7664 71.7004 79.7664 71.2993C79.7664 70.8573 79.8644 70.4653 80.0604 70.1235C80.2609 69.7817 80.5411 69.5174 80.9012 69.3306C81.2658 69.1392 81.6896 69.0435 82.1727 69.0435C82.6557 69.0435 83.0796 69.1392 83.4441 69.3306C83.8087 69.5174 84.089 69.7703 84.285 70.0894C84.4809 70.4038 84.5789 70.7479 84.5789 71.1216C84.5789 71.5682 84.4673 71.967 84.2439 72.3179C84.0252 72.6642 83.6993 72.9992 83.2664 73.3228L82.5418 73.8696L84.6746 76.4604C84.948 75.9227 85.0848 75.3325 85.0848 74.6899H86.2195C86.215 75.7974 85.9484 76.6906 85.4197 77.3696L86.7937 79.0376H85.3855L84.6883 78.2036C84.3784 78.5181 83.991 78.7596 83.5262 78.9282C83.0613 79.0923 82.5919 79.1743 82.118 79.1743ZM80.1629 76.4126C80.1629 76.7179 80.2426 77.0028 80.4021 77.2671C80.5662 77.5314 80.7941 77.7433 81.0857 77.9028C81.3774 78.0578 81.7124 78.1353 82.0906 78.1353C82.4279 78.1353 82.7605 78.0692 83.0887 77.937C83.4168 77.8049 83.7153 77.6134 83.9842 77.3628L81.6395 74.5396L81.2977 74.7993C81.0242 74.9953 80.8009 75.1981 80.6277 75.4077C80.4591 75.6174 80.3383 75.8088 80.2654 75.9819C80.1971 76.1551 80.1629 76.2987 80.1629 76.4126ZM80.9422 71.313C80.9422 71.5636 81.0174 71.8211 81.1678 72.0854C81.3227 72.3452 81.5437 72.6506 81.8309 73.0015L82.4871 72.5161C82.7924 72.3156 83.0203 72.1105 83.1707 71.9009C83.3211 71.6912 83.3986 71.4315 83.4031 71.1216C83.3986 70.953 83.3439 70.7866 83.2391 70.6226C83.1388 70.4585 82.9975 70.3241 82.8152 70.2192C82.6375 70.1099 82.437 70.0552 82.2137 70.0552C81.9767 70.0552 81.7602 70.1167 81.5643 70.2397C81.3683 70.3628 81.2156 70.5223 81.1062 70.7183C80.9969 70.9097 80.9422 71.1079 80.9422 71.313ZM87.3492 79.0376L90.9723 69.1392H92.2711L95.8941 79.0376H94.5953L93.6041 76.2485H89.6256L88.6344 79.0376H87.3492ZM93.2281 75.1685L91.6559 70.7388H91.5738L90.0016 75.1685H93.2281Z" fill="#4D77FF"/>
<path d="M87.7383 141.659H83.2383V118.315H87.7383V141.659ZM60.8438 133.749C62.5664 133.174 64.002 132.342 65.1504 131.252C66.2988 130.151 67.1484 128.903 67.6992 127.508C68.2617 126.114 68.543 124.667 68.543 123.167V120.073H73.2188V123.167C73.207 124.631 73.4648 126.026 73.9922 127.35C74.5312 128.663 75.3633 129.834 76.4883 130.866C77.6133 131.897 79.0195 132.682 80.707 133.221L78.4219 136.737C76.6523 136.151 75.1406 135.295 73.8867 134.17C72.6328 133.034 71.6367 131.68 70.8984 130.11C70.1484 131.797 69.123 133.262 67.8223 134.504C66.5332 135.747 64.9805 136.678 63.1641 137.299L60.8438 133.749ZM66.293 139.409H70.8281V146.124H88.582V149.709H66.293V139.409ZM118.452 135.471H113.952V118.28H118.452V135.471ZM92.1547 127.209C92.1547 125.733 92.5355 124.42 93.2973 123.272C94.059 122.112 95.102 121.209 96.4262 120.565C97.7621 119.92 99.2563 119.604 100.909 119.616C102.549 119.604 104.032 119.92 105.356 120.565C106.692 121.209 107.741 122.112 108.502 123.272C109.276 124.42 109.663 125.733 109.663 127.209C109.663 128.639 109.276 129.922 108.502 131.059C107.741 132.196 106.692 133.086 105.356 133.731C104.032 134.375 102.549 134.698 100.909 134.698C99.2563 134.698 97.7621 134.375 96.4262 133.731C95.102 133.086 94.059 132.196 93.2973 131.059C92.5355 129.922 92.1547 128.639 92.1547 127.209ZM96.5492 127.209C96.5375 127.983 96.7133 128.657 97.0766 129.231C97.4516 129.805 97.9672 130.245 98.6234 130.549C99.2914 130.854 100.053 131.006 100.909 131.006C101.741 131.006 102.479 130.854 103.123 130.549C103.78 130.245 104.295 129.805 104.67 129.231C105.045 128.657 105.233 127.983 105.233 127.209C105.233 126.424 105.045 125.739 104.67 125.153C104.295 124.567 103.78 124.122 103.123 123.817C102.479 123.5 101.741 123.342 100.909 123.342C100.053 123.342 99.2914 123.5 98.6234 123.817C97.9672 124.122 97.4516 124.567 97.0766 125.153C96.7133 125.739 96.5375 126.424 96.5492 127.209ZM97.0414 136.877H101.471V139.866H113.987V136.877H118.452V149.92H97.0414V136.877ZM113.987 146.299V143.346H101.471V146.299H113.987ZM149.165 150.342H144.63V118.28H149.165V150.342ZM123.325 131.92C123.325 129.635 123.682 127.631 124.397 125.909C125.124 124.186 126.126 122.862 127.403 121.936C128.692 120.999 130.157 120.53 131.798 120.53C133.403 120.53 134.839 120.999 136.104 121.936C137.382 122.862 138.384 124.186 139.11 125.909C139.837 127.631 140.2 129.635 140.2 131.92C140.2 134.217 139.837 136.233 139.11 137.967C138.384 139.69 137.382 141.02 136.104 141.958C134.839 142.883 133.403 143.346 131.798 143.346C130.157 143.346 128.692 142.883 127.403 141.958C126.126 141.02 125.124 139.69 124.397 137.967C123.682 136.233 123.325 134.217 123.325 131.92ZM127.649 131.92C127.649 133.479 127.819 134.815 128.159 135.928C128.499 137.03 128.979 137.868 129.6 138.442C130.233 139.004 130.966 139.28 131.798 139.268C132.606 139.28 133.315 139.004 133.925 138.442C134.546 137.868 135.026 137.03 135.366 135.928C135.706 134.815 135.876 133.479 135.876 131.92C135.876 130.362 135.706 129.032 135.366 127.93C135.026 126.829 134.546 125.997 133.925 125.434C133.315 124.86 132.606 124.573 131.798 124.573C130.966 124.573 130.233 124.86 129.6 125.434C128.979 125.997 128.499 126.829 128.159 127.93C127.819 129.032 127.649 130.362 127.649 131.92ZM187.74 134.698H183.275V118.28H187.74V134.698ZM161.127 131.499C162.732 131.053 164.091 130.415 165.205 129.583C166.33 128.75 167.191 127.801 167.789 126.735C168.398 125.657 168.755 124.526 168.861 123.342H162.322V119.756H179.9V123.342H173.502C173.607 124.432 173.953 125.481 174.539 126.489C175.136 127.485 175.986 128.375 177.088 129.161C178.201 129.934 179.548 130.526 181.13 130.936L178.986 134.381C177.181 133.889 175.629 133.133 174.328 132.114C173.027 131.094 172.007 129.881 171.269 128.475C170.519 130.045 169.459 131.399 168.088 132.536C166.728 133.661 165.088 134.499 163.166 135.049L161.127 131.499ZM166.295 135.963H187.775V144.506H170.759V146.616H188.654V150.061H166.365V141.307H183.31V139.374H166.295V135.963ZM220.949 137.651H208.891V143.17H204.461V137.651H191.664V134.1H220.949V137.651ZM195.109 140.393H199.574V146.124H217.715V149.709H195.109V140.393ZM195.32 119.686H217.188V131.463H195.32V119.686ZM212.793 127.983V123.167H199.715V127.983H212.793ZM237.846 126.717H222.377V123.167H227.932V119.159H232.362V123.167H237.846V126.717ZM223.116 135.752C223.116 134.288 223.42 132.981 224.03 131.833C224.639 130.684 225.477 129.788 226.543 129.143C227.621 128.487 228.834 128.159 230.182 128.159C231.53 128.159 232.737 128.487 233.803 129.143C234.87 129.788 235.702 130.684 236.299 131.833C236.909 132.981 237.213 134.288 237.213 135.752C237.213 137.217 236.909 138.53 236.299 139.69C235.702 140.85 234.87 141.758 233.803 142.415C232.737 143.059 231.53 143.381 230.182 143.381C228.834 143.381 227.621 143.059 226.543 142.415C225.477 141.758 224.639 140.85 224.03 139.69C223.42 138.53 223.116 137.217 223.116 135.752ZM227.053 135.752C227.053 136.959 227.334 137.903 227.897 138.583C228.471 139.25 229.233 139.584 230.182 139.584C231.096 139.584 231.834 139.245 232.397 138.565C232.971 137.885 233.264 136.948 233.276 135.752C233.276 134.967 233.141 134.282 232.871 133.696C232.602 133.11 232.233 132.665 231.764 132.36C231.307 132.043 230.78 131.885 230.182 131.885C229.245 131.885 228.489 132.231 227.914 132.922C227.34 133.614 227.053 134.557 227.053 135.752ZM239.041 118.913H243.225V131.288H245.827V118.28H250.08V150.272H245.827V134.874H243.225V148.901H239.041V118.913ZM282.411 146.545H253.126V142.854H259.665V135.014C258.399 134.252 257.421 133.315 256.729 132.202C256.038 131.077 255.692 129.823 255.692 128.44C255.692 126.741 256.208 125.241 257.239 123.94C258.27 122.639 259.694 121.631 261.511 120.917C263.339 120.19 265.407 119.827 267.716 119.827C270.012 119.827 272.075 120.19 273.903 120.917C275.731 121.631 277.167 122.639 278.21 123.94C279.253 125.241 279.774 126.741 279.774 128.44C279.762 129.799 279.423 131.03 278.755 132.131C278.087 133.233 277.137 134.165 275.907 134.926V142.854H282.411V146.545ZM260.122 128.44C260.122 129.471 260.432 130.368 261.054 131.129C261.686 131.891 262.571 132.477 263.708 132.887C264.856 133.297 266.192 133.502 267.716 133.502C269.216 133.502 270.54 133.297 271.688 132.887C272.837 132.477 273.733 131.891 274.378 131.129C275.022 130.368 275.345 129.471 275.345 128.44C275.345 127.385 275.022 126.477 274.378 125.715C273.745 124.954 272.854 124.374 271.706 123.975C270.557 123.565 269.227 123.366 267.716 123.377C266.192 123.377 264.856 123.577 263.708 123.975C262.571 124.374 261.686 124.954 261.054 125.715C260.432 126.477 260.122 127.385 260.122 128.44ZM271.372 142.854V136.631C270.2 136.866 268.981 136.983 267.716 136.983C266.485 136.983 265.278 136.872 264.095 136.649V142.854H271.372Z" fill="#4D77FF"/>
<path d="M69.2969 172.592H60.6055V171.088H64.043V168.706H65.8789V171.088H69.2969V172.592ZM61.1719 177.67C61.1719 176.896 61.3314 176.202 61.6504 175.59C61.9759 174.978 62.4284 174.503 63.0078 174.165C63.5872 173.819 64.2383 173.647 64.9609 173.647C65.6901 173.647 66.3411 173.819 66.9141 174.165C67.4935 174.503 67.946 174.978 68.2715 175.59C68.6035 176.202 68.7695 176.896 68.7695 177.67C68.7695 178.458 68.6035 179.161 68.2715 179.78C67.946 180.398 67.4935 180.88 66.9141 181.225C66.3411 181.564 65.6901 181.733 64.9609 181.733C64.2383 181.733 63.5872 181.564 63.0078 181.225C62.4284 180.88 61.9759 180.398 61.6504 179.78C61.3314 179.161 61.1719 178.458 61.1719 177.67ZM62.8125 177.67C62.8125 178.159 62.9036 178.592 63.0859 178.969C63.2682 179.34 63.5221 179.63 63.8477 179.838C64.1732 180.047 64.5443 180.151 64.9609 180.151C65.3776 180.151 65.7487 180.047 66.0742 179.838C66.4062 179.63 66.6634 179.34 66.8457 178.969C67.0345 178.592 67.1289 178.159 67.1289 177.67C67.1289 177.195 67.0345 176.769 66.8457 176.391C66.6634 176.014 66.4062 175.721 66.0742 175.512C65.7487 175.297 65.3776 175.19 64.9609 175.19C64.5443 175.19 64.1732 175.297 63.8477 175.512C63.5221 175.721 63.2682 176.014 63.0859 176.391C62.9036 176.769 62.8125 177.195 62.8125 177.67ZM70.0977 168.588H71.8555V175.483H73.8672V168.198H75.625V185.698H73.8672V177.006H71.8555V184.877H70.0977V168.588ZM91.3992 172.631H93.9188V174.155H91.3992V178.53H89.5242V168.198H91.3992V172.631ZM78.3719 169.487H86.1844V170.991H80.2078V175.756C82.0307 175.743 83.4891 175.701 84.5828 175.629C85.6766 175.551 86.7508 175.405 87.8055 175.19L87.9813 176.694C86.8615 176.922 85.7124 177.075 84.534 177.153C83.3621 177.224 81.7703 177.26 79.7586 177.26H78.3719V169.487ZM79.8563 182.26C79.8563 181.557 80.0939 180.952 80.5691 180.444C81.0444 179.93 81.7215 179.539 82.6004 179.272C83.4858 178.999 84.5307 178.862 85.7352 178.862C86.9266 178.862 87.9552 178.999 88.8211 179.272C89.6935 179.539 90.3641 179.93 90.8328 180.444C91.3016 180.952 91.5359 181.557 91.5359 182.26C91.5359 182.97 91.3016 183.579 90.8328 184.086C90.3641 184.601 89.6935 184.991 88.8211 185.258C87.9487 185.525 86.9201 185.659 85.7352 185.659C84.5307 185.659 83.4858 185.525 82.6004 185.258C81.7215 184.991 81.0444 184.601 80.5691 184.086C80.0939 183.579 79.8563 182.97 79.8563 182.26ZM81.6922 182.26C81.6922 182.657 81.8484 182.999 82.1609 183.286C82.4799 183.572 82.9389 183.793 83.5379 183.95C84.1434 184.099 84.8595 184.174 85.6863 184.174C86.5197 184.174 87.2423 184.099 87.8543 183.95C88.4663 183.8 88.935 183.582 89.2605 183.295C89.5926 183.009 89.7586 182.664 89.7586 182.26C89.7586 181.863 89.5958 181.525 89.2703 181.245C88.9513 180.958 88.4923 180.74 87.8934 180.59C87.3009 180.441 86.5978 180.366 85.784 180.366C84.4949 180.366 83.4891 180.532 82.7664 180.864C82.0438 181.189 81.6857 181.655 81.6922 182.26ZM114.237 185.698H112.479V168.198H114.237V185.698ZM99.1391 180.639C100.962 179.558 102.345 178.292 103.289 176.84C104.233 175.382 104.787 173.732 104.95 171.889H99.9594V170.366H106.795C106.782 172.163 106.522 173.784 106.014 175.229H108.787V168.647H110.545V184.838H108.787V176.713H105.37C104.289 178.829 102.564 180.581 100.194 181.967L99.1391 180.639ZM122.609 172.651C122.602 173.706 122.794 174.744 123.185 175.766C123.582 176.788 124.132 177.696 124.835 178.491C125.545 179.278 126.346 179.871 127.237 180.268L126.124 181.733C125.128 181.258 124.246 180.555 123.478 179.624C122.71 178.693 122.117 177.625 121.7 176.42C121.29 177.722 120.691 178.872 119.904 179.868C119.122 180.864 118.214 181.616 117.179 182.124L116.046 180.561C116.951 180.164 117.758 179.555 118.468 178.735C119.178 177.908 119.731 176.964 120.128 175.903C120.532 174.835 120.734 173.751 120.734 172.651V169.663H122.609V172.651ZM128.82 168.198H130.675V185.737H128.82V168.198ZM143.109 171.284H141.449V176.772C142.289 176.713 143.096 176.635 143.871 176.538L143.988 177.924C142.413 178.172 140.736 178.341 138.959 178.432C137.188 178.517 135.329 178.562 133.383 178.569L133.168 177.045C133.598 177.045 134.314 177.039 135.316 177.026V171.284H133.656V169.78H143.109V171.284ZM135.824 179.858H137.68V183.823H147.66V185.327H135.824V179.858ZM137.113 176.987C138.246 176.948 139.086 176.915 139.633 176.889V171.284H137.113V176.987ZM145.062 168.217H146.918V173.393H149.457V174.956H146.918V181.088H145.062V168.217ZM166.11 178.823H150.153V177.338H166.11V178.823ZM151.872 172.28C151.872 171.557 152.126 170.932 152.634 170.405C153.141 169.877 153.867 169.477 154.811 169.204C155.755 168.924 156.859 168.784 158.122 168.784C159.378 168.784 160.475 168.924 161.413 169.204C162.357 169.477 163.086 169.877 163.6 170.405C164.115 170.932 164.372 171.557 164.372 172.28C164.372 173.009 164.115 173.64 163.6 174.174C163.086 174.708 162.357 175.118 161.413 175.405C160.475 175.691 159.378 175.834 158.122 175.834C156.859 175.834 155.755 175.691 154.811 175.405C153.867 175.118 153.141 174.708 152.634 174.174C152.126 173.64 151.872 173.009 151.872 172.28ZM152.165 180.249H154.04V183.823H164.313V185.327H152.165V180.249ZM153.786 172.28C153.786 172.709 153.958 173.077 154.304 173.383C154.649 173.683 155.147 173.914 155.798 174.077C156.455 174.233 157.23 174.311 158.122 174.311C159.014 174.311 159.785 174.233 160.436 174.077C161.087 173.914 161.585 173.683 161.93 173.383C162.282 173.077 162.458 172.709 162.458 172.28C162.458 171.87 162.282 171.515 161.93 171.215C161.585 170.909 161.084 170.675 160.427 170.512C159.776 170.349 159.007 170.268 158.122 170.268C157.23 170.268 156.458 170.349 155.807 170.512C155.156 170.675 154.655 170.909 154.304 171.215C153.958 171.515 153.786 171.87 153.786 172.28ZM186.487 181.049H183.987V168.081H186.487V181.049ZM171.545 176.655C172.502 176.336 173.3 175.874 173.938 175.268C174.576 174.656 175.048 173.963 175.354 173.188C175.666 172.413 175.823 171.609 175.823 170.776V169.057H178.42V170.776C178.414 171.59 178.557 172.364 178.85 173.1C179.149 173.829 179.612 174.48 180.237 175.053C180.862 175.626 181.643 176.062 182.58 176.362L181.311 178.315C180.328 177.989 179.488 177.514 178.791 176.889C178.095 176.258 177.541 175.506 177.131 174.633C176.715 175.571 176.145 176.385 175.422 177.075C174.706 177.765 173.843 178.282 172.834 178.627L171.545 176.655ZM174.573 179.799H177.092V183.53H186.955V185.522H174.573V179.799ZM203.472 177.612H200.972V168.061H203.472V177.612ZM188.863 173.022C188.863 172.202 189.074 171.472 189.497 170.834C189.92 170.19 190.5 169.689 191.236 169.331C191.978 168.972 192.808 168.797 193.726 168.803C194.637 168.797 195.461 168.972 196.196 169.331C196.939 169.689 197.521 170.19 197.945 170.834C198.374 171.472 198.589 172.202 198.589 173.022C198.589 173.816 198.374 174.529 197.945 175.161C197.521 175.792 196.939 176.287 196.196 176.645C195.461 177.003 194.637 177.182 193.726 177.182C192.808 177.182 191.978 177.003 191.236 176.645C190.5 176.287 189.92 175.792 189.497 175.161C189.074 174.529 188.863 173.816 188.863 173.022ZM191.304 173.022C191.297 173.452 191.395 173.826 191.597 174.145C191.805 174.464 192.092 174.708 192.456 174.877C192.827 175.047 193.251 175.131 193.726 175.131C194.188 175.131 194.598 175.047 194.956 174.877C195.321 174.708 195.607 174.464 195.816 174.145C196.024 173.826 196.128 173.452 196.128 173.022C196.128 172.586 196.024 172.205 195.816 171.879C195.607 171.554 195.321 171.306 194.956 171.137C194.598 170.961 194.188 170.874 193.726 170.874C193.251 170.874 192.827 170.961 192.456 171.137C192.092 171.306 191.805 171.554 191.597 171.879C191.395 172.205 191.297 172.586 191.304 173.022ZM191.577 178.393H194.038V180.053H200.991V178.393H203.472V185.639H191.577V178.393ZM200.991 183.627V181.987H194.038V183.627H200.991ZM216.427 172.084C216.42 173.172 216.573 174.226 216.886 175.249C217.198 176.264 217.67 177.176 218.302 177.983C218.933 178.79 219.708 179.415 220.626 179.858L219.122 181.85C218.197 181.388 217.406 180.743 216.749 179.917C216.091 179.083 215.574 178.113 215.196 177.006C214.792 178.198 214.242 179.239 213.546 180.131C212.849 181.017 212.012 181.7 211.036 182.182L209.493 180.17C210.463 179.728 211.28 179.086 211.944 178.247C212.608 177.4 213.103 176.446 213.429 175.385C213.761 174.318 213.927 173.217 213.927 172.084V169.428H216.427V172.084ZM221.407 168.061H223.907V174.917H226.524V177.026H223.907V185.834H221.407V168.061ZM241.927 181.499H239.427V180.092H236.029V178.393H239.427V168.081H241.927V181.499ZM226.81 175.952C229.043 175.939 231.087 175.9 232.943 175.834C234.798 175.763 236.556 175.626 238.216 175.424L238.353 177.202C236.999 177.43 235.567 177.599 234.056 177.709V181.088H231.556V183.53H242.318V185.522H229.076V180.209H231.556V177.856C230.319 177.902 228.835 177.924 227.103 177.924L226.81 175.952ZM228.119 171.87C228.119 171.245 228.308 170.691 228.685 170.209C229.063 169.728 229.59 169.353 230.267 169.086C230.944 168.819 231.719 168.686 232.591 168.686C233.444 168.686 234.206 168.819 234.877 169.086C235.547 169.353 236.071 169.728 236.449 170.209C236.833 170.691 237.025 171.245 237.025 171.87C237.025 172.495 236.833 173.045 236.449 173.52C236.071 173.995 235.547 174.36 234.877 174.614C234.206 174.868 233.444 174.995 232.591 174.995C231.712 174.995 230.934 174.868 230.257 174.614C229.587 174.36 229.063 173.995 228.685 173.52C228.308 173.045 228.119 172.495 228.119 171.87ZM230.482 171.87C230.476 172.293 230.664 172.622 231.048 172.856C231.439 173.084 231.966 173.198 232.63 173.198C233.229 173.198 233.714 173.081 234.086 172.846C234.463 172.612 234.655 172.286 234.662 171.87C234.655 171.44 234.46 171.105 234.076 170.864C233.698 170.623 233.203 170.502 232.591 170.502C231.947 170.502 231.433 170.623 231.048 170.864C230.664 171.105 230.476 171.44 230.482 171.87ZM252.838 177.905H244.655V169.741H252.838V177.905ZM251.022 176.44V171.245H246.471V176.44H251.022ZM246.627 179.78H248.483V183.823H258.463V185.327H246.627V179.78ZM255.866 168.178H257.721V173.413H260.26V174.975H257.721V181.01H255.866V168.178ZM279.523 170.092V170.59C279.523 171.261 279.497 171.918 279.445 172.563C279.4 173.201 279.302 173.888 279.152 174.624H281.555V176.108H265.539V174.624H277.287C277.45 173.829 277.557 173.103 277.609 172.446C277.661 171.788 277.688 171.114 277.688 170.424H267.551V168.94H279.523V170.092ZM267.414 177.67H279.543V182.26H269.289V184.038H279.992V185.522H267.434V180.834H277.707V179.155H267.414V177.67ZM290.493 168.491C291.808 168.491 292.931 168.605 293.862 168.833C294.793 169.06 295.506 169.402 296.001 169.858C296.496 170.307 296.743 170.854 296.743 171.499C296.743 172.15 296.496 172.703 296.001 173.159C295.506 173.608 294.793 173.95 293.862 174.184C292.931 174.412 291.808 174.526 290.493 174.526C289.178 174.526 288.052 174.412 287.114 174.184C286.183 173.95 285.47 173.608 284.975 173.159C284.487 172.703 284.243 172.15 284.243 171.499C284.243 170.854 284.487 170.307 284.975 169.858C285.47 169.402 286.183 169.06 287.114 168.833C288.052 168.605 289.178 168.491 290.493 168.491ZM282.524 175.6H298.481V177.084H282.524V175.6ZM284.438 178.432H296.47V182.534H286.274V184.096H296.958V185.522H284.458V181.186H294.634V179.819H284.438V178.432ZM286.177 171.499C286.17 172.039 286.538 172.449 287.28 172.729C288.022 173.002 289.093 173.139 290.493 173.139C291.906 173.139 292.983 173.002 293.725 172.729C294.468 172.449 294.835 172.039 294.829 171.499C294.835 170.978 294.461 170.574 293.706 170.288C292.957 170.001 291.886 169.858 290.493 169.858C289.106 169.858 288.039 170.001 287.29 170.288C286.541 170.574 286.17 170.978 286.177 171.499ZM310.205 171.342C310.199 172.091 310.362 172.81 310.694 173.5C311.032 174.191 311.521 174.806 312.159 175.346C312.797 175.887 313.552 176.303 314.424 176.596L313.487 178.042C312.51 177.703 311.661 177.208 310.938 176.557C310.222 175.906 309.672 175.144 309.288 174.272C308.903 175.222 308.337 176.056 307.588 176.772C306.846 177.482 305.967 178.015 304.952 178.374L303.955 176.928C304.847 176.622 305.625 176.183 306.289 175.61C306.954 175.037 307.461 174.383 307.813 173.647C308.164 172.905 308.343 172.13 308.35 171.323V170.854H304.502V169.35H313.975V170.854H310.205V171.342ZM306.28 179.604H317.842V185.698H315.987V181.108H306.28V179.604ZM315.987 168.198H317.842V172.69H320.381V174.252H317.842V178.745H315.987V168.198ZM327.288 170.815C327.288 171.629 327.458 172.403 327.796 173.139C328.135 173.868 328.623 174.51 329.261 175.063C329.899 175.616 330.654 176.036 331.527 176.323L330.511 177.768C329.554 177.417 328.727 176.915 328.03 176.264C327.334 175.613 326.793 174.845 326.409 173.959C326.025 174.975 325.459 175.857 324.71 176.606C323.961 177.355 323.063 177.918 322.015 178.295L321.019 176.811C321.937 176.499 322.728 176.046 323.392 175.454C324.056 174.855 324.564 174.165 324.915 173.383C325.267 172.602 325.446 171.772 325.452 170.893V169.174H327.288V170.815ZM323.89 182.358C323.89 181.655 324.124 181.053 324.593 180.551C325.068 180.05 325.749 179.669 326.634 179.409C327.526 179.148 328.584 179.018 329.808 179.018C331.025 179.018 332.077 179.148 332.962 179.409C333.848 179.669 334.528 180.05 335.003 180.551C335.485 181.053 335.726 181.655 335.726 182.358C335.726 183.055 335.485 183.65 335.003 184.145C334.528 184.64 333.848 185.014 332.962 185.268C332.077 185.528 331.025 185.659 329.808 185.659C328.584 185.659 327.526 185.528 326.634 185.268C325.749 185.014 325.068 184.64 324.593 184.145C324.124 183.65 323.89 183.055 323.89 182.358ZM325.726 182.358C325.726 182.742 325.882 183.071 326.195 183.344C326.514 183.618 326.976 183.829 327.581 183.979C328.187 184.122 328.909 184.194 329.749 184.194C331.051 184.194 332.064 184.034 332.786 183.715C333.515 183.396 333.883 182.944 333.89 182.358C333.883 181.759 333.519 181.293 332.796 180.961C332.08 180.629 331.084 180.463 329.808 180.463C328.519 180.463 327.513 180.629 326.79 180.961C326.074 181.293 325.719 181.759 325.726 182.358ZM330.12 171.752H333.812V168.198H335.667V178.53H333.812V173.276H330.12V171.752ZM351.812 172.241H354.371V173.764H351.812V177.768H349.957V168.139H351.812V172.241ZM338.082 169.682H342.379V168.042H344.234V169.682H348.512V171.147H338.082V169.682ZM339.039 174.682C339.039 174.103 339.212 173.598 339.557 173.168C339.908 172.732 340.406 172.397 341.051 172.163C341.695 171.928 342.444 171.811 343.297 171.811C344.15 171.811 344.895 171.928 345.533 172.163C346.171 172.397 346.663 172.729 347.008 173.159C347.359 173.588 347.535 174.096 347.535 174.682C347.535 175.268 347.359 175.776 347.008 176.206C346.663 176.635 346.171 176.964 345.533 177.192C344.895 177.42 344.15 177.534 343.297 177.534C342.444 177.534 341.695 177.42 341.051 177.192C340.406 176.964 339.908 176.635 339.557 176.206C339.212 175.776 339.039 175.268 339.039 174.682ZM340.504 178.588H351.812V182.651H342.359V184.116H352.418V185.522H340.543V181.342H349.977V179.975H340.504V178.588ZM340.836 174.682C340.829 175.151 341.048 175.519 341.49 175.786C341.933 176.053 342.535 176.186 343.297 176.186C344.052 176.186 344.654 176.053 345.104 175.786C345.559 175.519 345.79 175.151 345.797 174.682C345.79 174.213 345.559 173.842 345.104 173.569C344.654 173.289 344.052 173.146 343.297 173.139C342.535 173.146 341.933 173.289 341.49 173.569C341.048 173.842 340.829 174.213 340.836 174.682ZM368.595 169.741C368.595 170.502 368.875 171.235 369.435 171.938C370.002 172.641 370.763 173.24 371.72 173.735C372.684 174.23 373.732 174.552 374.865 174.702L374.142 176.225C373.192 176.075 372.29 175.815 371.437 175.444C370.584 175.073 369.829 174.614 369.171 174.067C368.52 173.514 368.006 172.898 367.629 172.221C367.251 172.898 366.733 173.514 366.076 174.067C365.425 174.614 364.676 175.073 363.83 175.444C362.983 175.808 362.085 176.069 361.134 176.225L360.392 174.702C361.525 174.552 362.57 174.233 363.527 173.745C364.484 173.256 365.246 172.661 365.812 171.958C366.379 171.248 366.662 170.509 366.662 169.741V168.784H368.595V169.741ZM359.63 177.944H375.587V179.467H368.478V185.698H366.662V179.467H359.63V177.944ZM387.273 179.76C387.273 180.548 387.471 181.306 387.868 182.036C388.265 182.758 388.845 183.347 389.607 183.803C390.121 183.471 390.557 183.077 390.915 182.622C391.28 182.166 391.55 181.691 391.726 181.196C391.908 180.701 391.999 180.222 391.999 179.76V178.92H393.816V179.76C393.809 180.372 393.939 180.965 394.206 181.538C394.473 182.104 394.867 182.609 395.388 183.051C395.915 183.494 396.55 183.836 397.292 184.077L396.374 185.444C395.528 185.151 394.808 184.728 394.216 184.174C393.624 183.627 393.171 182.986 392.859 182.25C392.566 182.993 392.149 183.657 391.609 184.243C391.075 184.829 390.424 185.281 389.655 185.6C388.848 185.294 388.168 184.855 387.614 184.282C387.068 183.709 386.654 183.048 386.374 182.299C386.049 183.009 385.593 183.637 385.007 184.184C384.428 184.731 383.737 185.151 382.937 185.444L381.999 184.077C382.722 183.816 383.344 183.458 383.864 183.002C384.392 182.54 384.789 182.029 385.056 181.469C385.329 180.903 385.469 180.333 385.476 179.76V178.92H387.273V179.76ZM381.55 173.315C381.55 172.514 381.752 171.801 382.155 171.176C382.559 170.545 383.116 170.053 383.825 169.702C384.535 169.35 385.333 169.174 386.218 169.174C387.103 169.174 387.898 169.35 388.601 169.702C389.31 170.053 389.864 170.545 390.261 171.176C390.665 171.801 390.866 172.514 390.866 173.315C390.866 174.109 390.665 174.819 390.261 175.444C389.864 176.062 389.31 176.547 388.601 176.899C387.898 177.244 387.103 177.417 386.218 177.417C385.333 177.417 384.535 177.244 383.825 176.899C383.116 176.547 382.559 176.062 382.155 175.444C381.752 174.819 381.55 174.109 381.55 173.315ZM383.366 173.315C383.366 173.816 383.487 174.262 383.728 174.653C383.969 175.037 384.307 175.336 384.743 175.551C385.18 175.766 385.671 175.874 386.218 175.874C386.758 175.874 387.243 175.766 387.673 175.551C388.103 175.336 388.438 175.037 388.679 174.653C388.926 174.262 389.05 173.816 389.05 173.315C389.05 172.814 388.926 172.368 388.679 171.977C388.438 171.586 388.103 171.287 387.673 171.079C387.243 170.864 386.758 170.756 386.218 170.756C385.671 170.756 385.18 170.864 384.743 171.079C384.307 171.287 383.969 171.586 383.728 171.977C383.487 172.368 383.366 172.814 383.366 173.315ZM393.855 168.217H395.71V178.178H393.855V168.217ZM402.93 169.506C403.717 169.506 404.427 169.721 405.059 170.151C405.69 170.581 406.201 171.189 406.592 171.977C406.989 172.765 407.233 173.693 407.324 174.76H410.938V168.198H412.773V185.737H410.938V176.264H407.344C407.279 177.39 407.051 178.37 406.66 179.204C406.27 180.037 405.752 180.678 405.107 181.127C404.463 181.57 403.737 181.792 402.93 181.792C402.064 181.792 401.292 181.541 400.615 181.04C399.945 180.538 399.421 179.822 399.043 178.891C398.672 177.96 398.49 176.876 398.496 175.639C398.49 174.415 398.672 173.341 399.043 172.417C399.421 171.486 399.945 170.769 400.615 170.268C401.292 169.76 402.064 169.506 402.93 169.506ZM400.254 175.639C400.254 176.551 400.365 177.345 400.586 178.022C400.814 178.699 401.13 179.22 401.533 179.584C401.937 179.949 402.402 180.131 402.93 180.131C403.457 180.131 403.923 179.949 404.326 179.584C404.73 179.22 405.042 178.699 405.264 178.022C405.492 177.345 405.605 176.551 405.605 175.639C405.605 174.741 405.492 173.956 405.264 173.286C405.036 172.609 404.72 172.088 404.316 171.723C403.919 171.352 403.457 171.167 402.93 171.167C402.402 171.167 401.937 171.352 401.533 171.723C401.136 172.088 400.824 172.609 400.596 173.286C400.368 173.956 400.254 174.741 400.254 175.639ZM431.184 183.51H415.169V181.967H418.997V177.397C418.261 176.993 417.692 176.482 417.288 175.864C416.884 175.245 416.686 174.552 416.692 173.784C416.692 172.879 416.966 172.081 417.513 171.391C418.059 170.701 418.821 170.167 419.798 169.79C420.781 169.405 421.894 169.213 423.138 169.213C424.381 169.213 425.494 169.405 426.477 169.79C427.46 170.167 428.225 170.701 428.772 171.391C429.326 172.081 429.602 172.879 429.602 173.784C429.602 174.545 429.407 175.232 429.016 175.844C428.626 176.45 428.072 176.954 427.356 177.358V181.967H431.184V183.51ZM418.489 173.784C418.489 174.402 418.684 174.946 419.075 175.415C419.466 175.883 420.013 176.248 420.716 176.508C421.419 176.762 422.226 176.889 423.138 176.889C424.042 176.889 424.846 176.759 425.55 176.499C426.259 176.238 426.813 175.877 427.21 175.415C427.607 174.946 427.805 174.402 427.805 173.784C427.805 173.165 427.607 172.625 427.21 172.163C426.813 171.694 426.259 171.333 425.55 171.079C424.846 170.825 424.042 170.698 423.138 170.698C422.226 170.698 421.419 170.825 420.716 171.079C420.013 171.333 419.466 171.694 419.075 172.163C418.684 172.625 418.489 173.165 418.489 173.784ZM425.481 181.967V178.081C424.752 178.25 423.971 178.334 423.138 178.334C422.317 178.334 421.549 178.25 420.833 178.081V181.967H425.481ZM435.201 179.956H433.267L433.091 169.897H435.377L435.201 179.956ZM432.857 182.807C432.857 182.553 432.919 182.319 433.043 182.104C433.166 181.889 433.332 181.72 433.541 181.596C433.755 181.466 433.99 181.401 434.244 181.401C434.491 181.401 434.719 181.463 434.927 181.586C435.142 181.71 435.311 181.879 435.435 182.094C435.565 182.309 435.63 182.54 435.63 182.788C435.63 183.035 435.565 183.266 435.435 183.481C435.311 183.689 435.142 183.859 434.927 183.989C434.719 184.112 434.491 184.174 434.244 184.174C433.996 184.174 433.765 184.112 433.55 183.989C433.342 183.865 433.173 183.699 433.043 183.491C432.919 183.282 432.857 183.055 432.857 182.807Z" fill="#58616A"/>
<path d="M951.215 96.8904H1031.41C1036.15 96.8904 1040 100.737 1040 105.483V157.036C1040 161.781 1036.15 165.628 1031.41 165.628H985.584V175.074C985.584 176.873 983.409 177.774 982.138 176.501L971.264 165.628H951.215C946.47 165.628 942.623 161.781 942.623 157.036V105.483C942.623 100.737 946.47 96.8904 951.215 96.8904Z" fill="#ADC0FF"/>
<path d="M976.992 96.9033H951.085C946.401 96.9747 942.623 100.782 942.623 105.483V148.457H962.671C970.58 148.457 976.992 142.045 976.992 134.136V96.9033Z" fill="#7192FF"/>
<path d="M962.672 73.978H882.479C877.734 73.978 873.887 77.8249 873.887 82.5702V134.123C873.887 138.868 877.734 142.715 882.479 142.715H928.304V152.162C928.304 153.961 930.478 154.861 931.75 153.589L942.624 142.715H962.672C967.417 142.715 971.264 138.868 971.264 134.123V82.5702C971.264 77.8249 967.417 73.978 962.672 73.978Z" fill="#4D77FF"/>
<path d="M942.624 105.483C942.624 94.4281 933.629 85.4346 922.576 85.4346C911.522 85.4346 902.527 94.4281 902.527 105.483V111.211C902.527 122.266 911.522 131.259 922.576 131.259C927.071 131.259 931.212 129.753 934.56 127.245L937.735 130.42C938.295 130.98 939.027 131.259 939.76 131.259C940.493 131.259 941.226 130.98 941.785 130.42C942.904 129.302 942.904 127.489 941.785 126.37L938.609 123.195C941.118 119.847 942.624 115.706 942.624 111.211V105.483H942.624ZM933.193 117.778C932.074 116.66 930.261 116.66 929.143 117.778C928.024 118.897 928.024 120.71 929.143 121.828L930.46 123.146C928.196 124.647 925.489 125.531 922.576 125.531C914.68 125.531 908.256 119.107 908.256 111.211V105.483C908.256 97.5872 914.68 91.1629 922.576 91.1629C930.472 91.1629 936.896 97.5872 936.896 105.483V111.211C936.896 114.125 936.011 116.832 934.511 119.095L933.193 117.778Z" fill="white"/>
<path d="M1008.39 150.52L997.716 113.18C996.905 110.334 994.273 108.347 991.311 108.347C988.349 108.347 985.717 110.334 984.906 113.177L974.235 150.52C973.802 152.042 974.683 153.627 976.204 154.061C977.712 154.492 979.309 153.618 979.745 152.095L982.425 142.716H1000.2L1002.88 152.095C1003.24 153.352 1004.38 154.174 1005.63 154.174C1005.89 154.174 1006.15 154.137 1006.42 154.062C1007.94 153.626 1008.82 152.042 1008.39 150.52ZM984.062 136.987L990.416 114.749C990.64 113.954 991.982 113.952 992.206 114.752L998.56 136.987H984.062Z" fill="white"/>
<defs>
<linearGradient id="paint0_linear_935_4650" x1="0" y1="0.0375977" x2="1096.95" y2="263.741" gradientUnits="userSpaceOnUse">
<stop stop-color="#EDF1FF"/>
<stop offset="1" stop-color="#C8D5FF"/>
</linearGradient>
</defs>
</svg>
