<svg width="1100" height="251" viewBox="0 0 1100 251" fill="none" xmlns="http://www.w3.org/2000/svg">
<path d="M0 12C0 5.37258 5.37258 0 12 0H1088C1094.63 0 1100 5.37258 1100 12V239C1100 245.627 1094.63 251 1088 251H12C5.37257 251 0 245.627 0 239V12Z" fill="url(#paint0_linear_838_7931)"/>
<path d="M60 68C60 63.5817 63.5817 60 68 60H89C93.4183 60 97 63.5817 97 68V80C97 84.4183 93.4183 88 89 88H68C63.5817 88 60 84.4183 60 80V68Z" fill="#EDF1FF"/>
<path d="M68.5469 69.1016H76.0117V70.1953H72.9082V79H71.6641V70.1953H68.5469V69.1016ZM79.0828 79H77.8523V69.1016H79.0828V79ZM81.4703 69.1016H84.8336C85.581 69.1016 86.2076 69.2383 86.7135 69.5117C87.2193 69.7852 87.5953 70.1589 87.8414 70.6328C88.0875 71.1022 88.2105 71.64 88.2105 72.2461C88.2105 72.8477 88.0875 73.3877 87.8414 73.8662C87.5953 74.3402 87.2193 74.7161 86.7135 74.9941C86.2122 75.2676 85.5901 75.4043 84.8473 75.4043H82.7008V79H81.4703V69.1016ZM84.7926 74.3105C85.5445 74.3105 86.0982 74.1237 86.4537 73.75C86.8092 73.3763 86.9892 72.875 86.9937 72.2461C86.9892 71.6172 86.8069 71.1182 86.4469 70.749C86.0914 70.3799 85.5354 70.1953 84.7789 70.1953H82.7008V74.3105H84.7926Z" fill="#4D77FF"/>
<path d="M72.9375 123.727C72.9375 125.156 73.2012 126.521 73.7285 127.822C74.2559 129.123 75.0645 130.289 76.1543 131.32C77.2441 132.34 78.6094 133.125 80.25 133.676L77.8242 137.191C76.1719 136.582 74.748 135.715 73.5527 134.59C72.3691 133.465 71.4316 132.141 70.7402 130.617C70.0371 132.34 69.0527 133.828 67.7871 135.082C66.5215 136.324 64.9805 137.273 63.1641 137.93L60.7383 134.414C62.4609 133.852 63.8906 133.025 65.0273 131.936C66.1758 130.846 67.0195 129.598 67.5586 128.191C68.1094 126.773 68.3906 125.273 68.4023 123.691V120.211H72.9375V123.727ZM66.6094 139.406H71.1445V146.086H88.582V149.672H66.6094V139.406ZM77.4375 125.062H83.4492V118.277H87.9141V141.902H83.4492V128.684H77.4375V125.062ZM96.7953 128.297H101.155V121.09H105.303V142.641H92.5766V121.09H96.7953V128.297ZM101.155 139.055V131.812H96.7953V139.055H101.155ZM107.975 118.699H112.229V130.441H115.112V118.242H119.401V150.234H115.112V134.098H112.229V148.758H107.975V118.699ZM147.618 130.512H152.153V134.203H147.618V150.164H143.118V118.242H147.618V130.512ZM122.024 141.199C125.833 139.289 128.763 137.027 130.813 134.414C132.864 131.801 134.1 128.719 134.522 125.168H123.852V121.512H139.075C139.052 126.609 137.903 131.109 135.63 135.012C133.368 138.914 129.677 142.125 124.555 144.645L122.024 141.199ZM186.369 124.43H190.693V128.121H186.369V134.238H181.869V118.242H186.369V124.43ZM161.197 126.434C161.197 125.039 161.566 123.791 162.304 122.689C163.054 121.588 164.086 120.732 165.398 120.123C166.711 119.502 168.181 119.191 169.81 119.191C171.427 119.191 172.886 119.502 174.187 120.123C175.5 120.732 176.525 121.588 177.263 122.689C178.013 123.791 178.388 125.039 178.388 126.434C178.388 127.816 178.013 129.059 177.263 130.16C176.525 131.262 175.5 132.123 174.187 132.744C172.886 133.365 171.427 133.676 169.81 133.676C168.181 133.676 166.711 133.365 165.398 132.744C164.086 132.123 163.054 131.262 162.304 130.16C161.566 129.059 161.197 127.816 161.197 126.434ZM165.134 135.504H186.369V144.223H169.599V146.367H187.283V149.883H165.205V140.988H181.904V138.949H165.134V135.504ZM165.591 126.434C165.58 127.172 165.75 127.822 166.101 128.385C166.464 128.936 166.968 129.363 167.613 129.668C168.257 129.973 168.99 130.125 169.81 130.125C170.619 130.125 171.339 129.979 171.972 129.686C172.617 129.381 173.121 128.947 173.484 128.385C173.847 127.822 174.029 127.172 174.029 126.434C174.029 125.707 173.847 125.074 173.484 124.535C173.132 123.984 172.634 123.568 171.99 123.287C171.357 122.994 170.63 122.848 169.81 122.848C168.99 122.848 168.257 122.994 167.613 123.287C166.968 123.568 166.464 123.984 166.101 124.535C165.75 125.074 165.58 125.707 165.591 126.434ZM218.664 150.305H214.199V137.402H208.715V133.711H214.199V128.684H208.82V125.027H214.199V118.242H218.664V150.305ZM192.754 120.914H207.133V133.219H197.289V139.459C199.434 139.436 201.408 139.365 203.213 139.248C205.018 139.131 206.875 138.926 208.785 138.633L209.137 142.289C207.039 142.617 204.994 142.84 203.002 142.957C201.021 143.074 198.777 143.133 196.27 143.133H195.355H192.824V129.738H202.738V124.465H192.754V120.914ZM241.327 123.797H235.069C235.092 124.594 235.379 125.355 235.93 126.082C236.481 126.797 237.301 127.418 238.391 127.945C239.481 128.473 240.811 128.848 242.381 129.07L240.588 132.516C238.772 132.211 237.207 131.695 235.895 130.969C234.594 130.23 233.569 129.322 232.819 128.244C232.057 129.404 230.991 130.383 229.62 131.18C228.26 131.965 226.608 132.527 224.663 132.867L222.87 129.457C224.522 129.211 225.911 128.807 227.036 128.244C228.172 127.67 229.022 127.002 229.584 126.24C230.147 125.479 230.44 124.664 230.463 123.797H224.205V120.281H241.327V123.797ZM222.272 134.766C226.233 134.766 229.918 134.701 233.329 134.572C236.739 134.443 239.979 134.168 243.049 133.746L243.295 137.051C240.764 137.496 237.94 137.836 234.823 138.07V149.285H230.288V138.299C228.213 138.381 225.729 138.422 222.834 138.422L222.272 134.766ZM238.655 139.969H245.159V118.277H249.729V150.234H245.159V143.344H238.655V139.969ZM282.411 146.508H253.126V142.816H259.665V134.977C258.399 134.215 257.421 133.277 256.729 132.164C256.038 131.039 255.692 129.785 255.692 128.402C255.692 126.703 256.208 125.203 257.239 123.902C258.27 122.602 259.694 121.594 261.511 120.879C263.339 120.152 265.407 119.789 267.716 119.789C270.012 119.789 272.075 120.152 273.903 120.879C275.731 121.594 277.167 122.602 278.21 123.902C279.253 125.203 279.774 126.703 279.774 128.402C279.762 129.762 279.423 130.992 278.755 132.094C278.087 133.195 277.137 134.127 275.907 134.889V142.816H282.411V146.508ZM260.122 128.402C260.122 129.434 260.432 130.33 261.054 131.092C261.686 131.854 262.571 132.439 263.708 132.85C264.856 133.26 266.192 133.465 267.716 133.465C269.216 133.465 270.54 133.26 271.688 132.85C272.837 132.439 273.733 131.854 274.378 131.092C275.022 130.33 275.345 129.434 275.345 128.402C275.345 127.348 275.022 126.439 274.378 125.678C273.745 124.916 272.854 124.336 271.706 123.938C270.557 123.527 269.227 123.328 267.716 123.34C266.192 123.34 264.856 123.539 263.708 123.938C262.571 124.336 261.686 124.916 261.054 125.678C260.432 126.439 260.122 127.348 260.122 128.402ZM271.372 142.816V136.594C270.2 136.828 268.981 136.945 267.716 136.945C266.485 136.945 265.278 136.834 264.095 136.611V142.816H271.372Z" fill="white"/>
<path d="M69.2969 172.555H60.6055V171.051H64.043V168.668H65.8789V171.051H69.2969V172.555ZM61.1719 177.633C61.1719 176.858 61.3314 176.165 61.6504 175.553C61.9759 174.941 62.4284 174.465 63.0078 174.127C63.5872 173.782 64.2383 173.609 64.9609 173.609C65.6901 173.609 66.3411 173.782 66.9141 174.127C67.4935 174.465 67.946 174.941 68.2715 175.553C68.6035 176.165 68.7695 176.858 68.7695 177.633C68.7695 178.421 68.6035 179.124 68.2715 179.742C67.946 180.361 67.4935 180.842 66.9141 181.188C66.3411 181.526 65.6901 181.695 64.9609 181.695C64.2383 181.695 63.5872 181.526 63.0078 181.188C62.4284 180.842 61.9759 180.361 61.6504 179.742C61.3314 179.124 61.1719 178.421 61.1719 177.633ZM62.8125 177.633C62.8125 178.121 62.9036 178.554 63.0859 178.932C63.2682 179.303 63.5221 179.592 63.8477 179.801C64.1732 180.009 64.5443 180.113 64.9609 180.113C65.3776 180.113 65.7487 180.009 66.0742 179.801C66.4062 179.592 66.6634 179.303 66.8457 178.932C67.0345 178.554 67.1289 178.121 67.1289 177.633C67.1289 177.158 67.0345 176.731 66.8457 176.354C66.6634 175.976 66.4062 175.683 66.0742 175.475C65.7487 175.26 65.3776 175.152 64.9609 175.152C64.5443 175.152 64.1732 175.26 63.8477 175.475C63.5221 175.683 63.2682 175.976 63.0859 176.354C62.9036 176.731 62.8125 177.158 62.8125 177.633ZM70.0977 168.551H71.8555V175.445H73.8672V168.16H75.625V185.66H73.8672V176.969H71.8555V184.84H70.0977V168.551ZM91.3992 172.594H93.9188V174.117H91.3992V178.492H89.5242V168.16H91.3992V172.594ZM78.3719 169.449H86.1844V170.953H80.2078V175.719C82.0307 175.706 83.4891 175.663 84.5828 175.592C85.6766 175.514 86.7508 175.367 87.8055 175.152L87.9813 176.656C86.8615 176.884 85.7124 177.037 84.534 177.115C83.3621 177.187 81.7703 177.223 79.7586 177.223H78.3719V169.449ZM79.8563 182.223C79.8563 181.52 80.0939 180.914 80.5691 180.406C81.0444 179.892 81.7215 179.501 82.6004 179.234C83.4858 178.961 84.5307 178.824 85.7352 178.824C86.9266 178.824 87.9552 178.961 88.8211 179.234C89.6935 179.501 90.3641 179.892 90.8328 180.406C91.3016 180.914 91.5359 181.52 91.5359 182.223C91.5359 182.932 91.3016 183.541 90.8328 184.049C90.3641 184.563 89.6935 184.954 88.8211 185.221C87.9487 185.488 86.9201 185.621 85.7352 185.621C84.5307 185.621 83.4858 185.488 82.6004 185.221C81.7215 184.954 81.0444 184.563 80.5691 184.049C80.0939 183.541 79.8563 182.932 79.8563 182.223ZM81.6922 182.223C81.6922 182.62 81.8484 182.962 82.1609 183.248C82.4799 183.535 82.9389 183.756 83.5379 183.912C84.1434 184.062 84.8595 184.137 85.6863 184.137C86.5197 184.137 87.2423 184.062 87.8543 183.912C88.4663 183.762 88.935 183.544 89.2605 183.258C89.5926 182.971 89.7586 182.626 89.7586 182.223C89.7586 181.826 89.5958 181.487 89.2703 181.207C88.9513 180.921 88.4923 180.702 87.8934 180.553C87.3009 180.403 86.5978 180.328 85.784 180.328C84.4949 180.328 83.4891 180.494 82.7664 180.826C82.0438 181.152 81.6857 181.617 81.6922 182.223ZM114.237 185.66H112.479V168.16H114.237V185.66ZM99.1391 180.602C100.962 179.521 102.345 178.255 103.289 176.803C104.233 175.344 104.787 173.694 104.95 171.852H99.9594V170.328H106.795C106.782 172.125 106.522 173.746 106.014 175.191H108.787V168.609H110.545V184.801H108.787V176.676H105.37C104.289 178.792 102.564 180.543 100.194 181.93L99.1391 180.602ZM122.609 172.613C122.602 173.668 122.794 174.706 123.185 175.729C123.582 176.751 124.132 177.659 124.835 178.453C125.545 179.241 126.346 179.833 127.237 180.23L126.124 181.695C125.128 181.22 124.246 180.517 123.478 179.586C122.71 178.655 122.117 177.587 121.7 176.383C121.29 177.685 120.691 178.834 119.904 179.83C119.122 180.826 118.214 181.578 117.179 182.086L116.046 180.523C116.951 180.126 117.758 179.518 118.468 178.697C119.178 177.87 119.731 176.926 120.128 175.865C120.532 174.798 120.734 173.714 120.734 172.613V169.625H122.609V172.613ZM128.82 168.16H130.675V185.699H128.82V168.16ZM143.109 171.246H141.449V176.734C142.289 176.676 143.096 176.598 143.871 176.5L143.988 177.887C142.413 178.134 140.736 178.303 138.959 178.395C137.188 178.479 135.329 178.525 133.383 178.531L133.168 177.008C133.598 177.008 134.314 177.001 135.316 176.988V171.246H133.656V169.742H143.109V171.246ZM135.824 179.82H137.68V183.785H147.66V185.289H135.824V179.82ZM137.113 176.949C138.246 176.91 139.086 176.878 139.633 176.852V171.246H137.113V176.949ZM145.062 168.18H146.918V173.355H149.457V174.918H146.918V181.051H145.062V168.18ZM166.11 178.785H150.153V177.301H166.11V178.785ZM151.872 172.242C151.872 171.52 152.126 170.895 152.634 170.367C153.141 169.84 153.867 169.439 154.811 169.166C155.755 168.886 156.859 168.746 158.122 168.746C159.378 168.746 160.475 168.886 161.413 169.166C162.357 169.439 163.086 169.84 163.6 170.367C164.115 170.895 164.372 171.52 164.372 172.242C164.372 172.971 164.115 173.603 163.6 174.137C163.086 174.671 162.357 175.081 161.413 175.367C160.475 175.654 159.378 175.797 158.122 175.797C156.859 175.797 155.755 175.654 154.811 175.367C153.867 175.081 153.141 174.671 152.634 174.137C152.126 173.603 151.872 172.971 151.872 172.242ZM152.165 180.211H154.04V183.785H164.313V185.289H152.165V180.211ZM153.786 172.242C153.786 172.672 153.958 173.04 154.304 173.346C154.649 173.645 155.147 173.876 155.798 174.039C156.455 174.195 157.23 174.273 158.122 174.273C159.014 174.273 159.785 174.195 160.436 174.039C161.087 173.876 161.585 173.645 161.93 173.346C162.282 173.04 162.458 172.672 162.458 172.242C162.458 171.832 162.282 171.477 161.93 171.178C161.585 170.872 161.084 170.637 160.427 170.475C159.776 170.312 159.007 170.23 158.122 170.23C157.23 170.23 156.458 170.312 155.807 170.475C155.156 170.637 154.655 170.872 154.304 171.178C153.958 171.477 153.786 171.832 153.786 172.242ZM178.264 171.07C178.264 171.865 178.411 172.623 178.704 173.346C178.996 174.068 179.446 174.716 180.051 175.289C180.657 175.855 181.415 176.292 182.327 176.598L180.979 178.551C180.061 178.212 179.27 177.73 178.606 177.105C177.948 176.48 177.427 175.745 177.043 174.898C176.653 175.855 176.106 176.682 175.403 177.379C174.7 178.069 173.843 178.596 172.834 178.961L171.487 177.008C172.444 176.695 173.238 176.236 173.87 175.631C174.508 175.025 174.976 174.332 175.276 173.551C175.582 172.763 175.738 171.93 175.745 171.051V169.117H178.264V171.07ZM174.748 179.781H177.268V183.492H186.955V185.484H174.748V179.781ZM180.764 171.812H184.104V168.043H186.584V181.168H184.104V173.824H180.764V171.812ZM191.441 173.609H193.863V169.605H196.167V181.578H189.097V169.605H191.441V173.609ZM193.863 179.586V175.562H191.441V179.586H193.863ZM197.652 168.277H200.015V174.801H201.616V168.023H203.999V185.797H201.616V176.832H200.015V184.977H197.652V168.277ZM225.157 178.297H222.774V168.043H225.157V178.297ZM210.509 169.312H217.579V172.203H219.2V168.336H221.544V178.102H219.2V174.234H217.579V177.203H210.509V169.312ZM215.255 175.367V171.207H212.852V175.367H215.255ZM213.048 179H225.157V185.602H213.048V179ZM222.696 183.609V180.934H215.489V183.609H222.696ZM241.869 185.836H239.408V176.305H236.107V181.617H227.533V169.391H230.013V173.707H233.666V169.391H236.107V174.293H239.408V168.023H241.869V185.836ZM233.666 179.625V175.66H230.013V179.625H233.666ZM252.838 177.867H244.655V169.703H252.838V177.867ZM251.022 176.402V171.207H246.471V176.402H251.022ZM246.627 179.742H248.483V183.785H258.463V185.289H246.627V179.742ZM255.866 168.141H257.721V173.375H260.26V174.938H257.721V180.973H255.866V168.141ZM279.523 170.055V170.553C279.523 171.223 279.497 171.881 279.445 172.525C279.4 173.163 279.302 173.85 279.152 174.586H281.555V176.07H265.539V174.586H277.287C277.45 173.792 277.557 173.066 277.609 172.408C277.661 171.751 277.688 171.077 277.688 170.387H267.551V168.902H279.523V170.055ZM267.414 177.633H279.543V182.223H269.289V184H279.992V185.484H267.434V180.797H277.707V179.117H267.414V177.633ZM290.493 168.453C291.808 168.453 292.931 168.567 293.862 168.795C294.793 169.023 295.506 169.365 296.001 169.82C296.496 170.27 296.743 170.816 296.743 171.461C296.743 172.112 296.496 172.665 296.001 173.121C295.506 173.57 294.793 173.912 293.862 174.146C292.931 174.374 291.808 174.488 290.493 174.488C289.178 174.488 288.052 174.374 287.114 174.146C286.183 173.912 285.47 173.57 284.975 173.121C284.487 172.665 284.243 172.112 284.243 171.461C284.243 170.816 284.487 170.27 284.975 169.82C285.47 169.365 286.183 169.023 287.114 168.795C288.052 168.567 289.178 168.453 290.493 168.453ZM282.524 175.562H298.481V177.047H282.524V175.562ZM284.438 178.395H296.47V182.496H286.274V184.059H296.958V185.484H284.458V181.148H294.634V179.781H284.438V178.395ZM286.177 171.461C286.17 172.001 286.538 172.411 287.28 172.691C288.022 172.965 289.093 173.102 290.493 173.102C291.906 173.102 292.983 172.965 293.725 172.691C294.468 172.411 294.835 172.001 294.829 171.461C294.835 170.94 294.461 170.536 293.706 170.25C292.957 169.964 291.886 169.82 290.493 169.82C289.106 169.82 288.039 169.964 287.29 170.25C286.541 170.536 286.17 170.94 286.177 171.461ZM310.205 171.305C310.199 172.053 310.362 172.773 310.694 173.463C311.032 174.153 311.521 174.768 312.159 175.309C312.797 175.849 313.552 176.266 314.424 176.559L313.487 178.004C312.51 177.665 311.661 177.171 310.938 176.52C310.222 175.868 309.672 175.107 309.288 174.234C308.903 175.185 308.337 176.018 307.588 176.734C306.846 177.444 305.967 177.978 304.952 178.336L303.955 176.891C304.847 176.585 305.625 176.145 306.289 175.572C306.954 174.999 307.461 174.345 307.813 173.609C308.164 172.867 308.343 172.092 308.35 171.285V170.816H304.502V169.312H313.975V170.816H310.205V171.305ZM306.28 179.566H317.842V185.66H315.987V181.07H306.28V179.566ZM315.987 168.16H317.842V172.652H320.381V174.215H317.842V178.707H315.987V168.16ZM327.288 170.777C327.288 171.591 327.458 172.366 327.796 173.102C328.135 173.831 328.623 174.472 329.261 175.025C329.899 175.579 330.654 175.999 331.527 176.285L330.511 177.73C329.554 177.379 328.727 176.878 328.03 176.227C327.334 175.576 326.793 174.807 326.409 173.922C326.025 174.938 325.459 175.82 324.71 176.568C323.961 177.317 323.063 177.88 322.015 178.258L321.019 176.773C321.937 176.461 322.728 176.008 323.392 175.416C324.056 174.817 324.564 174.127 324.915 173.346C325.267 172.564 325.446 171.734 325.452 170.855V169.137H327.288V170.777ZM323.89 182.32C323.89 181.617 324.124 181.015 324.593 180.514C325.068 180.012 325.749 179.632 326.634 179.371C327.526 179.111 328.584 178.98 329.808 178.98C331.025 178.98 332.077 179.111 332.962 179.371C333.848 179.632 334.528 180.012 335.003 180.514C335.485 181.015 335.726 181.617 335.726 182.32C335.726 183.017 335.485 183.613 335.003 184.107C334.528 184.602 333.848 184.977 332.962 185.23C332.077 185.491 331.025 185.621 329.808 185.621C328.584 185.621 327.526 185.491 326.634 185.23C325.749 184.977 325.068 184.602 324.593 184.107C324.124 183.613 323.89 183.017 323.89 182.32ZM325.726 182.32C325.726 182.704 325.882 183.033 326.195 183.307C326.514 183.58 326.976 183.792 327.581 183.941C328.187 184.085 328.909 184.156 329.749 184.156C331.051 184.156 332.064 183.997 332.786 183.678C333.515 183.359 333.883 182.906 333.89 182.32C333.883 181.721 333.519 181.256 332.796 180.924C332.08 180.592 331.084 180.426 329.808 180.426C328.519 180.426 327.513 180.592 326.79 180.924C326.074 181.256 325.719 181.721 325.726 182.32ZM330.12 171.715H333.812V168.16H335.667V178.492H333.812V173.238H330.12V171.715ZM351.812 172.203H354.371V173.727H351.812V177.73H349.957V168.102H351.812V172.203ZM338.082 169.645H342.379V168.004H344.234V169.645H348.512V171.109H338.082V169.645ZM339.039 174.645C339.039 174.065 339.212 173.561 339.557 173.131C339.908 172.695 340.406 172.359 341.051 172.125C341.695 171.891 342.444 171.773 343.297 171.773C344.15 171.773 344.895 171.891 345.533 172.125C346.171 172.359 346.663 172.691 347.008 173.121C347.359 173.551 347.535 174.059 347.535 174.645C347.535 175.23 347.359 175.738 347.008 176.168C346.663 176.598 346.171 176.926 345.533 177.154C344.895 177.382 344.15 177.496 343.297 177.496C342.444 177.496 341.695 177.382 341.051 177.154C340.406 176.926 339.908 176.598 339.557 176.168C339.212 175.738 339.039 175.23 339.039 174.645ZM340.504 178.551H351.812V182.613H342.359V184.078H352.418V185.484H340.543V181.305H349.977V179.938H340.504V178.551ZM340.836 174.645C340.829 175.113 341.048 175.481 341.49 175.748C341.933 176.015 342.535 176.148 343.297 176.148C344.052 176.148 344.654 176.015 345.104 175.748C345.559 175.481 345.79 175.113 345.797 174.645C345.79 174.176 345.559 173.805 345.104 173.531C344.654 173.251 344.052 173.108 343.297 173.102C342.535 173.108 341.933 173.251 341.49 173.531C341.048 173.805 340.829 174.176 340.836 174.645ZM368.595 169.703C368.595 170.465 368.875 171.197 369.435 171.9C370.002 172.604 370.763 173.202 371.72 173.697C372.684 174.192 373.732 174.514 374.865 174.664L374.142 176.188C373.192 176.038 372.29 175.777 371.437 175.406C370.584 175.035 369.829 174.576 369.171 174.029C368.52 173.476 368.006 172.861 367.629 172.184C367.251 172.861 366.733 173.476 366.076 174.029C365.425 174.576 364.676 175.035 363.83 175.406C362.983 175.771 362.085 176.031 361.134 176.188L360.392 174.664C361.525 174.514 362.57 174.195 363.527 173.707C364.484 173.219 365.246 172.623 365.812 171.92C366.379 171.21 366.662 170.471 366.662 169.703V168.746H368.595V169.703ZM359.63 177.906H375.587V179.43H368.478V185.66H366.662V179.43H359.63V177.906ZM387.273 179.723C387.273 180.51 387.471 181.269 387.868 181.998C388.265 182.721 388.845 183.31 389.607 183.766C390.121 183.434 390.557 183.04 390.915 182.584C391.28 182.128 391.55 181.653 391.726 181.158C391.908 180.663 391.999 180.185 391.999 179.723V178.883H393.816V179.723C393.809 180.335 393.939 180.927 394.206 181.5C394.473 182.066 394.867 182.571 395.388 183.014C395.915 183.456 396.55 183.798 397.292 184.039L396.374 185.406C395.528 185.113 394.808 184.69 394.216 184.137C393.624 183.59 393.171 182.949 392.859 182.213C392.566 182.955 392.149 183.619 391.609 184.205C391.075 184.791 390.424 185.243 389.655 185.562C388.848 185.257 388.168 184.817 387.614 184.244C387.068 183.671 386.654 183.01 386.374 182.262C386.049 182.971 385.593 183.6 385.007 184.146C384.428 184.693 383.737 185.113 382.937 185.406L381.999 184.039C382.722 183.779 383.344 183.421 383.864 182.965C384.392 182.503 384.789 181.992 385.056 181.432C385.329 180.865 385.469 180.296 385.476 179.723V178.883H387.273V179.723ZM381.55 173.277C381.55 172.477 381.752 171.764 382.155 171.139C382.559 170.507 383.116 170.016 383.825 169.664C384.535 169.312 385.333 169.137 386.218 169.137C387.103 169.137 387.898 169.312 388.601 169.664C389.31 170.016 389.864 170.507 390.261 171.139C390.665 171.764 390.866 172.477 390.866 173.277C390.866 174.072 390.665 174.781 390.261 175.406C389.864 176.025 389.31 176.51 388.601 176.861C387.898 177.206 387.103 177.379 386.218 177.379C385.333 177.379 384.535 177.206 383.825 176.861C383.116 176.51 382.559 176.025 382.155 175.406C381.752 174.781 381.55 174.072 381.55 173.277ZM383.366 173.277C383.366 173.779 383.487 174.225 383.728 174.615C383.969 174.999 384.307 175.299 384.743 175.514C385.18 175.729 385.671 175.836 386.218 175.836C386.758 175.836 387.243 175.729 387.673 175.514C388.103 175.299 388.438 174.999 388.679 174.615C388.926 174.225 389.05 173.779 389.05 173.277C389.05 172.776 388.926 172.33 388.679 171.939C388.438 171.549 388.103 171.249 387.673 171.041C387.243 170.826 386.758 170.719 386.218 170.719C385.671 170.719 385.18 170.826 384.743 171.041C384.307 171.249 383.969 171.549 383.728 171.939C383.487 172.33 383.366 172.776 383.366 173.277ZM393.855 168.18H395.71V178.141H393.855V168.18ZM402.93 169.469C403.717 169.469 404.427 169.684 405.059 170.113C405.69 170.543 406.201 171.152 406.592 171.939C406.989 172.727 407.233 173.655 407.324 174.723H410.938V168.16H412.773V185.699H410.938V176.227H407.344C407.279 177.353 407.051 178.333 406.66 179.166C406.27 179.999 405.752 180.641 405.107 181.09C404.463 181.533 403.737 181.754 402.93 181.754C402.064 181.754 401.292 181.503 400.615 181.002C399.945 180.501 399.421 179.785 399.043 178.854C398.672 177.923 398.49 176.839 398.496 175.602C398.49 174.378 398.672 173.303 399.043 172.379C399.421 171.448 399.945 170.732 400.615 170.23C401.292 169.723 402.064 169.469 402.93 169.469ZM400.254 175.602C400.254 176.513 400.365 177.307 400.586 177.984C400.814 178.661 401.13 179.182 401.533 179.547C401.937 179.911 402.402 180.094 402.93 180.094C403.457 180.094 403.923 179.911 404.326 179.547C404.73 179.182 405.042 178.661 405.264 177.984C405.492 177.307 405.605 176.513 405.605 175.602C405.605 174.703 405.492 173.919 405.264 173.248C405.036 172.571 404.72 172.05 404.316 171.686C403.919 171.314 403.457 171.129 402.93 171.129C402.402 171.129 401.937 171.314 401.533 171.686C401.136 172.05 400.824 172.571 400.596 173.248C400.368 173.919 400.254 174.703 400.254 175.602ZM431.184 183.473H415.169V181.93H418.997V177.359C418.261 176.956 417.692 176.445 417.288 175.826C416.884 175.208 416.686 174.514 416.692 173.746C416.692 172.841 416.966 172.044 417.513 171.354C418.059 170.663 418.821 170.13 419.798 169.752C420.781 169.368 421.894 169.176 423.138 169.176C424.381 169.176 425.494 169.368 426.477 169.752C427.46 170.13 428.225 170.663 428.772 171.354C429.326 172.044 429.602 172.841 429.602 173.746C429.602 174.508 429.407 175.195 429.016 175.807C428.626 176.412 428.072 176.917 427.356 177.32V181.93H431.184V183.473ZM418.489 173.746C418.489 174.365 418.684 174.908 419.075 175.377C419.466 175.846 420.013 176.21 420.716 176.471C421.419 176.725 422.226 176.852 423.138 176.852C424.042 176.852 424.846 176.721 425.55 176.461C426.259 176.201 426.813 175.839 427.21 175.377C427.607 174.908 427.805 174.365 427.805 173.746C427.805 173.128 427.607 172.587 427.21 172.125C426.813 171.656 426.259 171.295 425.55 171.041C424.846 170.787 424.042 170.66 423.138 170.66C422.226 170.66 421.419 170.787 420.716 171.041C420.013 171.295 419.466 171.656 419.075 172.125C418.684 172.587 418.489 173.128 418.489 173.746ZM425.481 181.93V178.043C424.752 178.212 423.971 178.297 423.138 178.297C422.317 178.297 421.549 178.212 420.833 178.043V181.93H425.481ZM435.201 179.918H433.267L433.091 169.859H435.377L435.201 179.918ZM432.857 182.77C432.857 182.516 432.919 182.281 433.043 182.066C433.166 181.852 433.332 181.682 433.541 181.559C433.755 181.428 433.99 181.363 434.244 181.363C434.491 181.363 434.719 181.425 434.927 181.549C435.142 181.673 435.311 181.842 435.435 182.057C435.565 182.271 435.63 182.503 435.63 182.75C435.63 182.997 435.565 183.229 435.435 183.443C435.311 183.652 435.142 183.821 434.927 183.951C434.719 184.075 434.491 184.137 434.244 184.137C433.996 184.137 433.765 184.075 433.55 183.951C433.342 183.827 433.173 183.661 433.043 183.453C432.919 183.245 432.857 183.017 432.857 182.77Z" fill="white"/>
<path d="M1023.72 90.624H914.983C911.372 90.624 908.445 93.3627 908.445 96.7411V175.987H1030.26V96.7411C1030.26 93.3627 1027.33 90.624 1023.72 90.624Z" fill="#466CE8"/>
<path d="M1029.69 191H909.695C904 191 899.383 186.399 899.383 180.723V175.987H1040V180.723C1040 186.399 1035.38 191 1029.69 191Z" fill="#3754B5" fill-opacity="0.7"/>
<path d="M1022.22 98.6318H916.477V167.981H1022.22V98.6318Z" fill="#2A418C" fill-opacity="0.8"/>
<path d="M1022.22 98.6309V167.98H975.859L957.748 98.6309H1022.22Z" fill="#3754B5"/>
<path d="M979.451 183.494H959.935C956.885 183.494 954.412 181.029 954.412 177.99V175.987H984.973V177.99C984.973 181.029 982.501 183.494 979.451 183.494Z" fill="#304A9E"/>
<g filter="url(#filter0_d_838_7931)">
<path d="M902.544 60C923.252 60 940.038 76.6274 940.038 97.14C940.038 103.953 938.186 110.337 934.955 115.825L940.775 131.718C941.681 134.188 939.29 136.598 936.779 135.745L919.972 130.034C914.765 132.744 908.836 134.28 902.544 134.28C881.836 134.28 865.051 117.653 865.051 97.14C865.051 76.6275 881.836 60 902.544 60Z" fill="white"/>
<path d="M868.175 82.2795C869.827 104.903 888.7 122.745 911.744 122.745C920.305 122.745 928.289 120.281 935.029 116.027L940.775 131.718C941.681 134.188 939.29 136.598 936.779 135.745L919.972 130.034C914.765 132.744 908.836 134.28 902.544 134.28C881.836 134.28 865.051 117.652 865.051 97.1399C865.051 91.8556 866.167 86.8303 868.175 82.2795Z" fill="#EDF1FF"/>
</g>
<path d="M903.014 74.2285C903.693 74.2285 904.244 73.6777 904.244 72.9984L904.244 68.8776C904.244 68.1982 903.693 67.6475 903.014 67.6475C902.335 67.6475 901.784 68.1982 901.784 68.8776L901.784 72.9985C901.784 73.6778 902.335 74.2285 903.014 74.2285Z" fill="#FFC250"/>
<path d="M913.296 76.9673C913.721 76.9673 914.135 76.7468 914.362 76.3521L916.423 72.7833C916.763 72.1949 916.561 71.4426 915.973 71.103C915.384 70.7634 914.632 70.9648 914.292 71.5532L912.232 75.122C911.892 75.7103 912.094 76.4627 912.682 76.8023C912.876 76.9142 913.087 76.9673 913.296 76.9673Z" fill="#FFC250"/>
<path d="M919.702 83.2606C920.096 83.421 920.562 83.3727 920.922 83.0931L924.176 80.5654C924.713 80.1487 924.81 79.3759 924.393 78.8394C923.977 78.3029 923.204 78.2057 922.667 78.6224L919.413 81.1502C918.876 81.5669 918.779 82.3397 919.196 82.8762C919.333 83.0529 919.509 83.1819 919.702 83.2606Z" fill="#FFC250"/>
<path d="M885.687 83.2606C885.293 83.421 884.827 83.3727 884.467 83.0931L881.212 80.5654C880.676 80.1487 880.579 79.3759 880.995 78.8394C881.412 78.3029 882.185 78.2057 882.721 78.6224L885.976 81.1502C886.512 81.5669 886.61 82.3397 886.193 82.8762C886.056 83.0529 885.88 83.1819 885.687 83.2606Z" fill="#FFC250"/>
<path d="M892.734 76.9674C892.942 76.9674 893.154 76.9142 893.348 76.8024C893.936 76.4627 894.138 75.7104 893.798 75.1221L891.737 71.5533C891.398 70.9649 890.646 70.7633 890.057 71.103C889.469 71.4427 889.267 72.195 889.607 72.7834L891.667 76.3522C891.895 76.7468 892.309 76.9674 892.734 76.9674Z" fill="#FFC250"/>
<path d="M903.015 127.478C901.213 127.478 899.752 126.017 899.752 124.215V123.07H906.279V124.215C906.279 126.017 904.818 127.478 903.015 127.478Z" fill="#6D7882"/>
<path d="M906.282 123.695H899.739C898.915 123.695 898.248 123.027 898.248 122.204V113.738H907.772V122.204C907.773 123.027 907.105 123.695 906.282 123.695Z" fill="#CDD1D5"/>
<path d="M903.427 113.738V117.812C903.427 119.861 901.766 121.522 899.717 121.522H898.248V122.204C898.248 123.027 898.915 123.695 899.739 123.695H906.282C907.105 123.695 907.772 123.027 907.772 122.204V113.738H903.427V113.738Z" fill="#B1B8BE"/>
<path d="M908.011 118.428H898.01C897.56 118.428 897.195 118.063 897.195 117.613C897.195 117.163 897.56 116.799 898.01 116.799H908.011C908.461 116.799 908.826 117.163 908.826 117.613C908.826 118.063 908.461 118.428 908.011 118.428Z" fill="#E6E8EA"/>
<path d="M908.011 121.217H898.01C897.56 121.217 897.195 120.852 897.195 120.402C897.195 119.952 897.56 119.587 898.01 119.587H908.011C908.461 119.587 908.826 119.952 908.826 120.402C908.826 120.852 908.461 121.217 908.011 121.217Z" fill="#E6E8EA"/>
<path d="M918.071 93.9777C918.071 85.6608 911.329 78.9187 903.012 78.9187C894.695 78.9187 887.953 85.6608 887.953 93.9777C887.953 98.306 889.779 102.059 892.703 105.179C894.768 107.382 896.049 110.186 896.398 113.159C896.51 114.105 897.298 114.825 898.25 114.825H907.774C908.727 114.825 909.514 114.105 909.626 113.159C909.976 110.186 911.256 107.382 913.321 105.179C916.245 102.059 918.071 98.3062 918.071 93.9777Z" fill="#FFE07D"/>
<path d="M907.477 79.592C911.262 82.3274 913.724 86.7786 913.724 91.8049C913.724 96.1332 911.898 99.8864 908.974 103.006C907.682 104.386 906.696 106 906.054 107.745C904.963 110.709 902.107 112.652 898.948 112.652H896.328C896.354 112.82 896.377 112.989 896.397 113.159C896.508 114.105 897.296 114.825 898.249 114.825H907.773C908.725 114.825 909.513 114.105 909.624 113.159C909.974 110.187 911.255 107.382 913.32 105.179C916.244 102.059 918.07 98.306 918.07 93.9776C918.07 87.2159 913.613 81.4952 907.477 79.592Z" fill="#FFD064"/>
<path d="M891.29 90.9346C891.205 90.9346 891.119 90.9213 891.034 90.8934C890.607 90.7524 890.375 90.2918 890.516 89.8644C891.904 85.657 895.281 82.4488 899.551 81.2824C899.985 81.1639 900.433 81.4196 900.552 81.8536C900.67 82.2878 900.415 82.7358 899.98 82.8543C896.239 83.8763 893.279 86.6877 892.063 90.3748C891.95 90.7174 891.632 90.9346 891.29 90.9346Z" fill="#FFF3BF"/>
<defs>
<filter id="filter0_d_838_7931" x="833.051" y="28" width="139.92" height="139.92" filterUnits="userSpaceOnUse" color-interpolation-filters="sRGB">
<feFlood flood-opacity="0" result="BackgroundImageFix"/>
<feColorMatrix in="SourceAlpha" type="matrix" values="0 0 0 0 0 0 0 0 0 0 0 0 0 0 0 0 0 0 127 0" result="hardAlpha"/>
<feMorphology radius="16" operator="dilate" in="SourceAlpha" result="effect1_dropShadow_838_7931"/>
<feOffset/>
<feGaussianBlur stdDeviation="8"/>
<feComposite in2="hardAlpha" operator="out"/>
<feColorMatrix type="matrix" values="0 0 0 0 0 0 0 0 0 0 0 0 0 0 0 0 0 0 0.08 0"/>
<feBlend mode="normal" in2="BackgroundImageFix" result="effect1_dropShadow_838_7931"/>
<feBlend mode="normal" in="SourceGraphic" in2="effect1_dropShadow_838_7931" result="shape"/>
</filter>
<linearGradient id="paint0_linear_838_7931" x1="0" y1="0" x2="1096.95" y2="263.703" gradientUnits="userSpaceOnUse">
<stop stop-color="#7192FF"/>
<stop offset="1" stop-color="#4D77FF"/>
</linearGradient>
</defs>
</svg>
