<svg width="1101" height="252" viewBox="0 0 1101 252" fill="none" xmlns="http://www.w3.org/2000/svg">
<path d="M0.402344 12.0376C0.402344 5.41018 5.77493 0.0375977 12.4023 0.0375977H1088.4C1095.03 0.0375977 1100.4 5.41018 1100.4 12.0376V239.038C1100.4 245.665 1095.03 251.038 1088.4 251.038H12.4023C5.77492 251.038 0.402344 245.665 0.402344 239.038V12.0376Z" fill="url(#paint0_linear_838_7931)"/>
<path d="M60.4023 68.0376C60.4023 63.6193 63.9841 60.0376 68.4023 60.0376H89.4023C93.8206 60.0376 97.4023 63.6193 97.4023 68.0376V80.0376C97.4023 84.4559 93.8206 88.0376 89.4023 88.0376H68.4023C63.9841 88.0376 60.4023 84.4559 60.4023 80.0376V68.0376Z" fill="#EDF1FF"/>
<path d="M68.9492 69.1392H76.4141V70.2329H73.3105V79.0376H72.0664V70.2329H68.9492V69.1392ZM79.4852 79.0376H78.2547V69.1392H79.4852V79.0376ZM81.8727 69.1392H85.2359C85.9833 69.1392 86.61 69.2759 87.1158 69.5493C87.6217 69.8228 87.9977 70.1965 88.2437 70.6704C88.4898 71.1398 88.6129 71.6776 88.6129 72.2837C88.6129 72.8853 88.4898 73.4253 88.2437 73.9038C87.9977 74.3778 87.6217 74.7537 87.1158 75.0317C86.6145 75.3052 85.9924 75.4419 85.2496 75.4419H83.1031V79.0376H81.8727V69.1392ZM85.1949 74.3481C85.9469 74.3481 86.5006 74.1613 86.8561 73.7876C87.2115 73.4139 87.3915 72.9126 87.3961 72.2837C87.3915 71.6548 87.2092 71.1558 86.8492 70.7866C86.4937 70.4175 85.9378 70.2329 85.1812 70.2329H83.1031V74.3481H85.1949Z" fill="#4D77FF"/>
<path d="M73.3398 123.764C73.3398 125.194 73.6035 126.559 74.1309 127.86C74.6582 129.161 75.4668 130.327 76.5566 131.358C77.6465 132.377 79.0117 133.163 80.6523 133.713L78.2266 137.229C76.5742 136.62 75.1504 135.752 73.9551 134.627C72.7715 133.502 71.834 132.178 71.1426 130.655C70.4395 132.377 69.4551 133.866 68.1895 135.12C66.9238 136.362 65.3828 137.311 63.5664 137.967L61.1406 134.452C62.8633 133.889 64.293 133.063 65.4297 131.973C66.5781 130.883 67.4219 129.635 67.9609 128.229C68.5117 126.811 68.793 125.311 68.8047 123.729V120.249H73.3398V123.764ZM67.0117 139.444H71.5469V146.124H88.9844V149.709H67.0117V139.444ZM77.8398 125.1H83.8516V118.315H88.3164V141.94H83.8516V128.721H77.8398V125.1ZM97.1977 128.334H101.557V121.127H105.705V142.678H92.9789V121.127H97.1977V128.334ZM101.557 139.092V131.85H97.1977V139.092H101.557ZM108.377 118.737H112.631V130.479H115.514V118.28H119.803V150.272H115.514V134.135H112.631V148.795H108.377V118.737ZM148.02 130.549H152.555V134.241H148.02V150.202H143.52V118.28H148.02V130.549ZM122.427 141.237C126.235 139.327 129.165 137.065 131.216 134.452C133.266 131.838 134.503 128.756 134.925 125.206H124.255V121.549H139.477C139.454 126.647 138.305 131.147 136.032 135.049C133.77 138.952 130.079 142.163 124.958 144.682L122.427 141.237ZM186.771 124.467H191.095V128.159H186.771V134.276H182.271V118.28H186.771V124.467ZM161.599 126.471C161.599 125.077 161.968 123.829 162.707 122.727C163.457 121.625 164.488 120.77 165.8 120.161C167.113 119.54 168.584 119.229 170.213 119.229C171.83 119.229 173.289 119.54 174.589 120.161C175.902 120.77 176.927 121.625 177.666 122.727C178.416 123.829 178.791 125.077 178.791 126.471C178.791 127.854 178.416 129.096 177.666 130.198C176.927 131.299 175.902 132.161 174.589 132.782C173.289 133.403 171.83 133.713 170.213 133.713C168.584 133.713 167.113 133.403 165.8 132.782C164.488 132.161 163.457 131.299 162.707 130.198C161.968 129.096 161.599 127.854 161.599 126.471ZM165.537 135.542H186.771V144.26H170.002V146.405H187.685V149.92H165.607V141.026H182.306V138.987H165.537V135.542ZM165.994 126.471C165.982 127.209 166.152 127.86 166.504 128.422C166.867 128.973 167.371 129.401 168.015 129.706C168.66 130.01 169.392 130.163 170.213 130.163C171.021 130.163 171.742 130.016 172.375 129.723C173.019 129.418 173.523 128.985 173.886 128.422C174.25 127.86 174.431 127.209 174.431 126.471C174.431 125.745 174.25 125.112 173.886 124.573C173.535 124.022 173.037 123.606 172.392 123.325C171.759 123.032 171.033 122.885 170.213 122.885C169.392 122.885 168.66 123.032 168.015 123.325C167.371 123.606 166.867 124.022 166.504 124.573C166.152 125.112 165.982 125.745 165.994 126.471ZM219.066 150.342H214.602V137.44H209.117V133.749H214.602V128.721H209.223V125.065H214.602V118.28H219.066V150.342ZM193.156 120.952H207.535V133.256H197.691V139.497C199.836 139.473 201.811 139.403 203.615 139.286C205.42 139.168 207.277 138.963 209.188 138.67L209.539 142.327C207.441 142.655 205.396 142.877 203.404 142.995C201.424 143.112 199.18 143.17 196.672 143.17H195.758H193.227V129.776H203.141V124.502H193.156V120.952ZM241.729 123.834H235.471C235.495 124.631 235.782 125.393 236.332 126.12C236.883 126.834 237.704 127.456 238.793 127.983C239.883 128.51 241.213 128.885 242.784 129.108L240.991 132.553C239.174 132.249 237.61 131.733 236.297 131.006C234.996 130.268 233.971 129.36 233.221 128.282C232.459 129.442 231.393 130.42 230.022 131.217C228.663 132.002 227.01 132.565 225.065 132.905L223.272 129.495C224.924 129.249 226.313 128.844 227.438 128.282C228.575 127.708 229.424 127.04 229.987 126.278C230.549 125.516 230.842 124.702 230.866 123.834H224.608V120.319H241.729V123.834ZM222.674 134.803C226.635 134.803 230.321 134.739 233.731 134.61C237.141 134.481 240.381 134.206 243.452 133.784L243.698 137.088C241.166 137.534 238.342 137.874 235.225 138.108V149.323H230.69V138.336C228.616 138.418 226.131 138.459 223.237 138.459L222.674 134.803ZM239.057 140.006H245.561V118.315H250.131V150.272H245.561V143.381H239.057V140.006ZM282.813 146.545H253.528V142.854H260.067V135.014C258.802 134.252 257.823 133.315 257.132 132.202C256.44 131.077 256.095 129.823 256.095 128.44C256.095 126.741 256.61 125.241 257.641 123.94C258.673 122.639 260.096 121.631 261.913 120.917C263.741 120.19 265.809 119.827 268.118 119.827C270.415 119.827 272.477 120.19 274.305 120.917C276.134 121.631 277.569 122.639 278.612 123.94C279.655 125.241 280.177 126.741 280.177 128.44C280.165 129.799 279.825 131.03 279.157 132.131C278.489 133.233 277.54 134.165 276.309 134.926V142.854H282.813V146.545ZM260.524 128.44C260.524 129.471 260.835 130.368 261.456 131.129C262.089 131.891 262.973 132.477 264.11 132.887C265.259 133.297 266.595 133.502 268.118 133.502C269.618 133.502 270.942 133.297 272.091 132.887C273.239 132.477 274.136 131.891 274.78 131.129C275.425 130.368 275.747 129.471 275.747 128.44C275.747 127.385 275.425 126.477 274.78 125.715C274.147 124.954 273.257 124.374 272.108 123.975C270.96 123.565 269.63 123.366 268.118 123.377C266.595 123.377 265.259 123.577 264.11 123.975C262.973 124.374 262.089 124.954 261.456 125.715C260.835 126.477 260.524 127.385 260.524 128.44ZM271.774 142.854V136.631C270.602 136.866 269.384 136.983 268.118 136.983C266.887 136.983 265.68 136.872 264.497 136.649V142.854H271.774Z" fill="white"/>
<path d="M69.6992 172.592H61.0078V171.088H64.4453V168.706H66.2812V171.088H69.6992V172.592ZM61.5742 177.67C61.5742 176.896 61.7337 176.202 62.0527 175.59C62.3783 174.978 62.8307 174.503 63.4102 174.165C63.9896 173.819 64.6406 173.647 65.3633 173.647C66.0924 173.647 66.7435 173.819 67.3164 174.165C67.8958 174.503 68.3483 174.978 68.6738 175.59C69.0059 176.202 69.1719 176.896 69.1719 177.67C69.1719 178.458 69.0059 179.161 68.6738 179.78C68.3483 180.398 67.8958 180.88 67.3164 181.225C66.7435 181.564 66.0924 181.733 65.3633 181.733C64.6406 181.733 63.9896 181.564 63.4102 181.225C62.8307 180.88 62.3783 180.398 62.0527 179.78C61.7337 179.161 61.5742 178.458 61.5742 177.67ZM63.2148 177.67C63.2148 178.159 63.306 178.592 63.4883 178.969C63.6706 179.34 63.9245 179.63 64.25 179.838C64.5755 180.047 64.9466 180.151 65.3633 180.151C65.7799 180.151 66.151 180.047 66.4766 179.838C66.8086 179.63 67.0658 179.34 67.248 178.969C67.4368 178.592 67.5312 178.159 67.5312 177.67C67.5312 177.195 67.4368 176.769 67.248 176.391C67.0658 176.014 66.8086 175.721 66.4766 175.512C66.151 175.297 65.7799 175.19 65.3633 175.19C64.9466 175.19 64.5755 175.297 64.25 175.512C63.9245 175.721 63.6706 176.014 63.4883 176.391C63.306 176.769 63.2148 177.195 63.2148 177.67ZM70.5 168.588H72.2578V175.483H74.2695V168.198H76.0273V185.698H74.2695V177.006H72.2578V184.877H70.5V168.588ZM91.8016 172.631H94.3211V174.155H91.8016V178.53H89.9266V168.198H91.8016V172.631ZM78.7742 169.487H86.5867V170.991H80.6102V175.756C82.4331 175.743 83.8914 175.701 84.9852 175.629C86.0789 175.551 87.1531 175.405 88.2078 175.19L88.3836 176.694C87.2638 176.922 86.1147 177.075 84.9363 177.153C83.7645 177.224 82.1727 177.26 80.1609 177.26H78.7742V169.487ZM80.2586 182.26C80.2586 181.557 80.4962 180.952 80.9715 180.444C81.4467 179.93 82.1238 179.539 83.0027 179.272C83.8882 178.999 84.9331 178.862 86.1375 178.862C87.3289 178.862 88.3576 178.999 89.2234 179.272C90.0958 179.539 90.7664 179.93 91.2352 180.444C91.7039 180.952 91.9383 181.557 91.9383 182.26C91.9383 182.97 91.7039 183.579 91.2352 184.086C90.7664 184.601 90.0958 184.991 89.2234 185.258C88.351 185.525 87.3224 185.659 86.1375 185.659C84.9331 185.659 83.8882 185.525 83.0027 185.258C82.1238 184.991 81.4467 184.601 80.9715 184.086C80.4962 183.579 80.2586 182.97 80.2586 182.26ZM82.0945 182.26C82.0945 182.657 82.2508 182.999 82.5633 183.286C82.8823 183.572 83.3413 183.793 83.9402 183.95C84.5457 184.099 85.2618 184.174 86.0887 184.174C86.922 184.174 87.6447 184.099 88.2566 183.95C88.8686 183.8 89.3374 183.582 89.6629 183.295C89.9949 183.009 90.1609 182.664 90.1609 182.26C90.1609 181.863 89.9982 181.525 89.6727 181.245C89.3536 180.958 88.8947 180.74 88.2957 180.59C87.7033 180.441 87.0001 180.366 86.1863 180.366C84.8973 180.366 83.8914 180.532 83.1688 180.864C82.4461 181.189 82.088 181.655 82.0945 182.26ZM114.639 185.698H112.881V168.198H114.639V185.698ZM99.5414 180.639C101.364 179.558 102.748 178.292 103.692 176.84C104.636 175.382 105.189 173.732 105.352 171.889H100.362V170.366H107.198C107.185 172.163 106.924 173.784 106.416 175.229H109.19V168.647H110.948V184.838H109.19V176.713H105.772C104.691 178.829 102.966 180.581 100.596 181.967L99.5414 180.639ZM123.011 172.651C123.004 173.706 123.196 174.744 123.587 175.766C123.984 176.788 124.534 177.696 125.237 178.491C125.947 179.278 126.748 179.871 127.64 180.268L126.527 181.733C125.53 181.258 124.648 180.555 123.88 179.624C123.112 178.693 122.519 177.625 122.103 176.42C121.693 177.722 121.094 178.872 120.306 179.868C119.525 180.864 118.616 181.616 117.581 182.124L116.448 180.561C117.353 180.164 118.161 179.555 118.87 178.735C119.58 177.908 120.133 176.964 120.53 175.903C120.934 174.835 121.136 173.751 121.136 172.651V169.663H123.011V172.651ZM129.222 168.198H131.077V185.737H129.222V168.198ZM143.512 171.284H141.852V176.772C142.691 176.713 143.499 176.635 144.273 176.538L144.391 177.924C142.815 178.172 141.139 178.341 139.361 178.432C137.59 178.517 135.732 178.562 133.785 178.569L133.57 177.045C134 177.045 134.716 177.039 135.719 177.026V171.284H134.059V169.78H143.512V171.284ZM136.227 179.858H138.082V183.823H148.062V185.327H136.227V179.858ZM137.516 176.987C138.648 176.948 139.488 176.915 140.035 176.889V171.284H137.516V176.987ZM145.465 168.217H147.32V173.393H149.859V174.956H147.32V181.088H145.465V168.217ZM166.512 178.823H150.555V177.338H166.512V178.823ZM152.274 172.28C152.274 171.557 152.528 170.932 153.036 170.405C153.544 169.877 154.27 169.477 155.214 169.204C156.158 168.924 157.261 168.784 158.524 168.784C159.781 168.784 160.878 168.924 161.815 169.204C162.759 169.477 163.488 169.877 164.003 170.405C164.517 170.932 164.774 171.557 164.774 172.28C164.774 173.009 164.517 173.64 164.003 174.174C163.488 174.708 162.759 175.118 161.815 175.405C160.878 175.691 159.781 175.834 158.524 175.834C157.261 175.834 156.158 175.691 155.214 175.405C154.27 175.118 153.544 174.708 153.036 174.174C152.528 173.64 152.274 173.009 152.274 172.28ZM152.567 180.249H154.442V183.823H164.716V185.327H152.567V180.249ZM154.188 172.28C154.188 172.709 154.361 173.077 154.706 173.383C155.051 173.683 155.549 173.914 156.2 174.077C156.858 174.233 157.632 174.311 158.524 174.311C159.416 174.311 160.188 174.233 160.839 174.077C161.49 173.914 161.988 173.683 162.333 173.383C162.684 173.077 162.86 172.709 162.86 172.28C162.86 171.87 162.684 171.515 162.333 171.215C161.988 170.909 161.486 170.675 160.829 170.512C160.178 170.349 159.41 170.268 158.524 170.268C157.632 170.268 156.861 170.349 156.21 170.512C155.559 170.675 155.057 170.909 154.706 171.215C154.361 171.515 154.188 171.87 154.188 172.28ZM178.666 171.108C178.666 171.902 178.813 172.661 179.106 173.383C179.399 174.106 179.848 174.754 180.454 175.327C181.059 175.893 181.817 176.329 182.729 176.635L181.381 178.588C180.463 178.25 179.672 177.768 179.008 177.143C178.351 176.518 177.83 175.782 177.446 174.936C177.055 175.893 176.508 176.72 175.805 177.417C175.102 178.107 174.246 178.634 173.237 178.999L171.889 177.045C172.846 176.733 173.64 176.274 174.272 175.668C174.91 175.063 175.379 174.37 175.678 173.588C175.984 172.801 176.14 171.967 176.147 171.088V169.155H178.666V171.108ZM175.151 179.819H177.67V183.53H187.358V185.522H175.151V179.819ZM181.166 171.85H184.506V168.081H186.987V181.206H184.506V173.862H181.166V171.85ZM191.843 173.647H194.265V169.643H196.57V181.616H189.499V169.643H191.843V173.647ZM194.265 179.624V175.6H191.843V179.624H194.265ZM198.054 168.315H200.417V174.838H202.019V168.061H204.402V185.834H202.019V176.87H200.417V185.014H198.054V168.315ZM216.829 172.084C216.822 173.172 216.975 174.226 217.288 175.249C217.6 176.264 218.072 177.176 218.704 177.983C219.335 178.79 220.11 179.415 221.028 179.858L219.524 181.85C218.6 181.388 217.809 180.743 217.151 179.917C216.494 179.083 215.976 178.113 215.598 177.006C215.195 178.198 214.645 179.239 213.948 180.131C213.251 181.017 212.415 181.7 211.438 182.182L209.895 180.17C210.865 179.728 211.682 179.086 212.346 178.247C213.011 177.4 213.505 176.446 213.831 175.385C214.163 174.318 214.329 173.217 214.329 172.084V169.428H216.829V172.084ZM221.809 168.061H224.309V174.917H226.927V177.026H224.309V185.834H221.809V168.061ZM242.33 181.499H239.83V180.092H236.431V178.393H239.83V168.081H242.33V181.499ZM227.212 175.952C229.446 175.939 231.49 175.9 233.345 175.834C235.201 175.763 236.959 175.626 238.619 175.424L238.755 177.202C237.401 177.43 235.969 177.599 234.459 177.709V181.088H231.959V183.53H242.72V185.522H229.478V180.209H231.959V177.856C230.722 177.902 229.237 177.924 227.505 177.924L227.212 175.952ZM228.521 171.87C228.521 171.245 228.71 170.691 229.087 170.209C229.465 169.728 229.992 169.353 230.67 169.086C231.347 168.819 232.121 168.686 232.994 168.686C233.847 168.686 234.608 168.819 235.279 169.086C235.949 169.353 236.474 169.728 236.851 170.209C237.235 170.691 237.427 171.245 237.427 171.87C237.427 172.495 237.235 173.045 236.851 173.52C236.474 173.995 235.949 174.36 235.279 174.614C234.608 174.868 233.847 174.995 232.994 174.995C232.115 174.995 231.337 174.868 230.66 174.614C229.989 174.36 229.465 173.995 229.087 173.52C228.71 173.045 228.521 172.495 228.521 171.87ZM230.884 171.87C230.878 172.293 231.067 172.622 231.451 172.856C231.841 173.084 232.369 173.198 233.033 173.198C233.632 173.198 234.117 173.081 234.488 172.846C234.865 172.612 235.058 172.286 235.064 171.87C235.058 171.44 234.862 171.105 234.478 170.864C234.101 170.623 233.606 170.502 232.994 170.502C232.349 170.502 231.835 170.623 231.451 170.864C231.067 171.105 230.878 171.44 230.884 171.87ZM253.241 177.905H245.057V169.741H253.241V177.905ZM251.424 176.44V171.245H246.873V176.44H251.424ZM247.03 179.78H248.885V183.823H258.866V185.327H247.03V179.78ZM256.268 168.178H258.123V173.413H260.663V174.975H258.123V181.01H256.268V168.178ZM279.926 170.092V170.59C279.926 171.261 279.9 171.918 279.848 172.563C279.802 173.201 279.704 173.888 279.555 174.624H281.957V176.108H265.941V174.624H277.689C277.852 173.829 277.96 173.103 278.012 172.446C278.064 171.788 278.09 171.114 278.09 170.424H267.953V168.94H279.926V170.092ZM267.816 177.67H279.945V182.26H269.691V184.038H280.395V185.522H267.836V180.834H278.109V179.155H267.816V177.67ZM290.895 168.491C292.21 168.491 293.333 168.605 294.264 168.833C295.195 169.06 295.908 169.402 296.403 169.858C296.898 170.307 297.145 170.854 297.145 171.499C297.145 172.15 296.898 172.703 296.403 173.159C295.908 173.608 295.195 173.95 294.264 174.184C293.333 174.412 292.21 174.526 290.895 174.526C289.58 174.526 288.454 174.412 287.516 174.184C286.585 173.95 285.873 173.608 285.378 173.159C284.889 172.703 284.645 172.15 284.645 171.499C284.645 170.854 284.889 170.307 285.378 169.858C285.873 169.402 286.585 169.06 287.516 168.833C288.454 168.605 289.58 168.491 290.895 168.491ZM282.927 175.6H298.884V177.084H282.927V175.6ZM284.841 178.432H296.872V182.534H286.677V184.096H297.36V185.522H284.86V181.186H295.036V179.819H284.841V178.432ZM286.579 171.499C286.572 172.039 286.94 172.449 287.682 172.729C288.425 173.002 289.496 173.139 290.895 173.139C292.308 173.139 293.386 173.002 294.128 172.729C294.87 172.449 295.238 172.039 295.231 171.499C295.238 170.978 294.863 170.574 294.108 170.288C293.36 170.001 292.289 169.858 290.895 169.858C289.509 169.858 288.441 170.001 287.692 170.288C286.943 170.574 286.572 170.978 286.579 171.499ZM310.608 171.342C310.601 172.091 310.764 172.81 311.096 173.5C311.435 174.191 311.923 174.806 312.561 175.346C313.199 175.887 313.954 176.303 314.827 176.596L313.889 178.042C312.913 177.703 312.063 177.208 311.34 176.557C310.624 175.906 310.074 175.144 309.69 174.272C309.306 175.222 308.739 176.056 307.991 176.772C307.248 177.482 306.37 178.015 305.354 178.374L304.358 176.928C305.25 176.622 306.028 176.183 306.692 175.61C307.356 175.037 307.864 174.383 308.215 173.647C308.567 172.905 308.746 172.13 308.752 171.323V170.854H304.905V169.35H314.377V170.854H310.608V171.342ZM306.682 179.604H318.245V185.698H316.389V181.108H306.682V179.604ZM316.389 168.198H318.245V172.69H320.784V174.252H318.245V178.745H316.389V168.198ZM327.691 170.815C327.691 171.629 327.86 172.403 328.198 173.139C328.537 173.868 329.025 174.51 329.663 175.063C330.301 175.616 331.056 176.036 331.929 176.323L330.913 177.768C329.956 177.417 329.129 176.915 328.433 176.264C327.736 175.613 327.196 174.845 326.812 173.959C326.428 174.975 325.861 175.857 325.112 176.606C324.364 177.355 323.465 177.918 322.417 178.295L321.421 176.811C322.339 176.499 323.13 176.046 323.794 175.454C324.458 174.855 324.966 174.165 325.318 173.383C325.669 172.602 325.848 171.772 325.855 170.893V169.174H327.691V170.815ZM324.292 182.358C324.292 181.655 324.527 181.053 324.995 180.551C325.471 180.05 326.151 179.669 327.036 179.409C327.928 179.148 328.986 179.018 330.21 179.018C331.428 179.018 332.479 179.148 333.364 179.409C334.25 179.669 334.93 180.05 335.405 180.551C335.887 181.053 336.128 181.655 336.128 182.358C336.128 183.055 335.887 183.65 335.405 184.145C334.93 184.64 334.25 185.014 333.364 185.268C332.479 185.528 331.428 185.659 330.21 185.659C328.986 185.659 327.928 185.528 327.036 185.268C326.151 185.014 325.471 184.64 324.995 184.145C324.527 183.65 324.292 183.055 324.292 182.358ZM326.128 182.358C326.128 182.742 326.284 183.071 326.597 183.344C326.916 183.618 327.378 183.829 327.984 183.979C328.589 184.122 329.312 184.194 330.152 184.194C331.454 184.194 332.466 184.034 333.189 183.715C333.918 183.396 334.286 182.944 334.292 182.358C334.286 181.759 333.921 181.293 333.198 180.961C332.482 180.629 331.486 180.463 330.21 180.463C328.921 180.463 327.915 180.629 327.193 180.961C326.476 181.293 326.122 181.759 326.128 182.358ZM330.523 171.752H334.214V168.198H336.07V178.53H334.214V173.276H330.523V171.752ZM352.215 172.241H354.773V173.764H352.215V177.768H350.359V168.139H352.215V172.241ZM338.484 169.682H342.781V168.042H344.637V169.682H348.914V171.147H338.484V169.682ZM339.441 174.682C339.441 174.103 339.614 173.598 339.959 173.168C340.311 172.732 340.809 172.397 341.453 172.163C342.098 171.928 342.846 171.811 343.699 171.811C344.552 171.811 345.298 171.928 345.936 172.163C346.574 172.397 347.065 172.729 347.41 173.159C347.762 173.588 347.938 174.096 347.938 174.682C347.938 175.268 347.762 175.776 347.41 176.206C347.065 176.635 346.574 176.964 345.936 177.192C345.298 177.42 344.552 177.534 343.699 177.534C342.846 177.534 342.098 177.42 341.453 177.192C340.809 176.964 340.311 176.635 339.959 176.206C339.614 175.776 339.441 175.268 339.441 174.682ZM340.906 178.588H352.215V182.651H342.762V184.116H352.82V185.522H340.945V181.342H350.379V179.975H340.906V178.588ZM341.238 174.682C341.232 175.151 341.45 175.519 341.893 175.786C342.335 176.053 342.938 176.186 343.699 176.186C344.454 176.186 345.057 176.053 345.506 175.786C345.962 175.519 346.193 175.151 346.199 174.682C346.193 174.213 345.962 173.842 345.506 173.569C345.057 173.289 344.454 173.146 343.699 173.139C342.938 173.146 342.335 173.289 341.893 173.569C341.45 173.842 341.232 174.213 341.238 174.682ZM368.998 169.741C368.998 170.502 369.278 171.235 369.837 171.938C370.404 172.641 371.166 173.24 372.123 173.735C373.086 174.23 374.134 174.552 375.267 174.702L374.545 176.225C373.594 176.075 372.692 175.815 371.839 175.444C370.987 175.073 370.231 174.614 369.574 174.067C368.923 173.514 368.408 172.898 368.031 172.221C367.653 172.898 367.136 173.514 366.478 174.067C365.827 174.614 365.078 175.073 364.232 175.444C363.386 175.808 362.487 176.069 361.537 176.225L360.795 174.702C361.927 174.552 362.972 174.233 363.929 173.745C364.886 173.256 365.648 172.661 366.214 171.958C366.781 171.248 367.064 170.509 367.064 169.741V168.784H368.998V169.741ZM360.033 177.944H375.99V179.467H368.88V185.698H367.064V179.467H360.033V177.944ZM387.675 179.76C387.675 180.548 387.874 181.306 388.271 182.036C388.668 182.758 389.247 183.347 390.009 183.803C390.523 183.471 390.959 183.077 391.318 182.622C391.682 182.166 391.952 181.691 392.128 181.196C392.31 180.701 392.402 180.222 392.402 179.76V178.92H394.218V179.76C394.211 180.372 394.342 180.965 394.609 181.538C394.876 182.104 395.269 182.609 395.79 183.051C396.318 183.494 396.952 183.836 397.695 184.077L396.777 185.444C395.93 185.151 395.211 184.728 394.618 184.174C394.026 183.627 393.573 182.986 393.261 182.25C392.968 182.993 392.551 183.657 392.011 184.243C391.477 184.829 390.826 185.281 390.058 185.6C389.251 185.294 388.57 184.855 388.017 184.282C387.47 183.709 387.056 183.048 386.777 182.299C386.451 183.009 385.995 183.637 385.409 184.184C384.83 184.731 384.14 185.151 383.339 185.444L382.402 184.077C383.124 183.816 383.746 183.458 384.267 183.002C384.794 182.54 385.191 182.029 385.458 181.469C385.732 180.903 385.872 180.333 385.878 179.76V178.92H387.675V179.76ZM381.952 173.315C381.952 172.514 382.154 171.801 382.558 171.176C382.961 170.545 383.518 170.053 384.228 169.702C384.937 169.35 385.735 169.174 386.62 169.174C387.506 169.174 388.3 169.35 389.003 169.702C389.713 170.053 390.266 170.545 390.663 171.176C391.067 171.801 391.269 172.514 391.269 173.315C391.269 174.109 391.067 174.819 390.663 175.444C390.266 176.062 389.713 176.547 389.003 176.899C388.3 177.244 387.506 177.417 386.62 177.417C385.735 177.417 384.937 177.244 384.228 176.899C383.518 176.547 382.961 176.062 382.558 175.444C382.154 174.819 381.952 174.109 381.952 173.315ZM383.769 173.315C383.769 173.816 383.889 174.262 384.13 174.653C384.371 175.037 384.709 175.336 385.146 175.551C385.582 175.766 386.073 175.874 386.62 175.874C387.161 175.874 387.646 175.766 388.075 175.551C388.505 175.336 388.84 175.037 389.081 174.653C389.329 174.262 389.452 173.816 389.452 173.315C389.452 172.814 389.329 172.368 389.081 171.977C388.84 171.586 388.505 171.287 388.075 171.079C387.646 170.864 387.161 170.756 386.62 170.756C386.073 170.756 385.582 170.864 385.146 171.079C384.709 171.287 384.371 171.586 384.13 171.977C383.889 172.368 383.769 172.814 383.769 173.315ZM394.257 168.217H396.112V178.178H394.257V168.217ZM403.332 169.506C404.12 169.506 404.829 169.721 405.461 170.151C406.092 170.581 406.604 171.189 406.994 171.977C407.391 172.765 407.635 173.693 407.727 174.76H411.34V168.198H413.176V185.737H411.34V176.264H407.746C407.681 177.39 407.453 178.37 407.062 179.204C406.672 180.037 406.154 180.678 405.51 181.127C404.865 181.57 404.139 181.792 403.332 181.792C402.466 181.792 401.695 181.541 401.018 181.04C400.347 180.538 399.823 179.822 399.445 178.891C399.074 177.96 398.892 176.876 398.898 175.639C398.892 174.415 399.074 173.341 399.445 172.417C399.823 171.486 400.347 170.769 401.018 170.268C401.695 169.76 402.466 169.506 403.332 169.506ZM400.656 175.639C400.656 176.551 400.767 177.345 400.988 178.022C401.216 178.699 401.532 179.22 401.936 179.584C402.339 179.949 402.805 180.131 403.332 180.131C403.859 180.131 404.325 179.949 404.729 179.584C405.132 179.22 405.445 178.699 405.666 178.022C405.894 177.345 406.008 176.551 406.008 175.639C406.008 174.741 405.894 173.956 405.666 173.286C405.438 172.609 405.122 172.088 404.719 171.723C404.322 171.352 403.859 171.167 403.332 171.167C402.805 171.167 402.339 171.352 401.936 171.723C401.538 172.088 401.226 172.609 400.998 173.286C400.77 173.956 400.656 174.741 400.656 175.639ZM431.587 183.51H415.571V181.967H419.399V177.397C418.664 176.993 418.094 176.482 417.69 175.864C417.287 175.245 417.088 174.552 417.095 173.784C417.095 172.879 417.368 172.081 417.915 171.391C418.462 170.701 419.223 170.167 420.2 169.79C421.183 169.405 422.296 169.213 423.54 169.213C424.783 169.213 425.897 169.405 426.88 169.79C427.863 170.167 428.628 170.701 429.175 171.391C429.728 172.081 430.005 172.879 430.005 173.784C430.005 174.545 429.809 175.232 429.419 175.844C429.028 176.45 428.475 176.954 427.759 177.358V181.967H431.587V183.51ZM418.891 173.784C418.891 174.402 419.087 174.946 419.477 175.415C419.868 175.883 420.415 176.248 421.118 176.508C421.821 176.762 422.628 176.889 423.54 176.889C424.445 176.889 425.249 176.759 425.952 176.499C426.662 176.238 427.215 175.877 427.612 175.415C428.009 174.946 428.208 174.402 428.208 173.784C428.208 173.165 428.009 172.625 427.612 172.163C427.215 171.694 426.662 171.333 425.952 171.079C425.249 170.825 424.445 170.698 423.54 170.698C422.628 170.698 421.821 170.825 421.118 171.079C420.415 171.333 419.868 171.694 419.477 172.163C419.087 172.625 418.891 173.165 418.891 173.784ZM425.884 181.967V178.081C425.154 178.25 424.373 178.334 423.54 178.334C422.72 178.334 421.951 178.25 421.235 178.081V181.967H425.884ZM435.603 179.956H433.67L433.494 169.897H435.779L435.603 179.956ZM433.259 182.807C433.259 182.553 433.321 182.319 433.445 182.104C433.569 181.889 433.735 181.72 433.943 181.596C434.158 181.466 434.392 181.401 434.646 181.401C434.893 181.401 435.121 181.463 435.33 181.586C435.545 181.71 435.714 181.879 435.837 182.094C435.968 182.309 436.033 182.54 436.033 182.788C436.033 183.035 435.968 183.266 435.837 183.481C435.714 183.689 435.545 183.859 435.33 183.989C435.121 184.112 434.893 184.174 434.646 184.174C434.399 184.174 434.168 184.112 433.953 183.989C433.744 183.865 433.575 183.699 433.445 183.491C433.321 183.282 433.259 183.055 433.259 182.807Z" fill="white"/>
<path d="M1024.13 90.6616H915.385C911.775 90.6616 908.848 93.4003 908.848 96.7787V176.024H1030.66V96.7787C1030.66 93.4003 1027.74 90.6616 1024.13 90.6616Z" fill="#466CE8"/>
<path d="M1030.09 191.038H910.098C904.402 191.038 899.785 186.437 899.785 180.761V176.024H1040.4V180.761C1040.4 186.437 1035.79 191.038 1030.09 191.038Z" fill="#3754B5" fill-opacity="0.7"/>
<path d="M1022.62 98.6694H916.879V168.018H1022.62V98.6694Z" fill="#2A418C" fill-opacity="0.8"/>
<path d="M1022.63 98.6685V168.017H976.262L958.15 98.6685H1022.63Z" fill="#3754B5"/>
<path d="M979.853 183.531H960.337C957.287 183.531 954.814 181.067 954.814 178.028V176.024H985.376V178.028C985.376 181.067 982.903 183.531 979.853 183.531Z" fill="#304A9E"/>
<g filter="url(#filter0_d_838_7931)">
<path d="M902.947 60.0376C923.654 60.0376 940.44 76.665 940.44 97.1776C940.44 103.99 938.589 110.375 935.357 115.862L941.177 131.755C942.083 134.226 939.692 136.636 937.181 135.782L920.375 130.072C915.168 132.782 909.238 134.318 902.947 134.318C882.239 134.318 865.453 117.69 865.453 97.1776C865.453 76.6651 882.239 60.0376 902.947 60.0376Z" fill="white"/>
<path d="M868.577 82.3171C870.229 104.94 889.102 122.783 912.147 122.783C920.707 122.783 928.691 120.319 935.432 116.065L941.177 131.755C942.083 134.226 939.692 136.636 937.181 135.782L920.375 130.071C915.168 132.782 909.238 134.318 902.947 134.318C882.239 134.318 865.453 117.69 865.453 97.1775C865.453 91.8932 866.569 86.8679 868.577 82.3171Z" fill="#EDF1FF"/>
</g>
<path d="M903.416 74.2661C904.096 74.2661 904.646 73.7153 904.646 73.036L904.646 68.9152C904.646 68.2358 904.096 67.6851 903.416 67.6851C902.737 67.6851 902.186 68.2358 902.186 68.9152L902.186 73.0361C902.186 73.7154 902.737 74.2661 903.416 74.2661Z" fill="#FFC250"/>
<path d="M913.698 77.0049C914.123 77.0049 914.537 76.7844 914.765 76.3897L916.825 72.8209C917.165 72.2325 916.963 71.4802 916.375 71.1406C915.787 70.801 915.034 71.0024 914.695 71.5908L912.634 75.1596C912.294 75.7479 912.496 76.5003 913.084 76.8399C913.278 76.9518 913.49 77.0049 913.698 77.0049Z" fill="#FFC250"/>
<path d="M920.104 83.2982C920.498 83.4586 920.964 83.4103 921.324 83.1307L924.579 80.603C925.115 80.1863 925.212 79.4135 924.796 78.877C924.379 78.3405 923.606 78.2433 923.07 78.66L919.815 81.1878C919.279 81.6045 919.181 82.3773 919.598 82.9138C919.735 83.0905 919.911 83.2195 920.104 83.2982Z" fill="#FFC250"/>
<path d="M886.089 83.2982C885.695 83.4586 885.229 83.4103 884.869 83.1307L881.615 80.603C881.078 80.1863 880.981 79.4135 881.398 78.877C881.814 78.3405 882.587 78.2433 883.124 78.66L886.378 81.1878C886.915 81.6045 887.012 82.3773 886.595 82.9138C886.458 83.0905 886.282 83.2195 886.089 83.2982Z" fill="#FFC250"/>
<path d="M893.136 77.005C893.345 77.005 893.556 76.9518 893.75 76.84C894.338 76.5003 894.54 75.748 894.2 75.1597L892.14 71.5909C891.8 71.0025 891.048 70.8009 890.459 71.1406C889.871 71.4803 889.669 72.2326 890.009 72.8209L892.07 76.3898C892.297 76.7844 892.711 77.005 893.136 77.005Z" fill="#FFC250"/>
<path d="M903.418 127.516C901.615 127.516 900.154 126.055 900.154 124.252V123.108H906.681V124.252C906.681 126.055 905.22 127.516 903.418 127.516Z" fill="#6D7882"/>
<path d="M906.684 123.732H900.141C899.318 123.732 898.65 123.065 898.65 122.241V113.776H908.175V122.241C908.175 123.065 907.507 123.732 906.684 123.732Z" fill="#CDD1D5"/>
<path d="M903.829 113.776V117.849C903.829 119.898 902.168 121.56 900.119 121.56H898.65V122.241C898.65 123.065 899.318 123.732 900.141 123.732H906.684C907.507 123.732 908.175 123.065 908.175 122.241V113.776H903.829V113.776Z" fill="#B1B8BE"/>
<path d="M908.414 118.466H898.412C897.962 118.466 897.598 118.101 897.598 117.651C897.598 117.201 897.962 116.836 898.412 116.836H908.414C908.864 116.836 909.228 117.201 909.228 117.651C909.228 118.101 908.864 118.466 908.414 118.466Z" fill="#E6E8EA"/>
<path d="M908.414 121.254H898.412C897.962 121.254 897.598 120.889 897.598 120.439C897.598 119.989 897.962 119.625 898.412 119.625H908.414C908.864 119.625 909.228 119.989 909.228 120.439C909.228 120.889 908.864 121.254 908.414 121.254Z" fill="#E6E8EA"/>
<path d="M918.474 94.0153C918.474 85.6984 911.731 78.9563 903.414 78.9563C895.098 78.9563 888.355 85.6984 888.355 94.0153C888.355 98.3436 890.182 102.097 893.105 105.217C895.17 107.42 896.451 110.224 896.801 113.196C896.912 114.142 897.7 114.862 898.652 114.862H908.177C909.129 114.862 909.917 114.142 910.028 113.196C910.378 110.224 911.658 107.42 913.723 105.217C916.647 102.097 918.474 98.3437 918.474 94.0153Z" fill="#FFE07D"/>
<path d="M907.88 79.6296C911.664 82.365 914.127 86.8162 914.127 91.8425C914.127 96.1708 912.301 99.924 909.377 103.044C908.084 104.423 907.099 106.038 906.457 107.782C905.366 110.746 902.509 112.69 899.351 112.69H896.73C896.756 112.858 896.78 113.027 896.799 113.196C896.911 114.142 897.699 114.862 898.651 114.862H908.175C909.128 114.862 909.915 114.142 910.027 113.196C910.377 110.224 911.657 107.42 913.722 105.216C916.646 102.097 918.472 98.3436 918.472 94.0152C918.472 87.2535 914.016 81.5328 907.88 79.6296Z" fill="#FFD064"/>
<path d="M891.692 90.9722C891.608 90.9722 891.521 90.9589 891.437 90.931C891.009 90.79 890.777 90.3294 890.918 89.902C892.306 85.6946 895.684 82.4864 899.953 81.32C900.387 81.2015 900.836 81.4572 900.954 81.8912C901.073 82.3254 900.817 82.7734 900.383 82.8919C896.641 83.9139 893.682 86.7253 892.466 90.4124C892.353 90.755 892.034 90.9722 891.692 90.9722Z" fill="#FFF3BF"/>
<defs>
<filter id="filter0_d_838_7931" x="833.453" y="28.0376" width="139.92" height="139.92" filterUnits="userSpaceOnUse" color-interpolation-filters="sRGB">
<feFlood flood-opacity="0" result="BackgroundImageFix"/>
<feColorMatrix in="SourceAlpha" type="matrix" values="0 0 0 0 0 0 0 0 0 0 0 0 0 0 0 0 0 0 127 0" result="hardAlpha"/>
<feMorphology radius="16" operator="dilate" in="SourceAlpha" result="effect1_dropShadow_838_7931"/>
<feOffset/>
<feGaussianBlur stdDeviation="8"/>
<feComposite in2="hardAlpha" operator="out"/>
<feColorMatrix type="matrix" values="0 0 0 0 0 0 0 0 0 0 0 0 0 0 0 0 0 0 0.08 0"/>
<feBlend mode="normal" in2="BackgroundImageFix" result="effect1_dropShadow_838_7931"/>
<feBlend mode="normal" in="SourceGraphic" in2="effect1_dropShadow_838_7931" result="shape"/>
</filter>
<linearGradient id="paint0_linear_838_7931" x1="0.402344" y1="0.0375977" x2="1097.35" y2="263.741" gradientUnits="userSpaceOnUse">
<stop stop-color="#7192FF"/>
<stop offset="1" stop-color="#4D77FF"/>
</linearGradient>
</defs>
</svg>
