<svg width="1441" height="130" viewBox="0 0 1441 130" fill="none" xmlns="http://www.w3.org/2000/svg">
<circle opacity="0.28" cx="45.662" cy="65.0335" r="63.3788" fill="#C8D5FF" stroke="url(#paint0_linear_862_4682)" stroke-width="3"/>
<path d="M73.4891 40.7844H68.877V54.5536L78.1013 49.9638V45.3741C78.1013 42.8392 76.0365 40.7844 73.4891 40.7844Z" fill="#3754B5"/>
<path d="M68.8752 40.7845H51.4258L48.8399 38.2112C47.5425 36.9201 45.7828 36.1947 43.9479 36.1947H29.3641C26.8168 36.1947 24.752 38.2496 24.752 40.7845V54.5536H73.4874V45.3742C73.4874 42.8393 71.4226 40.7845 68.8752 40.7845Z" fill="#466CE8"/>
<path d="M29.3652 46.5216V54.5536H62.4577V45.3741H30.5183C29.8815 45.3741 29.3652 45.8879 29.3652 46.5216Z" fill="white"/>
<path d="M73.4891 45.3741L68.877 80.103H73.4891C76.0365 80.103 78.1013 78.0482 78.1013 75.5133V49.9639C78.1013 47.429 76.0365 45.3741 73.4891 45.3741Z" fill="#466CE8"/>
<path d="M29.3641 49.9639C26.8168 49.9639 24.752 52.0187 24.752 54.5536V75.5133C24.752 78.0482 26.8168 80.103 29.3641 80.103H68.8752C71.4226 80.103 73.4874 78.0482 73.4874 75.5133V45.3741H62.4566C60.6217 45.3741 58.862 46.0995 57.5646 47.3906L54.9787 49.9639H29.3641Z" fill="#4D77FF"/>
<path d="M61.9579 54.5536H57.3457V68.3228L66.5701 63.7331V59.1434C66.5701 56.6085 64.5052 54.5536 61.9579 54.5536Z" fill="#4D77FF"/>
<path d="M57.344 54.5536H39.8945L37.3086 51.9803C36.0112 50.6892 34.2515 49.9639 32.4166 49.9639H17.8329C15.2856 49.9639 13.2207 52.0187 13.2207 54.5536V68.3228H61.9562V59.1433C61.9562 56.6084 59.8913 54.5536 57.344 54.5536Z" fill="#7192FF"/>
<path d="M17.834 60.2908V68.3228H39.8956V59.1434H18.987C18.3502 59.1434 17.834 59.6571 17.834 60.2908Z" fill="white"/>
<path d="M61.9579 59.1434L57.3457 93.8723H61.9579C64.5052 93.8723 66.5701 91.8175 66.5701 89.2826V63.7331C66.5701 61.1982 64.5052 59.1434 61.9579 59.1434Z" fill="#7192FF"/>
<path d="M61.9562 89.2826V59.1434H39.8945C38.0597 59.1434 36.3 59.8687 35.0025 61.1598L32.4166 63.7331H17.8329C15.2856 63.7331 13.2207 65.7879 13.2207 68.3228V89.2826C13.2207 91.8175 15.2856 93.8723 17.8329 93.8723H57.344C59.8913 93.8723 61.9562 91.8175 61.9562 89.2826Z" fill="#88A4FF"/>
<circle opacity="0.28" cx="214.346" cy="65.0335" r="63.3788" fill="#C8D5FF" stroke="url(#paint1_linear_862_4682)" stroke-width="3"/>
<path d="M221.138 27.5417H216.611V34.331L221.138 32.0679C222.387 32.0679 223.401 31.0546 223.401 29.8048C223.401 28.555 222.387 27.5417 221.138 27.5417Z" fill="#CDD1D5"/>
<path d="M216.61 27.5417H207.558C206.308 27.5417 205.295 28.555 205.295 29.8048C205.295 31.0546 206.308 32.0679 207.558 32.0679L216.61 34.331V32.0679C217.86 32.0679 218.874 31.0546 218.874 29.8048C218.874 28.555 217.86 27.5417 216.61 27.5417Z" fill="#E6E8EA"/>
<path d="M212.084 34.3309V102.525H216.61C217.86 102.525 218.873 101.512 218.873 100.262V34.3309H212.084Z" fill="#6D7882"/>
<path d="M209.82 32.0679V100.262C209.82 101.512 210.834 102.525 212.083 102.525C213.333 102.525 214.347 101.512 214.347 100.262V80.7243L216.61 75.0665L214.347 69.4088V62.6196L212.083 56.9619L214.347 51.3042V43.3834L216.61 38.8572L215.478 32.0679H209.82Z" fill="#8A949E"/>
<path d="M251.176 37.2571L246.65 32.7309C246.225 32.3063 245.65 32.068 245.05 32.068H238.648V45.6465H245.05C245.65 45.6465 246.225 45.4081 246.65 44.9837L251.176 40.4575C252.06 39.5737 252.06 38.1407 251.176 37.2571Z" fill="#4D77FF"/>
<path d="M238.647 32.068H215.477C214.852 32.068 214.346 32.5746 214.346 33.1995V44.5149C214.346 45.1398 214.852 45.6465 215.477 45.6465H238.647C239.248 45.6465 239.823 45.4081 240.248 44.9837L246.374 38.8572L240.248 32.7307C239.823 32.3063 239.248 32.068 238.647 32.068Z" fill="#7192FF"/>
<path d="M213.216 50.1726H208.69L207.559 56.9619L208.69 63.7511H213.216C213.841 63.7511 214.348 63.2445 214.348 62.6196V51.3042C214.348 50.6793 213.841 50.1726 213.216 50.1726Z" fill="#3754B5"/>
<path d="M183.643 50.1726C183.043 50.1726 182.467 50.411 182.043 50.8354L177.516 55.3616C176.633 56.2454 176.633 57.6782 177.516 58.562L182.043 63.0882C182.467 63.5128 183.043 63.7511 183.643 63.7511H208.688C209.313 63.7511 209.82 63.2445 209.82 62.6196V51.3042C209.82 50.6793 209.313 50.1726 208.688 50.1726H183.643Z" fill="#466CE8"/>
<path d="M251.176 73.4663L246.65 68.9402C246.225 68.5156 245.65 68.2772 245.05 68.2772H238.648V81.8557H245.05C245.65 81.8557 246.225 81.6174 246.65 81.1929L251.176 76.6668C252.06 75.783 252.06 74.35 251.176 73.4663Z" fill="#88A4FF"/>
<path d="M238.647 68.2772H215.477C214.852 68.2772 214.346 68.7839 214.346 69.4088V80.7242C214.346 81.3491 214.852 81.8557 215.477 81.8557H238.647C239.248 81.8557 239.823 81.6174 240.248 81.1929L246.374 75.0665L240.248 68.94C239.823 68.5156 239.248 68.2772 238.647 68.2772Z" fill="#ADC0FF"/>
<circle opacity="0.28" cx="383.031" cy="65.0335" r="63.3788" fill="#C8D5FF" stroke="url(#paint2_linear_862_4682)" stroke-width="3"/>
<path d="M390.92 102.227H395.428C397.918 102.227 399.936 100.208 399.936 97.7185V93.2104H390.92V102.227Z" fill="#ADC0FF"/>
<path d="M395.428 97.7185V93.2104H359.363V97.7185C359.363 100.208 361.382 102.227 363.871 102.227H390.92C393.41 102.227 395.428 100.208 395.428 97.7185Z" fill="#C8D5FF"/>
<path d="M390.92 88.7022L395.428 97.7185C397.918 97.7185 399.936 95.7002 399.936 93.2104V88.7022H390.92Z" fill="#7192FF"/>
<path d="M359.363 88.7022V93.2104C359.363 95.7002 361.382 97.7185 363.871 97.7185H395.428V88.7022H359.363Z" fill="#ADC0FF"/>
<path d="M395.429 33.3272L381.904 63.2688L395.429 93.2104C397.919 93.2104 399.937 91.1921 399.937 88.7022V34.4542C399.937 33.8318 399.432 33.3272 398.81 33.3272H395.429Z" fill="#3754B5"/>
<path d="M363.871 93.2104H395.428V41.3667L393.174 33.3272H360.49C359.868 33.3272 359.363 33.8318 359.363 34.4542V88.7022C359.363 91.1921 361.382 93.2104 363.871 93.2104Z" fill="#466CE8"/>
<path d="M390.92 36.8586V41.3667C390.92 42.6115 391.929 43.6208 393.174 43.6208C394.419 43.6208 395.428 42.6115 395.428 41.3667V36.8586H390.92Z" fill="#2A418C"/>
<path d="M390.92 29.7958V36.8586C390.92 38.1034 391.929 39.1126 393.174 39.1126C394.419 39.1126 395.428 38.1034 395.428 36.8586V29.7958C395.428 28.5509 394.419 27.5417 393.174 27.5417C391.929 27.5417 390.92 28.5509 390.92 29.7958Z" fill="#B1B8BE"/>
<path d="M381.904 36.8586V41.3667C381.904 42.6115 382.914 43.6208 384.158 43.6208C385.403 43.6208 386.412 42.6115 386.412 41.3667V36.8586H381.904Z" fill="#2A418C"/>
<path d="M381.904 29.7958V36.8586C381.904 38.1034 382.914 39.1126 384.158 39.1126C385.403 39.1126 386.412 38.1034 386.412 36.8586V29.7958C386.412 28.5509 385.403 27.5417 384.158 27.5417C382.914 27.5417 381.904 28.5509 381.904 29.7958Z" fill="#B1B8BE"/>
<path d="M363.871 36.8586V41.3667C363.871 42.6115 364.88 43.6208 366.125 43.6208C367.37 43.6208 368.379 42.6115 368.379 41.3667V36.8586H363.871Z" fill="#2A418C"/>
<path d="M372.889 36.8586V41.3667C372.889 42.6115 373.898 43.6208 375.143 43.6208C376.388 43.6208 377.397 42.6115 377.397 41.3667V36.8586H372.889Z" fill="#2A418C"/>
<path d="M372.889 29.7958V36.8586C372.889 38.1034 373.898 39.1126 375.143 39.1126C376.388 39.1126 377.397 38.1034 377.397 36.8586V29.7958C377.397 28.5509 376.388 27.5417 375.143 27.5417C373.898 27.5417 372.889 28.5509 372.889 29.7958Z" fill="#B1B8BE"/>
<path d="M363.871 29.7958V36.8586C363.871 38.1034 364.88 39.1126 366.125 39.1126C367.37 39.1126 368.379 38.1034 368.379 36.8586V29.7958C368.379 28.5509 367.37 27.5417 366.125 27.5417C364.88 27.5417 363.871 28.5509 363.871 29.7958Z" fill="#B1B8BE"/>
<path d="M408.953 50.5333L411.207 61.8036C411.207 63.7684 412.464 65.4397 414.218 66.0571C414.949 66.3145 415.715 65.7669 415.715 64.9915V60.4833L408.953 50.5333Z" fill="#6D7882"/>
<path d="M411.207 38.9623L406.699 57.2955H411.207C411.207 59.2603 412.464 60.9316 414.218 61.5489C414.949 61.8063 415.716 61.2587 415.716 60.4833V43.4705C415.716 40.9806 413.697 38.9623 411.207 38.9623Z" fill="#B1B8BE"/>
<path d="M410.08 33.3272H405.572C404.95 33.3272 404.445 33.8318 404.445 34.4542V38.9624L407.826 40.0894L411.208 38.9624V34.4542C411.208 33.8318 410.703 33.3272 410.08 33.3272Z" fill="#E6E8EA"/>
<path d="M405.572 102.227H410.08C410.703 102.227 411.208 101.722 411.208 101.1V96.5163L407.826 95.3893L404.445 96.5163V101.1C404.445 101.722 404.95 102.227 405.572 102.227Z" fill="#34363D"/>
<path d="M407.826 59.5495L404.445 60.6766V96.5163C404.445 97.1387 404.95 97.6434 405.572 97.6434H410.08C410.703 97.6434 411.208 97.1387 411.208 96.5163V60.6766L407.826 59.5495Z" fill="#464C53"/>
<path d="M404.445 38.9624V60.6766C404.445 61.299 404.95 61.8036 405.572 61.8036H410.08C410.703 61.8036 411.208 61.299 411.208 60.6766V38.9624C411.208 38.3399 410.703 37.8353 410.08 37.8353H405.572C404.95 37.8353 404.445 38.3399 404.445 38.9624Z" fill="#34363D"/>
<path d="M371.021 81.5532L352.988 63.5206H371.021V81.5532Z" fill="#ADC0FF"/>
<path d="M380.778 48.1289L377.396 66.1615L380.778 84.1941H385.286C385.908 84.1941 386.413 83.6895 386.413 83.067V49.2559C386.413 48.6335 385.908 48.1289 385.286 48.1289H380.778Z" fill="#C8D5FF"/>
<path d="M350.348 49.2559V57.1452C350.348 62.1247 354.384 66.1615 359.364 66.1615H367.253C367.876 66.1615 368.38 66.6661 368.38 67.2885V75.1778C368.38 80.1573 372.417 84.1941 377.397 84.1941H380.778C381.4 84.1941 381.905 83.6895 381.905 83.067V48.1289H351.475C350.852 48.1289 350.348 48.6335 350.348 49.2559Z" fill="white"/>
<circle opacity="0.28" cx="551.715" cy="65.0335" r="63.3788" fill="#C8D5FF" stroke="url(#paint3_linear_862_4682)" stroke-width="3"/>
<path d="M585.263 93.0039H518.166C517.401 93.0039 516.781 92.3838 516.781 91.619V43.1036C516.781 42.3387 517.401 41.7186 518.166 41.7186H585.263C586.028 41.7186 586.648 42.3387 586.648 43.1036V91.619C586.648 92.3838 586.028 93.0039 585.263 93.0039Z" fill="#F3F5F3"/>
<path d="M585.261 41.7186H563.557V93.0039H585.261C586.026 93.0039 586.646 92.3838 586.646 91.619V43.1036C586.646 42.3387 586.026 41.7186 585.261 41.7186Z" fill="#E7E7E7"/>
<path d="M516.781 53.8041V91.6191C516.781 92.384 517.401 93.0041 518.166 93.0041H585.263C586.028 93.0041 586.648 92.384 586.648 91.6191V53.8041L551.855 51.548L516.781 53.8041Z" fill="white"/>
<path d="M563.619 51.1439V93.0041H585.265C586.03 93.0041 586.65 92.384 586.65 91.6191V51.1439H563.619Z" fill="#C8D5FF"/>
<path d="M585.262 41.7186H581.045C581.81 41.7186 582.43 42.3387 582.43 43.1036V91.619C582.43 92.3838 581.81 93.0039 581.045 93.0039H585.262C586.027 93.0039 586.647 92.3838 586.647 91.619V43.1036C586.647 42.3387 586.027 41.7186 585.262 41.7186Z" fill="#ADC0FF"/>
<path d="M586.648 53.8041V43.1037C586.648 42.3388 586.028 41.7188 585.263 41.7188H518.166C517.401 41.7188 516.781 42.3388 516.781 43.1037V53.8041H586.648Z" fill="#4D77FF"/>
<path d="M585.262 41.7186H581.045C581.81 41.7186 582.43 42.3387 582.43 43.1036V53.8039H586.647V43.1036C586.647 42.3387 586.027 41.7186 585.262 41.7186Z" fill="#466CE8"/>
<path d="M533.706 43.9751H529.529C529.109 43.9751 528.77 43.635 528.77 43.2157V39.9107C528.77 38.3378 530.045 37.0628 531.617 37.0628C533.19 37.0628 534.465 38.3378 534.465 39.9107V43.2157C534.465 43.6352 534.125 43.9751 533.706 43.9751Z" fill="#B1B8BE"/>
<path d="M574.763 43.9751H570.586C570.166 43.9751 569.826 43.635 569.826 43.2157V39.9107C569.826 38.3378 571.101 37.0628 572.674 37.0628C574.247 37.0628 575.522 38.3378 575.522 39.9107V43.2157C575.522 43.6352 575.182 43.9751 574.763 43.9751Z" fill="#B1B8BE"/>
<path d="M526.22 66.8697C527.718 66.2487 528.429 64.5307 527.808 63.0325C527.187 61.5342 525.469 60.8231 523.971 61.4441C522.472 62.0652 521.761 63.7832 522.382 65.2814C523.003 66.7796 524.721 67.4908 526.22 66.8697Z" fill="#D5D5D7"/>
<path d="M536.3 66.8666C537.798 66.2455 538.509 64.5275 537.888 63.0293C537.267 61.5311 535.549 60.8199 534.051 61.441C532.552 62.062 531.841 63.78 532.462 65.2782C533.083 66.7765 534.801 67.4876 536.3 66.8666Z" fill="#B1B8BE"/>
<path d="M548.092 64.8469C548.465 63.2692 547.488 61.6879 545.91 61.315C544.333 60.9421 542.751 61.9187 542.378 63.4964C542.005 65.0741 542.982 66.6554 544.56 67.0283C546.137 67.4013 547.719 66.4246 548.092 64.8469Z" fill="#4D77FF"/>
<path d="M557.379 66.2304C558.526 65.084 558.526 63.2254 557.379 62.079C556.233 60.9326 554.374 60.9326 553.228 62.079C552.082 63.2254 552.082 65.084 553.228 66.2304C554.374 67.3768 556.233 67.3768 557.379 66.2304Z" fill="#E6E8EA"/>
<path d="M526.22 66.8697C527.718 66.2487 528.429 64.5307 527.808 63.0325C527.187 61.5342 525.469 60.8231 523.971 61.4441C522.472 62.0652 521.761 63.7832 522.382 65.2814C523.003 66.7796 524.721 67.4908 526.22 66.8697Z" fill="#B1B8BE"/>
<path d="M527.976 74.6397C528.236 73.0393 527.149 71.5316 525.548 71.2721C523.948 71.0127 522.44 72.0998 522.181 73.7002C521.921 75.3006 523.008 76.8082 524.609 77.0677C526.209 77.3271 527.717 76.2401 527.976 74.6397Z" fill="#B1B8BE"/>
<path d="M538.05 74.6405C538.31 73.0401 537.223 71.5324 535.622 71.2729C534.022 71.0135 532.514 72.1006 532.255 73.701C531.995 75.3014 533.083 76.809 534.683 77.0685C536.283 77.3279 537.791 76.2408 538.05 74.6405Z" fill="#D5D5D7"/>
<path d="M547.303 76.2515C548.45 75.1051 548.45 73.2465 547.303 72.1001C546.157 70.9537 544.298 70.9537 543.152 72.1001C542.005 73.2465 542.005 75.1051 543.152 76.2515C544.298 77.3979 546.157 77.3979 547.303 76.2515Z" fill="#4D77FF"/>
<path d="M558.168 74.875C558.541 73.2973 557.564 71.716 555.986 71.3431C554.409 70.9702 552.828 71.9468 552.455 73.5245C552.082 75.1022 553.058 76.6835 554.636 77.0564C556.214 77.4294 557.795 76.4527 558.168 74.875Z" fill="#E6E8EA"/>
<path d="M538.05 74.6405C538.31 73.0401 537.223 71.5324 535.622 71.2729C534.022 71.0135 532.514 72.1006 532.255 73.701C531.995 75.3014 533.083 76.809 534.683 77.0685C536.283 77.3279 537.791 76.2408 538.05 74.6405Z" fill="#B1B8BE"/>
<path d="M526.227 86.4736C527.726 85.8525 528.437 84.1345 527.816 82.6363C527.195 81.1381 525.477 80.4269 523.978 81.048C522.48 81.669 521.769 83.387 522.39 84.8852C523.011 86.3835 524.729 87.0946 526.227 86.4736Z" fill="#4D77FF"/>
<path d="M536.305 86.4703C537.804 85.8493 538.515 84.1313 537.894 82.633C537.273 81.1348 535.555 80.4237 534.057 81.0447C532.558 81.6657 531.847 83.3837 532.468 84.882C533.089 86.3802 534.807 87.0913 536.305 86.4703Z" fill="#E6E8EA"/>
<path d="M548.086 84.453C548.459 82.8753 547.482 81.294 545.904 80.9211C544.327 80.5482 542.745 81.5248 542.373 83.1025C542 84.6802 542.976 86.2615 544.554 86.6344C546.132 87.0074 547.713 86.0307 548.086 84.453Z" fill="#E6E8EA"/>
<path d="M557.378 85.8297C558.524 84.6833 558.524 82.8247 557.378 81.6783C556.231 80.5319 554.372 80.5319 553.226 81.6783C552.08 82.8247 552.08 84.6833 553.226 85.8297C554.372 86.9761 556.231 86.9761 557.378 85.8297Z" fill="#E6E8EA"/>
<path d="M581.746 64.2537H568.746C568.163 64.2537 567.691 63.7816 567.691 63.1993C567.691 62.6171 568.163 62.145 568.746 62.145H581.746C582.329 62.145 582.801 62.6171 582.801 63.1993C582.801 63.7816 582.329 64.2537 581.746 64.2537Z" fill="#ADC0FF"/>
<path d="M581.746 69.6104H568.746C568.163 69.6104 567.691 69.1384 567.691 68.5561C567.691 67.9739 568.163 67.5018 568.746 67.5018H581.746C582.329 67.5018 582.801 67.9739 582.801 68.5561C582.801 69.1384 582.329 69.6104 581.746 69.6104Z" fill="#ADC0FF"/>
<path d="M581.746 74.9672H568.746C568.163 74.9672 567.691 74.4952 567.691 73.9129C567.691 73.3306 568.163 72.8586 568.746 72.8586H581.746C582.329 72.8586 582.801 73.3306 582.801 73.9129C582.801 74.4952 582.329 74.9672 581.746 74.9672Z" fill="#ADC0FF"/>
<path d="M581.746 80.3239H568.746C568.163 80.3239 567.691 79.8519 567.691 79.2696C567.691 78.6874 568.163 78.2153 568.746 78.2153H581.746C582.329 78.2153 582.801 78.6874 582.801 79.2696C582.801 79.8519 582.329 80.3239 581.746 80.3239Z" fill="#ADC0FF"/>
<path d="M581.746 85.6807H568.746C568.163 85.6807 567.691 85.2087 567.691 84.6264C567.691 84.0441 568.163 83.5721 568.746 83.5721H581.746C582.329 83.5721 582.801 84.0441 582.801 84.6264C582.801 85.2087 582.329 85.6807 581.746 85.6807Z" fill="#ADC0FF"/>
<path d="M533.409 48.8158H520.517C519.935 48.8158 519.463 48.3437 519.463 47.7614C519.463 47.1792 519.935 46.7071 520.517 46.7071H533.409C533.991 46.7071 534.463 47.1792 534.463 47.7614C534.463 48.3437 533.991 48.8158 533.409 48.8158Z" fill="#466CE8"/>
<path d="M583.772 48.8158H570.88C570.298 48.8158 569.826 48.3437 569.826 47.7614C569.826 47.1792 570.298 46.7071 570.88 46.7071H583.772C584.355 46.7071 584.826 47.1792 584.826 47.7614C584.826 48.3437 584.355 48.8158 583.772 48.8158Z" fill="#466CE8"/>
<circle opacity="0.28" cx="720.402" cy="65.0335" r="63.3788" fill="#C8D5FF" stroke="url(#paint4_linear_862_4682)" stroke-width="3"/>
<path d="M703.595 95.3318L693.605 93.3722V76.4325C693.605 75.2473 694.566 74.2867 695.751 74.2867H701.449C702.635 74.2867 703.595 75.2473 703.595 76.4325V95.3318Z" fill="#ADC0FF"/>
<path d="M719.111 95.3318L709.121 93.3722V63.2425C709.121 62.0574 710.082 61.0967 711.267 61.0967H716.965C718.15 61.0967 719.111 62.0574 719.111 63.2425V95.3318Z" fill="#ADC0FF"/>
<path d="M734.623 95.3317L724.633 93.3721V73.0883C724.633 71.9031 725.593 70.9424 726.779 70.9424H732.477C733.662 70.9424 734.623 71.9031 734.623 73.0883V95.3317Z" fill="#ADC0FF"/>
<path d="M750.136 95.3318L740.146 93.3721V55.666C740.146 54.4808 741.107 53.5202 742.292 53.5202H747.99C749.176 53.5202 750.136 54.4808 750.136 55.666V95.3318Z" fill="#466CE8"/>
<path d="M703.596 76.4318V95.3316H700.685V76.4318C700.685 75.2479 699.724 74.2872 698.539 74.2872H701.45C702.635 74.2872 703.596 75.248 703.596 76.4318Z" fill="#7192FF"/>
<path d="M719.112 63.243V95.3316H716.201V63.243C716.201 62.0577 715.24 61.097 714.055 61.097H716.966C718.151 61.097 719.112 62.0577 719.112 63.243Z" fill="#7192FF"/>
<path d="M734.623 73.0889V95.3317H731.712V73.0889C731.712 71.9036 730.752 70.943 729.566 70.943H732.477C733.663 70.943 734.623 71.9036 734.623 73.0889Z" fill="#7192FF"/>
<path d="M750.137 55.6661V95.3318H747.224V55.6661C747.224 54.4808 746.263 53.5202 745.078 53.5202H747.991C749.176 53.5202 750.137 54.4808 750.137 55.6661Z" fill="#3754B5"/>
<path d="M756.405 95.2369C756.459 96.3628 755.562 97.2916 754.449 97.2916H686.352C685.269 97.2916 684.393 96.4135 684.393 95.3311V48.7543C684.393 47.6994 685.204 46.7909 686.257 46.7417C687.383 46.6881 688.312 47.585 688.312 48.6993V92.6085C688.312 93.0302 688.654 93.3721 689.076 93.3721H754.392C755.449 93.3721 756.356 94.1835 756.405 95.2369Z" fill="#C8D5FF"/>
<path d="M689.076 93.3721H684.393V48.7543C684.393 47.6994 685.204 46.7909 686.257 46.7417C687.383 46.6881 688.312 47.585 688.312 48.6993V92.6085C688.312 93.03 688.654 93.3721 689.076 93.3721Z" fill="#C8D5FF"/>
<path d="M754.449 93.3721H750.326C751.408 93.3721 752.286 94.2493 752.286 95.3317C752.286 96.4139 751.409 97.2913 750.326 97.2913H754.449C755.532 97.2913 756.409 96.414 756.409 95.3317C756.409 94.2493 755.532 93.3721 754.449 93.3721Z" fill="#ADC0FF"/>
<path d="M747.033 33.7087L739.61 32.7904C738.538 32.6564 737.561 33.4193 737.429 34.4915C737.296 35.5637 738.058 36.5404 739.13 36.673L741.562 36.9739C741.806 37.0041 741.886 37.3178 741.686 37.4614L723.312 50.6896C723.169 50.7921 722.972 50.7674 722.859 50.6331L716.923 43.5566C716.283 42.7945 715.174 42.6334 714.344 43.1827L694.857 56.0822C693.956 56.6784 693.709 57.8921 694.306 58.7932C694.682 59.3617 695.304 59.6697 695.939 59.6697C696.309 59.6697 696.684 59.5645 697.016 59.3444L714.798 47.5738C714.94 47.4797 715.13 47.5073 715.24 47.6378L721.229 54.7773C721.887 55.5618 723.039 55.7061 723.871 55.1076L743.725 40.8141C743.916 40.6764 744.18 40.8325 744.151 41.0665L743.94 42.7727C743.818 43.7598 744.423 44.7174 745.386 44.9662C745.553 45.0093 745.716 45.0285 745.876 45.0285C746.85 45.0285 747.693 44.303 747.815 43.3124L748.734 35.8902C748.866 34.8181 748.105 33.8414 747.033 33.7087Z" fill="#2A418C"/>
<path d="M711.228 48.0146L694.531 59.0669C694.907 59.4579 695.418 59.6697 695.941 59.6697C696.311 59.6697 696.686 59.5645 697.018 59.3444L714.8 47.5738H712.692C712.171 47.5738 711.662 47.7271 711.228 48.0146Z" fill="#20326B"/>
<path d="M747.034 33.7087L739.612 32.7904C739.196 32.7383 738.795 32.8227 738.451 33.0064L744.127 33.7087C745.2 33.8413 745.961 34.8179 745.829 35.8901L744.91 43.3124C744.859 43.7257 744.681 44.0916 744.422 44.3792C744.726 44.7176 745.148 44.9532 745.635 45.0136C745.717 45.0237 745.798 45.0286 745.878 45.0286C746.851 45.0286 747.694 44.3031 747.817 43.3125L748.735 35.8903C748.868 34.8179 748.106 33.8413 747.034 33.7087Z" fill="#20326B"/>
<path d="M741.485 40.814C741.052 40.814 740.63 40.9502 740.278 41.2031L721.307 54.861C721.975 55.5696 723.071 55.6835 723.871 55.1075L743.725 40.814H741.485Z" fill="#20326B"/>
<circle opacity="0.28" cx="889.084" cy="65.0335" r="63.3788" fill="#C8D5FF" stroke="url(#paint5_linear_862_4682)" stroke-width="3"/>
<path d="M880.115 93.6964C879.986 94.7592 879.403 95.8675 878.517 96.4684L877.061 97.4566C879.149 97.4566 898.008 97.4566 901.109 97.4566L899.652 96.4684C898.766 95.8675 898.184 94.7592 898.055 93.6963L897.347 87.7086H880.823L880.115 93.6964Z" fill="#CDD1D5"/>
<path d="M884.815 94.4183L885.523 87.7086H880.823L880.115 93.6964C879.986 94.7592 879.403 95.8675 878.517 96.4684L877.061 97.4566C880.43 97.4566 879.937 97.4566 883.301 97.4566C884.14 96.7701 884.691 95.5711 884.815 94.4183Z" fill="#B1B8BE"/>
<path d="M922.842 87.8619H855.331C852.948 87.8619 850.998 85.9123 850.998 83.5294V37.1207C850.998 34.7378 852.948 32.7882 855.331 32.7882H922.842C925.225 32.7882 927.175 34.7378 927.175 37.1207V83.5294C927.175 85.9123 925.225 87.8619 922.842 87.8619Z" fill="white"/>
<path d="M855.378 83.5294V37.1207C855.378 34.7378 857.327 32.7882 859.71 32.7882H855.331C852.948 32.7882 850.998 34.7378 850.998 37.1207V83.5295C850.998 85.9124 852.948 87.8621 855.331 87.8621H859.71C857.327 87.8619 855.378 85.9123 855.378 83.5294Z" fill="#CDD1D5"/>
<path d="M922.842 32.7882H855.331C852.948 32.7882 850.998 34.7378 850.998 37.1207V79.1119H927.175V37.1207C927.175 34.7378 925.225 32.7882 922.842 32.7882Z" fill="#464C53"/>
<path d="M850.998 37.1207V79.1118H855.377V37.1207C855.377 34.7378 857.327 32.7881 859.71 32.7881C855.195 32.7956 854.59 32.6355 853.366 33.2636C851.964 33.9832 850.998 35.4442 850.998 37.1207Z" fill="#58616A"/>
<path d="M922.057 74.7392H856.118C855.71 74.7392 855.379 74.4081 855.379 73.9998V37.8763C855.379 37.4679 855.71 37.137 856.118 37.137H922.057C922.466 37.137 922.797 37.468 922.797 37.8763V73.9997C922.797 74.4081 922.466 74.7392 922.057 74.7392Z" fill="#EDF1FF"/>
<path d="M859.977 73.9997V37.8763C859.977 37.4679 860.308 37.137 860.717 37.137H856.118C855.71 37.137 855.379 37.468 855.379 37.8763V73.9997C855.379 74.408 855.71 74.739 856.118 74.739H860.717C860.308 74.7392 859.977 74.4081 859.977 73.9997Z" fill="#C8D5FF"/>
<path d="M903.262 97.3032C895.2 97.3032 883.017 97.3032 874.911 97.3032C873.708 97.3032 872.725 98.2871 872.725 99.4896C872.725 100.692 873.709 101.676 874.911 101.676C883.134 101.676 895.236 101.676 903.262 101.676C904.465 101.676 905.449 100.692 905.449 99.4896C905.449 98.2871 904.465 97.3032 903.262 97.3032Z" fill="white"/>
<path d="M881.294 99.4897C881.294 98.2873 882.278 97.3034 883.48 97.3034C882.113 97.3034 877.03 97.3034 874.911 97.3034C873.708 97.3034 872.725 98.2873 872.725 99.4897C872.725 100.692 873.709 101.676 874.911 101.676C877.016 101.676 882.093 101.676 883.48 101.676C882.278 101.676 881.294 100.692 881.294 99.4897Z" fill="#CDD1D5"/>
<path d="M889.088 84.6395C889.727 84.6395 890.245 84.1211 890.245 83.4817C890.245 82.8422 889.727 82.3239 889.088 82.3239C888.448 82.3239 887.93 82.8422 887.93 83.4817C887.93 84.1211 888.448 84.6395 889.088 84.6395Z" fill="#CDD1D5"/>
<path d="M855.379 37.8763V41.4857H922.797V37.8763C922.797 37.468 922.466 37.137 922.057 37.137H856.118C855.71 37.137 855.379 37.468 855.379 37.8763Z" fill="#ADC0FF"/>
<path d="M855.378 41.4858H859.976V37.8763C859.976 37.4679 860.307 37.137 860.716 37.137H856.117C855.749 37.137 855.445 37.4078 855.39 37.7607C855.366 37.9081 855.384 37.633 855.378 41.4858Z" fill="#88A4FF"/>
<path d="M872.698 71.3562H869.622C869.34 71.3562 869.109 71.1255 869.109 70.8435V67.7673C869.109 67.4853 869.34 67.2546 869.622 67.2546H872.698C872.98 67.2546 873.211 67.4853 873.211 67.7673V70.8435C873.211 71.1255 872.98 71.3562 872.698 71.3562Z" fill="#88A4FF"/>
<path d="M887.038 71.3563H883.962C883.68 71.3563 883.449 71.1255 883.449 70.8436V67.7673C883.449 67.4854 883.68 67.2546 883.962 67.2546H887.038C887.32 67.2546 887.551 67.4854 887.551 67.7673V70.8436C887.551 71.1255 887.32 71.3563 887.038 71.3563Z" fill="#58616A"/>
<path d="M901.378 71.3563H898.302C898.02 71.3563 897.789 71.1255 897.789 70.8436V67.7673C897.789 67.4854 898.02 67.2546 898.302 67.2546H901.378C901.66 67.2546 901.891 67.4854 901.891 67.7673V70.8436C901.891 71.1255 901.66 71.3563 901.378 71.3563Z" fill="#4D77FF"/>
<path d="M879.87 71.3563H876.794C876.512 71.3563 876.281 71.1255 876.281 70.8436V67.7673C876.281 67.4854 876.512 67.2546 876.794 67.2546H879.87C880.152 67.2546 880.383 67.4854 880.383 67.7673V70.8436C880.383 71.1255 880.152 71.3563 879.87 71.3563Z" fill="#34363D"/>
<path d="M894.21 71.3563H891.134C890.852 71.3563 890.621 71.1255 890.621 70.8435V67.7673C890.621 67.4854 890.852 67.2546 891.134 67.2546H894.21C894.492 67.2546 894.723 67.4854 894.723 67.7673V70.8435C894.723 71.1255 894.492 71.3563 894.21 71.3563Z" fill="#B1B8BE"/>
<path d="M908.55 71.3563H905.474C905.192 71.3563 904.961 71.1255 904.961 70.8436V67.7673C904.961 67.4854 905.192 67.2546 905.474 67.2546H908.55C908.832 67.2546 909.063 67.4854 909.063 67.7673V70.8436C909.063 71.1255 908.832 71.3563 908.55 71.3563Z" fill="#88A4FF"/>
<circle opacity="0.28" cx="1057.77" cy="65.0335" r="63.3788" fill="#C8D5FF" stroke="url(#paint6_linear_862_4682)" stroke-width="3"/>
<path d="M1078.49 89.8977H1036.5C1034.96 89.8977 1033.72 88.6535 1033.72 87.1185V27.4895C1033.72 25.9547 1034.96 24.7103 1036.5 24.7103H1078.49C1080.02 24.7103 1081.27 25.9545 1081.27 27.4895V87.1185C1081.27 88.6533 1080.02 89.8977 1078.49 89.8977Z" fill="white"/>
<path d="M1024.51 41.6455L1022.77 44.6598C1022.6 44.9418 1022.24 45.0386 1021.96 44.8756L1019.45 43.4289C1017.2 42.1267 1016.43 39.2427 1017.73 36.987L1019.47 33.9728C1019.63 33.6907 1019.99 33.594 1020.27 33.7569L1022.78 35.2036C1025.04 36.5059 1025.81 39.39 1024.51 41.6455Z" fill="#7192FF"/>
<path d="M1020.05 52.7232L1019.3 56.1211C1019.23 56.4391 1018.91 56.6399 1018.59 56.5693L1015.77 55.9429C1013.23 55.3789 1011.62 52.8603 1012.19 50.3178L1012.94 46.9199C1013.01 46.6019 1013.33 46.4011 1013.64 46.4716L1016.47 47.0981C1019.01 47.6621 1020.62 50.1806 1020.05 52.7232Z" fill="#7192FF"/>
<path d="M1018.68 64.9616L1018.99 68.428C1019.02 68.7525 1018.78 69.0394 1018.46 69.0688L1015.58 69.3298C1012.98 69.5648 1010.69 67.6526 1010.46 65.0589L1010.14 61.5925C1010.11 61.268 1010.35 60.9811 1010.68 60.9517L1013.56 60.6907C1016.15 60.4555 1018.44 62.3677 1018.68 64.9616Z" fill="#7192FF"/>
<path d="M1020.92 77.0666L1022.18 80.3104C1022.3 80.6141 1022.15 80.9559 1021.84 81.0741L1019.15 82.1229C1016.72 83.067 1013.99 81.8646 1013.04 79.4372L1011.78 76.1934C1011.66 75.8897 1011.81 75.5479 1012.12 75.4298L1014.81 74.3809C1017.24 73.4369 1019.97 74.6394 1020.92 77.0666Z" fill="#7192FF"/>
<path d="M1026.5 88.2169L1028.58 91.0065C1028.78 91.2676 1028.72 91.6373 1028.46 91.8321L1026.14 93.5623C1024.06 95.1197 1021.1 94.6898 1019.54 92.6024L1017.46 89.8127C1017.27 89.5517 1017.32 89.182 1017.58 88.9872L1019.9 87.2571C1021.99 85.6996 1024.94 86.1294 1026.5 88.2169Z" fill="#7192FF"/>
<path d="M1034.95 97.4693L1037.71 99.5917C1037.97 99.7904 1038.01 100.161 1037.82 100.419L1036.05 102.712C1034.46 104.776 1031.5 105.162 1029.44 103.574L1026.68 101.451C1026.42 101.253 1026.37 100.882 1026.57 100.624L1028.34 98.3311C1029.92 96.2669 1032.89 95.8812 1034.95 97.4693Z" fill="#7192FF"/>
<path d="M1091.03 41.6455L1092.67 44.4817C1092.89 44.8622 1093.37 44.9925 1093.75 44.7729L1096.08 43.429C1098.34 42.1267 1099.11 39.2427 1097.81 36.987L1096.17 34.1509C1095.95 33.7704 1095.47 33.6401 1095.08 33.8597L1092.76 35.2036C1090.5 36.5059 1089.73 39.3901 1091.03 41.6455Z" fill="#7192FF"/>
<path d="M1095.48 52.7231L1096.19 55.9205C1096.29 56.3494 1096.71 56.6199 1097.14 56.5248L1099.77 55.9428C1102.31 55.3788 1103.91 52.8603 1103.35 50.3177L1102.64 47.1204C1102.54 46.6915 1102.12 46.421 1101.69 46.516L1099.07 47.098C1096.52 47.662 1094.92 50.1806 1095.48 52.7231Z" fill="#7192FF"/>
<path d="M1096.86 64.9616L1096.54 68.428C1096.51 68.7525 1096.75 69.0394 1097.08 69.0688L1099.96 69.3298C1102.55 69.5648 1104.85 67.6526 1105.08 65.0589L1105.4 61.5925C1105.42 61.268 1105.19 60.9811 1104.86 60.9517L1101.98 60.6907C1099.39 60.4555 1097.09 62.3677 1096.86 64.9616Z" fill="#7192FF"/>
<path d="M1094.62 77.0666L1093.36 80.3104C1093.24 80.6141 1093.39 80.9559 1093.69 81.0741L1096.39 82.1229C1098.82 83.067 1101.55 81.8646 1102.49 79.4372L1103.76 76.1934C1103.87 75.8897 1103.72 75.5479 1103.42 75.4298L1100.72 74.3809C1098.3 73.4369 1095.56 74.6394 1094.62 77.0666Z" fill="#7192FF"/>
<path d="M1089.03 88.2168L1086.95 91.0065C1086.76 91.2675 1086.81 91.6372 1087.07 91.832L1089.39 93.5621C1091.48 95.1194 1094.43 94.6896 1095.99 92.6021L1098.07 89.8125C1098.27 89.5514 1098.21 89.1817 1097.95 88.9869L1095.63 87.2569C1093.55 85.6995 1090.59 86.1293 1089.03 88.2168Z" fill="#7192FF"/>
<path d="M1080.59 97.4693L1077.83 99.5917C1077.57 99.7904 1077.52 100.161 1077.72 100.419L1079.48 102.712C1081.07 104.776 1084.03 105.162 1086.1 103.574L1088.86 101.451C1089.11 101.253 1089.16 100.882 1088.96 100.624L1087.2 98.3311C1085.61 96.2669 1082.65 95.8812 1080.59 97.4693Z" fill="#7192FF"/>
<path d="M1022.78 35.2036L1020.28 33.7569C1020 33.5941 1019.64 33.6907 1019.47 33.9728L1018.66 35.38L1019.81 36.0438C1022.07 37.3461 1022.84 40.2301 1021.54 42.4858L1020.61 44.0928L1021.96 44.8756C1022.25 45.0386 1022.61 44.9418 1022.77 44.6597L1024.51 41.6455C1025.81 39.39 1025.04 36.5058 1022.78 35.2036Z" fill="#4D77FF"/>
<path d="M1016.47 47.0981L1013.65 46.4716C1013.33 46.4011 1013.02 46.6017 1012.95 46.9199L1012.76 47.7737L1013.5 47.9388C1016.04 48.5027 1017.65 51.0213 1017.08 53.5638L1016.52 56.1079L1018.6 56.5695C1018.92 56.64 1019.23 56.4395 1019.3 56.1213L1020.06 52.7234C1020.62 50.1806 1019.02 47.6621 1016.47 47.0981Z" fill="#4D77FF"/>
<path d="M1018.68 64.9615C1018.45 62.3678 1016.15 60.4556 1013.56 60.6906L1010.68 60.9517C1010.36 60.9803 1010.13 61.2555 1010.15 61.5711L1010.59 61.5311C1013.18 61.2961 1015.47 63.2083 1015.71 65.802L1016.02 69.2684C1016.02 69.2756 1016.02 69.2825 1016.02 69.2898L1018.46 69.0687C1018.79 69.0393 1019.03 68.7524 1019 68.4279L1018.68 64.9615Z" fill="#4D77FF"/>
<path d="M1022.18 80.3104L1020.92 77.0665C1019.98 74.6391 1017.24 73.4368 1014.82 74.3809L1013.48 74.9004C1015.39 74.8717 1017.21 76.0182 1017.95 77.907L1018.68 79.79C1019.09 80.8451 1018.57 82.0331 1017.51 82.4436C1018.06 82.4354 1018.61 82.3321 1019.15 82.1226L1021.85 81.0738C1022.15 80.9558 1022.3 80.614 1022.18 80.3104Z" fill="#4D77FF"/>
<path d="M1028.59 91.0064L1026.51 88.2168C1024.98 86.1695 1022.11 85.7181 1020.03 87.1704C1021.37 87.2498 1022.67 87.8969 1023.53 89.0572L1023.89 89.528C1025.04 91.0699 1024.72 93.2522 1023.18 94.4025C1023.14 94.4326 1023.1 94.4606 1023.05 94.4892C1024.13 94.5527 1025.22 94.2538 1026.15 93.562L1028.47 91.832C1028.73 91.6372 1028.78 91.2677 1028.59 91.0064Z" fill="#4D77FF"/>
<path d="M1037.71 99.5916L1034.95 97.4692C1033.28 96.1824 1031.02 96.1919 1029.38 97.3393C1030.29 97.3916 1031.2 97.7094 1031.98 98.3096L1032.44 98.6678C1033.97 99.841 1034.25 102.028 1033.08 103.552C1032.78 103.944 1032.43 104.275 1032.04 104.544C1033.55 104.63 1035.07 103.996 1036.05 102.712L1037.82 100.419C1038.02 100.161 1037.97 99.7903 1037.71 99.5916Z" fill="#4D77FF"/>
<path d="M1097.81 36.9872L1096.17 34.1509C1095.95 33.7704 1095.47 33.6401 1095.09 33.8597L1093.18 34.9617C1093.19 34.9722 1093.19 34.9805 1093.2 34.9913L1094.84 37.8275C1096.14 40.083 1095.37 42.9672 1093.11 44.2694L1092.69 44.5113C1092.92 44.8672 1093.39 44.9863 1093.76 44.7729L1096.09 43.429C1098.34 42.1267 1099.11 39.2427 1097.81 36.9872Z" fill="#4D77FF"/>
<path d="M1103.35 50.3177L1102.64 47.1204C1102.55 46.6915 1102.12 46.421 1101.69 46.516L1099.07 47.098C1098.64 47.1939 1098.23 47.3476 1097.86 47.547C1098.76 47.3466 1099.66 47.9164 1099.86 48.8195L1100.38 51.1582C1100.85 53.2685 1099.82 55.361 1098 56.3343L1099.77 55.9428C1102.31 55.3787 1103.92 52.8603 1103.35 50.3177Z" fill="#4D77FF"/>
<path d="M1104.87 60.9517L1101.99 60.6907C1100.83 60.5863 1099.74 60.9065 1098.86 61.5213C1098.91 61.5242 1098.96 61.5265 1099.01 61.5311C1100.93 61.7047 1102.34 63.3986 1102.17 65.3144L1102.11 65.8992C1101.98 67.3404 1101.22 68.5705 1100.12 69.3395C1102.65 69.4885 1104.86 67.602 1105.09 65.0587L1105.4 61.5923C1105.43 61.268 1105.19 60.9811 1104.87 60.9517Z" fill="#4D77FF"/>
<path d="M1103.42 75.4298L1100.73 74.3809C1099.21 73.7892 1097.56 74.0408 1096.32 74.9084C1096.8 74.9365 1097.28 75.0379 1097.75 75.2214C1099.55 75.9187 1100.43 77.9374 1099.74 79.7303L1099.52 80.2777C1099.17 81.1838 1098.57 81.9191 1097.83 82.4358C1099.81 82.5525 1101.74 81.3929 1102.5 79.4372L1103.76 76.1934C1103.88 75.8897 1103.73 75.5479 1103.42 75.4298Z" fill="#4D77FF"/>
<path d="M1097.96 88.9869L1095.64 87.2569C1093.97 86.0099 1091.74 86.038 1090.12 87.1698C1091.01 87.221 1091.9 87.5241 1092.66 88.0973C1094.21 89.2476 1094.52 91.4301 1093.37 92.9718L1093.02 93.4426C1092.71 93.8588 1092.34 94.2079 1091.94 94.4896C1093.47 94.5774 1095.01 93.9211 1096 92.6021L1098.08 89.8125C1098.27 89.5514 1098.22 89.1817 1097.96 88.9869Z" fill="#4D77FF"/>
<path d="M1088.97 100.624L1087.2 98.3311C1085.66 96.325 1082.82 95.9047 1080.77 97.3407C1082.08 97.4181 1083.36 98.0435 1084.23 99.1716C1085.4 100.696 1085.12 102.883 1083.59 104.056L1083.13 104.414C1083.07 104.459 1083.01 104.501 1082.95 104.543C1084.04 104.607 1085.16 104.294 1086.1 103.574L1088.86 101.451C1089.12 101.253 1089.17 100.882 1088.97 100.624Z" fill="#4D77FF"/>
<path d="M1058.48 97.985L1054.82 109.612C1054.75 109.804 1054.5 109.862 1054.34 109.72L1052.19 107.784C1052.13 107.724 1052.04 107.696 1051.95 107.707L1049.08 108.069C1048.87 108.095 1048.69 107.902 1048.75 107.71L1052.13 97.0113L1058.48 97.985Z" fill="#3754B5"/>
<path d="M1056.64 98.3391L1060.22 109.611C1060.28 109.804 1060.53 109.862 1060.69 109.72L1062.84 107.784C1062.91 107.724 1063 107.696 1063.09 107.707L1065.96 108.069C1066.17 108.095 1066.34 107.902 1066.28 107.709L1062.88 97.0111L1056.64 98.3391Z" fill="#3754B5"/>
<path d="M1052.13 97.0111L1050.56 101.979L1052.07 101.916C1052.39 101.903 1052.69 102.038 1052.89 102.281L1054.02 103.64C1054.32 104.001 1054.82 104.109 1055.24 103.901L1056.82 103.117C1056.84 103.109 1056.85 103.104 1056.87 103.097L1058.48 97.985L1052.13 97.0111Z" fill="#2A418C"/>
<path d="M1064.46 101.971L1062.88 97.0113L1056.64 98.3392L1058.24 103.374L1059.3 103.901C1059.72 104.109 1060.23 104.001 1060.53 103.64L1061.65 102.281C1061.85 102.038 1062.16 101.903 1062.47 101.916L1064.24 101.989C1064.31 101.993 1064.39 101.984 1064.46 101.971Z" fill="#2A418C"/>
<path d="M1057.78 80.9894L1058.91 81.8795C1059.11 82.0386 1059.37 82.0948 1059.62 82.031L1061.01 81.6749C1061.38 81.5803 1061.76 81.7519 1061.94 82.089L1062.6 83.3591C1062.72 83.5863 1062.94 83.7448 1063.19 83.7876L1064.6 84.0271C1064.98 84.0907 1065.26 84.404 1065.29 84.784L1065.38 86.2144C1065.39 86.4703 1065.53 86.7038 1065.74 86.8458L1066.93 87.6393C1067.25 87.85 1067.38 88.2511 1067.25 88.608L1066.75 89.9516C1066.66 90.1918 1066.69 90.4601 1066.83 90.6765L1067.59 91.8868C1067.8 92.2081 1067.75 92.6277 1067.49 92.8997L1066.48 93.924C1066.31 94.1071 1066.22 94.3637 1066.26 94.6173L1066.47 96.0353C1066.52 96.4119 1066.31 96.7771 1065.96 96.9172L1064.63 97.4453C1064.39 97.5396 1064.21 97.74 1064.14 97.9869L1063.75 99.3673C1063.65 99.7339 1063.31 99.9817 1062.93 99.9659L1061.5 99.9062C1061.24 99.8956 1061 100.005 1060.83 100.203L1059.92 101.307C1059.67 101.6 1059.26 101.688 1058.92 101.519L1057.64 100.882C1057.41 100.768 1057.14 100.768 1056.91 100.882L1055.62 101.519C1055.28 101.688 1054.87 101.6 1054.63 101.307L1053.71 100.203C1053.55 100.005 1053.3 99.8954 1053.05 99.9062L1051.62 99.9659C1051.24 99.9817 1050.89 99.7339 1050.79 99.3673L1050.41 97.9869C1050.34 97.74 1050.16 97.5396 1049.92 97.4453L1048.59 96.9172C1048.23 96.7771 1048.02 96.4119 1048.08 96.0353L1048.29 94.6173C1048.32 94.3637 1048.24 94.1073 1048.06 93.924L1047.06 92.8997C1046.79 92.6277 1046.75 92.2083 1046.95 91.8868L1047.72 90.6765C1047.86 90.4601 1047.88 90.1918 1047.8 89.9516L1047.3 88.608C1047.16 88.2513 1047.29 87.8501 1047.61 87.6393L1048.8 86.8458C1049.02 86.7038 1049.15 86.4703 1049.17 86.2144L1049.26 84.784C1049.28 84.404 1049.57 84.0907 1049.94 84.0271L1051.35 83.7876C1051.61 83.7448 1051.83 83.5863 1051.94 83.3591L1052.61 82.089C1052.78 81.7517 1053.17 81.5801 1053.54 81.6749L1054.93 82.031C1055.18 82.0946 1055.44 82.0386 1055.64 81.8795L1056.76 80.9894C1057.06 80.7531 1057.48 80.7531 1057.78 80.9894Z" fill="#7192FF"/>
<path d="M1057.27 95.7603C1059.79 95.7603 1061.83 93.7224 1061.83 91.2086C1061.83 88.6948 1059.79 86.6569 1057.27 86.6569C1054.76 86.6569 1052.72 88.6948 1052.72 91.2086C1052.72 93.7224 1054.76 95.7603 1057.27 95.7603Z" fill="#2A418C"/>
<path d="M1067.59 91.8865L1066.82 90.6762C1066.69 90.4598 1066.66 90.1915 1066.75 89.9513L1067.25 88.6077C1067.38 88.251 1067.25 87.8499 1066.93 87.6391L1065.74 86.8455C1065.53 86.7035 1065.39 86.47 1065.37 86.2142L1065.28 84.7837C1065.26 84.4038 1064.98 84.0904 1064.6 84.0268L1063.19 83.7875C1062.94 83.7447 1062.72 83.5862 1062.6 83.359L1061.94 82.0889C1061.8 81.8253 1061.53 81.6651 1061.25 81.6521C1062.89 83.4742 1063.89 85.8865 1063.89 88.5329C1063.89 94.211 1059.29 98.8141 1053.61 98.8141C1052.53 98.8141 1051.48 98.6457 1050.5 98.3352L1050.79 99.3673C1050.89 99.7338 1051.23 99.9818 1051.61 99.9658L1053.05 99.9061C1053.3 99.8955 1053.55 100.005 1053.71 100.202L1054.63 101.307C1054.87 101.6 1055.28 101.688 1055.62 101.519L1056.91 100.881C1057.14 100.768 1057.41 100.768 1057.64 100.881L1058.92 101.519C1059.26 101.688 1059.67 101.6 1059.92 101.307L1060.83 100.202C1060.99 100.005 1061.24 99.8953 1061.5 99.9061L1062.93 99.9658C1063.31 99.9816 1063.65 99.7338 1063.75 99.3673L1064.14 97.9868C1064.21 97.7399 1064.39 97.5395 1064.62 97.4452L1065.96 96.9172C1066.31 96.7769 1066.52 96.4116 1066.47 96.0352L1066.26 94.6172C1066.22 94.3636 1066.3 94.1072 1066.48 93.9239L1067.49 92.8997C1067.75 92.6274 1067.8 92.2081 1067.59 91.8865Z" fill="#4D77FF"/>
<path d="M1057.27 46.0654C1054.5 46.0654 1052.26 43.8243 1052.26 41.0596C1052.26 38.2948 1054.5 36.0537 1057.27 36.0537C1060.03 36.0537 1062.28 38.2948 1062.28 41.0596C1062.28 43.8243 1060.03 46.0654 1057.27 46.0654Z" fill="#4D77FF"/>
<path d="M1066.05 55.4446H1048.5C1047.69 55.4446 1047.04 54.7934 1047.04 53.9899C1047.04 53.1865 1047.69 52.5353 1048.5 52.5353H1066.05C1066.86 52.5353 1067.51 53.1865 1067.51 53.9899C1067.51 54.7934 1066.86 55.4446 1066.05 55.4446Z" fill="#6D7882"/>
<path d="M1072.45 64.5959H1042.1C1041.3 64.5959 1040.64 63.9447 1040.64 63.1413C1040.64 62.3379 1041.3 61.6866 1042.1 61.6866H1072.45C1073.25 61.6866 1073.9 62.3379 1073.9 63.1413C1073.9 63.9447 1073.25 64.5959 1072.45 64.5959Z" fill="#B1B8BE"/>
<path d="M1072.45 71.591H1042.1C1041.3 71.591 1040.64 70.9397 1040.64 70.1363C1040.64 69.3329 1041.3 68.6817 1042.1 68.6817H1072.45C1073.25 68.6817 1073.9 69.3329 1073.9 70.1363C1073.9 70.9399 1073.25 71.591 1072.45 71.591Z" fill="#B1B8BE"/>
<circle opacity="0.28" cx="1226.45" cy="65.0335" r="63.3788" fill="#C8D5FF" stroke="url(#paint7_linear_862_4682)" stroke-width="3"/>
<path d="M1201.41 49.2789L1198.69 46.555C1197.97 45.8348 1197.97 44.6668 1198.69 43.9465L1199.88 42.7557C1200.6 42.0354 1201.77 42.0354 1202.49 42.7557L1205.21 45.4795L1201.41 49.2789Z" fill="#34363D"/>
<path d="M1202.49 42.7556C1201.84 42.1116 1200.84 42.0452 1200.12 42.5528C1200.21 42.613 1200.29 42.6793 1200.36 42.7556C1201.87 44.2599 1201.87 46.699 1200.36 48.2033L1200.35 48.2185L1201.41 49.2788L1205.21 45.4793L1202.49 42.7556Z" fill="#1F2124"/>
<path d="M1229.11 32.1214H1223.8V37.9518H1229.11V32.1214Z" fill="#B1B8BE"/>
<path d="M1229.11 32.1214H1227.04V37.9518H1229.11V32.1214Z" fill="#8A949E"/>
<path d="M1251.42 49.1701L1247.66 45.4126L1250.32 42.7556C1251.04 42.0353 1252.21 42.0353 1252.93 42.7556L1254.08 43.9045C1254.8 44.6248 1254.8 45.7928 1254.08 46.5131L1251.42 49.1701Z" fill="#34363D"/>
<path d="M1254.08 43.9045L1252.93 42.7555C1252.4 42.2243 1251.62 42.0861 1250.96 42.3385C1251.03 42.3856 1251.08 42.4355 1251.14 42.4914C1252.5 43.8463 1252.5 46.0428 1251.14 47.3977L1250.39 48.1435L1251.42 49.17L1254.08 46.513C1254.8 45.7927 1254.8 44.6249 1254.08 43.9045Z" fill="#1F2124"/>
<path d="M1226.46 104.552C1244.96 104.552 1259.95 89.5539 1259.95 71.0524C1259.95 52.5509 1244.96 37.5525 1226.46 37.5525C1207.95 37.5525 1192.96 52.5509 1192.96 71.0524C1192.96 89.5539 1207.95 104.552 1226.46 104.552Z" fill="#7192FF"/>
<path d="M1226.46 101.474C1243.26 101.474 1256.88 87.8539 1256.88 71.0524C1256.88 54.2509 1243.26 40.6306 1226.46 40.6306C1209.66 40.6306 1196.04 54.2509 1196.04 71.0524C1196.04 87.8539 1209.66 101.474 1226.46 101.474Z" fill="#4D77FF"/>
<path d="M1226.63 98.1212C1241.58 98.1212 1253.7 86.0021 1253.7 71.0524C1253.7 56.1026 1241.58 43.9835 1226.63 43.9835C1211.68 43.9835 1199.56 56.1026 1199.56 71.0524C1199.56 86.0021 1211.68 98.1212 1226.63 98.1212Z" fill="white"/>
<path d="M1224.88 67.6508L1212.7 57.4732C1212.18 57.0416 1211.41 57.1104 1210.98 57.6274C1210.55 58.1444 1210.62 58.9136 1211.13 59.3454L1223.32 69.5231C1223.55 69.7137 1223.82 69.8066 1224.1 69.8066C1224.45 69.8066 1224.8 69.6575 1225.04 69.3688C1225.47 68.8519 1225.4 68.0826 1224.88 67.6508Z" fill="#ADC0FF"/>
<path d="M1226.63 55.1447C1225.95 55.1447 1225.41 55.6908 1225.41 56.3643V67.5236C1225.41 68.1973 1225.95 68.7433 1226.63 68.7433C1227.3 68.7433 1227.85 68.1972 1227.85 67.5236V56.3643C1227.85 55.6908 1227.3 55.1447 1226.63 55.1447Z" fill="#ADC0FF"/>
<path d="M1226.63 75.3581C1229.01 75.3581 1230.93 73.4304 1230.93 71.0524C1230.93 68.6745 1229.01 66.7467 1226.63 66.7467C1224.25 66.7467 1222.32 68.6745 1222.32 71.0524C1222.32 73.4304 1224.25 75.3581 1226.63 75.3581Z" fill="#7192FF"/>
<path d="M1226.63 72.8753C1227.63 72.8753 1228.45 72.0591 1228.45 71.0523C1228.45 70.0455 1227.63 69.2294 1226.63 69.2294C1225.62 69.2294 1224.8 70.0455 1224.8 71.0523C1224.8 72.0591 1225.62 72.8753 1226.63 72.8753Z" fill="#4D77FF"/>
<path d="M1230.76 32.35H1222.15C1221.32 32.35 1220.65 31.681 1220.65 30.8557V27.0089C1220.65 26.1837 1221.32 25.5146 1222.15 25.5146H1230.76C1231.59 25.5146 1232.26 26.1837 1232.26 27.0089V30.8557C1232.26 31.681 1231.59 32.35 1230.76 32.35Z" fill="#34363D"/>
<path d="M1230.77 25.5146H1227.15C1227.97 25.5146 1228.64 26.1837 1228.64 27.0089V30.8557C1228.64 31.681 1227.97 32.35 1227.15 32.35H1230.77C1231.59 32.35 1232.26 31.681 1232.26 30.8557V27.0089C1232.26 26.1837 1231.59 25.5146 1230.77 25.5146Z" fill="#1F2124"/>
<path d="M1205.63 72.4667C1206.41 72.4667 1207.05 71.8335 1207.05 71.0523C1207.05 70.2712 1206.41 69.638 1205.63 69.638C1204.85 69.638 1204.22 70.2712 1204.22 71.0523C1204.22 71.8335 1204.85 72.4667 1205.63 72.4667Z" fill="#34363D"/>
<path d="M1247.72 72.4667C1248.5 72.4667 1249.14 71.8335 1249.14 71.0523C1249.14 70.2712 1248.5 69.638 1247.72 69.638C1246.94 69.638 1246.31 70.2712 1246.31 71.0523C1246.31 71.8335 1246.94 72.4667 1247.72 72.4667Z" fill="#34363D"/>
<path d="M1226.63 51.4213C1227.41 51.4213 1228.04 50.7881 1228.04 50.007C1228.04 49.2259 1227.41 48.5927 1226.63 48.5927C1225.85 48.5927 1225.21 49.2259 1225.21 50.007C1225.21 50.7881 1225.85 51.4213 1226.63 51.4213Z" fill="#34363D"/>
<path d="M1226.63 93.512C1227.41 93.512 1228.04 92.8788 1228.04 92.0977C1228.04 91.3166 1227.41 90.6833 1226.63 90.6833C1225.85 90.6833 1225.21 91.3166 1225.21 92.0977C1225.21 92.8788 1225.85 93.512 1226.63 93.512Z" fill="#34363D"/>
<circle opacity="0.28" cx="1395.14" cy="65.0347" r="63.38" fill="#C8D5FF" stroke="url(#paint8_linear_862_4682)" stroke-width="3"/>
<path d="M1431.63 39.4014L1428.84 42.8413H1361.12L1355.26 39.4014V34.9512C1355.26 34.2629 1355.82 33.705 1356.51 33.705H1429.52L1431.63 39.4014Z" fill="#ADC0FF"/>
<path d="M1429.52 33.705V39.4012L1423.33 42.8411H1428.83L1435.02 39.4012V34.9512C1435.02 34.2629 1434.46 33.705 1433.77 33.705H1429.52Z" fill="#88A4FF"/>
<path d="M1430.07 96.364H1356.55C1355.84 96.364 1355.26 95.7893 1355.26 95.0804V39.4014H1429.52L1432.33 67.8828C1432.33 67.8828 1430.78 96.364 1430.07 96.364Z" fill="#C8D5FF"/>
<path d="M1429.52 39.4014V95.0804C1429.52 95.7893 1428.94 96.364 1428.23 96.364H1433.74C1434.44 96.364 1435.02 95.7893 1435.02 95.0804V39.4014H1429.52Z" fill="#ADC0FF"/>
<path d="M1391.03 89.1967L1387.28 90.3121C1386.62 90.5086 1385.93 90.1332 1385.73 89.4736L1380.63 72.3366L1389.04 69.8305L1391.9 87.8065C1392 88.4237 1391.62 89.0182 1391.03 89.1967Z" fill="#3754B5"/>
<path d="M1405.96 71.7964L1377.04 74.469L1373.79 63.5508L1399.46 49.9598L1405.44 59.1922L1405.96 71.7964Z" fill="#4D77FF"/>
<path d="M1381.36 74.8128L1377.22 60.8958C1377.02 60.2164 1376.3 59.8296 1375.62 60.032L1371.47 61.2679C1370.79 61.4703 1370.41 62.1853 1370.61 62.8646L1371.06 64.364C1368.04 65.2622 1366.32 68.4345 1367.22 71.4496C1368.12 74.4645 1371.29 76.1806 1374.31 75.2824L1374.76 76.7818C1374.96 77.4611 1375.67 77.848 1376.35 77.6456L1380.5 76.4097C1381.18 76.2071 1381.57 75.4921 1381.36 74.8128Z" fill="#7192FF"/>
<path d="M1404.83 48.0569L1405.44 60.065L1411.5 70.4468C1414.52 69.5486 1415.47 63.8082 1413.63 57.6254C1411.78 51.4426 1407.85 47.1585 1404.83 48.0569Z" fill="white"/>
<path d="M1411 73.2662L1408 74.1595C1407.32 74.362 1406.61 73.9753 1406.41 73.2957L1399.01 48.4604C1398.81 47.781 1399.19 47.0661 1399.87 46.8636L1402.87 45.9703C1403.55 45.7679 1404.27 46.1545 1404.47 46.8341L1411.87 71.6694C1412.07 72.3488 1411.68 73.0638 1411 73.2662Z" fill="#7192FF"/>
<path d="M1420.6 56.6959L1423.69 55.7746C1424.42 55.5578 1424.83 54.7917 1424.62 54.0637C1424.4 53.3358 1423.63 52.9219 1422.91 53.1382L1419.81 54.0595C1419.09 54.2763 1418.67 55.0424 1418.89 55.7703C1419.11 56.5001 1419.87 56.912 1420.6 56.6959Z" fill="#20326B"/>
<path d="M1413.05 47.9994C1413.72 48.3601 1414.56 48.1135 1414.92 47.4441L1416.45 44.6054C1416.81 43.9373 1416.57 43.1027 1415.9 42.7413C1415.23 42.3797 1414.39 42.6286 1414.03 43.2966L1412.5 46.1353C1412.14 46.8034 1412.39 47.638 1413.05 47.9994Z" fill="#20326B"/>
<path d="M1418.97 67.8606L1421.81 69.3961C1422.48 69.7575 1423.31 69.5089 1423.67 68.8408C1424.03 68.1726 1423.78 67.338 1423.12 66.9766L1420.28 65.4411C1419.61 65.0795 1418.78 65.3284 1418.41 65.9964C1418.05 66.6647 1418.3 67.4992 1418.97 67.8606Z" fill="#20326B"/>
<path d="M1423.63 80.748H1412.24C1411.48 80.748 1410.86 81.3638 1410.86 82.1232C1410.86 82.8829 1411.48 83.4985 1412.24 83.4985H1423.63C1424.39 83.4985 1425 82.8827 1425 82.1232C1425 81.3638 1424.39 80.748 1423.63 80.748Z" fill="#ADC0FF"/>
<path d="M1423.63 86.4442H1415.24C1414.48 86.4442 1413.87 87.06 1413.87 87.8195C1413.87 88.5791 1414.48 89.1948 1415.24 89.1948H1423.63C1424.39 89.1948 1425.01 88.579 1425.01 87.8195C1425.01 87.06 1424.39 86.4442 1423.63 86.4442Z" fill="#ADC0FF"/>
<defs>
<linearGradient id="paint0_linear_862_4682" x1="88.9401" y1="15.7665" x2="7.05154" y2="116.216" gradientUnits="userSpaceOnUse">
<stop stop-color="#ADC0FF"/>
<stop offset="1" stop-color="#C8D5FF" stop-opacity="0"/>
</linearGradient>
<linearGradient id="paint1_linear_862_4682" x1="257.624" y1="15.7665" x2="175.735" y2="116.216" gradientUnits="userSpaceOnUse">
<stop stop-color="#ADC0FF"/>
<stop offset="1" stop-color="#C8D5FF" stop-opacity="0"/>
</linearGradient>
<linearGradient id="paint2_linear_862_4682" x1="426.309" y1="15.7665" x2="344.421" y2="116.216" gradientUnits="userSpaceOnUse">
<stop stop-color="#ADC0FF"/>
<stop offset="1" stop-color="#C8D5FF" stop-opacity="0"/>
</linearGradient>
<linearGradient id="paint3_linear_862_4682" x1="594.993" y1="15.7665" x2="513.104" y2="116.216" gradientUnits="userSpaceOnUse">
<stop stop-color="#ADC0FF"/>
<stop offset="1" stop-color="#C8D5FF" stop-opacity="0"/>
</linearGradient>
<linearGradient id="paint4_linear_862_4682" x1="763.68" y1="15.7665" x2="681.792" y2="116.216" gradientUnits="userSpaceOnUse">
<stop stop-color="#ADC0FF"/>
<stop offset="1" stop-color="#C8D5FF" stop-opacity="0"/>
</linearGradient>
<linearGradient id="paint5_linear_862_4682" x1="932.362" y1="15.7665" x2="850.473" y2="116.216" gradientUnits="userSpaceOnUse">
<stop stop-color="#ADC0FF"/>
<stop offset="1" stop-color="#C8D5FF" stop-opacity="0"/>
</linearGradient>
<linearGradient id="paint6_linear_862_4682" x1="1101.05" y1="15.7665" x2="1019.16" y2="116.216" gradientUnits="userSpaceOnUse">
<stop stop-color="#ADC0FF"/>
<stop offset="1" stop-color="#C8D5FF" stop-opacity="0"/>
</linearGradient>
<linearGradient id="paint7_linear_862_4682" x1="1269.73" y1="15.7665" x2="1187.84" y2="116.216" gradientUnits="userSpaceOnUse">
<stop stop-color="#ADC0FF"/>
<stop offset="1" stop-color="#C8D5FF" stop-opacity="0"/>
</linearGradient>
<linearGradient id="paint8_linear_862_4682" x1="1438.42" y1="15.7667" x2="1356.53" y2="116.219" gradientUnits="userSpaceOnUse">
<stop stop-color="#ADC0FF"/>
<stop offset="1" stop-color="#C8D5FF" stop-opacity="0"/>
</linearGradient>
</defs>
</svg>
